<svg width="24" height="25" viewBox="0 0 24 25" fill="none" xmlns="http://www.w3.org/2000/svg">
<path fill-rule="evenodd" clip-rule="evenodd" d="M3 4.4043C2.44772 4.4043 2 4.85201 2 5.4043V7.4043C2 7.95658 2.44771 8.4043 3 8.4043H20C20.5523 8.4043 21 7.95658 21 7.4043V5.4043C21 4.85201 20.5523 4.4043 20 4.4043H3ZM10 10.4043C9.44772 10.4043 9 10.852 9 11.4043V19.4043C9 19.9566 9.44771 20.4043 10 20.4043H20C20.5523 20.4043 21 19.9566 21 19.4043V11.4043C21 10.852 20.5523 10.4043 20 10.4043H10Z" fill="#6D5DD3"/>
<rect opacity="0.3" x="2" y="10.4043" width="5" height="10" rx="1" fill="#6D5DD3"/>
</svg>
