<svg width="24" height="24" viewBox="0 0 24 24" fill="none" xmlns="http://www.w3.org/2000/svg">
<g id="Property 2=French Bread">
<path id="Combined Shape" fill-rule="evenodd" clip-rule="evenodd" d="M11.1949 6.19264C11.2936 6.26625 11.4076 6.32274 11.5338 6.35655L14.8025 7.23239C15.3359 7.37533 15.8843 7.05875 16.0272 6.52528C16.1702 5.99181 15.8536 5.44348 15.3201 5.30054L13.227 4.73968C16.4949 2.66224 19.4873 2.01774 20.8383 3.36868C22.7909 5.32131 20.5748 10.7032 15.8885 15.3895C11.2022 20.0758 5.82033 22.2919 3.86771 20.3392C2.62492 19.0965 3.07085 16.4645 4.76758 13.5069C4.7892 13.5143 4.81123 13.521 4.83363 13.527L7.73141 14.3035C8.26488 14.4464 8.81321 14.1298 8.95616 13.5963C9.0991 13.0629 8.78252 12.5145 8.24905 12.3716L5.90278 11.7429C6.37444 11.0809 6.90119 10.4134 7.47853 9.7512C7.49631 9.75704 7.51435 9.76242 7.53265 9.76732L11.2669 10.7679C11.8004 10.9109 12.3487 10.5943 12.4917 10.0608C12.6346 9.52735 12.318 8.97901 11.7846 8.83607L9.03806 8.10014C9.74738 7.40567 10.471 6.7679 11.1949 6.19264Z" fill="#111014"/>
</g>
</svg>
