<svg width="24" height="24" viewBox="0 0 24 24" fill="none" xmlns="http://www.w3.org/2000/svg">
<g id="Property 2=Rain#2">
<path id="Combined Shape" fill-rule="evenodd" clip-rule="evenodd" d="M14.811 7.5C14.1449 4.91216 11.7958 3 9 3C5.68629 3 3 5.68629 3 9C3 11.1148 4.0941 12.974 5.74715 14.0426C6.41093 14.6379 7.28818 15 8.25 15H9H17.25C19.3211 15 21 13.3211 21 11.25C21 9.17893 19.3211 7.5 17.25 7.5H14.811Z" fill="#111014"/>
<path id="Combined Shape_2" opacity="0.3" fill-rule="evenodd" clip-rule="evenodd" d="M6.5 21C7.32843 21 8 20.3284 8 19.5C8 18.6716 6.5 17 6.5 17C6.5 17 5 18.6716 5 19.5C5 20.3284 5.67157 21 6.5 21ZM11.5 21C12.3284 21 13 20.3284 13 19.5C13 18.6716 11.5 17 11.5 17C11.5 17 10 18.6716 10 19.5C10 20.3284 10.6716 21 11.5 21ZM18 19.5C18 20.3284 17.3284 21 16.5 21C15.6716 21 15 20.3284 15 19.5C15 18.6716 16.5 17 16.5 17C16.5 17 18 18.6716 18 19.5Z" fill="#111014"/>
</g>
</svg>
