<svg width="24" height="24" viewBox="0 0 24 24" fill="none" xmlns="http://www.w3.org/2000/svg">
<g id="Property 2=Chart-line#2">
<path id="Path 95" d="M5 19H20C20.5523 19 21 19.4477 21 20C21 20.5523 20.5523 21 20 21H4C3.44772 21 3 20.5523 3 20V4C3 3.44772 3.44772 3 4 3C4.55228 3 5 3.44772 5 4V19Z" fill="#111014"/>
<path id="Path 97" opacity="0.3" d="M8.72954 6.81602C8.35181 6.41311 7.71897 6.39269 7.31606 6.77042C6.91315 7.14815 6.89274 7.78099 7.27047 8.1839L11.0205 12.1839C11.3858 12.5736 11.9928 12.6074 12.3991 12.2606L15.3589 9.735L19.2151 14.6196C19.5573 15.0531 20.1862 15.1271 20.6196 14.7848C21.0531 14.4426 21.1271 13.8138 20.7849 13.3803L16.2849 7.68031C15.9334 7.2351 15.2824 7.17107 14.8509 7.53927L11.8268 10.1198L8.72954 6.81602Z" fill="#111014"/>
</g>
</svg>
