<svg width="24" height="24" viewBox="0 0 24 24" fill="none" xmlns="http://www.w3.org/2000/svg">
<g id="Property 2=Fan">
<path id="Oval 32 Copy 3" opacity="0.3" fill-rule="evenodd" clip-rule="evenodd" d="M23.3739 18.8973C22.1313 21.0496 18.4098 21.2274 15.0618 19.2944C11.7137 17.3614 10.0069 14.0496 11.2496 11.8973C12.4922 9.74499 16.2137 9.5672 19.5618 11.5002C22.9098 13.4332 24.6166 16.745 23.3739 18.8973Z" fill="#111014"/>
<path id="Oval 32 Copy 5" opacity="0.3" fill-rule="evenodd" clip-rule="evenodd" d="M12.5 2C10.0147 2 8 5.13401 8 9C8 12.866 10.0147 16 12.5 16C14.9853 16 17 12.866 17 9C17 5.13401 14.9853 2 12.5 2Z" fill="#111014"/>
<path id="Oval 32 Copy 4" opacity="0.3" fill-rule="evenodd" clip-rule="evenodd" d="M1.24959 18.8973C0.00694567 16.745 1.71372 13.4332 5.06176 11.5002C8.40981 9.5672 12.1313 9.74499 13.3739 11.8973C14.6166 14.0496 12.9098 17.3614 9.56176 19.2944C6.21372 21.2274 2.49223 21.0496 1.24959 18.8973Z" fill="#111014"/>
</g>
</svg>
