<svg width="24" height="24" viewBox="0 0 24 24" fill="none" xmlns="http://www.w3.org/2000/svg">
<g id="Property 2=Layout-top-panel-1">
<rect id="Rectangle 7 Copy" x="2" y="4" width="19" height="4" rx="1" fill="#111014"/>
<path id="Combined Shape" opacity="0.3" fill-rule="evenodd" clip-rule="evenodd" d="M2 11C2 10.4477 2.44772 10 3 10H6C6.55228 10 7 10.4477 7 11V19C7 19.5523 6.55228 20 6 20H3C2.44772 20 2 19.5523 2 19V11ZM9 11C9 10.4477 9.44772 10 10 10H13C13.5523 10 14 10.4477 14 11V19C14 19.5523 13.5523 20 13 20H10C9.44772 20 9 19.5523 9 19V11ZM17 10C16.4477 10 16 10.4477 16 11V19C16 19.5523 16.4477 20 17 20H20C20.5523 20 21 19.5523 21 19V11C21 10.4477 20.5523 10 20 10H17Z" fill="#111014"/>
</g>
</svg>
