<svg width="24" height="24" viewBox="0 0 24 24" fill="none" xmlns="http://www.w3.org/2000/svg">
<g id="Property 2=Question-circle">
<path id="Oval 5" opacity="0.3" fill-rule="evenodd" clip-rule="evenodd" d="M12 22C17.5228 22 22 17.5228 22 12C22 6.47715 17.5228 2 12 2C6.47715 2 2 6.47715 2 12C2 17.5228 6.47715 22 12 22Z" fill="#111014"/>
<path id="Combined Shape" fill-rule="evenodd" clip-rule="evenodd" d="M10.5909 13.2089V14.8679H11.8509C14.3919 14.8679 16.3869 12.9149 16.3869 10.3949C16.3869 7.87488 14.3919 5.92188 11.8509 5.92188C9.30994 5.92188 7.33594 7.87488 7.33594 10.3949H9.12094C9.12094 8.79888 10.2339 7.58088 11.8509 7.58088C13.4469 7.58088 14.6019 8.79888 14.6019 10.3949C14.6019 11.9909 13.4469 13.2089 11.8509 13.2089H10.5909ZM11.9999 15.9999C11.4477 15.9999 10.9999 16.4476 10.9999 16.9999C10.9999 17.5522 11.4477 17.9999 11.9999 17.9999C12.5522 17.9999 12.9999 17.5522 12.9999 16.9999C12.9999 16.4476 12.5522 15.9999 11.9999 15.9999Z" fill="#111014"/>
</g>
</svg>
