<svg width="24" height="24" viewBox="0 0 24 24" fill="none" xmlns="http://www.w3.org/2000/svg">
<g id="Property 2=Volume-full">
<path id="Combined Shape" opacity="0.3" fill-rule="evenodd" clip-rule="evenodd" d="M15.7877 19.5384C15.9672 19.9117 16.4154 20.0687 16.7886 19.8892C19.796 18.4425 21.7499 15.397 21.7499 11.9999C21.7499 8.63538 19.8334 5.61409 16.8703 4.15048C16.4989 3.96704 16.0491 4.1194 15.8657 4.49077C15.6822 4.86215 15.8346 5.31192 16.206 5.49536C18.6621 6.70854 20.2499 9.21164 20.2499 11.9999C20.2499 14.8152 18.6311 17.3383 16.1384 18.5374C15.7651 18.717 15.6081 19.1651 15.7877 19.5384ZM15.2948 15.8596C15.4969 16.2211 15.9539 16.3503 16.3154 16.1481C17.806 15.3146 18.7499 13.7396 18.7499 11.9999C18.7499 10.2731 17.82 8.70798 16.3468 7.86942C15.9868 7.66451 15.5289 7.79022 15.324 8.1502C15.1191 8.51018 15.2448 8.96811 15.6047 9.17302C16.614 9.74749 17.2499 10.8178 17.2499 11.9999C17.2499 13.1909 16.6044 14.2679 15.5833 14.8389C15.2218 15.0411 15.0926 15.4981 15.2948 15.8596Z" fill="#111014"/>
<path id="Combined Shape_2" fill-rule="evenodd" clip-rule="evenodd" d="M12 5.41412C12 4.52321 10.9229 4.07704 10.2929 4.70701L7 7.9999H4C2.89543 7.9999 2 8.89533 2 9.9999V13.9999C2 15.1045 2.89543 15.9999 4 15.9999H7L10.2929 19.2928C10.9229 19.9228 12 19.4766 12 18.5857V5.41412Z" fill="#111014"/>
</g>
</svg>
