<svg width="24" height="24" viewBox="0 0 24 24" fill="none" xmlns="http://www.w3.org/2000/svg">
<g id="Property 2=Loader">
<path id="Combined Shape" opacity="0.3" fill-rule="evenodd" clip-rule="evenodd" d="M5 4C4.44772 4 4 4.44772 4 5C4 5.55228 4.44772 6 5 6H7V17C7 17.5523 7.44772 18 8 18C8 18.5523 8.44771 19 9 19H18C18.5523 19 19 18.5523 19 18C19 17.4477 18.5523 17 18 17H9V5C9 4.44772 8.55228 4 8 4H5Z" fill="#111014"/>
<rect id="Rectangle 63 Copy" opacity="0.3" x="11" y="7" width="8" height="8" rx="1.5" fill="#111014"/>
<path id="Oval" fill-rule="evenodd" clip-rule="evenodd" d="M8 21C9.65685 21 11 19.6569 11 18C11 16.3431 9.65685 15 8 15C6.34315 15 5 16.3431 5 18C5 19.6569 6.34315 21 8 21Z" fill="#111014"/>
</g>
</svg>
