<svg width="24" height="24" viewBox="0 0 24 24" fill="none" xmlns="http://www.w3.org/2000/svg">
<g id="Property 2=File-cloud">
<path id="Combined Shape" opacity="0.3" d="M5.85714 2H13.7364C14.0911 2 14.4343 2.12568 14.7051 2.35474L19.4687 6.38394C19.8057 6.66895 20 7.08788 20 7.5292V20.0833C20 21.8739 19.9796 22 18.1429 22H5.85714C4.02045 22 4 21.8739 4 20.0833V3.91667C4 2.12612 4.02045 2 5.85714 2Z" fill="#111014"/>
<path id="Combined Shape_2" fill-rule="evenodd" clip-rule="evenodd" d="M8.63657 15.4632C7.65329 14.8436 7 13.7481 7 12.5C7 10.567 8.567 9 10.5 9C12.2632 9 13.7219 10.3039 13.9646 12H15C16.1046 12 17 12.8954 17 14C17 15.1046 16.1046 16 15 16H10C9.47311 16 8.9938 15.7963 8.63657 15.4632Z" fill="#111014"/>
</g>
</svg>
