<svg width="24" height="24" viewBox="0 0 24 24" fill="none" xmlns="http://www.w3.org/2000/svg">
<g id="Property 2=Bowl">
<path id="Rectangle" opacity="0.3" d="M8 17H16V19C16 19.5523 15.5523 20 15 20H9C8.44772 20 8 19.5523 8 19V17Z" fill="#111014"/>
<path id="Combined Shape" fill-rule="evenodd" clip-rule="evenodd" d="M22 7H2V8C2 13.5228 6.47715 18 12 18C17.5228 18 22 13.5228 22 8V7ZM18.8939 9.08085C18.3863 8.8633 17.7984 9.09845 17.5809 9.60608C16.671 11.7291 15.3334 13.2152 13.5528 14.1056C13.0588 14.3526 12.8586 14.9532 13.1056 15.4472C13.3526 15.9412 13.9532 16.1414 14.4472 15.8944C16.6666 14.7848 18.329 12.9376 19.4191 10.3939C19.6367 9.88629 19.4015 9.29841 18.8939 9.08085Z" fill="#111014"/>
</g>
</svg>
