<svg width="24" height="25" viewBox="0 0 24 25" fill="none" xmlns="http://www.w3.org/2000/svg">
<g id="Property 2=Outgoing-mail">
<path id="Combined Shape" fill-rule="evenodd" clip-rule="evenodd" d="M5 10C3.89543 10 3 10.8954 3 12V21C3 22.1046 3.89543 23 5 23H19C20.1046 23 21 22.1046 21 21V12C21 10.8954 20.1046 10 19 10H5ZM19.1604 12.1444C18.964 11.7797 18.5091 11.6433 18.1444 11.8396L12 15.1482L5.85557 11.8396C5.49087 11.6433 5.03603 11.7797 4.83965 12.1444C4.64327 12.5091 4.77972 12.964 5.14443 13.1604L11.6444 16.6604C11.8664 16.7799 12.1336 16.7799 12.3556 16.6604L18.8556 13.1604C19.2203 12.964 19.3567 12.5091 19.1604 12.1444Z" fill="#111014"/>
<path id="Shape" opacity="0.3" d="M8.65029 4.66924C8.37518 4.99417 8.60614 5.49233 9.03189 5.49233H10.9884V7.5C10.9884 7.77614 11.2122 8 11.4884 8H12.5117C12.7878 8 13.0117 7.77614 13.0117 7.5V5.49233H14.9681C15.3939 5.49233 15.6248 4.99417 15.3497 4.66924L12.3816 1.16358C12.1819 0.927696 11.8181 0.927696 11.6184 1.16358L8.65029 4.66924Z" fill="#111014"/>
</g>
</svg>
