<svg width="24" height="24" viewBox="0 0 24 24" fill="none" xmlns="http://www.w3.org/2000/svg">
<g id="Property 2=Mail-@">
<path id="@" fill-rule="evenodd" clip-rule="evenodd" d="M11.5746 21.1998C6.17461 21.1998 2.84961 17.3998 2.84961 12.5748C2.84961 6.8748 7.37461 3.0498 12.5246 3.0498C17.4496 3.0498 21.1246 6.0748 21.1246 10.8498C21.1246 15.1998 18.8246 16.9248 16.5246 16.9248C15.3996 16.9248 14.4746 16.3998 14.0746 15.6498C13.2996 16.3998 12.1246 16.8748 10.9996 16.8748C8.24961 16.8748 6.84961 14.9248 6.84961 12.5748C6.84961 9.5498 9.04961 7.0998 12.2746 7.0998C13.1996 7.0998 13.9496 7.3498 14.5246 7.7748L14.6246 7.3498H16.9996L15.8246 12.8498C15.5996 13.9498 15.8496 14.8248 16.9246 14.8248C18.2496 14.8248 19.0246 13.7248 19.0246 10.7998C19.0246 6.8998 15.9496 5.0748 12.4996 5.0748C8.62461 5.0748 5.04961 7.7498 5.04961 12.5748C5.04961 16.5248 7.57461 19.0998 11.5746 19.0998C13.0746 19.0998 14.6246 18.7748 15.9746 18.0748L16.7996 20.0998C15.2496 20.7998 13.1996 21.1998 11.5746 21.1998ZM11.3996 14.5248C12.0496 14.5248 12.6996 14.3498 13.2246 13.8248L14.0246 10.1248C13.5746 9.6498 12.9246 9.4248 12.2996 9.4248C10.6496 9.4248 9.44961 10.6998 9.44961 12.3748C9.44961 13.6748 10.0746 14.5248 11.3996 14.5248Z" fill="#111014"/>
</g>
</svg>
