<svg width="24" height="24" viewBox="0 0 24 24" fill="none" xmlns="http://www.w3.org/2000/svg">
<g id="Property 2=Printer">
<path id="Combined Shape" fill-rule="evenodd" clip-rule="evenodd" d="M5 6C3.89543 6 3 6.89543 3 8V15C3 16.1046 3.89543 17 5 17H8V21C8 21.5523 8.44772 22 9 22H15C15.5523 22 16 21.5523 16 21V17H19C20.1046 17 21 16.1046 21 15V8C21 6.89543 20.1046 6 19 6H5ZM17.5 11C18.3284 11 19 10.3284 19 9.5C19 8.67157 18.3284 8 17.5 8C16.6716 8 16 8.67157 16 9.5C16 10.3284 16.6716 11 17.5 11ZM14 14H10V20H14V14Z" fill="#111014"/>
<rect id="Combined Shape Copy" opacity="0.3" x="8" y="2" width="8" height="2" rx="1" fill="#111014"/>
</g>
</svg>
