<svg width="24" height="24" viewBox="0 0 24 24" fill="none" xmlns="http://www.w3.org/2000/svg">
<g id="Property 2=Uploaded-file">
<path id="Combined Shape" opacity="0.3" d="M5.85714 2H13.7364C14.0911 2 14.4343 2.12568 14.7051 2.35474L19.4687 6.38394C19.8057 6.66895 20 7.08788 20 7.5292V20.0833C20 21.8739 19.9796 22 18.1429 22H5.85714C4.02045 22 4 21.8739 4 20.0833V3.91667C4 2.12612 4.02045 2 5.85714 2Z" fill="#111014"/>
<path id="Shape" fill-rule="evenodd" clip-rule="evenodd" d="M8.57021 12.9925C8.2951 13.3174 8.52606 13.8156 8.95181 13.8156H10.9083V15.8232C10.9083 16.0994 11.1321 16.3232 11.4083 16.3232H12.4316C12.7077 16.3232 12.9316 16.0994 12.9316 15.8232V13.8156H14.8881C15.3138 13.8156 15.5448 13.3174 15.2697 12.9925L12.3015 9.48682C12.1018 9.25094 11.7381 9.25094 11.5383 9.48682L8.57021 12.9925Z" fill="#111014"/>
</g>
</svg>
