<svg width="24" height="24" viewBox="0 0 24 24" fill="none" xmlns="http://www.w3.org/2000/svg">
<g id="Property 2=Puzzle">
<path id="Combined Shape" opacity="0.3" fill-rule="evenodd" clip-rule="evenodd" d="M8 5C8 3.34315 9.34315 2 11 2C12.6569 2 14 3.34315 14 5V6H17C18.1046 6 19 6.89543 19 8V11H20C21.6569 11 23 12.3431 23 14C23 15.6569 21.6569 17 20 17H19V20C19 21.1046 18.1046 22 17 22H5C3.89543 22 3 21.1046 3 20V17H5C6.65685 17 8 15.6569 8 14C8 12.3431 6.65685 11 5 11H3V8C3 6.89543 3.89543 6 5 6H8V5Z" fill="#111014"/>
</g>
</svg>
