<svg width="24" height="24" viewBox="0 0 24 24" fill="none" xmlns="http://www.w3.org/2000/svg">
<g id="Property 2=Euro">
<path id="Combined Shape" opacity="0.3" fill-rule="evenodd" clip-rule="evenodd" d="M4.80924 11C4.43755 11 4.1958 10.6088 4.36203 10.2764L4.86203 9.27639C4.94672 9.107 5.11985 9 5.30924 9H15.1912C15.5629 9 15.8046 9.39116 15.6384 9.72361L15.1384 10.7236C15.0537 10.893 14.8806 11 14.6912 11H4.80924ZM14.1912 13C14.5629 13 14.8046 13.3912 14.6384 13.7236L14.1384 14.7236C14.0537 14.893 13.8806 15 13.6912 15H4.80924C4.43755 15 4.1958 14.6088 4.36203 14.2764L4.86203 13.2764C4.94672 13.107 5.11985 13 5.30924 13H14.1912Z" fill="#111014"/>
<path id="C" fill-rule="evenodd" clip-rule="evenodd" d="M17.3688 7.61791C16.9768 7.0859 16.4658 6.69741 15.8358 6.45241C15.2058 6.2074 14.5898 6.08491 13.9878 6.08491C13.2178 6.08491 12.5178 6.2249 11.8878 6.50491C11.2578 6.78491 10.7153 7.1699 10.2603 7.65991C9.80533 8.14991 9.45533 8.7239 9.21033 9.38191C8.96533 10.0399 8.84283 10.7539 8.84283 11.5239C8.84283 12.3359 8.96183 13.0779 9.19983 13.7499C9.43783 14.4219 9.77733 14.9994 10.2183 15.4824C10.6593 15.9654 11.1878 16.3399 11.8038 16.6059C12.4198 16.8719 13.1128 17.0049 13.8828 17.0049C14.6808 17.0049 15.3878 16.8474 16.0038 16.5324C16.6198 16.2174 17.1168 15.8009 17.4948 15.2829L19.6158 16.7739C18.9578 17.5999 18.1528 18.2404 17.2008 18.6954C16.2488 19.1504 15.1358 19.3779 13.8618 19.3779C12.6998 19.3779 11.6323 19.1854 10.6593 18.8004C9.68632 18.4154 8.84983 17.8764 8.14983 17.1834C7.44982 16.4904 6.90383 15.6644 6.51183 14.7054C6.11983 13.7464 5.92383 12.6859 5.92383 11.5239C5.92383 10.3339 6.13033 9.25941 6.54333 8.30041C6.95633 7.3414 7.52332 6.52591 8.24433 5.85391C8.96533 5.1819 9.81582 4.66391 10.7958 4.29991C11.7758 3.9359 12.8398 3.75391 13.9878 3.75391C14.4638 3.75391 14.9608 3.79941 15.4788 3.89041C15.9968 3.98141 16.4938 4.12141 16.9698 4.31041C17.4458 4.49941 17.8938 4.7339 18.3138 5.01391C18.7338 5.29391 19.0908 5.6299 19.3848 6.02191L17.3688 7.61791Z" fill="#111014"/>
</g>
</svg>
