<svg width="24" height="24" viewBox="0 0 24 24" fill="none" xmlns="http://www.w3.org/2000/svg">
<g id="Property 2=&#208;&#157;air-dryer">
<path id="Combined Shape" opacity="0.3" fill-rule="evenodd" clip-rule="evenodd" d="M21.0006 5H18.0006V12H21.0006V5ZM4.58594 12.7816L9.41557 11.4875L11.3389 18.6655C11.6963 19.9992 10.9048 21.3701 9.57115 21.7274C8.23749 22.0848 6.86665 21.2933 6.50929 19.9596L4.58594 12.7816ZM11.4993 15.9425C11.3207 15.2757 11.7164 14.5902 12.3832 14.4116C13.0501 14.2329 13.7355 14.6286 13.9142 15.2955L14.0436 15.7784C14.2222 16.4453 13.8265 17.1307 13.1597 17.3094C12.4928 17.488 11.8074 17.0923 11.6287 16.4255L11.4993 15.9425Z" fill="#111014"/>
<path id="Combined Shape_2" fill-rule="evenodd" clip-rule="evenodd" d="M7.45993 4.72949C4.99678 4.72949 3 6.72627 3 9.18942C3 11.6526 4.99678 13.6493 7.45992 13.6493H17V4.72949H7.45993ZM9 8.99962C9 10.1042 8.10457 10.9996 7 10.9996C5.89543 10.9996 5 10.1042 5 8.99962C5 7.89505 5.89543 6.99962 7 6.99962C8.10457 6.99962 9 7.89505 9 8.99962Z" fill="#111014"/>
</g>
</svg>
