<svg width="24" height="24" viewBox="0 0 24 24" fill="none" xmlns="http://www.w3.org/2000/svg">
<g id="Property 2=Chef">
<rect id="Rectangle 2" opacity="0.3" x="5" y="20" width="14" height="2" rx="1" fill="#111014"/>
<path id="Combined Shape" fill-rule="evenodd" clip-rule="evenodd" d="M5 12.874C3.27477 12.4299 2 10.8638 2 9C2 6.79086 3.79086 5 6 5C6.11333 5 6.22556 5.00471 6.3365 5.01395C7.15622 2.67628 9.38235 1 12 1C14.6176 1 16.8438 2.67628 17.6635 5.01395C17.7744 5.00471 17.8867 5 18 5C20.2091 5 22 6.79086 22 9C22 10.8638 20.7252 12.4299 19 12.874V17C19 17.5523 18.5523 18 18 18H6C5.44772 18 5 17.5523 5 17V12.874Z" fill="#111014"/>
</g>
</svg>
