<svg width="24" height="24" viewBox="0 0 24 24" fill="none" xmlns="http://www.w3.org/2000/svg">
<g id="Property 2=Left 3">
<path id="Path 94" d="M13.7071 14.2929C14.0976 14.6834 14.0976 15.3166 13.7071 15.7071C13.3166 16.0976 12.6834 16.0976 12.2929 15.7071L6.29289 9.70711C5.91432 9.32853 5.90107 8.71894 6.26285 8.32428L11.7628 2.32428C12.136 1.91716 12.7686 1.88965 13.1757 2.26285C13.5828 2.63604 13.6103 3.26861 13.2372 3.67572L8.38414 8.96992L13.7071 14.2929Z" fill="#111014"/>
<path id="Path 96" opacity="0.3" d="M11.5 8C10.9477 8 10.5 8.44772 10.5 9C10.5 9.55228 10.9477 10 11.5 10H18C18.5523 10 19 10.4477 19 11V21.0416C19 21.5939 19.4477 22.0416 20 22.0416C20.5523 22.0416 21 21.5939 21 21.0416V11C21 9.34315 19.6569 8 18 8H11.5Z" fill="#111014"/>
</g>
</svg>
