<svg width="24" height="24" viewBox="0 0 24 24" fill="none" xmlns="http://www.w3.org/2000/svg">
<g id="Property 2=Bread">
<path id="Combined Shape Copy" opacity="0.3" fill-rule="evenodd" clip-rule="evenodd" d="M8.5 4C6.567 4 5 5.567 5 7.5C5 8.8962 5.81753 10.1015 7 10.6632V19C7 20.1046 7.89543 21 9 21H19C20.1046 21 21 20.1046 21 19V10.6632C22.1825 10.1015 23 8.8962 23 7.5C23 5.567 21.433 4 19.5 4H8.5Z" fill="#111014"/>
<path id="Combined Shape" fill-rule="evenodd" clip-rule="evenodd" d="M4.5 4C2.567 4 1 5.567 1 7.5C1 8.8962 1.81753 10.1015 3 10.6632V19C3 20.1046 3.89543 21 5 21H15C16.1046 21 17 20.1046 17 19V10.6632C18.1825 10.1015 19 8.8962 19 7.5C19 5.567 17.433 4 15.5 4H4.5Z" fill="#111014"/>
</g>
</svg>
