<svg width="24" height="24" viewBox="0 0 24 24" fill="none" xmlns="http://www.w3.org/2000/svg">
<g id="Property 2=Shield-protected">
<path id="Path 50" opacity="0.3" fill-rule="evenodd" clip-rule="evenodd" d="M4 3.99982L11.6314 2.56892C11.875 2.52325 12.125 2.52325 12.3686 2.56892L20 3.99982V11.9031C20 15.6958 18.0462 19.221 14.83 21.2311L12.53 22.6686C12.2057 22.8712 11.7943 22.8712 11.47 22.6686L9.17001 21.2311C5.95382 19.221 4 15.6958 4 11.9031L4 3.99982Z" fill="#111014"/>
<path id="Combined Shape" fill-rule="evenodd" clip-rule="evenodd" d="M9.5 10.5C9.5 9.11929 10.6193 8 12 8C13.3807 8 14.5 9.11929 14.5 10.5V11C15.0523 11 15.5 11.4477 15.5 12V15C15.5 15.5523 15.0523 16 14.5 16H9.5C8.94772 16 8.5 15.5523 8.5 15V12C8.5 11.4477 8.94772 11 9.5 11V10.5ZM12 9C11.1716 9 10.5 9.67157 10.5 10.5V11H13.5V10.5C13.5 9.67157 12.8284 9 12 9Z" fill="#111014"/>
</g>
</svg>
