<svg width="24" height="24" viewBox="0 0 24 24" fill="none" xmlns="http://www.w3.org/2000/svg">
<g id="Property 2=Clipboard-list">
<path id="Combined Shape" opacity="0.3" fill-rule="evenodd" clip-rule="evenodd" d="M8 3H6C4.89543 3 4 3.89543 4 5V21C4 22.1046 4.89543 23 6 23H18C19.1046 23 20 22.1046 20 21V5C20 3.89543 19.1046 3 18 3H16V3.5C16 4.32843 15.3284 5 14.5 5H9.5C8.67157 5 8 4.32843 8 3.5V3Z" fill="#111014"/>
<path id="Combined Shape_2" fill-rule="evenodd" clip-rule="evenodd" d="M13 2H14.5C14.7761 2 15 2.22386 15 2.5V3.5C15 3.77614 14.7761 4 14.5 4H9.5C9.22386 4 9 3.77614 9 3.5V2.5C9 2.22386 9.22386 2 9.5 2H11C11 1.44772 11.4477 1 12 1C12.5523 1 13 1.44772 13 2Z" fill="#111014"/>
<rect id="Rectangle 152" opacity="0.3" x="10" y="9" width="7" height="2" rx="1" fill="#111014"/>
<rect id="Rectangle 152 Copy 2" opacity="0.3" x="7" y="9" width="2" height="2" rx="1" fill="#111014"/>
<rect id="Rectangle 152 Copy 3" opacity="0.3" x="7" y="13" width="2" height="2" rx="1" fill="#111014"/>
<rect id="Rectangle 152 Copy" opacity="0.3" x="10" y="13" width="7" height="2" rx="1" fill="#111014"/>
<rect id="Rectangle 152 Copy 5" opacity="0.3" x="7" y="17" width="2" height="2" rx="1" fill="#111014"/>
<rect id="Rectangle 152 Copy 4" opacity="0.3" x="10" y="17" width="7" height="2" rx="1" fill="#111014"/>
</g>
</svg>
