<svg width="24" height="24" viewBox="0 0 24 24" fill="none" xmlns="http://www.w3.org/2000/svg">
<g id="Property 2=Thunder-night">
<path id="Combined Shape" opacity="0.3" fill-rule="evenodd" clip-rule="evenodd" d="M17.5004 2.77755C17.174 1.9274 17.0953 1.04308 17.2289 0.204102L17.1879 0.219624C14.6099 1.20923 13.3223 4.10135 14.3119 6.67937C15.3015 9.25738 18.1936 10.545 20.7716 9.55543C22.4995 8.89217 23.6477 7.37428 23.9191 5.66914C21.3515 6.62955 18.4847 5.34192 17.5004 2.77755ZM14.5339 17.9995L10.0894 23.9995V19.9995H7.86719L12.3116 13.9995V17.9995H14.5339Z" fill="#111014"/>
<path id="Combined Shape_2" fill-rule="evenodd" clip-rule="evenodd" d="M14.811 7.5C14.1449 4.91216 11.7958 3 9 3C5.68629 3 3 5.68629 3 9C3 11.1148 4.0941 12.974 5.74715 14.0426C6.41093 14.6379 7.28818 15 8.25 15H9H17.25C19.3211 15 21 13.3211 21 11.25C21 9.17893 19.3211 7.5 17.25 7.5H14.811Z" fill="#111014"/>
</g>
</svg>
