<svg width="24" height="24" viewBox="0 0 24 24" fill="none" xmlns="http://www.w3.org/2000/svg">
<g id="Property 2=Write">
<path id="Path 11" d="M21.7264 4.99912C22.3039 5.57653 22.3133 6.50973 21.7477 7.09872L12.8984 16.3143C12.6231 16.601 12.2453 16.7667 11.8479 16.7751L8.12465 16.8532L8.20309 13.1147C8.21124 12.7263 8.3697 12.3563 8.64514 12.0824L17.6957 3.0836C18.282 2.50068 19.2294 2.50204 19.814 3.08664L21.7264 4.99912Z" fill="#111014"/>
<path id="Path 57" opacity="0.3" d="M12.9 2C13.4523 2 13.9 2.44772 13.9 3C13.9 3.55228 13.4523 4 12.9 4H6C4.89543 4 4 4.89543 4 6V18C4 19.1046 4.89543 20 6 20H18C19.1046 20 20 19.1046 20 18V13C20 12.4477 20.4477 12 21 12C21.5523 12 22 12.4477 22 13V18C22 20.2091 20.2091 22 18 22H6C3.79086 22 2 20.2091 2 18V6C2 3.79086 3.79086 2 6 2H12.9Z" fill="#111014"/>
</g>
</svg>
