<svg width="24" height="24" viewBox="0 0 24 24" fill="none" xmlns="http://www.w3.org/2000/svg">
<g id="Property 2=Hummer#2">
<path id="Rectangle 2" opacity="0.3" fill-rule="evenodd" clip-rule="evenodd" d="M3.51555 18.6572L13.415 8.75774C13.8056 8.36721 14.4387 8.36721 14.8293 8.75774L16.2435 10.172C16.634 10.5625 16.634 11.1956 16.2435 11.5862L6.34398 21.4857C5.95345 21.8762 5.32029 21.8762 4.92976 21.4857L3.51555 20.0714C3.12503 19.6809 3.12503 19.0478 3.51555 18.6572Z" fill="#111014"/>
<path id="Rectangle 77" fill-rule="evenodd" clip-rule="evenodd" d="M9.87883 6.63604L13.4144 3.10051C13.8049 2.70999 14.4381 2.70999 14.8286 3.10051L21.8996 10.1716C22.2902 10.5621 22.2902 11.1953 21.8996 11.5858L18.3641 15.1213C17.9736 15.5118 17.3404 15.5118 16.9499 15.1213L9.87883 8.05026C9.48831 7.65973 9.48831 7.02657 9.87883 6.63604Z" fill="#111014"/>
<path id="Rectangle" opacity="0.3" fill-rule="evenodd" clip-rule="evenodd" d="M17.3027 4.8682L18.0098 4.1611C18.2051 3.96583 18.5216 3.96583 18.7169 4.1611L20.8382 6.28242C21.0335 6.47768 21.0335 6.79426 20.8382 6.98952L20.1311 7.69663C19.9359 7.89189 19.6193 7.89189 19.424 7.69663L17.3027 5.57531C17.1074 5.38005 17.1074 5.06346 17.3027 4.8682Z" fill="#111014"/>
</g>
</svg>
