<svg width="24" height="24" viewBox="0 0 24 24" fill="none" xmlns="http://www.w3.org/2000/svg">
<g id="Property 2=Ruller">
<path id="Combined Shape" fill-rule="evenodd" clip-rule="evenodd" d="M2.09976 14.8285C1.31871 15.6095 1.31871 16.8758 2.09976 17.6569L6.3424 21.8995C7.12345 22.6806 8.38978 22.6806 9.17083 21.8995L21.8987 9.17161C22.6798 8.39056 22.6798 7.12423 21.8987 6.34318L17.6561 2.10054C16.8751 1.31949 15.6087 1.31949 14.8277 2.10054L16.949 4.22186C17.3395 4.61238 17.3395 5.24555 16.949 5.63607C16.5585 6.0266 15.9253 6.0266 15.5348 5.63607L13.4135 3.51475L11.9993 4.92897L12.7064 5.63607C13.0969 6.0266 13.0969 6.65976 12.7064 7.05029C12.3158 7.44081 11.6827 7.44081 11.2921 7.05029L10.585 6.34318L9.17083 7.75739L11.2921 9.87871C11.6827 10.2692 11.6827 10.9024 11.2921 11.2929C10.9016 11.6835 10.2685 11.6835 9.87793 11.2929L7.75661 9.17161L6.3424 10.5858L7.04951 11.2929C7.44003 11.6835 7.44003 12.3166 7.04951 12.7071C6.65898 13.0977 6.02582 13.0977 5.63529 12.7071L4.92819 12L3.51397 13.4142L5.63529 15.5356C6.02582 15.9261 6.02582 16.5593 5.63529 16.9498C5.24477 17.3403 4.6116 17.3403 4.22108 16.9498L2.09976 14.8285Z" fill="#111014"/>
</g>
</svg>
