<svg width="24" height="24" viewBox="0 0 24 24" fill="none" xmlns="http://www.w3.org/2000/svg">
<g id="Property 2=Gift">
<path id="Combined Shape" fill-rule="evenodd" clip-rule="evenodd" d="M3 7C3 6.44772 3.44772 6 4 6H20C20.5523 6 21 6.44772 21 7V8C21 8.55228 20.5523 9 20 9H4C3.44772 9 3 8.55228 3 8V7ZM4 12C4 11.4477 4.44772 11 5 11H10C10.5523 11 11 11.4477 11 12V19C11 19.5523 10.5523 20 10 20H5C4.44772 20 4 19.5523 4 19V12ZM14 11C13.4477 11 13 11.4477 13 12V19C13 19.5523 13.4477 20 14 20H19C19.5523 20 20 19.5523 20 19V12C20 11.4477 19.5523 11 19 11H14Z" fill="#111014"/>
<path id="Path 31" opacity="0.3" d="M14.4454 2.16806C14.9049 1.8617 15.5258 1.98588 15.8322 2.44541C16.1385 2.90493 16.0143 3.5258 15.5548 3.83216L12.0001 6.20196L8.44541 3.83216C7.98588 3.5258 7.8617 2.90493 8.16806 2.44541C8.47441 1.98588 9.09528 1.8617 9.55481 2.16806L12.0001 3.79826L14.4454 2.16806Z" fill="#111014"/>
</g>
</svg>
