<svg width="24" height="24" viewBox="0 0 24 24" fill="none" xmlns="http://www.w3.org/2000/svg">
<g id="Property 2=Spy">
<path id="Combined Shape" fill-rule="evenodd" clip-rule="evenodd" d="M12 3C7.58172 3 4 6.58172 4 11V21C4 21.5523 4.44772 22 5 22H19C19.5523 22 20 21.5523 20 21V11C20 6.58172 16.4183 3 12 3ZM9 10C7.34315 10 6 11.3431 6 13C6 14.6569 7.34315 16 9 16H15C16.6569 16 18 14.6569 18 13C18 11.3431 16.6569 10 15 10H9Z" fill="#111014"/>
<path id="Combined Shape_2" opacity="0.3" fill-rule="evenodd" clip-rule="evenodd" d="M10 13C10 13.5523 9.55228 14 9 14C8.44772 14 8 13.5523 8 13C8 12.4477 8.44772 12 9 12C9.55228 12 10 12.4477 10 13ZM16 13C16 13.5523 15.5523 14 15 14C14.4477 14 14 13.5523 14 13C14 12.4477 14.4477 12 15 12C15.5523 12 16 12.4477 16 13Z" fill="#111014"/>
</g>
</svg>
