<svg width="24" height="24" viewBox="0 0 24 24" fill="none" xmlns="http://www.w3.org/2000/svg">
<g id="Property 2=T-Shirt">
<path id="Combined Shape" fill-rule="evenodd" clip-rule="evenodd" d="M16.1642 4.00016C15.7704 5.2126 14.0553 6.12516 11.9992 6.12516C9.94309 6.12516 8.228 5.2126 7.83422 4.00016H6.72796C6.65563 3.9922 6.5822 3.99208 6.50902 4.00016H6.49924C6.19742 4.00016 5.92683 4.13387 5.74348 4.34528L1.41032 6.84703C0.932031 7.12317 0.768155 7.73477 1.0443 8.21306L2.70055 11.0818C2.97669 11.5601 3.58828 11.7239 4.06657 11.4478L5.49924 10.6206V20.0002C5.49924 20.5524 5.94695 21.0002 6.49924 21.0002H17.4992C18.0515 21.0002 18.4992 20.5524 18.4992 20.0002V10.62L19.933 11.4478C20.4113 11.7239 21.0229 11.5601 21.299 11.0818L22.9553 8.21306C23.2314 7.73477 23.0675 7.12317 22.5892 6.84703L18.2539 4.34402C18.0706 4.13333 17.8005 4.00016 17.4992 4.00016H17.4905C17.4174 3.99208 17.3439 3.9922 17.2716 4.00016H16.1642Z" fill="#111014"/>
</g>
</svg>
