<svg width="25" height="24" viewBox="0 0 25 24" fill="none" xmlns="http://www.w3.org/2000/svg">
<g id="Property 2=Share #1">
<path id="Path 57" opacity="0.3" d="M10.9 2C11.4523 2 11.9 2.44772 11.9 3C11.9 3.55228 11.4523 4 10.9 4H6C4.89543 4 4 4.89543 4 6V18C4 19.1046 4.89543 20 6 20H18C19.1046 20 20 19.1046 20 18V16C20 15.4477 20.4477 15 21 15C21.5523 15 22 15.4477 22 16V18C22 20.2091 20.2091 22 18 22H6C3.79086 22 2 20.2091 2 18V6C2 3.79086 3.79086 2 6 2H10.9Z" fill="#111014"/>
<path id="Shape" d="M7.00461 13.8975C7.00461 13.1348 6.84117 10.1248 9.21558 7.73678C10.8137 6.12962 13.2053 5.85087 16.0655 5.72375V1.83809C16.0655 1.18735 16.8375 0.84538 17.3194 1.28262L23.8276 7.187C24.1534 7.48259 24.156 7.99383 23.8333 8.29274L17.3251 14.32C16.845 14.7646 16.0655 14.4241 16.0655 13.7697V9.90779C14.2495 9.95773 12.9559 10.0732 11.7807 10.4471C9.50911 11.1698 8.16119 14.2687 7.79769 15.2126C7.73501 15.3754 7.57975 15.4865 7.40532 15.4865C7.18151 15.4865 7.00014 15.3052 7.00084 15.0813C7.00214 14.6693 7.00461 14.1957 7.00461 13.8975Z" fill="#111014"/>
</g>
</svg>
