<svg width="24" height="24" viewBox="0 0 24 24" fill="none" xmlns="http://www.w3.org/2000/svg">
<g id="Property 2=Mail-attachment">
<path id="Combined Shape" opacity="0.3" fill-rule="evenodd" clip-rule="evenodd" d="M6 2C5.44772 2 5 2.44771 5 3V12C5 12.5523 5.44772 13 6 13H9.14285C9.05009 12.7223 9 12.4263 9 12.119V9.5C9 8.48748 9.85473 7.66667 10.9091 7.66667C11.9635 7.66667 12.8182 8.48748 12.8182 9.5V11.3333H11.7273V9.5C11.7273 9.06606 11.361 8.71429 10.9091 8.71429C10.4572 8.71429 10.0909 9.06606 10.0909 9.5V12.119C10.0909 12.4383 10.1759 12.7386 10.3254 13H13.6746C13.8241 12.7386 13.9091 12.4383 13.9091 12.119V6.88095C13.9091 5.86843 13.0544 5.04762 12 5.04762H11.7273C10.8235 5.04762 10.0909 5.75117 10.0909 6.61905H9C9 5.17259 10.221 4 11.7273 4H12C13.6569 4 15 5.28985 15 6.88095V12.119C15 12.4263 14.9499 12.7223 14.8572 13H18C18.5523 13 19 12.5523 19 12V3C19 2.44772 18.5523 2 18 2H6Z" fill="#111014"/>
<path id="Combined Shape_2" fill-rule="evenodd" clip-rule="evenodd" d="M12.8182 11.3333H11.7273V9.5C11.7273 9.06606 11.361 8.71429 10.9091 8.71429C10.4572 8.71429 10.0909 9.06606 10.0909 9.5V12.119C10.0909 13.1316 10.9456 13.9524 12 13.9524C13.0544 13.9524 13.9091 13.1316 13.9091 12.119V6.88095C13.9091 5.86843 13.0544 5.04762 12 5.04762H11.7273C10.8235 5.04762 10.0909 5.75117 10.0909 6.61905H9C9 5.17259 10.221 4 11.7273 4H12C13.6569 4 15 5.28985 15 6.88095V12.119C15 13.7102 13.6569 15 12 15C10.3431 15 9 13.7102 9 12.119L9 9.5C9 8.48748 9.85473 7.66667 10.9091 7.66667C11.9635 7.66667 12.8182 8.48748 12.8182 9.5V11.3333Z" fill="#111014"/>
</g>
</svg>
