<svg width="24" height="24" viewBox="0 0 24 24" fill="none" xmlns="http://www.w3.org/2000/svg">
<g id="Property 2=Folder-check-2">
<path id="Combined Shape" fill-rule="evenodd" clip-rule="evenodd" d="M10.9836 21H20.5C21.3284 21 22 20.3284 22 19.5V8.5C22 7.67157 21.3284 7 20.5 7H10L7.43934 4.43934C7.15804 4.15804 6.7765 4 6.37868 4H3.5C2.67157 4 2 4.67157 2 5.5V13.15C2.48466 13.0516 2.9863 13 3.5 13C7.64214 13 11 16.3579 11 20.5C11 20.668 10.9945 20.8347 10.9836 21Z" fill="#111014"/>
<path id="check" opacity="0.3" d="M2.875 22.75C2.63542 22.75 2.39583 22.6542 2.20417 22.4625L0.2875 20.5458C-0.0958333 20.1625 -0.0958333 19.5875 0.2875 19.2042C0.670833 18.8208 1.29375 18.8208 1.62917 19.2042L2.875 20.45L6.0375 17.2875C6.42083 16.9042 6.99583 16.9042 7.37917 17.2875C7.7625 17.6708 7.7625 18.2458 7.37917 18.6292L3.54583 22.4625C3.35417 22.6542 3.11458 22.75 2.875 22.75Z" fill="#111014"/>
</g>
</svg>
