<svg width="24" height="24" viewBox="0 0 24 24" fill="none" xmlns="http://www.w3.org/2000/svg">
<g id="Property 2=Carrot">
<path id="Path 36 Copy 2" opacity="0.3" fill-rule="evenodd" clip-rule="evenodd" d="M12.8862 11.4779C12.8862 11.4779 10.484 2.72427 15.855 0.398113C19.1623 5.0496 12.8862 11.4779 12.8862 11.4779Z" fill="#111014"/>
<path id="Path 36 Copy 3" opacity="0.3" fill-rule="evenodd" clip-rule="evenodd" d="M23.0589 7.66943C23.0589 7.66943 14.3053 5.26723 11.9792 10.6382C16.6307 13.9455 23.0589 7.66943 23.0589 7.66943Z" fill="#111014"/>
<path id="Path 36" opacity="0.3" fill-rule="evenodd" clip-rule="evenodd" d="M20.0051 3.49431C20.0051 3.49431 11.2231 5.79074 11.8941 11.6052C17.576 12.1436 20.0051 3.49431 20.0051 3.49431Z" fill="#111014"/>
<path id="Combined Shape" fill-rule="evenodd" clip-rule="evenodd" d="M2.57941 17.5139L2.86924 17.8037C3.25976 18.1942 3.89293 18.1942 4.28345 17.8037C4.67398 17.4132 4.67398 16.78 4.28345 16.3895L3.59229 15.6983L4.60517 13.8828L5.69767 14.9753C6.08819 15.3658 6.72136 15.3658 7.11188 14.9753C7.5024 14.5847 7.5024 13.9516 7.11188 13.561L5.69767 12.1468C5.67117 12.1203 5.64355 12.0956 5.61497 12.0727L6.63093 10.2517L8.52609 12.1468C8.91662 12.5374 9.54978 12.5374 9.94031 12.1468C10.3308 11.7563 10.3308 11.1231 9.94031 10.7326L7.81899 8.6113C7.7606 8.55292 7.6968 8.50326 7.62919 8.46233L7.87373 8.024C8.41188 7.0594 9.63011 6.71368 10.5947 7.25183C10.756 7.34179 10.904 7.45364 11.0345 7.58419L15.9172 12.4669C16.6983 13.2479 16.6983 14.5143 15.9172 15.2953C15.7867 15.4259 15.6387 15.5377 15.4774 15.6277L3.46972 22.3267C2.81102 22.6942 1.98841 22.5797 1.45506 22.0464C0.921702 21.513 0.80724 20.6904 1.17473 20.0317L2.57941 17.5139Z" fill="#111014"/>
</g>
</svg>
