<svg width="24" height="24" viewBox="0 0 24 24" fill="none" xmlns="http://www.w3.org/2000/svg">
<g id="Property 2=Cap-2">
<path id="Oval" opacity="0.3" fill-rule="evenodd" clip-rule="evenodd" d="M12 9C13.1046 9 14 8.10457 14 7C14 5.89543 13.1046 5 12 5C10.8954 5 10 5.89543 10 7C10 8.10457 10.8954 9 12 9Z" fill="#111014"/>
<path id="Combined Shape" fill-rule="evenodd" clip-rule="evenodd" d="M13 11.91C15.2822 11.493 17 9.67706 17 7.5C17 7.331 16.9896 7.16417 16.9695 7H20V19H13V11.91ZM11 11.91C8.71776 11.493 7 9.67706 7 7.5C7 7.331 7.01035 7.16417 7.03052 7H4V19H11V11.91Z" fill="#111014"/>
</g>
</svg>
