<svg width="24" height="24" viewBox="0 0 24 24" fill="none" xmlns="http://www.w3.org/2000/svg">
<g id="Property 2=Active-call">
<path id="Path 76" fill-rule="evenodd" clip-rule="evenodd" d="M13.0809 14.7838L15.2849 12.5798C15.8937 11.9711 16.0446 11.0411 15.6596 10.2711L15.5347 10.0214C15.1497 9.25141 15.3006 8.32147 15.9093 7.71275L18.6421 4.97994C18.8374 4.78468 19.154 4.78468 19.3492 4.97994C19.3873 5.01794 19.4189 5.06182 19.4429 5.10989L20.5469 7.31784C21.3914 9.00695 21.0604 11.047 19.725 12.3823L13.7262 18.3812C12.2727 19.8347 10.1226 20.3423 8.17252 19.6922L5.75804 18.8874C5.49607 18.8001 5.35449 18.5169 5.44181 18.2549C5.46636 18.1813 5.50771 18.1144 5.5626 18.0595L8.21387 15.4082C8.82259 14.7995 9.75253 14.6486 10.5225 15.0336L10.7723 15.1585C11.5422 15.5434 12.4722 15.3925 13.0809 14.7838Z" fill="#111014"/>
<path id="Combined Shape" opacity="0.3" fill-rule="evenodd" clip-rule="evenodd" d="M14.313 4.01369L14.4981 2.02227C11.2606 1.72144 8.04098 2.85235 5.69666 5.19667C3.35559 7.53774 2.22447 10.7517 2.52107 13.9851L4.51271 13.8024C4.26982 11.1546 5.19444 8.52732 7.11088 6.61088C9.02997 4.69179 11.6618 3.76734 14.313 4.01369ZM13.9567 7.99794L14.148 6.00712C12.0812 5.80844 10.0223 6.5279 8.52509 8.02509C7.0328 9.51738 6.31301 11.5678 6.50525 13.6284L8.49661 13.4426C8.35908 11.9685 8.87243 10.5062 9.9393 9.43931C11.0097 8.36893 12.4781 7.85581 13.9567 7.99794Z" fill="#111014"/>
</g>
</svg>
