<svg width="24" height="24" viewBox="0 0 24 24" fill="none" xmlns="http://www.w3.org/2000/svg">
<g id="Property 2=Rainbow">
<path id="Combined Shape" opacity="0.3" fill-rule="evenodd" clip-rule="evenodd" d="M11.9997 10C8.50443 10 5.55843 12.5781 5.07031 16H7.0997C7.56297 13.7178 9.58072 12 11.9997 12C14.4186 12 16.4364 13.7178 16.8997 16H18.9291C18.441 12.5784 15.4952 10 11.9997 10ZM11.9997 14C10.7035 14 9.58315 14.8278 9.16964 16H14.8297C14.4162 14.8279 13.2959 14 11.9997 14Z" fill="#111014"/>
<path id="Path" fill-rule="evenodd" clip-rule="evenodd" d="M12.0001 6C17.7381 6 22.45 10.3935 22.9552 16H20.9452C20.9366 15.9226 20.9271 15.8456 20.9166 15.7688C20.3163 11.3807 16.553 8 12.0001 8C7.45058 8 3.6895 11.3757 3.08495 15.759C3.07392 15.839 3.06393 15.9193 3.05502 16H1.04492C1.55016 10.3935 6.26204 6 12.0001 6Z" fill="#111014"/>
<path id="Path Copy" fill-rule="evenodd" clip-rule="evenodd" d="M12.0001 6C17.7381 6 22.45 10.3935 22.9552 16H20.9452C20.9366 15.9226 20.9271 15.8456 20.9166 15.7688C20.3163 11.3807 16.553 8 12.0001 8C7.45058 8 3.6895 11.3757 3.08495 15.759C3.07392 15.839 3.06393 15.9193 3.05502 16H1.04492C1.55016 10.3935 6.26204 6 12.0001 6Z" fill="#111014"/>
</g>
</svg>
