<svg width="24" height="24" viewBox="0 0 24 24" fill="none" xmlns="http://www.w3.org/2000/svg">
<g id="Property 2=Building">
<path id="Combined Shape" fill-rule="evenodd" clip-rule="evenodd" d="M7 2C5.89543 2 5 2.89543 5 4V21H10.5V18C10.5 17.4477 10.9477 17 11.5 17H12.5C13.0523 17 13.5 17.4477 13.5 18V21H19V4C19 2.89543 18.1046 2 17 2H7ZM9 4C8.44772 4 8 4.44772 8 5V6C8 6.55228 8.44772 7 9 7H10C10.5523 7 11 6.55228 11 6V5C11 4.44772 10.5523 4 10 4H9ZM13 5C13 4.44772 13.4477 4 14 4H15C15.5523 4 16 4.44772 16 5V6C16 6.55228 15.5523 7 15 7H14C13.4477 7 13 6.55228 13 6V5ZM9 8C8.44772 8 8 8.44772 8 9V10C8 10.5523 8.44772 11 9 11H10C10.5523 11 11 10.5523 11 10V9C11 8.44772 10.5523 8 10 8H9ZM8 13C8 12.4477 8.44772 12 9 12H10C10.5523 12 11 12.4477 11 13V14C11 14.5523 10.5523 15 10 15H9C8.44772 15 8 14.5523 8 14V13ZM14 8C13.4477 8 13 8.44772 13 9V10C13 10.5523 13.4477 11 14 11H15C15.5523 11 16 10.5523 16 10V9C16 8.44772 15.5523 8 15 8H14ZM13 13C13 12.4477 13.4477 12 14 12H15C15.5523 12 16 12.4477 16 13V14C16 14.5523 15.5523 15 15 15H14C13.4477 15 13 14.5523 13 14V13Z" fill="#111014"/>
<path id="Rectangle 2" opacity="0.3" d="M3 22.9881C3 21.8901 3.89009 21 4.98807 21H19.0119C20.1099 21 21 21.8901 21 22.9881C21 22.9947 20.9947 23 20.9881 23H3.01193C3.00534 23 3 22.9947 3 22.9881Z" fill="#111014"/>
</g>
</svg>
