<svg width="24" height="24" viewBox="0 0 24 24" fill="none" xmlns="http://www.w3.org/2000/svg">
<g id="Property 2=Folder-error">
<path id="Combined Shape" fill-rule="evenodd" clip-rule="evenodd" d="M10.9836 21H20.5C21.3284 21 22 20.3284 22 19.5V8.5C22 7.67157 21.3284 7 20.5 7H10L7.43934 4.43934C7.15804 4.15804 6.7765 4 6.37868 4H3.5C2.67157 4 2 4.67157 2 5.5V13.15C2.48466 13.0516 2.9863 13 3.5 13C7.64214 13 11 16.3579 11 20.5C11 20.668 10.9945 20.8347 10.9836 21Z" fill="#111014"/>
<path id="Combined Shape_2" opacity="0.3" fill-rule="evenodd" clip-rule="evenodd" d="M4.5 16C3.94772 16 3.5 16.4477 3.5 17V19C3.5 19.5523 3.94772 20 4.5 20C5.05228 20 5.5 19.5523 5.5 19V17C5.5 16.4477 5.05228 16 4.5 16ZM5.5 22C5.5 22.5523 5.05228 23 4.5 23C3.94772 23 3.5 22.5523 3.5 22C3.5 21.4477 3.94772 21 4.5 21C5.05228 21 5.5 21.4477 5.5 22Z" fill="#111014"/>
</g>
</svg>
