<svg width="24" height="24" viewBox="0 0 24 24" fill="none" xmlns="http://www.w3.org/2000/svg">
<g id="Property 2=Two-bottles">
<path id="Combined Shape" fill-rule="evenodd" clip-rule="evenodd" d="M5 8C3.34315 8 2 9.34315 2 11V12H11V11C11 9.34315 9.65685 8 8 8H5ZM11 14H2V20C2 20.5523 2.44772 21 3 21H10C10.5523 21 11 20.5523 11 20V14Z" fill="#111014"/>
<path id="Combined Shape_2" opacity="0.3" fill-rule="evenodd" clip-rule="evenodd" d="M5 3C4.44772 3 4 3.44772 4 4V5C4 5.55228 4.44772 6 5 6H8C8.55228 6 9 5.55228 9 5V4C9 3.44772 8.55228 3 8 3H5ZM16 3C15.4477 3 15 3.44772 15 4V5C15 5.55228 15.4477 6 16 6H19C19.5523 6 20 5.55228 20 5V4C20 3.44772 19.5523 3 19 3H16ZM13 11C13 9.34315 14.3431 8 16 8H19C20.6569 8 22 9.34315 22 11V12H13V11ZM13 14V20C13 20.5523 13.4477 21 14 21H21C21.5523 21 22 20.5523 22 20V14H13Z" fill="#111014"/>
</g>
</svg>
