<svg width="24" height="24" viewBox="0 0 24 24" fill="none" xmlns="http://www.w3.org/2000/svg">
<g id="Property 2=Anchor-left">
<path id="Oval Copy" opacity="0.3" fill-rule="evenodd" clip-rule="evenodd" d="M5 15C6.65685 15 8 13.6569 8 12C8 10.3431 6.65685 9 5 9C3.34315 9 2 10.3431 2 12C2 13.6569 3.34315 15 5 15Z" fill="#111014"/>
<g id="ic_type copy 6">
<path id="T" fill-rule="evenodd" clip-rule="evenodd" d="M15 9V16C15 16.5523 14.5523 17 14 17C13.4477 17 13 16.5523 13 16V9H11C10.4477 9 10 8.55228 10 8C10 7.44772 10.4477 7 11 7L17 7C17.5523 7 18 7.44772 18 8C18 8.55228 17.5523 9 17 9H15Z" fill="#111014"/>
</g>
</g>
</svg>
