<svg width="24" height="24" viewBox="0 0 24 24" fill="none" xmlns="http://www.w3.org/2000/svg">
<g id="Property 2=Adress-book#1">
<path id="Rectangle 161 Copy" opacity="0.3" d="M17 2H19C20.6569 2 22 3.34315 22 5V19C22 20.6569 20.6569 22 19 22H17V2Z" fill="#111014"/>
<path id="Combined Shape" fill-rule="evenodd" clip-rule="evenodd" d="M4 2C3.44772 2 3 2.44772 3 3V21C3 21.5523 3.44772 22 4 22H16C17.6569 22 19 20.6569 19 19V5C19 3.34315 17.6569 2 16 2H4ZM11.1176 13.7096C10.6725 14.1547 9.99252 14.2651 9.42948 13.9835C8.86645 13.702 8.18644 13.8124 7.74132 14.2575L6.2246 15.7742C5.9644 16.0344 6.06899 16.4775 6.41809 16.5938C8.55258 17.3053 10.9059 16.7498 12.4968 15.1588L14.4027 13.253C15.937 11.7186 16.3174 9.37461 15.347 7.4338C15.2188 7.17732 14.877 7.12186 14.6742 7.32461L13.0033 8.99554C12.5581 9.44066 12.4478 10.1207 12.7293 10.6837C13.0108 11.2467 12.9005 11.9268 12.4554 12.3719L11.1176 13.7096Z" fill="#111014"/>
</g>
</svg>
