<svg width="24" height="24" viewBox="0 0 24 24" fill="none" xmlns="http://www.w3.org/2000/svg">
<g id="Property 2=Media-library#2">
<path id="Combined Shape" opacity="0.3" fill-rule="evenodd" clip-rule="evenodd" d="M2 20.5C2 21.3284 2.67157 22 3.5 22H20.5C21.3284 22 22 21.3284 22 20.5V9.5C22 8.67157 21.3284 8 20.5 8H10L7.43934 5.43934C7.15804 5.15804 6.7765 5 6.37868 5H3.5C2.67157 5 2 5.67157 2 6.5V20.5Z" fill="#111014"/>
<path id="Combined Shape_2" fill-rule="evenodd" clip-rule="evenodd" d="M10.8333 20C9.82081 20 9 19.316 9 18.4722C9 17.6285 9.82081 16.9444 10.8333 16.9444C11.0476 16.9444 11.2533 16.9751 11.4444 17.0314V12.7916C11.4444 12.4782 11.6399 12.2012 11.9269 12.1078L15.4408 11.0331C15.8835 10.8889 16.3333 11.2336 16.3333 11.7169V12.7916C16.3333 13.1498 15.9979 13.3786 15.7222 13.4444C15.3255 13.5392 14.307 13.7429 12.6667 14.0556V18.5035C12.6667 18.5584 12.6622 18.6092 12.6535 18.656C12.5446 19.4131 11.7712 20 10.8333 20Z" fill="#111014"/>
</g>
</svg>
