<svg width="24" height="24" viewBox="0 0 24 24" fill="none" xmlns="http://www.w3.org/2000/svg">
<g id="Property 2=Arrows">
<path id="Combined Shape" opacity="0.3" fill-rule="evenodd" clip-rule="evenodd" d="M3.75781 11.0002C3.20553 11.0002 2.75781 11.4479 2.75781 12.0002C2.75781 12.5524 3.20553 13.0002 3.75781 13.0002L11.0005 13.0002V21.7575C11.0005 22.3098 11.4482 22.7575 12.0005 22.7575C12.5527 22.7575 13.0005 22.3098 13.0005 21.7575V13.0002L21.7578 13.0002C22.3101 13.0002 22.7578 12.5524 22.7578 12.0002C22.7578 11.4479 22.3101 11.0002 21.7578 11.0002L13.0005 11.0002V3.75751C13.0005 3.20523 12.5527 2.75751 12.0005 2.75751C11.4482 2.75751 11.0005 3.20523 11.0005 3.75751L11.0005 11.0002L3.75781 11.0002Z" fill="#111014"/>
<path id="Combined Shape_2" fill-rule="evenodd" clip-rule="evenodd" d="M9.87793 5.63627L11.9993 3.51495L14.1206 5.63627C14.1206 5.63627 14.8277 6.34338 15.5348 5.63627C16.2419 4.92916 15.5348 4.22206 15.5348 4.22206L11.9993 0.686523L8.46372 4.22206C8.46372 4.22206 7.87793 5.05048 8.46372 5.63627C9.04951 6.22206 9.87793 5.63627 9.87793 5.63627ZM5.63529 14.1216L3.51397 12.0002L5.63529 9.87891C5.63529 9.87891 6.3424 9.1718 5.63529 8.4647C4.92819 7.75759 4.22108 8.4647 4.22108 8.4647L0.685547 12.0002L4.22108 15.5358C4.22108 15.5358 5.04951 16.1216 5.63529 15.5358C6.22108 14.95 5.63529 14.1216 5.63529 14.1216ZM14.1206 18.3642L11.9993 20.4855L9.87794 18.3642C9.87794 18.3642 9.17083 17.6571 8.46372 18.3642C7.75661 19.0713 8.46372 19.7784 8.46372 19.7784L11.9993 23.3139L15.5348 19.7784C15.5348 19.7784 16.1206 18.95 15.5348 18.3642C14.949 17.7784 14.1206 18.3642 14.1206 18.3642ZM20.4845 12.0002L18.3632 9.87891C18.3632 9.87891 17.7774 9.05048 18.3632 8.4647C18.949 7.87891 19.7774 8.4647 19.7774 8.4647L23.313 12.0002L19.7774 15.5358C19.7774 15.5358 19.0703 16.2429 18.3632 15.5358C17.6561 14.8287 18.3632 14.1216 18.3632 14.1216L20.4845 12.0002Z" fill="#111014"/>
</g>
</svg>
