<svg width="24" height="24" viewBox="0 0 24 24" fill="none" xmlns="http://www.w3.org/2000/svg">
<g id="Property 2=Screwdriver">
<path id="Combined Shape" opacity="0.3" fill-rule="evenodd" clip-rule="evenodd" d="M8.4653 11.2932L7.40464 10.2325C7.20937 10.0373 7.20937 9.72069 7.40464 9.52543L8.11174 8.81832C8.30701 8.62306 8.62359 8.62306 8.81885 8.81832L15.1828 15.1823C15.3781 15.3775 15.3781 15.6941 15.1828 15.8894L14.4757 16.5965C14.2804 16.7918 13.9639 16.7918 13.7686 16.5965L12.7079 15.5358L7.05108 21.1927C6.27003 21.9737 5.0037 21.9737 4.22266 21.1927L2.80844 19.7785C2.02739 18.9974 2.02739 17.7311 2.80844 16.95L8.4653 11.2932ZM4.57621 18.0107C4.38095 18.206 4.38095 18.5226 4.57621 18.7178C4.77147 18.9131 5.08805 18.9131 5.28332 18.7178L9.52596 14.4752C9.72122 14.2799 9.72122 13.9633 9.52596 13.7681C9.3307 13.5728 9.01411 13.5728 8.81885 13.7681L4.57621 18.0107Z" fill="#111014"/>
<path id="Combined Shape_2" fill-rule="evenodd" clip-rule="evenodd" d="M16.9498 5.63621L16.7789 5.46528C16.5836 5.27002 16.5836 4.95344 16.7789 4.75818C16.8268 4.7103 16.8839 4.67264 16.9468 4.64749L19.4721 3.63734C19.6578 3.56306 19.87 3.60659 20.0114 3.74802L20.2522 3.98887C20.3937 4.1303 20.4372 4.34241 20.3629 4.52812L19.3528 7.0535C19.2502 7.30989 18.9592 7.4346 18.7028 7.33204C18.64 7.30689 18.5828 7.26924 18.535 7.22136L18.364 7.05043L12.7072 12.7073L11.293 11.2931L16.9498 5.63621Z" fill="#111014"/>
</g>
</svg>
