<svg width="24" height="24" viewBox="0 0 24 24" fill="none" xmlns="http://www.w3.org/2000/svg">
<g id="Property 2=Anchor-right">
<path id="Oval Copy" opacity="0.3" fill-rule="evenodd" clip-rule="evenodd" d="M19 15C20.6569 15 22 13.6569 22 12C22 10.3431 20.6569 9 19 9C17.3431 9 16 10.3431 16 12C16 13.6569 17.3431 15 19 15Z" fill="#111014"/>
<g id="ic_type copy 6">
<path id="T" fill-rule="evenodd" clip-rule="evenodd" d="M11 9V16C11 16.5523 10.5523 17 10 17C9.44772 17 9 16.5523 9 16V9H7C6.44772 9 6 8.55228 6 8C6 7.44772 6.44772 7 7 7L13 7C13.5523 7 14 7.44772 14 8C14 8.55228 13.5523 9 13 9H11Z" fill="#111014"/>
</g>
</g>
</svg>
