<svg width="24" height="24" viewBox="0 0 24 24" fill="none" xmlns="http://www.w3.org/2000/svg">
<g id="Property 2=Shuffle">
<path id="Combined Shape" opacity="0.3" fill-rule="evenodd" clip-rule="evenodd" d="M2 6V8H4.55458C5.78894 8 6.95416 8.56989 7.71199 9.54424L11.7093 14.6836C12.846 16.1452 14.5939 17 16.4454 17H18V18.6136C18 19.0428 18.5052 19.2725 18.8287 18.9904L21.7636 16.4304C21.9916 16.2315 21.9922 15.8774 21.7648 15.6778L18.8298 13.1016C18.5067 12.818 18 13.0475 18 13.4774V15H16.4454C15.2111 15 14.0458 14.4301 13.288 13.4558L9.29069 8.31636C8.15396 6.85484 6.40612 6 4.55458 6H2Z" fill="#111014"/>
<path id="Combined Shape_2" fill-rule="evenodd" clip-rule="evenodd" d="M18.8287 9.99052C18.5052 10.2727 18 10.0429 18 9.61372V8.00012H16.4454C15.2111 8.00012 14.0458 8.57001 13.288 9.54436L9.29069 14.6838C8.15396 16.1453 6.40612 17.0001 4.55458 17.0001H2V15.0001H4.55458C5.78894 15.0001 6.95416 14.4302 7.71199 13.4559L11.7093 8.31648C12.846 6.85496 14.5939 6.00012 16.4454 6.00012H18V4.47754C18 4.04759 18.5067 3.81814 18.8298 4.10176L21.7648 6.67792C21.9922 6.87748 21.9916 7.23165 21.7636 7.4305L18.8287 9.99052Z" fill="#111014"/>
</g>
</svg>
