<svg width="24" height="24" viewBox="0 0 24 24" fill="none" xmlns="http://www.w3.org/2000/svg">
<g id="Property 2=Radio">
<path id="Combined Shape" opacity="0.3" fill-rule="evenodd" clip-rule="evenodd" d="M4 7C2.89543 7 2 7.89543 2 9V19C2 20.1046 2.89543 21 4 21H20C21.1046 21 22 20.1046 22 19V9C22 7.89543 21.1046 7 20 7H4ZM12 14C12 16.2091 13.7909 18 16 18C18.2091 18 20 16.2091 20 14C20 11.7909 18.2091 10 16 10C13.7909 10 12 11.7909 12 14Z" fill="#111014"/>
<path id="Combined Shape_2" fill-rule="evenodd" clip-rule="evenodd" d="M20.6188 7.09768C20.5844 6.78725 20.4055 6.49752 20.1119 6.33375L8.98742 0.12691C8.50512 -0.142183 7.896 0.0306514 7.62691 0.512946C7.35782 0.99524 7.53065 1.60436 8.01295 1.87345L17.2016 7.00018H20.0002C20.2161 7.00018 20.424 7.03439 20.6188 7.09768Z" fill="#111014"/>
<path id="Oval" fill-rule="evenodd" clip-rule="evenodd" d="M16 16C17.1046 16 18 15.1046 18 14C18 12.8954 17.1046 12 16 12C14.8954 12 14 12.8954 14 14C14 15.1046 14.8954 16 16 16Z" fill="#111014"/>
<rect id="Rectangle 51" opacity="0.3" x="4" y="11" width="5" height="2" rx="1" fill="#111014"/>
<rect id="Rectangle 51 Copy 2" opacity="0.3" x="4" y="15" width="5" height="2" rx="1" fill="#111014"/>
</g>
</svg>
