<svg width="24" height="24" viewBox="0 0 24 24" fill="none" xmlns="http://www.w3.org/2000/svg">
<g id="Property 2=Sort#1">
<rect id="Rectangle 8" x="4" y="5" width="16" height="3" rx="1.5" fill="#111014"/>
<path id="Combined Shape" opacity="0.3" fill-rule="evenodd" clip-rule="evenodd" d="M7.5 11C6.67157 11 6 11.6716 6 12.5C6 13.3284 6.67157 14 7.5 14H16.5C17.3284 14 18 13.3284 18 12.5C18 11.6716 17.3284 11 16.5 11H7.5ZM10.5 17C9.67157 17 9 17.6716 9 18.5C9 19.3284 9.67157 20 10.5 20H13.5C14.3284 20 15 19.3284 15 18.5C15 17.6716 14.3284 17 13.5 17H10.5Z" fill="#111014"/>
</g>
</svg>
