<svg width="24" height="24" viewBox="0 0 24 24" fill="none" xmlns="http://www.w3.org/2000/svg">
<g id="Property 2=Compass">
<path id="Combined Shape" fill-rule="evenodd" clip-rule="evenodd" d="M21 12C21 16.9706 16.9706 21 12 21C7.02944 21 3 16.9706 3 12C3 7.02944 7.02944 3 12 3C16.9706 3 21 7.02944 21 12ZM15.2957 8.07419C15.6866 7.94389 16.0585 8.31576 15.9282 8.70664L14.2022 13.8847C14.1524 14.0341 14.0352 14.1512 13.8859 14.201L8.70783 15.927C8.31695 16.0573 7.94508 15.6854 8.07538 15.2946L9.80141 10.1165C9.85118 9.96715 9.96834 9.84999 10.1176 9.80022L15.2957 8.07419Z" fill="#111014"/>
</g>
</svg>
