<svg width="24" height="24" viewBox="0 0 24 24" fill="none" xmlns="http://www.w3.org/2000/svg">
<g id="Property 2=Call">
<path id="Combined Shape" fill-rule="evenodd" clip-rule="evenodd" d="M22 12C22 17.5228 17.5228 22 12 22C6.47715 22 2 17.5228 2 12C2 6.47715 6.47715 2 12 2C17.5228 2 22 6.47715 22 12ZM13.0059 13.213C13.451 13.6582 14.131 13.7685 14.6941 13.487C15.2571 13.2055 15.9371 13.3158 16.3822 13.7609L17.8989 15.2777C18.1591 15.5379 18.0545 15.9809 17.7055 16.0973C15.571 16.8088 13.2177 16.2533 11.6267 14.6623L9.72086 12.7564C8.18651 11.2221 7.80613 8.87806 8.77654 6.93724C8.90477 6.68077 9.24659 6.6253 9.44935 6.82806L11.1203 8.49899C11.5654 8.94411 11.6757 9.62412 11.3942 10.1872C11.1127 10.7502 11.2231 11.4302 11.6682 11.8753L13.0059 13.213Z" fill="#111014"/>
</g>
</svg>
