<svg width="24" height="24" viewBox="0 0 24 24" fill="none" xmlns="http://www.w3.org/2000/svg">
<g id="Property 2=Bezier-curve">
<path id="Combined Shape" opacity="0.3" fill-rule="evenodd" clip-rule="evenodd" d="M3.04688 13.6974L4.95312 14.3026C6.31195 10.0223 8.62312 8 12 8C15.3769 8 17.688 10.0223 19.0469 14.3026L20.9531 13.6974C19.349 8.6444 16.3268 6 12 6C7.67318 6 4.65101 8.6444 3.04688 13.6974ZM12 6C11.4477 6 11 6.44772 11 7C11 7.55228 11.4477 8 12 8C12.5523 8 13 7.55228 13 7C13 6.44772 12.5523 6 12 6Z" fill="#111014"/>
<path id="Combined Shape_2" fill-rule="evenodd" clip-rule="evenodd" d="M12 10C13.3062 10 14.4175 9.16519 14.8293 8H18.2676C18.6134 8.5978 19.2597 9 20 9C21.1046 9 22 8.10457 22 7C22 5.89543 21.1046 5 20 5C19.2597 5 18.6134 5.4022 18.2676 6H14.8293C14.4175 4.83481 13.3062 4 12 4C10.6938 4 9.58254 4.83481 9.17071 6H5.73244C5.38663 5.4022 4.74028 5 4 5C2.89543 5 2 5.89543 2 7C2 8.10457 2.89543 9 4 9C4.74028 9 5.38663 8.5978 5.73244 8H9.17071C9.58254 9.16519 10.6938 10 12 10ZM13 7C13 7.55228 12.5523 8 12 8C11.4477 8 11 7.55228 11 7C11 6.44772 11.4477 6 12 6C12.5523 6 13 6.44772 13 7ZM4 19C5.65685 19 7 17.6569 7 16C7 14.3431 5.65685 13 4 13C2.34315 13 1 14.3431 1 16C1 17.6569 2.34315 19 4 19ZM5 16C5 16.5523 4.55228 17 4 17C3.44772 17 3 16.5523 3 16C3 15.4477 3.44772 15 4 15C4.55228 15 5 15.4477 5 16ZM20 19C21.6569 19 23 17.6569 23 16C23 14.3431 21.6569 13 20 13C18.3431 13 17 14.3431 17 16C17 17.6569 18.3431 19 20 19ZM21 16C21 16.5523 20.5523 17 20 17C19.4477 17 19 16.5523 19 16C19 15.4477 19.4477 15 20 15C20.5523 15 21 15.4477 21 16Z" fill="#111014"/>
</g>
</svg>
