<svg width="24" height="24" viewBox="0 0 24 24" fill="none" xmlns="http://www.w3.org/2000/svg">
<g id="Property 2=Github">
<path id="Combined Shape" fill-rule="evenodd" clip-rule="evenodd" d="M16.5429 17.4571L11 11.9142V4C11 3.44772 11.4477 3 12 3C12.5523 3 13 3.44772 13 4V11.0858L17.9571 16.0429L20.1464 13.8536C20.4614 13.5386 21 13.7617 21 14.2071V19.5C21 19.7761 20.7761 20 20.5 20H15.2071C14.7617 20 14.5386 19.4614 14.8536 19.1464L16.5429 17.4571Z" fill="#111014"/>
<path id="Combined Shape_2" opacity="0.3" fill-rule="evenodd" clip-rule="evenodd" d="M8.85442 13.1631L10.1463 14.6899L7.24515 17.1447L9.24681 19.1463C9.56179 19.4613 9.33871 19.9999 8.89326 19.9999H3.5293C3.25315 19.9999 3.0293 19.776 3.0293 19.4999V14.1359C3.0293 13.6905 3.56787 13.4674 3.88285 13.7824L5.82604 15.7256L8.85442 13.1631Z" fill="#111014"/>
</g>
</svg>
