<svg width="24" height="24" viewBox="0 0 24 24" fill="none" xmlns="http://www.w3.org/2000/svg">
<g id="Property 2=Compilation">
<path id="Combined Shape" opacity="0.3" fill-rule="evenodd" clip-rule="evenodd" d="M2 19.5C2 20.3284 2.67157 21 3.5 21H20.5C21.3284 21 22 20.3284 22 19.5V8.5C22 7.67157 21.3284 7 20.5 7H10L7.43934 4.43934C7.15804 4.15804 6.7765 4 6.37868 4H3.5C2.67157 4 2 4.67157 2 5.5V19.5Z" fill="#111014"/>
<rect id="Rectangle 41" opacity="0.3" x="6.76172" y="14.127" width="3.14286" height="3.14286" rx="0.75" transform="rotate(-45 6.76172 14.127)" fill="#111014"/>
<rect id="Rectangle 41 Copy" opacity="0.3" x="13.0469" y="14.127" width="3.14286" height="3.14286" rx="0.75" transform="rotate(-45 13.0469 14.127)" fill="#111014"/>
<rect id="Rectangle 41 Copy 3" x="9.9043" y="17.27" width="3.14286" height="3.14286" rx="0.75" transform="rotate(-45 9.9043 17.27)" fill="#111014"/>
<rect id="Rectangle 41 Copy 4" x="9.9043" y="10.9844" width="3.14286" height="3.14286" rx="0.75" transform="rotate(-45 9.9043 10.9844)" fill="#111014"/>
</g>
</svg>
