<svg width="24" height="24" viewBox="0 0 24 24" fill="none" xmlns="http://www.w3.org/2000/svg">
<g id="Property 2=Dinner #1">
<path id="Combined Shape" opacity="0.3" fill-rule="evenodd" clip-rule="evenodd" d="M14 6C14 7.10457 13.1046 8 12 8C10.8954 8 10 7.10457 10 6C10 4.89543 10.8954 4 12 4C13.1046 4 14 4.89543 14 6ZM3 18C2.44772 18 2 18.4477 2 19C2 19.5523 2.44772 20 3 20H21C21.5523 20 22 19.5523 22 19C22 18.4477 21.5523 18 21 18H3Z" fill="#111014"/>
<path id="Oval 38" fill-rule="evenodd" clip-rule="evenodd" d="M21 16C21 11.0294 16.9706 7 12 7C7.02944 7 3 11.0294 3 16H21Z" fill="#111014"/>
</g>
</svg>
