<svg width="24" height="24" viewBox="0 0 24 24" fill="none" xmlns="http://www.w3.org/2000/svg">
<g id="Property 2=Mail-unocked">
<path id="Combined Shape" opacity="0.3" fill-rule="evenodd" clip-rule="evenodd" d="M3 16V17C2.44772 17 2 17.4477 2 18V21C2 21.5523 2.44772 22 3 22H8C8.55228 22 9 21.5523 9 21V18C9 17.4477 8.55228 17 8 17H4V16C4 14.8954 3.10457 14 2 14C0.89543 14 0 14.8954 0 16H1C1 15.4477 1.44772 15 2 15C2.55228 15 3 15.4477 3 16Z" fill="#111014"/>
<path id="Combined Shape_2" fill-rule="evenodd" clip-rule="evenodd" d="M4 7C4 5.89543 4.89543 5 6 5H20C21.1046 5 22 5.89543 22 7V16C22 17.1046 21.1046 18 20 18H12.9836C12.7263 14.091 9.47412 11 5.5 11C4.9863 11 4.48466 11.0516 4 11.15V7ZM19.1444 6.83965C19.5091 6.64327 19.964 6.77972 20.1604 7.14443C20.3567 7.50913 20.2203 7.96397 19.8556 8.16035L13.3556 11.6604C13.1336 11.7799 12.8664 11.7799 12.6444 11.6604L6.14443 8.16035C5.77972 7.96397 5.64327 7.50913 5.83965 7.14443C6.03603 6.77972 6.49087 6.64327 6.85557 6.83965L13 10.1482L19.1444 6.83965Z" fill="#111014"/>
</g>
</svg>
