<svg width="24" height="24" viewBox="0 0 24 24" fill="none" xmlns="http://www.w3.org/2000/svg">
<g id="Property 2=Beer">
<path id="Path 52" opacity="0.3" d="M16 7V9H19C19.5523 9 20 9.44772 20 10V13C20 13.5523 19.5523 14 19 14H16V16H19C20.6569 16 22 14.6569 22 13V10C22 8.34315 20.6569 7 19 7H16Z" fill="#111014"/>
<path id="Combined Shape" opacity="0.3" fill-rule="evenodd" clip-rule="evenodd" d="M12.2423 5C11.435 3.79401 10.0602 3 8.50004 3C6.93983 3 5.56507 3.79401 4.75781 5H12.2423Z" fill="#111014"/>
<path id="Combined Shape_2" opacity="0.3" fill-rule="evenodd" clip-rule="evenodd" d="M7 5H15C15 2.79086 13.2091 1 11 1C8.79086 1 7 2.79086 7 5Z" fill="#111014"/>
<path id="Combined Shape_3" opacity="0.3" fill-rule="evenodd" clip-rule="evenodd" d="M16.9508 5C16.7191 3.85888 15.7103 3 14.5008 3C13.2913 3 12.2824 3.85888 12.0508 5H16.9508Z" fill="#111014"/>
<path id="Combined Shape_4" fill-rule="evenodd" clip-rule="evenodd" d="M4.06055 5C3.50826 5 3.06055 5.44772 3.06055 6V20C3.06055 21.1046 3.95598 22 5.06055 22H15.9395C17.044 22 17.9395 21.1046 17.9395 20V6C17.9395 5.44772 17.4918 5 16.9395 5H4.06055ZM7.00003 9C7.00003 8.44772 7.44774 8 8.00003 8C8.55231 8 9.00003 8.44772 9.00003 9V18C9.00003 18.5523 8.55231 19 8.00003 19C7.44774 19 7.00003 18.5523 7.00003 18V9ZM12 9C12 8.44772 12.4477 8 13 8C13.5523 8 14 8.44772 14 9V18C14 18.5523 13.5523 19 13 19C12.4477 19 12 18.5523 12 18V9Z" fill="#111014"/>
</g>
</svg>
