<svg width="24" height="24" viewBox="0 0 24 24" fill="none" xmlns="http://www.w3.org/2000/svg">
<g id="Property 2=Keyboard">
<path id="Path 21" opacity="0.3" d="M11.9481 8.31623L10.0508 7.68377C10.8155 5.38965 12.0421 3.95855 13.7569 3.52986C14.6498 3.30665 15.9995 1.86951 15.9995 1H17.9995C17.9995 2.79716 16.0158 5.02668 14.242 5.47014C13.2901 5.70811 12.5168 6.61035 11.9481 8.31623Z" fill="#111014"/>
<path id="Combined Shape" fill-rule="evenodd" clip-rule="evenodd" d="M1 9C1 7.89543 1.89543 7 3 7H21C22.1046 7 23 7.89543 23 9V19C23 20.1046 22.1046 21 21 21H3C1.89543 21 1 20.1046 1 19V9ZM7 9.5C7 9.22386 7.22386 9 7.5 9H8.5C8.77614 9 9 9.22386 9 9.5V10.5C9 10.7761 8.77614 11 8.5 11H7.5C7.22386 11 7 10.7761 7 10.5V9.5ZM3.5 9C3.22386 9 3 9.22386 3 9.5V10.5C3 10.7761 3.22386 11 3.5 11H4.5C4.77614 11 5 10.7761 5 10.5V9.5C5 9.22386 4.77614 9 4.5 9H3.5ZM5 13.5C5 13.2239 5.22386 13 5.5 13H6.5C6.77614 13 7 13.2239 7 13.5V14.5C7 14.7761 6.77614 15 6.5 15H5.5C5.22386 15 5 14.7761 5 14.5V13.5ZM9.5 13C9.22386 13 9 13.2239 9 13.5V14.5C9 14.7761 9.22386 15 9.5 15H10.5C10.7761 15 11 14.7761 11 14.5V13.5C11 13.2239 10.7761 13 10.5 13H9.5ZM13 13.5C13 13.2239 13.2239 13 13.5 13H14.5C14.7761 13 15 13.2239 15 13.5V14.5C15 14.7761 14.7761 15 14.5 15H13.5C13.2239 15 13 14.7761 13 14.5V13.5ZM17.5 13C17.2239 13 17 13.2239 17 13.5V14.5C17 14.7761 17.2239 15 17.5 15H18.5C18.7761 15 19 14.7761 19 14.5V13.5C19 13.2239 18.7761 13 18.5 13H17.5ZM11 9.5C11 9.22386 11.2239 9 11.5 9H12.5C12.7761 9 13 9.22386 13 9.5V10.5C13 10.7761 12.7761 11 12.5 11H11.5C11.2239 11 11 10.7761 11 10.5V9.5ZM5.5 17C5.22386 17 5 17.2239 5 17.5V18.5C5 18.7761 5.22386 19 5.5 19H18.5C18.7761 19 19 18.7761 19 18.5V17.5C19 17.2239 18.7761 17 18.5 17H5.5ZM15 9.5C15 9.22386 15.2239 9 15.5 9H16.5C16.7761 9 17 9.22386 17 9.5V10.5C17 10.7761 16.7761 11 16.5 11H15.5C15.2239 11 15 10.7761 15 10.5V9.5ZM19.5 9C19.2239 9 19 9.22386 19 9.5V10.5C19 10.7761 19.2239 11 19.5 11H20.5C20.7761 11 21 10.7761 21 10.5V9.5C21 9.22386 20.7761 9 20.5 9H19.5Z" fill="#111014"/>
</g>
</svg>
