<svg width="24" height="24" viewBox="0 0 24 24" fill="none" xmlns="http://www.w3.org/2000/svg">
<g id="Property 2=Git#1">
<rect id="Rectangle" opacity="0.3" x="11" y="8" width="2" height="9" rx="1" fill="#111014"/>
<path id="Oval 7 Copy" fill-rule="evenodd" clip-rule="evenodd" d="M8 19C8 21.2091 9.79086 23 12 23C14.2091 23 16 21.2091 16 19C16 16.7909 14.2091 15 12 15C9.79086 15 8 16.7909 8 19ZM14 19C14 20.1046 13.1046 21 12 21C10.8954 21 10 20.1046 10 19C10 17.8954 10.8954 17 12 17C13.1046 17 14 17.8954 14 19Z" fill="#111014"/>
<path id="Oval 7" fill-rule="evenodd" clip-rule="evenodd" d="M8 5C8 7.20914 9.79086 9 12 9C14.2091 9 16 7.20914 16 5C16 2.79086 14.2091 1 12 1C9.79086 1 8 2.79086 8 5ZM14 5C14 6.10457 13.1046 7 12 7C10.8954 7 10 6.10457 10 5C10 3.89543 10.8954 3 12 3C13.1046 3 14 3.89543 14 5Z" fill="#111014"/>
</g>
</svg>
