<svg width="24" height="24" viewBox="0 0 24 24" fill="none" xmlns="http://www.w3.org/2000/svg">
<g id="Property 2=Call#1">
<path id="Path 76" fill-rule="evenodd" clip-rule="evenodd" d="M11.9149 14.1427L14.1189 11.9387C14.7276 11.33 14.8786 10.4 14.4936 9.63003L14.3687 9.38027C13.9837 8.6103 14.1346 7.68035 14.7433 7.07163L17.4761 4.33883C17.6714 4.14357 17.988 4.14357 18.1832 4.33883C18.2212 4.37683 18.2529 4.42071 18.2769 4.46878L19.3809 6.67673C20.2254 8.36584 19.8944 10.4059 18.559 11.7412L12.5602 17.74C11.1067 19.1936 8.95663 19.7011 7.0065 19.0511L4.59202 18.2463C4.33005 18.1589 4.18847 17.8758 4.27579 17.6138C4.30034 17.5402 4.34169 17.4733 4.39658 17.4184L7.04785 14.7671C7.65657 14.1584 8.58652 14.0075 9.35649 14.3925L9.60626 14.5173C10.3762 14.9023 11.3062 14.7514 11.9149 14.1427Z" fill="#111014"/>
</g>
</svg>
