<svg width="24" height="24" viewBox="0 0 24 24" fill="none" xmlns="http://www.w3.org/2000/svg">
<g id="Property 2=Router#2">
<rect id="Combined Shape" x="3" y="13" width="18" height="7" rx="2" fill="#111014"/>
<path id="Combined Shape_2" opacity="0.3" fill-rule="evenodd" clip-rule="evenodd" d="M18.93 8.25619L20.469 6.97889C18.3925 4.47693 15.3162 3 12.0008 3C8.69006 3 5.6176 4.47282 3.54102 6.96885L5.0785 8.24797C6.77904 6.20393 9.29058 5 12.0008 5C14.7148 5 17.2295 6.2073 18.93 8.25619ZM15.8607 10.8215L17.4038 9.5491C16.0828 7.94714 14.1182 7 12.0008 7C9.89042 7 7.93158 7.94091 6.61047 9.53389L8.14994 10.8106C9.09502 9.67104 10.492 9 12.0008 9C13.5146 9 14.9157 9.6755 15.8607 10.8215Z" fill="#111014"/>
</g>
</svg>
