<svg width="24" height="24" viewBox="0 0 24 24" fill="none" xmlns="http://www.w3.org/2000/svg">
<g id="Property 2=Up-down">
<rect id="Rectangle" opacity="0.3" x="7" y="17" width="2" height="12" rx="1" transform="rotate(-180 7 17)" fill="#111014"/>
<path id="Path 104" d="M8.29289 14.2929C8.68342 13.9024 9.31658 13.9024 9.70711 14.2929C10.0976 14.6834 10.0976 15.3166 9.70711 15.7071L6.70711 18.7071C6.31658 19.0976 5.68342 19.0976 5.29289 18.7071L2.29289 15.7071C1.90237 15.3166 1.90237 14.6834 2.29289 14.2929C2.68342 13.9024 3.31658 13.9024 3.70711 14.2929L6 16.5858L8.29289 14.2929Z" fill="#111014"/>
<rect id="Rectangle Copy" opacity="0.3" width="2" height="12" rx="1" transform="matrix(-1 0 0 1 19 7)" fill="#111014"/>
<path id="Path 104 Copy" d="M20.2929 9.70711C20.6834 10.0976 21.3166 10.0976 21.7071 9.70711C22.0976 9.31658 22.0976 8.68342 21.7071 8.29289L18.7071 5.29289C18.3166 4.90237 17.6834 4.90237 17.2929 5.29289L14.2929 8.29289C13.9024 8.68342 13.9024 9.31658 14.2929 9.70711C14.6834 10.0976 15.3166 10.0976 15.7071 9.70711L18 7.41421L20.2929 9.70711Z" fill="#111014"/>
</g>
</svg>
