<svg width="24" height="24" viewBox="0 0 24 24" fill="none" xmlns="http://www.w3.org/2000/svg">
<g id="Property 2=Bottle#2">
<path id="Path 73" fill-rule="evenodd" clip-rule="evenodd" d="M8 18V22C8 22.5523 8.44772 23 9 23H15C15.5523 23 16 22.5523 16 22V10.4142C16 10.149 15.8946 9.89464 15.7071 9.70711L14.2929 8.29289C14.1054 8.10536 14 7.851 14 7.58579V5C14 4.44772 13.5523 4 13 4H11C10.4477 4 10 4.44772 10 5V7.58579C10 7.851 9.89464 8.10536 9.70711 8.29289L8.29289 9.70711C8.10536 9.89464 8 10.149 8 10.4142V13H12V18H8Z" fill="#111014"/>
<rect id="Rectangle" opacity="0.3" x="10" y="1" width="4" height="2" rx="1" fill="#111014"/>
</g>
</svg>
