<svg width="24" height="24" viewBox="0 0 24 24" fill="none" xmlns="http://www.w3.org/2000/svg">
<g id="Property 2=Scissors">
<path id="Combined Shape" opacity="0.3" fill-rule="evenodd" clip-rule="evenodd" d="M7.70751 11.6465L4.15716 9.753C3.96223 9.64904 3.88849 9.40674 3.99245 9.21182C4.08416 9.03986 4.28646 8.95902 4.47142 9.02043L9.57261 10.714L7.70751 11.6465ZM12.7329 14.3267L16.3692 12.9704L18.6322 13.7217L18.6305 13.7226C20.009 14.1925 21.0006 15.4985 21.0006 17.0361C21.0006 18.9691 19.4335 20.5361 17.5006 20.5361C15.5676 20.5361 14.0006 18.9691 14.0006 17.0361C14.0006 16.388 14.1767 15.7811 14.4838 15.2605L12.7329 14.3267ZM16.0006 17.0361C16.0006 16.2077 16.6721 15.5361 17.5006 15.5361C18.329 15.5361 19.0006 16.2077 19.0006 17.0361C19.0006 17.8646 18.329 18.5361 17.5006 18.5361C16.6721 18.5361 16.0006 17.8646 16.0006 17.0361Z" fill="#111014"/>
<path id="Combined Shape_2" fill-rule="evenodd" clip-rule="evenodd" d="M14.4823 9.27562C14.1753 8.75507 13.9991 8.14811 13.9991 7.5C13.9991 5.567 15.5661 4 17.4991 4C19.4321 4 20.9991 5.567 20.9991 7.5C20.9991 9.03761 20.0076 10.3436 18.6291 10.8136L18.6308 10.8145L4.47001 15.5157C4.005 15.6701 3.72342 15.0137 4.15574 14.7831L14.4823 9.27562ZM17.4991 9C18.3276 9 18.9991 8.32843 18.9991 7.5C18.9991 6.67157 18.3276 6 17.4991 6C16.6707 6 15.9991 6.67157 15.9991 7.5C15.9991 8.32843 16.6707 9 17.4991 9Z" fill="#111014"/>
</g>
</svg>
