<svg width="24" height="24" viewBox="0 0 24 24" fill="none" xmlns="http://www.w3.org/2000/svg">
<g id="Property 2=Mixer">
<path id="Combined Shape" fill-rule="evenodd" clip-rule="evenodd" d="M8.42219 7.19587C8.29228 7.06902 8.24134 6.88172 8.28911 6.70656L8.84235 4.67801C9.00933 4.06578 9.5435 3.62486 10.1763 3.57697L17.799 3L18.8597 4.06066C19.9312 5.1322 21.3704 6.76044 23.1771 8.9454C23.6681 9.53927 23.7743 10.3624 23.4501 11.0615L20.8915 16.5771C20.82 16.7313 20.7228 16.8722 20.604 16.9938C20.0253 17.5865 19.0756 17.5979 18.4829 17.0191L8.42219 7.19587ZM20.5417 9.22082L17.799 5.56396C17.3679 4.98917 16.5525 4.87268 15.9777 5.30377C15.9285 5.34071 15.8819 5.38109 15.8384 5.42462C15.2526 6.01041 15.2526 6.96016 15.8384 7.54594L19.0203 10.7279C19.4109 11.1184 20.044 11.1184 20.4346 10.7279C20.8403 10.3222 20.8859 9.67985 20.5417 9.22082Z" fill="#111014"/>
<path id="Combined Shape_2" opacity="0.3" fill-rule="evenodd" clip-rule="evenodd" d="M10.3763 14.2318L12.0398 15.8953C12.6522 16.5077 12.6522 17.5007 12.0398 18.1132L8.71282 21.4401C8.10035 22.0526 7.10734 22.0526 6.49487 21.4401L2.05896 17.0042C1.44649 16.3918 1.44649 15.3988 2.05896 14.7863L5.38589 11.4594C5.99836 10.8469 6.99137 10.8469 7.60385 11.4594L9.26731 13.1228L10.9308 11.4594L12.0398 12.5683L10.3763 14.2318ZM7.3266 20.0539L10.6535 16.727L10.099 16.1725L6.77211 19.4994L7.3266 20.0539ZM5.66314 18.3905L8.99007 15.0635L8.43558 14.509L5.10865 17.836L5.66314 18.3905ZM3.99967 16.727L7.3266 13.4001L6.77211 12.8456L3.44518 16.1725L3.99967 16.727Z" fill="#111014"/>
</g>
</svg>
