<svg width="24" height="24" viewBox="0 0 24 24" fill="none" xmlns="http://www.w3.org/2000/svg">
<g id="Property 2=Display#1">
<path id="Combined Shape" opacity="0.3" fill-rule="evenodd" clip-rule="evenodd" d="M12 16C11.4477 16 11 16.4477 11 17V20H8.5C8.22386 20 8 20.2239 8 20.5C8 20.7761 8.22386 21 8.5 21H12H15.5C15.7761 21 16 20.7761 16 20.5C16 20.2239 15.7761 20 15.5 20H13V17C13 16.4477 12.5523 16 12 16Z" fill="#111014"/>
<path id="Combined Shape_2" fill-rule="evenodd" clip-rule="evenodd" d="M2 6C2 5.44772 2.44772 5 3 5H21C21.5523 5 22 5.44772 22 6V16C22 16.5523 21.5523 17 21 17H3C2.44772 17 2 16.5523 2 16V6ZM4 8.5C4 8.22386 4.22386 8 4.5 8H13.5C13.7761 8 14 8.22386 14 8.5C14 8.77614 13.7761 9 13.5 9H4.5C4.22386 9 4 8.77614 4 8.5ZM4.5 10C4.22386 10 4 10.2239 4 10.5C4 10.7761 4.22386 11 4.5 11H7.5C7.77614 11 8 10.7761 8 10.5C8 10.2239 7.77614 10 7.5 10H4.5Z" fill="#111014"/>
</g>
</svg>
