<svg width="24" height="24" viewBox="0 0 24 24" fill="none" xmlns="http://www.w3.org/2000/svg">
<g id="Property 2=Frying-pan">
<path id="Combined Shape" opacity="0.3" fill-rule="evenodd" clip-rule="evenodd" d="M8.68223 12.7553L12.8926 8.68945L8.03884 3.66326C6.91608 2.50061 5.06338 2.46827 3.90073 3.59103C2.73807 4.71379 2.70573 6.56649 3.8285 7.72914L8.68223 12.7553ZM4.86184 6.63479C4.31377 6.06725 4.33383 5.15873 4.90665 4.60557C5.47947 4.0524 6.38813 4.06406 6.9362 4.6316C7.48427 5.19914 7.46421 6.10766 6.89139 6.66082C6.31857 7.21399 5.40991 7.20233 4.86184 6.63479Z" fill="#111014"/>
<path id="Combined Shape_2" fill-rule="evenodd" clip-rule="evenodd" d="M9.93892 19.9244C7.20525 17.1907 7.20525 12.7585 9.93892 10.0249C12.6726 7.29119 17.1047 7.29119 19.8384 10.0249C22.5721 12.7585 22.5721 17.1907 19.8384 19.9244C17.1047 22.658 12.6726 22.658 9.93892 19.9244ZM14.9996 20.4997C18.0372 20.4997 20.4996 18.0373 20.4996 14.9997C20.4996 11.9622 18.0372 9.49974 14.9996 9.49974C11.962 9.49974 9.49958 11.9622 9.49958 14.9997C9.49958 18.0373 11.962 20.4997 14.9996 20.4997ZM14.9996 19.4997C12.5143 19.4997 10.4996 17.485 10.4996 14.9997C10.4996 12.5145 12.5143 10.4997 14.9996 10.4997C17.4849 10.4997 19.4996 12.5145 19.4996 14.9997C19.4996 17.485 17.4849 19.4997 14.9996 19.4997Z" fill="#111014"/>
</g>
</svg>
