<svg width="24" height="24" viewBox="0 0 24 24" fill="none" xmlns="http://www.w3.org/2000/svg">
<g id="Property 2=Share">
<path id="Combined Shape" fill-rule="evenodd" clip-rule="evenodd" d="M15.0775 4.7876C15.2169 5.48589 15.5381 6.11858 15.9897 6.63423L8.865 10.9658C8.67213 10.2432 8.28202 9.6012 7.75586 9.1009L15.0775 4.7876ZM7.83785 14.8191C8.31992 14.3338 8.67837 13.7256 8.862 13.0455L16.0981 17.2471C15.6353 17.7348 15.2941 18.3391 15.1232 19.0113L7.83785 14.8191Z" fill="#111014"/>
<path id="Oval 77" opacity="0.3" fill-rule="evenodd" clip-rule="evenodd" d="M19 7C20.6569 7 22 5.65685 22 4C22 2.34315 20.6569 1 19 1C17.3431 1 16 2.34315 16 4C16 5.65685 17.3431 7 19 7Z" fill="#111014"/>
<path id="Oval 77 Copy" opacity="0.3" fill-rule="evenodd" clip-rule="evenodd" d="M19 23C20.6569 23 22 21.6569 22 20C22 18.3431 20.6569 17 19 17C17.3431 17 16 18.3431 16 20C16 21.6569 17.3431 23 19 23Z" fill="#111014"/>
<path id="Oval 77 Copy 2" opacity="0.3" fill-rule="evenodd" clip-rule="evenodd" d="M5 15C6.65685 15 8 13.6569 8 12C8 10.3431 6.65685 9 5 9C3.34315 9 2 10.3431 2 12C2 13.6569 3.34315 15 5 15Z" fill="#111014"/>
</g>
</svg>
