<svg width="24" height="24" viewBox="0 0 24 24" fill="none" xmlns="http://www.w3.org/2000/svg">
<g id="Property 2=Clipboard-check">
<path id="Combined Shape" opacity="0.3" fill-rule="evenodd" clip-rule="evenodd" d="M8 3H6C4.89543 3 4 3.89543 4 5V21C4 22.1046 4.89543 23 6 23H18C19.1046 23 20 22.1046 20 21V5C20 3.89543 19.1046 3 18 3H16V3.5C16 4.32843 15.3284 5 14.5 5H9.5C8.67157 5 8 4.32843 8 3.5V3Z" fill="#111014"/>
<path id="check-path" fill-rule="evenodd" clip-rule="evenodd" d="M10.875 15.75C10.6354 15.75 10.3958 15.6542 10.2042 15.4625L8.2875 13.5458C7.90417 13.1625 7.90417 12.5875 8.2875 12.2042C8.67083 11.8208 9.29375 11.8208 9.62917 12.2042L10.875 13.45L14.0375 10.2875C14.4208 9.90417 14.9958 9.90417 15.3792 10.2875C15.7625 10.6708 15.7625 11.2458 15.3792 11.6292L11.5458 15.4625C11.3542 15.6542 11.1146 15.75 10.875 15.75Z" fill="#111014"/>
<path id="Combined Shape_2" fill-rule="evenodd" clip-rule="evenodd" d="M13 2H14.5C14.7761 2 15 2.22386 15 2.5V3.5C15 3.77614 14.7761 4 14.5 4H9.5C9.22386 4 9 3.77614 9 3.5V2.5C9 2.22386 9.22386 2 9.5 2H11C11 1.44772 11.4477 1 12 1C12.5523 1 13 1.44772 13 2Z" fill="#111014"/>
</g>
</svg>
