<svg width="24" height="24" viewBox="0 0 24 24" fill="none" xmlns="http://www.w3.org/2000/svg">
<g id="Property 2=Laptop">
<path id="Combined Shape" fill-rule="evenodd" clip-rule="evenodd" d="M5.99929 6H17.9993C19.1039 6 19.9993 6.89543 19.9993 8V16H21.6121C22.1644 16 22.6121 16.4477 22.6121 17C22.6121 17.5523 22.1644 18 21.6121 18H17.9993H5.99929H2.38672C1.83443 18 1.38672 17.5523 1.38672 17C1.38672 16.4477 1.83443 16 2.38672 16H3.99929V8C3.99929 6.89543 4.89472 6 5.99929 6ZM5.99929 16H17.9993V8H5.99929V16Z" fill="#111014"/>
<path id="Combined Shape_2" opacity="0.3" fill-rule="evenodd" clip-rule="evenodd" d="M6 8V16H18V8H6Z" fill="#111014"/>
</g>
</svg>
