<svg width="24" height="24" viewBox="0 0 24 24" fill="none" xmlns="http://www.w3.org/2000/svg">
<g id="Property 2=Chat-smile">
<path id="Path 75" opacity="0.3" fill-rule="evenodd" clip-rule="evenodd" d="M5 15L3 21.5L9.5 19.5L5 15Z" fill="#111014"/>
<path id="Combined Shape" fill-rule="evenodd" clip-rule="evenodd" d="M13 2C7.47715 2 3 6.47715 3 12C3 17.5228 7.47715 22 13 22C18.5228 22 23 17.5228 23 12C23 6.47715 18.5228 2 13 2ZM7.4453 12.1679C6.98577 12.4743 6.8616 13.0952 7.16795 13.5547C8.67758 15.8191 10.6457 17 13 17C15.3543 17 17.3224 15.8191 18.8321 13.5547C19.1384 13.0952 19.0142 12.4743 18.5547 12.1679C18.0952 11.8616 17.4743 11.9858 17.1679 12.4453C16.0109 14.1809 14.6457 15 13 15C11.3543 15 9.98909 14.1809 8.83205 12.4453C8.5257 11.9858 7.90483 11.8616 7.4453 12.1679Z" fill="#111014"/>
</g>
</svg>
