<svg width="24" height="24" viewBox="0 0 24 24" fill="none" xmlns="http://www.w3.org/2000/svg">
<g id="Property 2=Incoming-call">
<path id="Shape" opacity="0.3" d="M9.85994 6.01171C9.94022 5.93143 10.0454 5.88086 10.1583 5.86832C10.4327 5.83783 10.6799 6.0356 10.7104 6.31005L11.2336 11.0189C11.2377 11.0556 11.2377 11.0926 11.2336 11.1293C11.2031 11.4038 10.9559 11.6015 10.6815 11.571L5.97265 11.0478C5.85981 11.0353 5.75459 10.9847 5.67431 10.9044C5.47905 10.7092 5.47905 10.3926 5.67431 10.1973L7.06002 8.81163L5.55856 7.31017C5.36329 7.11491 5.36329 6.79833 5.55856 6.60307L6.26566 5.89596C6.46092 5.7007 6.77751 5.7007 6.97277 5.89596L8.47423 7.39742L9.85994 6.01171Z" fill="#111014"/>
<path id="Path 76" fill-rule="evenodd" clip-rule="evenodd" d="M12.0809 14.7838L14.2849 12.5798C14.8937 11.9711 15.0446 11.0411 14.6596 10.2711L14.5347 10.0214C14.1497 9.25141 14.3006 8.32147 14.9093 7.71275L17.6421 4.97994C17.8374 4.78468 18.154 4.78468 18.3492 4.97994C18.3873 5.01794 18.4189 5.06182 18.4429 5.10989L19.5469 7.31784C20.3914 9.00695 20.0604 11.047 18.725 12.3823L12.7262 18.3812C11.2727 19.8347 9.12264 20.3423 7.17252 19.6922L4.75804 18.8874C4.49607 18.8001 4.35449 18.5169 4.44181 18.2549C4.46636 18.1813 4.50771 18.1144 4.5626 18.0595L7.21387 15.4082C7.82259 14.7995 8.75253 14.6486 9.52251 15.0336L9.77227 15.1585C10.5422 15.5434 11.4722 15.3925 12.0809 14.7838Z" fill="#111014"/>
</g>
</svg>
