<svg width="24" height="24" viewBox="0 0 24 24" fill="none" xmlns="http://www.w3.org/2000/svg">
<g id="Property 2=H2">
<path id="H2" fill-rule="evenodd" clip-rule="evenodd" d="M1.63477 18.9998V5.50977H3.36377V11.2668H10.8118V5.50977H12.5408V18.9998H10.8118V12.9388H3.36377V18.9998H1.63477Z" fill="#111014"/>
<path id="Combined Shape" opacity="0.3" fill-rule="evenodd" clip-rule="evenodd" d="M19.8734 13.3189L14.6484 18.9999H23.5214V17.4799H18.0684L21.1844 14.0219C22.8184 12.2549 23.5214 11.0009 23.5214 9.40491C23.5214 7.12491 21.7164 5.35791 19.4174 5.35791C17.1184 5.35791 15.3324 7.12491 15.3324 9.40491C15.3324 11.5519 16.9474 13.3189 19.2464 13.3759C19.4744 13.3759 19.6454 13.3569 19.8734 13.3189ZM21.9064 9.40491C21.9064 10.8679 20.8614 11.9509 19.4174 11.9509C17.9544 11.9509 16.9474 10.8679 16.9474 9.40491C16.9474 7.96091 17.9544 6.85891 19.4174 6.85891C20.8614 6.85891 21.9064 7.96091 21.9064 9.40491Z" fill="#111014"/>
</g>
</svg>
