<svg width="24" height="24" viewBox="0 0 24 24" fill="none" xmlns="http://www.w3.org/2000/svg">
<g id="Property 2=Night-fog">
<path id="Combined Shape" fill-rule="evenodd" clip-rule="evenodd" d="M12.8802 3.00021C12.4123 3.80914 12.1445 4.7483 12.1445 5.75C12.1445 8.77149 14.581 11.2239 17.5963 11.2498C16.6454 12.8939 14.8679 14 12.832 14C9.79447 14 7.33203 11.5376 7.33203 8.5C7.33203 5.46243 9.79447 3 12.832 3C12.8481 3 12.8642 3.00007 12.8802 3.00021Z" fill="#111014"/>
<path id="Combined Shape_2" opacity="0.3" fill-rule="evenodd" clip-rule="evenodd" d="M2 16.5C2 16.2239 2.22386 16 2.5 16H21.5C21.7761 16 22 16.2239 22 16.5C22 16.7761 21.7761 17 21.5 17H2.5C2.22386 17 2 16.7761 2 16.5ZM2 18.5C2 18.2239 2.22386 18 2.5 18H7.5C7.77614 18 8 18.2239 8 18.5C8 18.7761 7.77614 19 7.5 19H2.5C2.22386 19 2 18.7761 2 18.5ZM14.5 20C14.2239 20 14 20.2239 14 20.5C14 20.7761 14.2239 21 14.5 21H21.5C21.7761 21 22 20.7761 22 20.5C22 20.2239 21.7761 20 21.5 20H14.5ZM9 18.5C9 18.2239 9.22386 18 9.5 18H21.5C21.7761 18 22 18.2239 22 18.5C22 18.7761 21.7761 19 21.5 19H9.5C9.22386 19 9 18.7761 9 18.5ZM2.5 20C2.22386 20 2 20.2239 2 20.5C2 20.7761 2.22386 21 2.5 21H12.5C12.7761 21 13 20.7761 13 20.5C13 20.2239 12.7761 20 12.5 20H2.5Z" fill="#111014"/>
</g>
</svg>
