<svg width="24" height="24" viewBox="0 0 24 24" fill="none" xmlns="http://www.w3.org/2000/svg">
<g id="Property 2=Fish">
<path id="Combined Shape" opacity="0.3" fill-rule="evenodd" clip-rule="evenodd" d="M6.23942 9.18246C4.95224 7.89528 3.20777 7.34411 1.52896 7.52896C1.34547 9.19541 1.88721 10.9266 3.15417 12.2109C1.88721 13.4953 1.34547 15.2265 1.52896 16.8929C3.20777 17.0778 4.95224 16.5266 6.23942 15.2394C6.63801 14.8408 6.96602 14.3984 7.22346 13.9276C7.44695 13.929 7.67051 13.9174 7.89292 13.8929C7.95456 13.3331 7.93436 12.766 7.83231 12.2109C7.93436 11.6559 7.95456 11.0888 7.89292 10.529C7.67051 10.5045 7.44696 10.4929 7.22346 10.4942C6.96602 10.0235 6.63801 9.58105 6.23942 9.18246Z" fill="#111014"/>
<path id="Combined Shape_2" fill-rule="evenodd" clip-rule="evenodd" d="M23.4084 12.5952C21.2104 9.14928 17.8125 6 13.9991 6C10.1858 6 6.78789 9.14928 4.58984 12.5952C6.78789 15.8507 10.1858 19 13.9991 19C17.8125 19 21.2104 15.8507 23.4084 12.5952ZM20.9991 12C20.9991 12.5523 20.5514 13 19.9991 13C19.4468 13 18.9991 12.5523 18.9991 12C18.9991 11.4477 19.4468 11 19.9991 11C20.5514 11 20.9991 11.4477 20.9991 12Z" fill="#111014"/>
</g>
</svg>
