<svg width="24" height="24" viewBox="0 0 24 24" fill="none" xmlns="http://www.w3.org/2000/svg">
<g id="Property 2=Locked-folder-2">
<path id="Combined Shape" fill-rule="evenodd" clip-rule="evenodd" d="M10.9836 21H20.5C21.3284 21 22 20.3284 22 19.5V8.5C22 7.67157 21.3284 7 20.5 7H10L7.43934 4.43934C7.15804 4.15804 6.7765 4 6.37868 4H3.5C2.67157 4 2 4.67157 2 5.5V13.15C2.48466 13.0516 2.9863 13 3.5 13C7.64214 13 11 16.3579 11 20.5C11 20.668 10.9945 20.8347 10.9836 21Z" fill="#111014"/>
<path id="Mask" opacity="0.3" fill-rule="evenodd" clip-rule="evenodd" d="M2 18.5C2 17.1193 3.11929 16 4.5 16C5.88071 16 7 17.1193 7 18.5V19C7.55228 19 8 19.4477 8 20V23C8 23.5523 7.55228 24 7 24H2C1.44772 24 1 23.5523 1 23V20C1 19.4477 1.44772 19 2 19V18.5ZM4.5 17C3.67157 17 3 17.6716 3 18.5V19H6V18.5C6 17.6716 5.32843 17 4.5 17Z" fill="#111014"/>
</g>
</svg>
