<svg width="24" height="24" viewBox="0 0 24 24" fill="none" xmlns="http://www.w3.org/2000/svg">
<g id="Property 2=Angle-double-up">
<path id="Path 94" d="M17.2929 19.2071C17.6834 19.5976 18.3166 19.5976 18.7071 19.2071C19.0976 18.8166 19.0976 18.1834 18.7071 17.7929L12.7071 11.7929C12.3285 11.4143 11.7189 11.4011 11.3243 11.7628L5.32428 17.2628C4.91716 17.636 4.88965 18.2686 5.26285 18.6757C5.63604 19.0828 6.26861 19.1103 6.67572 18.7372L11.9699 13.8841L17.2929 19.2071Z" fill="#111014"/>
<path id="Path 94_2" opacity="0.3" d="M17.2929 12.2071C17.6834 12.5976 18.3166 12.5976 18.7071 12.2071C19.0976 11.8166 19.0976 11.1834 18.7071 10.7929L12.7071 4.79289C12.3285 4.41432 11.7189 4.40107 11.3243 4.76285L5.32428 10.2628C4.91716 10.636 4.88965 11.2686 5.26285 11.6757C5.63604 12.0828 6.26861 12.1103 6.67572 11.7372L11.9699 6.88414L17.2929 12.2071Z" fill="#111014"/>
</g>
</svg>
