<svg width="24" height="24" viewBox="0 0 24 24" fill="none" xmlns="http://www.w3.org/2000/svg">
<g id="Property 2=Display#2">
<path id="Combined Shape" opacity="0.3" fill-rule="evenodd" clip-rule="evenodd" d="M6 7V15H18V7H6Z" fill="#111014"/>
<path id="Combined Shape_2" opacity="0.3" fill-rule="evenodd" clip-rule="evenodd" d="M12 15C11.4477 15 11 15.4477 11 16V19H9.5C9.22386 19 9 19.2239 9 19.5C9 19.7761 9.22386 20 9.5 20H12H14.5C14.7761 20 15 19.7761 15 19.5C15 19.2239 14.7761 19 14.5 19H13V16C13 15.4477 12.5523 15 12 15Z" fill="#111014"/>
<path id="Combined Shape_3" fill-rule="evenodd" clip-rule="evenodd" d="M18 5H6C4.89543 5 4 5.89543 4 7V15C4 16.1046 4.89543 17 6 17H18C19.1046 17 20 16.1046 20 15V7C20 5.89543 19.1046 5 18 5ZM6 15V7H18V15H6Z" fill="#111014"/>
</g>
</svg>
