<svg width="24" height="24" viewBox="0 0 24 24" fill="none" xmlns="http://www.w3.org/2000/svg">
<g id="Property 2=Update">
<path id="Oval 65" opacity="0.3" d="M4 12H6C6 15.3137 8.68629 18 12 18C15.3137 18 18 15.3137 18 12C18 8.68629 15.3137 6 12 6C10.1448 6 8.43096 6.84607 7.29865 8.27165L5.73255 7.02773C7.24032 5.12944 9.52823 4 12 4C16.4183 4 20 7.58172 20 12C20 16.4183 16.4183 20 12 20C7.58172 20 4 16.4183 4 12Z" fill="#111014"/>
<path id="Path 10" d="M5.48789 4.34134C5.15132 4.10567 4.68994 4.35402 4.70129 4.76474L4.84462 9.94725C4.85387 10.2819 5.18299 10.5131 5.50095 10.4083L10.4359 8.78162C10.8268 8.65278 10.9033 8.13324 10.5662 7.89718L5.48789 4.34134Z" fill="#111014"/>
</g>
</svg>
