<svg width="24" height="24" viewBox="0 0 24 24" fill="none" xmlns="http://www.w3.org/2000/svg">
<g id="Property 2=Brush #1">
<path id="Path 17" fill-rule="evenodd" clip-rule="evenodd" d="M13.4999 6C13.4999 6 13.256 9.42857 11.8275 10.5C11.8275 10.5 12.4999 4 10.5734 2C10.5734 2 10.5734 5.92857 8.78767 9.14286C7.95062 10.6496 7.00195 12.1418 7.00195 14.1429C7.00195 17 10.4696 18 12.0048 18C13.8024 18 16.9999 17 16.9999 13.5C16.9999 11.3412 13.4999 6 13.4999 6Z" fill="#111014"/>
<path id="Rectangle 49" opacity="0.3" d="M8 21C8 20.4477 8.44772 20 9 20H15C15.5523 20 16 20.4477 16 21V23H8V21Z" fill="#111014"/>
</g>
</svg>
