<svg width="24" height="24" viewBox="0 0 24 24" fill="none" xmlns="http://www.w3.org/2000/svg">
<g id="Property 2=Ladle">
<path id="Rectangle 84" opacity="0.3" fill-rule="evenodd" clip-rule="evenodd" d="M23.374 7.61043C23.7645 8.00095 23.7645 8.63412 23.374 9.02464L17.01 15.3886C16.6195 15.7791 15.9863 15.7791 15.5958 15.3886L14.1816 13.9744C13.791 13.5839 13.791 12.9507 14.1816 12.5602L20.5455 6.19621C20.9361 5.80569 21.5692 5.80569 21.9597 6.19621L23.374 7.61043Z" fill="#111014"/>
<path id="Combined Shape" fill-rule="evenodd" clip-rule="evenodd" d="M9.23178 18.9247L12.7673 15.3891L14.1815 16.8033L10.646 20.3389L10.6273 20.3201C8.43396 22.0912 4.91183 21.6758 2.51427 19.2782C0.116709 16.8806 0.0166576 13.6739 1.82275 11.5156L9.23178 18.9247Z" fill="#111014"/>
</g>
</svg>
