<svg width="24" height="24" viewBox="0 0 24 24" fill="none" xmlns="http://www.w3.org/2000/svg">
<g id="Property 2=Shutdown">
<path id="Oval 25" d="M7.62302 5.30214C8.08509 4.99963 8.7049 5.12897 9.00742 5.59104C9.30993 6.0531 9.18059 6.67291 8.71852 6.97543C7.03469 8.07784 6 9.94983 6 11.9995C6 15.3132 8.68629 17.9995 12 17.9995C15.3137 17.9995 18 15.3132 18 11.9995C18 9.99502 17.0108 8.15921 15.3876 7.04651C14.932 6.73425 14.8159 6.11183 15.1281 5.65629C15.4404 5.20076 16.0628 5.08461 16.5184 5.39687C18.68 6.87863 20 9.32838 20 11.9995C20 16.4178 16.4183 19.9995 12 19.9995C7.58172 19.9995 4 16.4178 4 11.9995C4 9.26805 5.38057 6.77028 7.62302 5.30214Z" fill="#111014"/>
<rect id="Rectangle" opacity="0.3" x="11" y="3" width="2" height="10" rx="1" fill="#111014"/>
</g>
</svg>
