<svg width="24" height="24" viewBox="0 0 24 24" fill="none" xmlns="http://www.w3.org/2000/svg">
<g id="Property 2=Cake">
<path id="Combined Shape" fill-rule="evenodd" clip-rule="evenodd" d="M12.9992 11H16.9992C19.075 11 20.7816 12.5813 20.9799 14.605L20.2921 15.2929C19.132 16.453 18.038 17 16.9992 17C16.5212 17 16.1872 16.8518 15.564 16.402C15.5036 16.3583 15.4244 16.3005 15.2748 16.1913C14.1354 15.3625 13.3045 15 11.9992 15C10.7169 15 9.87812 15.3373 8.57923 16.1532C8.4265 16.2494 8.34995 16.2975 8.28055 16.3407C7.49835 16.8277 7.06448 17 6.49917 17C5.82638 17 5.18064 16.7171 4.58456 16.2274C4.21043 15.92 3.9464 15.6135 3.82454 15.4354C3.5844 15.1324 3.49689 15.022 3.03711 14.4469C3.30648 12.4995 4.97772 11 6.99917 11H10.9992V9H12.9992V11Z" fill="#111014"/>
<path id="Oval 39" opacity="0.3" fill-rule="evenodd" clip-rule="evenodd" d="M12 7C13.1046 7 14 6.10457 14 5C14 3.89543 12 2 12 2C12 2 10 3.89543 10 5C10 6.10457 10.8954 7 12 7Z" fill="#111014"/>
<path id="Path" opacity="0.3" fill-rule="evenodd" clip-rule="evenodd" d="M21 17.357V21C21 21.5523 20.5523 22 20 22H4C3.44772 22 3 21.5523 3 21V17.4977C3.09815 17.5883 3.20352 17.6805 3.31568 17.7726C4.24089 18.5329 5.30738 19 6.5 19C7.52609 19 8.26628 18.706 9.33839 18.0386C9.41243 17.9925 9.49377 17.9413 9.64387 17.8468C10.6511 17.2141 11.1836 17 12 17C12.7988 17 13.2701 17.2056 14.0993 17.8087C14.2431 17.9138 14.3282 17.976 14.3943 18.0237C15.3273 18.6971 16.01 19 17 19C18.3749 19 19.7104 18.4391 21 17.357Z" fill="#111014"/>
</g>
</svg>
