<svg width="24" height="24" viewBox="0 0 24 24" fill="none" xmlns="http://www.w3.org/2000/svg">
<g id="Property 2=Socks">
<path id="Combined Shape Copy" opacity="0.3" fill-rule="evenodd" clip-rule="evenodd" d="M10.0546 4.71016C9.64665 4.63823 9.25766 4.91061 9.18573 5.31853L8.33073 10.1675L4.39047 11.6016C2.94841 12.1265 2.20488 13.721 2.72975 15.163C3.25461 16.6051 4.84911 17.3486 6.29117 16.8238L10.0832 15.4436L11.0462 15.6133C11.862 15.7572 12.64 15.2124 12.7839 14.3966L14.2278 6.20758C14.2997 5.79966 14.0274 5.41067 13.6194 5.33874L10.0546 4.71016Z" fill="#111014"/>
<path id="Combined Shape" fill-rule="evenodd" clip-rule="evenodd" d="M14.21 4.427C13.6661 4.3311 13.1475 4.69427 13.0515 5.23816L11.9435 11.5224L6.76542 13.4071C4.7938 14.1247 3.77723 16.3047 4.49484 18.2763C5.21245 20.248 7.3925 21.2645 9.36412 20.5469L14.4695 18.6887L15.7182 18.9089C16.806 19.1007 17.8433 18.3744 18.0351 17.2866L19.9452 6.4537C20.0411 5.9098 19.6779 5.39115 19.134 5.29524L14.21 4.427Z" fill="#111014"/>
</g>
</svg>
