<svg width="24" height="24" viewBox="0 0 24 24" fill="none" xmlns="http://www.w3.org/2000/svg">
<g id="Property 2=Air-conditioning">
<path id="Combined Shape" fill-rule="evenodd" clip-rule="evenodd" d="M3 3C2.44772 3 2 3.44772 2 4V11C2 11.5523 2.44772 12 3 12H21C21.5523 12 22 11.5523 22 11V4C22 3.44772 21.5523 3 21 3H3ZM5 8C4.44772 8 4 8.44772 4 9C4 9.55228 4.44772 10 5 10H19C19.5523 10 20 9.55228 20 9C20 8.44772 19.5523 8 19 8H5Z" fill="#111014"/>
<path id="Combined Shape_2" opacity="0.3" fill-rule="evenodd" clip-rule="evenodd" d="M6.70901 15.7052L5.29187 14.2939C3.46506 16.1283 3.47122 19.0963 5.30562 20.9231C5.4627 21.0796 5.63069 21.2247 5.8083 21.3573L6.40204 21.8008L7.59884 20.1984L7.0051 19.7549C6.90327 19.6789 6.80696 19.5957 6.71689 19.506C5.66516 18.4586 5.66163 16.757 6.70901 15.7052ZM17.2919 14.2939L18.709 15.7052C17.6616 16.757 17.6652 18.4586 18.7169 19.506C18.807 19.5957 18.9033 19.6789 19.0051 19.7549L19.5988 20.1984L18.402 21.8008L17.8083 21.3573C17.6307 21.2247 17.4627 21.0796 17.3056 20.9231C15.4712 19.0963 15.4651 16.1283 17.2919 14.2939ZM11.2919 15.2939L12.709 16.7052C11.6616 17.757 11.6652 19.4586 12.7169 20.506C12.807 20.5957 12.9033 20.6789 13.0051 20.7549L13.5988 21.1984L12.402 22.8008L11.8083 22.3573C11.6307 22.2247 11.4627 22.0796 11.3056 21.9231C9.47122 20.0963 9.46506 17.1283 11.2919 15.2939Z" fill="#111014"/>
</g>
</svg>
