<svg width="24" height="24" viewBox="0 0 24 24" fill="none" xmlns="http://www.w3.org/2000/svg">
<g id="Property 2=Gameboy">
<path id="Combined Shape" opacity="0.3" fill-rule="evenodd" clip-rule="evenodd" d="M12 9C11.4477 9 11 9.44772 11 10V16H5C3.89543 16 3 16.8954 3 18V19C3 20.1046 3.89543 21 5 21H19C20.1046 21 21 20.1046 21 19V18C21 16.8954 20.1046 16 19 16H13V10C13 9.44772 12.5523 9 12 9Z" fill="#111014"/>
<path id="Oval" fill-rule="evenodd" clip-rule="evenodd" d="M12 10C13.6569 10 15 8.65685 15 7C15 5.34315 13.6569 4 12 4C10.3431 4 9 5.34315 9 7C9 8.65685 10.3431 10 12 10Z" fill="#111014"/>
</g>
</svg>
