<svg width="24" height="24" viewBox="0 0 24 24" fill="none" xmlns="http://www.w3.org/2000/svg">
<g id="Property 2=Cloud-download">
<path id="Combined Shape" opacity="0.3" fill-rule="evenodd" clip-rule="evenodd" d="M14.811 6.5C14.1449 3.91216 11.7958 2 9 2C5.68629 2 3 4.68629 3 8C3 10.1148 4.0941 11.974 5.74715 13.0426C6.41093 13.6379 7.28818 14 8.25 14H9H17.25C19.3211 14 21 12.3211 21 10.25C21 8.17893 19.3211 6.5 17.25 6.5H14.811Z" fill="#111014"/>
<path id="Shape" d="M15.2696 18.654C15.5447 18.3291 15.3138 17.8309 14.888 17.8309H12.9316V15.8232C12.9316 15.5471 12.7077 15.3232 12.4316 15.3232H11.4083C11.1321 15.3232 10.9083 15.5471 10.9083 15.8232V17.8309H8.95179C8.52604 17.8309 8.29509 18.3291 8.57019 18.654L11.5383 22.1597C11.738 22.3955 12.1018 22.3955 12.3015 22.1597L15.2696 18.654Z" fill="#111014"/>
</g>
</svg>
