<svg width="24" height="24" viewBox="0 0 24 24" fill="none" xmlns="http://www.w3.org/2000/svg">
<g id="Property 2=Globe">
<path id="Combined Shape" fill-rule="evenodd" clip-rule="evenodd" d="M4.73857 17.674L5.79373 16.5181C7.20828 17.8662 9.02874 18.726 11 18.9446V19.9998H10C8.89544 19.9998 8.00001 20.8952 8.00001 21.9998H12H16C16 20.8952 15.1046 19.9998 14 19.9998H13V18.9449C17.5 18.4474 21 14.6324 21 9.99982C21 7.08888 19.6071 4.40884 17.3004 2.72549C16.8543 2.39993 16.2287 2.49766 15.9031 2.94379C15.5776 3.38992 15.6753 4.01549 16.1214 4.34105C17.9176 5.6518 19 7.7345 19 9.99982C19 13.8658 15.866 16.9998 12 16.9998C9.86321 16.9998 7.88624 16.0377 6.56408 14.4105C6.17862 13.9361 5.46151 13.9155 5.04941 14.3669L3.26145 16.3256C2.8891 16.7335 2.91792 17.366 3.32582 17.7384C3.73372 18.1107 4.36622 18.0819 4.73857 17.674Z" fill="#111014"/>
<path id="Oval" opacity="0.3" fill-rule="evenodd" clip-rule="evenodd" d="M12 16C15.3137 16 18 13.3137 18 10C18 6.68629 15.3137 4 12 4C8.68629 4 6 6.68629 6 10C6 13.3137 8.68629 16 12 16Z" fill="#111014"/>
</g>
</svg>
