<svg width="24" height="24" viewBox="0 0 24 24" fill="none" xmlns="http://www.w3.org/2000/svg">
<g id="Property 2=Outgoing-call">
<path id="Shape" opacity="0.3" d="M7.14238 11.6655C7.0621 11.7457 6.95689 11.7963 6.84404 11.8088C6.56959 11.8393 6.32238 11.6416 6.29189 11.3671L5.76868 6.65829C5.76461 6.62159 5.76461 6.58455 5.76868 6.54786C5.79918 6.2734 6.04639 6.07563 6.32084 6.10613L11.0297 6.62933C11.1425 6.64187 11.2477 6.69244 11.328 6.77272C11.5233 6.96798 11.5233 7.28457 11.328 7.47983L9.9423 8.86554L11.4438 10.367C11.639 10.5623 11.639 10.8788 11.4438 11.0741L10.7367 11.7812C10.5414 11.9765 10.2248 11.9765 10.0296 11.7812L8.52809 10.2798L7.14238 11.6655Z" fill="#111014"/>
<path id="Path 76" fill-rule="evenodd" clip-rule="evenodd" d="M12.0809 14.7838L14.2849 12.5798C14.8937 11.9711 15.0446 11.0411 14.6596 10.2711L14.5347 10.0214C14.1497 9.25141 14.3006 8.32147 14.9093 7.71275L17.6421 4.97994C17.8374 4.78468 18.154 4.78468 18.3492 4.97994C18.3873 5.01794 18.4189 5.06182 18.4429 5.10989L19.5469 7.31784C20.3914 9.00695 20.0604 11.047 18.725 12.3823L12.7262 18.3812C11.2727 19.8347 9.12264 20.3423 7.17252 19.6922L4.75804 18.8874C4.49607 18.8001 4.35449 18.5169 4.44181 18.2549C4.46636 18.1813 4.50771 18.1144 4.5626 18.0595L7.21387 15.4082C7.82259 14.7995 8.75253 14.6486 9.52251 15.0336L9.77227 15.1585C10.5422 15.5434 11.4722 15.3925 12.0809 14.7838Z" fill="#111014"/>
</g>
</svg>
