<svg width="24" height="24" viewBox="0 0 24 24" fill="none" xmlns="http://www.w3.org/2000/svg">
<g id="Property 2=Strikethrough">
<rect id="Rectangle" opacity="0.3" x="4" y="11" width="17" height="2" rx="1" fill="#111014"/>
<path id="S" fill-rule="evenodd" clip-rule="evenodd" d="M12.0595 19.1601C9.99945 19.1601 8.27945 18.1601 7.43945 16.9601L8.81945 15.7601C9.49945 16.6401 10.6595 17.4201 12.0395 17.4201C13.6795 17.4201 14.7195 16.6601 14.7195 15.4201C14.7195 14.1201 13.9195 13.4401 12.3995 12.7801L11.0995 12.2201C8.93945 11.3001 7.99945 9.98014 7.99945 8.20014C7.99945 6.04014 10.0395 4.64014 12.1395 4.64014C13.7995 4.64014 15.1595 5.30014 16.1195 6.46014L14.8395 7.74014C14.0995 6.86014 13.3195 6.38014 12.0795 6.38014C10.8795 6.38014 9.81945 7.06014 9.81945 8.24014C9.81945 9.28014 10.4195 9.98014 11.9195 10.6401L13.2195 11.2001C15.1395 12.0401 16.5595 13.2201 16.5595 15.2201C16.5595 17.5401 14.8395 19.1601 12.0595 19.1601Z" fill="#111014"/>
</g>
</svg>
