<svg width="24" height="24" viewBox="0 0 24 24" fill="none" xmlns="http://www.w3.org/2000/svg">
<g id="Property 2=Miso-soup">
<path id="Combined Shape" d="M2 14H22C22 18.9706 17.9706 23 13 23H11C6.02944 23 2 18.9706 2 14Z" fill="#111014"/>
<path id="Combined Shape_2" opacity="0.3" fill-rule="evenodd" clip-rule="evenodd" d="M9.48255 12.0076C9.2129 12.4746 9.37292 13.0718 9.83996 13.3415C10.307 13.6111 10.9042 13.4511 11.1739 12.9841L11.4195 12.5585C11.3514 12.8577 11.4249 13.1843 11.6459 13.4297C12.0067 13.8304 12.6241 13.8628 13.0249 13.5019L21.8052 5.59617C22.2059 5.23531 22.2383 4.61789 21.8774 4.21711C21.5166 3.81634 20.8991 3.78398 20.4984 4.14484L11.7181 12.0506C11.7143 12.054 11.7106 12.0575 11.7068 12.061L17.0814 2.75199C17.351 2.28495 17.191 1.68774 16.7239 1.4181C16.2569 1.14845 15.6597 1.30847 15.39 1.77551L9.48255 12.0076Z" fill="#111014"/>
</g>
</svg>
