<svg width="24" height="24" viewBox="0 0 24 24" fill="none" xmlns="http://www.w3.org/2000/svg">
<g id="Property 2=Shift">
<path id="Shape" fill-rule="evenodd" clip-rule="evenodd" d="M7.00089 18.9999L7.00089 13.9999L2.31055 13.9999C1.89633 13.9999 1.56055 13.6641 1.56055 13.2499C1.56055 13.0511 1.63948 12.8604 1.78001 12.7198L11.4618 3.03042C11.7545 2.73742 12.2294 2.73723 12.5224 3.03001L22.2193 12.7193C22.5124 13.0121 22.5125 13.487 22.2198 13.78C22.0791 13.9208 21.8882 13.9999 21.6892 13.9999H17.0009L17.0009 18.9999C17.0009 19.5522 16.5532 19.9999 16.0009 19.9999L8.00089 19.9999C7.4486 19.9999 7.00089 19.5522 7.00089 18.9999ZM15.0009 11.9999L18.6698 11.9999L11.993 5.32831L5.32664 11.9999L9.00089 11.9999L9.00089 17.9999H15.0009L15.0009 11.9999Z" fill="#111014"/>
</g>
</svg>
