<svg width="24" height="24" viewBox="0 0 24 24" fill="none" xmlns="http://www.w3.org/2000/svg">
<g id="Property 2=LTE#1">
<path id="Combined Shape" opacity="0.3" fill-rule="evenodd" clip-rule="evenodd" d="M7.25619 18.929L5.97889 20.468C3.47693 18.3915 2 15.3152 2 11.9999C2 8.68908 3.47282 5.61663 5.96885 3.54004L7.24797 5.07752C5.20393 6.77807 4 9.2896 4 11.9999C4 14.7139 5.2073 17.2285 7.25619 18.929ZM16.7438 18.929L18.0211 20.468C20.5231 18.3915 22 15.3152 22 11.9999C22 8.68908 20.5272 5.61663 18.0311 3.54004L16.752 5.07752C18.7961 6.77807 20 9.2896 20 11.9999C20 14.7139 18.7927 17.2285 16.7438 18.929ZM14.1785 15.8598L15.4509 17.4028C17.0529 16.0818 18 14.1172 18 11.9999C18 9.88945 17.0591 7.9306 15.4661 6.60949L14.1894 8.14896C15.329 9.09404 16 10.4911 16 11.9999C16 13.5136 15.3245 14.9148 14.1785 15.8598ZM8.5491 17.4028L9.8215 15.8598C8.6755 14.9148 8 13.5136 8 11.9999C8 10.4911 8.67104 9.09404 9.81062 8.14896L8.53389 6.60949C6.94091 7.9306 6 9.88945 6 11.9999C6 14.1172 6.94714 16.0818 8.5491 17.4028Z" fill="#111014"/>
<path id="Oval" fill-rule="evenodd" clip-rule="evenodd" d="M12 14C13.1046 14 14 13.1046 14 12C14 10.8954 13.1046 10 12 10C10.8954 10 10 10.8954 10 12C10 13.1046 10.8954 14 12 14Z" fill="#111014"/>
</g>
</svg>
