<svg width="24" height="24" viewBox="0 0 24 24" fill="none" xmlns="http://www.w3.org/2000/svg">
<g id="Property 2=Sushi">
<path id="Combined Shape" fill-rule="evenodd" clip-rule="evenodd" d="M2 15V20C2 21.6569 4.23858 23 7 23C8.9791 23 10.6896 22.3101 11.5 21.3092C12.3104 22.3101 14.0209 23 16 23C18.7614 23 21 21.6569 21 20V15C21 13.3431 18.7614 12 16 12C14.0209 12 12.3104 12.6899 11.5 13.6908C10.6896 12.6899 8.9791 12 7 12C4.23858 12 2 13.3431 2 15ZM16 17C18.281 17 20 15.9686 20 15C20 14.0314 18.281 13 16 13C13.719 13 12 14.0314 12 15C12 15.9686 13.719 17 16 17ZM11 15C11 14.0314 9.281 13 7 13C4.719 13 3 14.0314 3 15C3 15.9686 4.719 17 7 17C9.281 17 11 15.9686 11 15Z" fill="#111014"/>
<path id="Combined Shape_2" opacity="0.3" fill-rule="evenodd" clip-rule="evenodd" d="M19.6609 2.02144C19.8361 2.53007 19.5657 3.08438 19.0571 3.25952C19.049 3.2623 19.0409 3.26497 19.0327 3.26754L2.33572 8.5297C2.07035 8.61334 1.78665 8.47032 1.69606 8.20723C1.60547 7.94415 1.74098 7.65679 2.00159 7.55931L18.3987 1.42625C18.9026 1.23779 19.4638 1.49347 19.6523 1.99732C19.6552 2.00532 19.6581 2.01336 19.6609 2.02144ZM20.9716 6.55202C21.065 7.08179 20.7113 7.58698 20.1815 7.68039C20.1731 7.68187 20.1646 7.68324 20.1562 7.68451L2.84157 10.2699C2.56638 10.311 2.30855 10.1253 2.26023 9.85133C2.21191 9.57731 2.3907 9.31469 2.66336 9.25918L19.818 5.7667C20.3452 5.65939 20.8595 5.99971 20.9668 6.52684C20.9685 6.53521 20.9701 6.5436 20.9716 6.55202ZM16.0001 16.0004C16.8285 16.0004 17.5001 15.5527 17.5001 15.0004C17.5001 14.4481 16.8285 14.0004 16.0001 14.0004C15.1716 14.0004 14.5001 14.4481 14.5001 15.0004C14.5001 15.5527 15.1716 16.0004 16.0001 16.0004ZM8.50007 15.0004C8.50007 15.5527 7.82849 16.0004 7.00007 16.0004C6.17164 16.0004 5.50007 15.5527 5.50007 15.0004C5.50007 14.4481 6.17164 14.0004 7.00007 14.0004C7.82849 14.0004 8.50007 14.4481 8.50007 15.0004Z" fill="#111014"/>
</g>
</svg>
