<svg width="24" height="24" viewBox="0 0 24 24" fill="none" xmlns="http://www.w3.org/2000/svg">
<g id="Property 2=Fahrenheit">
<path id="&#194;&#176;F" fill-rule="evenodd" clip-rule="evenodd" d="M11.6035 6H19.9995V8H13.9995V11.728H19.4875V13.636H13.9995V19H11.6035V6Z" fill="#111014"/>
<path id="Combined Shape" opacity="0.3" fill-rule="evenodd" clip-rule="evenodd" d="M3.9457 7.80404C3.7957 8.15204 3.7207 8.52404 3.7207 8.92004C3.7207 9.31604 3.7957 9.68804 3.9457 10.036C4.0957 10.384 4.3027 10.69 4.5667 10.954C4.8307 11.218 5.1367 11.425 5.4847 11.575C5.83271 11.725 6.2047 11.8 6.6007 11.8C6.99671 11.8 7.3687 11.725 7.7167 11.575C8.0647 11.425 8.3707 11.218 8.6347 10.954C8.8987 10.69 9.1057 10.384 9.2557 10.036C9.4057 9.68804 9.4807 9.31604 9.4807 8.92004C9.4807 8.52404 9.4057 8.15204 9.2557 7.80404C9.1057 7.45604 8.8987 7.15004 8.6347 6.88604C8.3707 6.62204 8.0647 6.41504 7.7167 6.26504C7.3687 6.11504 6.99671 6.04004 6.6007 6.04004C6.2047 6.04004 5.83271 6.11504 5.4847 6.26504C5.1367 6.41504 4.8307 6.62204 4.5667 6.88604C4.3027 7.15004 4.0957 7.45604 3.9457 7.80404ZM5.5567 9.96404C5.2687 9.67604 5.1247 9.32804 5.1247 8.92004C5.1247 8.51204 5.2687 8.16404 5.5567 7.87604C5.8447 7.58804 6.1927 7.44404 6.6007 7.44404C7.00871 7.44404 7.3567 7.58804 7.6447 7.87604C7.9327 8.16404 8.0767 8.51204 8.0767 8.92004C8.0767 9.32804 7.9327 9.67604 7.6447 9.96404C7.3567 10.252 7.00871 10.396 6.6007 10.396C6.1927 10.396 5.8447 10.252 5.5567 9.96404Z" fill="#111014"/>
</g>
</svg>
