<svg width="24" height="24" viewBox="0 0 24 24" fill="none" xmlns="http://www.w3.org/2000/svg">
<g id="Property 2=Incoming-box">
<path id="Combined Shape" fill-rule="evenodd" clip-rule="evenodd" d="M22 17V21C22 22.1046 21.1046 23 20 23H4C2.89543 23 2 22.1046 2 21L2 17H6.27924L6.82339 18.6325C7.09562 19.4491 7.8599 20 8.72076 20H15.382C16.1395 20 16.832 19.572 17.1708 18.8944L18.118 17L22 17Z" fill="#111014"/>
<path id="Path" opacity="0.3" fill-rule="evenodd" clip-rule="evenodd" d="M2.5625 15L5.92654 9.01948C6.28078 8.38972 6.94715 8 7.66969 8H16.3303C17.0529 8 17.7192 8.38972 18.0735 9.01948L21.4375 15H18.118C17.3605 15 16.668 15.428 16.3292 16.1056L15.382 18H8.72076L8.17661 16.3675C7.90438 15.5509 7.1401 15 6.27924 15H2.5625Z" fill="#111014"/>
<path id="Shape" d="M15.2696 3.654C15.5447 3.32907 15.3138 2.83091 14.888 2.83091L12.9316 2.83091V0.823242C12.9316 0.547099 12.7077 0.323242 12.4316 0.323242L11.4083 0.323242C11.1321 0.323242 10.9083 0.5471 10.9083 0.823242V2.83091L8.95179 2.83091C8.52604 2.83091 8.29509 3.32907 8.57019 3.654L11.5383 7.15966C11.738 7.39555 12.1018 7.39555 12.3015 7.15966L15.2696 3.654Z" fill="#111014"/>
</g>
</svg>
