<svg width="24" height="24" viewBox="0 0 24 24" fill="none" xmlns="http://www.w3.org/2000/svg">
<g id="Property 2=Chair#2">
<path id="Combined Shape" opacity="0.3" fill-rule="evenodd" clip-rule="evenodd" d="M6.54213 21.5012C6.39919 22.0347 6.71578 22.583 7.24924 22.726C7.78271 22.8689 8.33104 22.5523 8.47399 22.0189L10.0721 16.0545C10.2151 15.521 9.8985 14.9727 9.36504 14.8297C8.83157 14.6868 8.28323 15.0034 8.14029 15.5368L6.54213 21.5012ZM17.4493 21.4709C17.5922 22.0044 17.2756 22.5527 16.7422 22.6956C16.2087 22.8386 15.6604 22.522 15.5174 21.9885L14.2145 17.1261C14.0716 16.5926 14.3882 16.0443 14.9216 15.9013C15.4551 15.7584 16.0034 16.075 16.1464 16.6084L17.4493 21.4709Z" fill="#111014"/>
<path id="Combined Shape_2" fill-rule="evenodd" clip-rule="evenodd" d="M8 1C6.89543 1 6 1.89543 6 3V12.5C6 12.7761 6.22386 13 6.5 13H17.5C17.7761 13 18 12.7761 18 12.5V3C18 1.89543 17.1046 1 16 1H8ZM5.5 14C4.67157 14 4 14.6716 4 15.5C4 16.3284 4.67157 17 5.5 17H18.5C19.3284 17 20 16.3284 20 15.5C20 14.6716 19.3284 14 18.5 14H5.5Z" fill="#111014"/>
</g>
</svg>
