<svg width="24" height="24" viewBox="0 0 24 24" fill="none" xmlns="http://www.w3.org/2000/svg">
<g id="Property 2=Price #1">
<path id="Combined Shape" opacity="0.3" fill-rule="evenodd" clip-rule="evenodd" d="M9.96682 20.4724L3.52271 14.0283C2.82577 13.3272 2.82577 12.1949 3.52271 11.4938L11.6128 3.54014C11.9489 3.20963 12.4015 3.02441 12.873 3.02441H19.3274C20.3202 3.02441 21.1249 3.82919 21.1249 4.82194V11.2579C21.1249 11.7403 20.9311 12.2024 20.5869 12.5404L12.5103 20.4724C12.1732 20.81 11.7156 20.9996 11.2386 20.9996C10.7615 20.9996 10.304 20.81 9.96682 20.4724ZM18.7282 7.21863C18.7282 8.21138 17.9235 9.01615 16.9307 9.01615C15.938 9.01615 15.1332 8.21138 15.1332 7.21863C15.1332 6.22589 15.938 5.42111 16.9307 5.42111C17.9235 5.42111 18.7282 6.22589 18.7282 7.21863Z" fill="#111014"/>
</g>
</svg>
