<svg width="24" height="24" viewBox="0 0 24 24" fill="none" xmlns="http://www.w3.org/2000/svg">
<g id="Property 2=Mic">
<path id="Combined Shape" fill-rule="evenodd" clip-rule="evenodd" d="M12 16C9.23858 16 7 13.7614 7 11H5C5 14.5273 7.60896 17.4453 11.0024 17.9295C11.0008 17.9528 11 17.9763 11 18V21C11 21.5523 11.4477 22 12 22C12.5523 22 13 21.5523 13 21V18C13 17.9763 12.9992 17.9528 12.9976 17.9295C16.391 17.4453 19 14.5273 19 11H17C17 13.7614 14.7614 16 12 16Z" fill="#111014"/>
<rect id="Rectangle" opacity="0.3" x="9" y="2" width="6" height="12" rx="3" fill="#111014"/>
</g>
</svg>
