<svg width="24" height="24" viewBox="0 0 24 24" fill="none" xmlns="http://www.w3.org/2000/svg">
<g id="Property 2=Playlist#2">
<path id="Combined Shape" opacity="0.3" fill-rule="evenodd" clip-rule="evenodd" d="M10 6.5C10 5.67157 10.6716 5 11.5 5H18.5C19.3284 5 20 5.67157 20 6.5C20 7.32843 19.3284 8 18.5 8H11.5C10.6716 8 10 7.32843 10 6.5ZM4 18.5C4 17.6716 4.67157 17 5.5 17H18.5C19.3284 17 20 17.6716 20 18.5C20 19.3284 19.3284 20 18.5 20H5.5C4.67157 20 4 19.3284 4 18.5ZM5.5 11C4.67157 11 4 11.6716 4 12.5C4 13.3284 4.67157 14 5.5 14H18.5C19.3284 14 20 13.3284 20 12.5C20 11.6716 19.3284 11 18.5 11H5.5Z" fill="#111014"/>
<path id="Path 10" fill-rule="evenodd" clip-rule="evenodd" d="M4 9.03068C4 9.4599 4.50521 9.68962 4.82867 9.40749L7.70335 6.90004C7.93133 6.70119 7.93188 6.34702 7.70453 6.14746L4.82984 3.6242C4.50671 3.34057 4 3.57003 4 3.99998V9.03068Z" fill="#111014"/>
</g>
</svg>
