<svg width="24" height="24" viewBox="0 0 24 24" fill="none" xmlns="http://www.w3.org/2000/svg">
<g id="Property 2=Knife#1">
<path id="Rectangle 84" opacity="0.3" fill-rule="evenodd" clip-rule="evenodd" d="M5.78163 14.6464L6.48873 15.3535C6.87926 15.744 6.87926 16.3772 6.48873 16.7677L3.66031 19.5962C3.26978 19.9867 2.63662 19.9867 2.24609 19.5962L1.53899 18.889C1.14846 18.4985 1.14846 17.8654 1.53899 17.4748L4.36741 14.6464C4.75794 14.2559 5.3911 14.2559 5.78163 14.6464Z" fill="#111014"/>
<path id="Combined Shape" fill-rule="evenodd" clip-rule="evenodd" d="M6.49023 12.5255L17.0968 1.91895L22.0466 6.86869C23.2182 8.04027 23.2182 9.93976 22.0466 11.1113L15.6826 17.4753C14.5111 18.6469 12.6116 18.6469 11.44 17.4753L6.49023 12.5255ZM17.1575 7.51514C17.7433 6.92935 17.7433 5.97961 17.1575 5.39382C16.5717 4.80803 15.622 4.80803 15.0362 5.39382C14.4504 5.97961 14.4504 6.92935 15.0362 7.51514C15.622 8.10093 16.5717 8.10093 17.1575 7.51514Z" fill="#111014"/>
</g>
</svg>
