<svg width="24" height="25" viewBox="0 0 24 25" fill="none" xmlns="http://www.w3.org/2000/svg">
<g id="Property 2=Outgoing-box">
<path id="Combined Shape" fill-rule="evenodd" clip-rule="evenodd" d="M22 18V22C22 23.1046 21.1046 24 20 24H4C2.89543 24 2 23.1046 2 22L2 18H6.27924L6.82339 19.6325C7.09562 20.4491 7.8599 21 8.72076 21H15.382C16.1395 21 16.832 20.572 17.1708 19.8944L18.118 18L22 18Z" fill="#111014"/>
<path id="Path" opacity="0.3" fill-rule="evenodd" clip-rule="evenodd" d="M2.5625 16L5.92654 10.0195C6.28078 9.38972 6.94715 9 7.66969 9H16.3303C17.0529 9 17.7192 9.38972 18.0735 10.0195L21.4375 16H18.118C17.3605 16 16.668 16.428 16.3292 17.1056L15.382 19H8.72076L8.17661 17.3675C7.90438 16.5509 7.1401 16 6.27924 16H2.5625Z" fill="#111014"/>
<path id="Shape" d="M8.65029 4.66924C8.37518 4.99417 8.60614 5.49233 9.03189 5.49233H10.9884V7.5C10.9884 7.77614 11.2122 8 11.4884 8H12.5117C12.7878 8 13.0117 7.77614 13.0117 7.5V5.49233H14.9681C15.3939 5.49233 15.6248 4.99417 15.3497 4.66924L12.3816 1.16358C12.1819 0.927696 11.8181 0.927696 11.6184 1.16358L8.65029 4.66924Z" fill="#111014"/>
</g>
</svg>
