<svg width="24" height="24" viewBox="0 0 24 24" fill="none" xmlns="http://www.w3.org/2000/svg">
<g id="Property 2=Wind">
<path id="Path 34" d="M3 13V11H17.5C18.3284 11 19 10.3284 19 9.5V9C19 8.44772 18.5523 8 18 8C17.4477 8 17 8.44772 17 9V10H15V9C15 7.34315 16.3431 6 18 6C19.6569 6 21 7.34315 21 9V9.5C21 11.433 19.433 13 17.5 13H3Z" fill="#111014"/>
<path id="Combined Shape" opacity="0.3" fill-rule="evenodd" clip-rule="evenodd" d="M3 7V9H9.5C11.433 9 13 7.433 13 5.5V5C13 3.34315 11.6569 2 10 2C8.34315 2 7 3.34315 7 5V6H9V5C9 4.44772 9.44772 4 10 4C10.5523 4 11 4.44772 11 5V5.5C11 6.32843 10.3284 7 9.5 7H3ZM3 17V15H9.5C11.433 15 13 16.567 13 18.5V19C13 20.6569 11.6569 22 10 22C8.34315 22 7 20.6569 7 19V18H9V19C9 19.5523 9.44772 20 10 20C10.5523 20 11 19.5523 11 19V18.5C11 17.6716 10.3284 17 9.5 17H3Z" fill="#111014"/>
</g>
</svg>
