<svg width="24" height="24" viewBox="0 0 24 24" fill="none" xmlns="http://www.w3.org/2000/svg">
<g id="Property 2=Backspace">
<path id="Combined Shape" opacity="0.3" fill-rule="evenodd" clip-rule="evenodd" d="M7.71627 19.7103C7.90354 19.8959 8.15653 20 8.42019 20H20.9998C22.1044 20 22.9998 19.1046 22.9998 18V6C22.9998 4.89543 22.1044 4 20.9998 4H8.42019C8.15653 4 7.90354 4.10413 7.71627 4.28972L0.653091 11.2897C0.258321 11.681 0.258321 12.319 0.65309 12.7103L7.71627 19.7103Z" fill="#111014"/>
<path id="Combined Shape_2" fill-rule="evenodd" clip-rule="evenodd" d="M11.1718 13.4144C10.7813 13.805 10.7813 14.4381 11.1718 14.8287C11.5623 15.2192 12.1955 15.2192 12.586 14.8287L14.0002 13.4144L15.4144 14.8287C15.805 15.2192 16.4381 15.2192 16.8287 14.8287C17.2192 14.4381 17.2192 13.805 16.8287 13.4144L15.4144 12.0002L16.8287 10.586C17.2192 10.1955 17.2192 9.56232 16.8287 9.1718C16.4381 8.78128 15.805 8.78128 15.4144 9.1718L14.0002 10.586L12.586 9.1718C12.1955 8.78128 11.5623 8.78128 11.1718 9.1718C10.7813 9.56232 10.7813 10.1955 11.1718 10.586L12.586 12.0002L11.1718 13.4144Z" fill="#111014"/>
</g>
</svg>
