<svg width="24" height="24" viewBox="0 0 24 24" fill="none" xmlns="http://www.w3.org/2000/svg">
<g id="Property 2=Downloaded file">
<path id="Combined Shape" opacity="0.3" d="M5.85714 2H13.7364C14.0911 2 14.4343 2.12568 14.7051 2.35474L19.4687 6.38394C19.8057 6.66895 20 7.08788 20 7.5292V20.0833C20 21.8739 19.9796 22 18.1429 22H5.85714C4.02045 22 4 21.8739 4 20.0833V3.91667C4 2.12612 4.02045 2 5.85714 2Z" fill="#111014"/>
<path id="Shape" fill-rule="evenodd" clip-rule="evenodd" d="M15.2696 12.654C15.5447 12.3291 15.3138 11.8309 14.888 11.8309H12.9316V9.82324C12.9316 9.5471 12.7077 9.32324 12.4316 9.32324H11.4083C11.1321 9.32324 10.9083 9.5471 10.9083 9.82324V11.8309L8.95179 11.8309C8.52604 11.8309 8.29509 12.3291 8.57019 12.654L11.5383 16.1597C11.738 16.3955 12.1018 16.3955 12.3015 16.1597L15.2696 12.654Z" fill="#111014"/>
</g>
</svg>
