<svg width="24" height="24" viewBox="0 0 24 24" fill="none" xmlns="http://www.w3.org/2000/svg">
<g id="Property 2=Pizza">
<path id="Combined Shape" opacity="0.3" fill-rule="evenodd" clip-rule="evenodd" d="M21.0299 5.66589C18.4143 3.97895 15.2992 3 11.9554 3C8.61156 3 5.4964 3.97895 2.88086 5.66589L11.9554 22L21.0299 5.66589Z" fill="#111014"/>
<path id="Oval 52" opacity="0.3" fill-rule="evenodd" clip-rule="evenodd" d="M9.5 11C10.3284 11 11 10.3284 11 9.5C11 8.67157 10.3284 8 9.5 8C8.67157 8 8 8.67157 8 9.5C8 10.3284 8.67157 11 9.5 11Z" fill="#111014"/>
<path id="Oval 52 Copy" opacity="0.3" fill-rule="evenodd" clip-rule="evenodd" d="M15.5 9C16.3284 9 17 8.32843 17 7.5C17 6.67157 16.3284 6 15.5 6C14.6716 6 14 6.67157 14 7.5C14 8.32843 14.6716 9 15.5 9Z" fill="#111014"/>
<path id="Oval 52 Copy 2" opacity="0.3" fill-rule="evenodd" clip-rule="evenodd" d="M12.5 17C13.3284 17 14 16.3284 14 15.5C14 14.6716 13.3284 14 12.5 14C11.6716 14 11 14.6716 11 15.5C11 16.3284 11.6716 17 12.5 17Z" fill="#111014"/>
</g>
</svg>
