<svg width="24" height="24" viewBox="0 0 24 24" fill="none" xmlns="http://www.w3.org/2000/svg">
<g id="Property 2=Bluetooth">
<path id="Path 20 Copy" opacity="0.3" fill-rule="evenodd" clip-rule="evenodd" d="M6.33104 8.7433L10 12.0454V20.5C10 21.2718 10.8372 21.7527 11.5039 21.3638L17.5039 17.8638C18.0892 17.5224 18.1726 16.71 17.669 16.2567L7.66897 7.25671C7.25846 6.88726 6.62617 6.92053 6.25671 7.33104C5.88726 7.74155 5.92053 8.37384 6.33104 8.7433ZM12 18.759V13.8454L15.3125 16.8267L12 18.759Z" fill="#111014"/>
<path id="Path 20" fill-rule="evenodd" clip-rule="evenodd" d="M11.6 2.19986C10.9408 1.70544 10 2.17582 10 2.99986V12.1374L6.35237 15.2379C5.93156 15.5956 5.88039 16.2267 6.23808 16.6475C6.59577 17.0683 7.22686 17.1195 7.64767 16.7618L17.6477 8.2618C18.1364 7.84637 18.1132 7.08473 17.6 6.69986L11.6 2.19986ZM15.3985 7.54872L12 10.4374V4.99986L15.3985 7.54872Z" fill="#111014"/>
</g>
</svg>
