<svg width="24" height="24" viewBox="0 0 24 24" fill="none" xmlns="http://www.w3.org/2000/svg">
<g id="Property 2=Saturation">
<path id="Oval 2" fill-rule="evenodd" clip-rule="evenodd" d="M5 14C5 17.866 8.13401 21 12 21C15.866 21 19 17.866 19 14C19 11.4227 16.6667 8.08934 12 4C7.33333 8.08934 5 11.4227 5 14ZM12 19C9.23858 19 7 16.7614 7 14C7 12.3742 8.62971 9.86853 12 6.69923C15.3703 9.86853 17 12.3742 17 14C17 16.7614 14.7614 19 12 19Z" fill="#111014"/>
<path id="Combined Shape" fill-rule="evenodd" clip-rule="evenodd" d="M12 21C15.866 21 19 17.866 19 14C19 10.134 12 4 12 4V21Z" fill="#111014"/>
</g>
</svg>
