<svg width="24" height="24" viewBox="0 0 24 24" fill="none" xmlns="http://www.w3.org/2000/svg">
<g id="Property 2=Chair#1">
<path id="Combined Shape" fill-rule="evenodd" clip-rule="evenodd" d="M11.416 2C7.55002 2 4.41602 5.13401 4.41602 9V11C4.41602 14.866 7.55002 18 11.416 18H12.5844C16.4504 18 19.5844 14.866 19.5844 11V9C19.5844 5.13401 16.4504 2 12.5844 2H11.416ZM8.44961 12.4L7.54961 13.6C9.00594 14.6923 10.4933 15.25 11.9996 15.25C13.5059 15.25 14.9933 14.6923 16.4496 13.6L15.5496 12.4C14.3393 13.3077 13.1599 13.75 11.9996 13.75C10.8393 13.75 9.65994 13.3077 8.44961 12.4Z" fill="#111014"/>
<path id="Combined Shape_2" opacity="0.3" fill-rule="evenodd" clip-rule="evenodd" d="M17.8316 21.0302C18.1077 21.5085 17.9439 22.1201 17.4656 22.3962C16.9873 22.6724 16.3757 22.5085 16.0995 22.0302L14.0995 18.5661C13.8234 18.0878 13.9873 17.4762 14.4656 17.2001C14.9439 16.9239 15.5554 17.0878 15.8316 17.5661L17.8316 21.0302ZM6.15953 21.0605C5.88339 21.5388 6.04726 22.1504 6.52556 22.4266C7.00385 22.7027 7.61544 22.5388 7.89158 22.0605L9.89158 18.5964C10.1677 18.1181 10.0039 17.5066 9.52556 17.2304C9.04727 16.9543 8.43567 17.1181 8.15953 17.5964L6.15953 21.0605Z" fill="#111014"/>
</g>
</svg>
