<svg width="24" height="24" viewBox="0 0 24 24" fill="none" xmlns="http://www.w3.org/2000/svg">
<g id="Property 2=Cloudy">
<path id="Combined Shape Copy" opacity="0.3" fill-rule="evenodd" clip-rule="evenodd" d="M16.811 8.5C16.1449 5.91216 13.7958 4 11 4C7.68629 4 5 6.68629 5 10C5 12.1148 6.0941 13.974 7.74715 15.0426C8.41093 15.6379 9.28818 16 10.25 16H11H19.25C21.3211 16 23 14.3211 23 12.25C23 10.1789 21.3211 8.5 19.25 8.5H16.811Z" fill="#111014"/>
<path id="Combined Shape" fill-rule="evenodd" clip-rule="evenodd" d="M12.811 12.5C12.1449 9.91216 9.79576 8 7 8C3.68629 8 1 10.6863 1 14C1 16.1148 2.0941 17.974 3.74715 19.0426C4.41093 19.6379 5.28818 20 6.25 20H7H15.25C17.3211 20 19 18.3211 19 16.25C19 14.1789 17.3211 12.5 15.25 12.5H12.811Z" fill="#111014"/>
</g>
</svg>
