<svg width="24" height="24" viewBox="0 0 24 24" fill="none" xmlns="http://www.w3.org/2000/svg">
<g id="Property 2=Server">
<path id="Combined Shape" opacity="0.3" fill-rule="evenodd" clip-rule="evenodd" d="M3 4C3 2.89543 3.89543 2 5 2H19C20.1046 2 21 2.89543 21 4V6C21 7.10457 20.1046 8 19 8H5C3.89543 8 3 7.10457 3 6V4ZM10 5C10 4.44772 10.4477 4 11 4H16C16.5523 4 17 4.44772 17 5C17 5.55228 16.5523 6 16 6H11C10.4477 6 10 5.55228 10 5ZM8 5C8 5.55228 7.55228 6 7 6C6.44772 6 6 5.55228 6 5C6 4.44772 6.44772 4 7 4C7.55228 4 8 4.44772 8 5Z" fill="#111014"/>
<path id="Combined Shape Copy" fill-rule="evenodd" clip-rule="evenodd" d="M3 11C3 9.89543 3.89543 9 5 9H19C20.1046 9 21 9.89543 21 11V13C21 14.1046 20.1046 15 19 15H5C3.89543 15 3 14.1046 3 13V11ZM10 12C10 11.4477 10.4477 11 11 11H16C16.5523 11 17 11.4477 17 12C17 12.5523 16.5523 13 16 13H11C10.4477 13 10 12.5523 10 12ZM8 12C8 12.5523 7.55228 13 7 13C6.44772 13 6 12.5523 6 12C6 11.4477 6.44772 11 7 11C7.55228 11 8 11.4477 8 12Z" fill="#111014"/>
<path id="Combined Shape Copy 2" fill-rule="evenodd" clip-rule="evenodd" d="M3 18C3 16.8954 3.89543 16 5 16H19C20.1046 16 21 16.8954 21 18V20C21 21.1046 20.1046 22 19 22H5C3.89543 22 3 21.1046 3 20V18ZM10 19C10 18.4477 10.4477 18 11 18H16C16.5523 18 17 18.4477 17 19C17 19.5523 16.5523 20 16 20H11C10.4477 20 10 19.5523 10 19ZM8 19C8 19.5523 7.55228 20 7 20C6.44772 20 6 19.5523 6 19C6 18.4477 6.44772 18 7 18C7.55228 18 8 18.4477 8 19Z" fill="#111014"/>
</g>
</svg>
