<svg width="24" height="24" viewBox="0 0 24 24" fill="none" xmlns="http://www.w3.org/2000/svg">
<g id="Property 2=File-plus">
<path id="Combined Shape" opacity="0.3" d="M5.85714 2H13.7364C14.0911 2 14.4343 2.12568 14.7051 2.35474L19.4687 6.38394C19.8057 6.66895 20 7.08788 20 7.5292V20.0833C20 21.8739 19.9796 22 18.1429 22H5.85714C4.02045 22 4 21.8739 4 20.0833V3.91667C4 2.12612 4.02045 2 5.85714 2Z" fill="#111014"/>
<path id="Combined Shape_2" fill-rule="evenodd" clip-rule="evenodd" d="M11.0002 14L9.00015 14C8.44787 14 8.00015 13.5523 8.00015 13C8.00015 12.4477 8.44787 12 9.00015 12L11.0002 12L11.0002 10C11.0002 9.44772 11.4479 9 12.0002 9C12.5524 9 13.0002 9.44772 13.0002 10L13.0002 12H15.0002C15.5524 12 16.0002 12.4477 16.0002 13C16.0002 13.5523 15.5524 14 15.0002 14H13.0002L13.0002 16C13.0002 16.5523 12.5524 17 12.0002 17C11.4479 17 11.0002 16.5523 11.0002 16L11.0002 14Z" fill="#111014"/>
</g>
</svg>
