<svg width="24" height="24" viewBox="0 0 24 24" fill="none" xmlns="http://www.w3.org/2000/svg">
<g id="Property 2=Shovel #1">
<path id="Rectangle 84" opacity="0.3" fill-rule="evenodd" clip-rule="evenodd" d="M8.52599 14.5605L9.94021 15.9747C10.3307 16.3652 10.3307 16.9984 9.94021 17.3889L4.99046 22.3386C4.59994 22.7292 3.96677 22.7292 3.57625 22.3386L2.16203 20.9244C1.77151 20.5339 1.77151 19.9007 2.16203 19.5102L7.11178 14.5605C7.50231 14.1699 8.13547 14.1699 8.52599 14.5605Z" fill="#111014"/>
<path id="Combined Shape" fill-rule="evenodd" clip-rule="evenodd" d="M11.3536 11.7323L9.23227 9.61096C8.45122 8.82991 8.45122 7.56358 9.23227 6.78253L13.4749 2.53989C14.256 1.75884 15.5223 1.75884 16.3033 2.53989L21.9602 8.19674C22.7412 8.97779 22.7412 10.2441 21.9602 11.0252L17.7176 15.2678C16.9365 16.0489 15.6702 16.0489 14.8891 15.2678L12.7678 13.1465L10.6465 15.2678L9.23227 13.8536L11.3536 11.7323ZM15.2427 4.30765L11 8.5503L11.7071 9.2574L15.9498 5.01476L15.2427 4.30765ZM17.364 6.42898L13.1214 10.6716L13.8285 11.3787L18.0711 7.13608L17.364 6.42898ZM19.4853 8.5503L15.2427 12.7929L15.9498 13.5L20.1924 9.2574L19.4853 8.5503Z" fill="#111014"/>
</g>
</svg>
