<svg width="24" height="24" viewBox="0 0 24 24" fill="none" xmlns="http://www.w3.org/2000/svg">
<g id="Property 2=TV#2">
<path id="Combined Shape" fill-rule="evenodd" clip-rule="evenodd" d="M2 6C2 5.44772 2.44772 5 3 5H21C21.5523 5 22 5.44772 22 6V17C22 17.5523 21.5523 18 21 18H3C2.44772 18 2 17.5523 2 17V6ZM9.632 10.066V14H8.435V10.066H7.035V9.044H11.032V10.066H9.632ZM13.738 14H14.935L16.846 9.044H15.523L14.382 12.558H14.354L13.206 9.044H11.862L13.738 14Z" fill="#111014"/>
<rect id="Rectangle" opacity="0.3" x="3" y="19" width="18" height="1" rx="0.5" fill="#111014"/>
</g>
</svg>
