<svg width="24" height="24" viewBox="0 0 24 24" fill="none" xmlns="http://www.w3.org/2000/svg">
<g id="Property 2=Box#1">
<rect id="Rectangle" opacity="0.3" x="4" y="3" width="16" height="3.5" fill="#111014"/>
<path id="Combined Shape" fill-rule="evenodd" clip-rule="evenodd" d="M6 5C4.89543 5 4 5.89543 4 7V19C4 20.1046 4.89543 21 6 21H18C19.1046 21 20 20.1046 20 19V7C20 5.89543 19.1046 5 18 5H6ZM9 9C8.44772 9 8 9.44772 8 10C8 10.5523 8.44772 11 9 11H15C15.5523 11 16 10.5523 16 10C16 9.44772 15.5523 9 15 9H9Z" fill="#111014"/>
</g>
</svg>
