<svg width="24" height="24" viewBox="0 0 24 24" fill="none" xmlns="http://www.w3.org/2000/svg">
<g id="Property 2=CPU#1">
<rect id="Rectangle" opacity="0.3" x="4" y="4" width="16" height="16" rx="2" fill="#111014"/>
<rect id="Rectangle 2" opacity="0.3" x="9" y="9" width="6" height="6" fill="#111014"/>
<path id="Rectangle 3" d="M20 7H21C21.5523 7 22 7.44772 22 8C22 8.55228 21.5523 9 21 9H20V7Z" fill="#111014"/>
<path id="Rectangle 3 Copy 6" d="M20 11H21C21.5523 11 22 11.4477 22 12C22 12.5523 21.5523 13 21 13H20V11Z" fill="#111014"/>
<path id="Rectangle 3 Copy 7" d="M20 15H21C21.5523 15 22 15.4477 22 16C22 16.5523 21.5523 17 21 17H20V15Z" fill="#111014"/>
<path id="Rectangle 3 Copy 5" d="M2 8C2 7.44772 2.44772 7 3 7H4V9H3C2.44772 9 2 8.55228 2 8Z" fill="#111014"/>
<path id="Rectangle 3 Copy 8" d="M2 12C2 11.4477 2.44772 11 3 11H4V13H3C2.44772 13 2 12.5523 2 12Z" fill="#111014"/>
<path id="Rectangle 3 Copy 9" d="M2 16C2 15.4477 2.44772 15 3 15H4V17H3C2.44772 17 2 16.5523 2 16Z" fill="#111014"/>
</g>
</svg>
