<svg width="24" height="24" viewBox="0 0 24 24" fill="none" xmlns="http://www.w3.org/2000/svg">
<g id="Property 2=Fork">
<path id="Rectangle 136" opacity="0.3" fill-rule="evenodd" clip-rule="evenodd" d="M9.37951 13.914L10.0866 14.6211C10.4771 15.0116 10.4771 15.6448 10.0866 16.0353L5.13687 20.9851C4.74635 21.3756 4.11318 21.3756 3.72266 20.9851L3.01555 20.2779C2.62503 19.8874 2.62503 19.2543 3.01555 18.8637L7.9653 13.914C8.35582 13.5235 8.98899 13.5235 9.37951 13.914Z" fill="#111014"/>
<path id="Combined Shape" fill-rule="evenodd" clip-rule="evenodd" d="M15.5608 2.98933L12.2474 7.17795C11.9998 7.49093 12.0259 7.93974 12.3081 8.22192C12.5903 8.50411 13.0391 8.5302 13.3521 8.28262L17.5407 4.96923L18.5306 5.95918L15.2172 10.1478C14.9697 10.4608 14.9957 10.9096 15.2779 11.1918C15.5601 11.474 16.0089 11.5 16.3219 11.2525L20.5105 7.93908L21.2176 8.64619L16.975 12.8888C15.4129 14.4509 12.8802 14.4509 11.3181 12.8888L10.611 12.1817C9.04893 10.6196 9.04893 8.08696 10.611 6.52487L14.8537 2.28223L15.5608 2.98933Z" fill="#111014"/>
</g>
</svg>
