<svg width="24" height="24" viewBox="0 0 24 24" fill="none" xmlns="http://www.w3.org/2000/svg">
<g id="Property 2=Timer">
<path id="Combined Shape" opacity="0.3" fill-rule="evenodd" clip-rule="evenodd" d="M12 21C7.58172 21 4 17.4183 4 13C4 8.58172 7.58172 5 12 5C16.4183 5 20 8.58172 20 13C20 17.4183 16.4183 21 12 21Z" fill="#111014"/>
<path id="Combined Shape_2" fill-rule="evenodd" clip-rule="evenodd" d="M13 5.06189V4H14C14.5523 4 15 3.55228 15 3C15 2.44772 14.5523 2 14 2H10C9.44772 2 9 2.44772 9 3C9 3.55228 9.44772 4 10 4H11V5.06189C11.3276 5.02104 11.6613 5 12 5C12.3387 5 12.6724 5.02104 13 5.06189Z" fill="#111014"/>
<path id="Combined Shape_3" fill-rule="evenodd" clip-rule="evenodd" d="M18.1662 7.90378L18.9488 7.12117C19.3393 6.73065 19.3393 6.09748 18.9488 5.70696C18.5583 5.31643 17.9251 5.31643 17.5346 5.70696L16.709 6.53258C17.2501 6.92735 17.7399 7.3884 18.1662 7.90378Z" fill="#111014"/>
<path id="Path 107" fill-rule="evenodd" clip-rule="evenodd" d="M11.4636 7.96165C11.4837 7.70115 11.7009 7.5 11.9621 7.5H12.0361C12.2974 7.5 12.5146 7.70115 12.5346 7.96165L12.9577 13.4617C12.9801 13.752 12.7504 14 12.4592 14H11.5391C11.2478 14 11.0182 13.752 11.0405 13.4617L11.4636 7.96165Z" fill="#111014"/>
</g>
</svg>
