<svg width="24" height="24" viewBox="0 0 24 24" fill="none" xmlns="http://www.w3.org/2000/svg">
<g id="Property 2=Watch#1">
<path id="Combined Shape" fill-rule="evenodd" clip-rule="evenodd" d="M15 6H9C7.34315 6 6 7.34315 6 9V15C6 16.6569 7.34315 18 9 18H15C16.6569 18 18 16.6569 18 15V9C18 7.34315 16.6569 6 15 6ZM8 9C8 8.44772 8.44772 8 9 8H15C15.5523 8 16 8.44772 16 9V15C16 15.5523 15.5523 16 15 16H9C8.44772 16 8 15.5523 8 15V9Z" fill="#111014"/>
<path id="Rectangle 36" opacity="0.3" fill-rule="evenodd" clip-rule="evenodd" d="M9 8C8.44772 8 8 8.44772 8 9V15C8 15.5523 8.44772 16 9 16H15C15.5523 16 16 15.5523 16 15V9C16 8.44772 15.5523 8 15 8H9Z" fill="#111014"/>
<path id="Rectangle" opacity="0.3" d="M9 18H15V20.5C15 21.3284 14.3284 22 13.5 22H10.5C9.67157 22 9 21.3284 9 20.5V18Z" fill="#111014"/>
<path id="Rectangle Copy" opacity="0.3" d="M9 3.5C9 2.67157 9.67157 2 10.5 2H13.5C14.3284 2 15 2.67157 15 3.5V6H9V3.5Z" fill="#111014"/>
</g>
</svg>
