<svg width="24" height="24" viewBox="0 0 24 24" fill="none" xmlns="http://www.w3.org/2000/svg">
<g id="Property 2=Reply">
<path id="Shape" d="M21.4443 17.791C21.4443 16.9707 21.6201 13.7334 19.0664 11.165C17.3477 9.43652 14.7754 9.13672 11.6992 9V4.69308C11.6992 4.04233 10.9272 3.70036 10.4453 4.13761L3.30522 10.6153C2.9794 10.9108 2.97678 11.4221 3.29954 11.721L10.4396 18.3335C10.9197 18.7781 11.6992 18.4376 11.6992 17.7832V13.5C13.6523 13.5537 15.0436 13.6779 16.3076 14.0801C18.7507 14.8573 20.2004 18.1902 20.5914 19.2054C20.6588 19.3804 20.8258 19.5 21.0134 19.5C21.2541 19.5 21.4491 19.3049 21.4484 19.0642C21.447 18.6211 21.4443 18.1117 21.4443 17.791Z" fill="#111014"/>
</g>
</svg>
