<svg width="24" height="24" viewBox="0 0 24 24" fill="none" xmlns="http://www.w3.org/2000/svg">
<g id="Property 2=Water-mixer">
<path id="Rectangle 71" opacity="0.3" d="M4 22C4 19.7909 5.79086 18 8 18C10.2091 18 12 19.7909 12 22H4Z" fill="#111014"/>
<path id="Combined Shape" fill-rule="evenodd" clip-rule="evenodd" d="M9 12.126C10.7252 12.5701 12 14.1362 12 16C12 18.2091 10.2091 20 8 20C5.79086 20 4 18.2091 4 16C4 14.1362 5.27477 12.5701 7 12.126V8C7 4.68629 9.68629 2 13 2C16.3137 2 19 4.68629 19 8V9H17V8C17 5.79086 15.2091 4 13 4C10.7909 4 9 5.79086 9 8V12.126ZM8 18C9.10457 18 10 17.1046 10 16C10 14.8954 9.10457 14 8 14C6.89543 14 6 14.8954 6 16C6 17.1046 6.89543 18 8 18Z" fill="#111014"/>
<path id="Oval 31" opacity="0.3" fill-rule="evenodd" clip-rule="evenodd" d="M18 17C19.1046 17 20 16.1046 20 15C20 13.8954 18 12 18 12C18 12 16 13.8954 16 15C16 16.1046 16.8954 17 18 17Z" fill="#111014"/>
</g>
</svg>
