<svg width="24" height="24" viewBox="0 0 24 24" fill="none" xmlns="http://www.w3.org/2000/svg">
<g id="Property 2=Dress">
<path id="Combined Shape" opacity="0.3" fill-rule="evenodd" clip-rule="evenodd" d="M15.9589 3C15.6816 4.50769 14.0145 5.66667 11.9994 5.66667C9.98425 5.66667 8.31715 4.50769 8.03988 3H5.61719C5.0649 3 4.61719 3.44772 4.61719 4V10C4.61719 10.5523 5.0649 11 5.61719 11H18.3813C18.9336 11 19.3813 10.5523 19.3813 10V4C19.3813 3.44772 18.9336 3 18.3813 3H15.9589Z" fill="#111014"/>
<path id="Rectangle" d="M4.47656 14C4.47656 12.8954 5.37199 12 6.47656 12H17.5228C18.6273 12 19.5228 12.8954 19.5228 14V21C19.5228 21.5523 19.075 22 18.5228 22H5.47656C4.92428 22 4.47656 21.5523 4.47656 21V14Z" fill="#111014"/>
</g>
</svg>
