<svg width="24" height="24" viewBox="0 0 24 24" fill="none" xmlns="http://www.w3.org/2000/svg">
<g id="Property 2=Flip-vertical">
<path id="Path 14" opacity="0.3" fill-rule="evenodd" clip-rule="evenodd" d="M5.68628 3.27418C5.35785 3.1428 5.00059 3.38468 5.00059 3.73841L5.00059 8.4999C5.00059 8.77604 5.22445 8.9999 5.50059 8.9999L17.4043 8.9999C17.9548 8.9999 18.1011 8.24012 17.59 8.03566L5.68628 3.27418Z" fill="#111014"/>
<path id="Path 14 Copy" fill-rule="evenodd" clip-rule="evenodd" d="M5.6857 20.7257C5.35726 20.8571 5 20.6152 5 20.2615L5 15.5C5 15.2239 5.22386 15 5.5 15L17.4037 15C17.9542 15 18.1006 15.7598 17.5894 15.9642L5.6857 20.7257Z" fill="#111014"/>
<rect id="Rectangle" opacity="0.3" x="22" y="11" width="2" height="20" rx="1" transform="rotate(90 22 11)" fill="#111014"/>
</g>
</svg>
