<svg width="24" height="24" viewBox="0 0 24 24" fill="none" xmlns="http://www.w3.org/2000/svg">
<g id="Property 2=Marker#1">
<path id="Combined Shape" fill-rule="evenodd" clip-rule="evenodd" d="M11.5334 20.1756C9.5071 18.3783 5 13.9884 5 10.5C5 6 8 3 12.5 3C17 3 20 6.75 20 10.5C20 13.4266 15.432 18.1804 13.426 20.1269C12.8989 20.6383 12.0828 20.6629 11.5334 20.1756ZM15 9.5C15 10.8807 13.8807 12 12.5 12C11.1193 12 10 10.8807 10 9.5C10 8.11929 11.1193 7 12.5 7C13.8807 7 15 8.11929 15 9.5Z" fill="#111014"/>
</g>
</svg>
