<svg width="24" height="24" viewBox="0 0 24 24" fill="none" xmlns="http://www.w3.org/2000/svg">
<g id="Property 2=Shield-check">
<path id="Path 50" opacity="0.3" fill-rule="evenodd" clip-rule="evenodd" d="M4 3.99982L11.6314 2.56892C11.875 2.52325 12.125 2.52325 12.3686 2.56892L20 3.99982V11.9031C20 15.6958 18.0462 19.221 14.83 21.2311L12.53 22.6686C12.2057 22.8712 11.7943 22.8712 11.47 22.6686L9.17001 21.2311C5.95382 19.221 4 15.6958 4 11.9031L4 3.99982Z" fill="#111014"/>
<path id="check-path" fill-rule="evenodd" clip-rule="evenodd" d="M11.1758 14.75C10.9362 14.75 10.6966 14.6542 10.5049 14.4625L8.58828 12.5458C8.20495 12.1625 8.20495 11.5875 8.58828 11.2042C8.97161 10.8208 9.59453 10.8208 9.92995 11.2042L11.1758 12.45L14.3383 9.2875C14.7216 8.90417 15.2966 8.90417 15.6799 9.2875C16.0633 9.67083 16.0633 10.2458 15.6799 10.6292L11.8466 14.4625C11.6549 14.6542 11.4154 14.75 11.1758 14.75Z" fill="#111014"/>
</g>
</svg>
