<svg width="24" height="24" viewBox="0 0 24 24" fill="none" xmlns="http://www.w3.org/2000/svg">
<g id="Property 2=Git#2">
<rect id="Rectangle" opacity="0.3" x="5" y="8" width="2" height="8" rx="1" fill="#111014"/>
<path id="Oval 7 Copy" fill-rule="evenodd" clip-rule="evenodd" d="M2 19C2 21.2091 3.79086 23 6 23C8.20914 23 10 21.2091 10 19C10 16.7909 8.20914 15 6 15C3.79086 15 2 16.7909 2 19ZM8 19C8 20.1046 7.10457 21 6 21C4.89543 21 4 20.1046 4 19C4 17.8954 4.89543 17 6 17C7.10457 17 8 17.8954 8 19Z" fill="#111014"/>
<rect id="Rectangle Copy" opacity="0.3" x="17" y="8" width="2" height="8" rx="1" fill="#111014"/>
<path id="Oval 7 Copy 2" fill-rule="evenodd" clip-rule="evenodd" d="M14 19C14 21.2091 15.7909 23 18 23C20.2091 23 22 21.2091 22 19C22 16.7909 20.2091 15 18 15C15.7909 15 14 16.7909 14 19ZM20 19C20 20.1046 19.1046 21 18 21C16.8954 21 16 20.1046 16 19C16 17.8954 16.8954 17 18 17C19.1046 17 20 17.8954 20 19Z" fill="#111014"/>
<path id="Oval 7" fill-rule="evenodd" clip-rule="evenodd" d="M2 5C2 7.20914 3.79086 9 6 9C8.20914 9 10 7.20914 10 5C10 2.79086 8.20914 1 6 1C3.79086 1 2 2.79086 2 5ZM8 5C8 6.10457 7.10457 7 6 7C4.89543 7 4 6.10457 4 5C4 3.89543 4.89543 3 6 3C7.10457 3 8 3.89543 8 5Z" fill="#111014"/>
<path id="Oval 7 Copy 3" fill-rule="evenodd" clip-rule="evenodd" d="M14 5C14 7.20914 15.7909 9 18 9C20.2091 9 22 7.20914 22 5C22 2.79086 20.2091 1 18 1C15.7909 1 14 2.79086 14 5ZM20 5C20 6.10457 19.1046 7 18 7C16.8954 7 16 6.10457 16 5C16 3.89543 16.8954 3 18 3C19.1046 3 20 3.89543 20 5Z" fill="#111014"/>
</g>
</svg>
