<svg width="24" height="24" viewBox="0 0 24 24" fill="none" xmlns="http://www.w3.org/2000/svg">
<g id="Property 2=Substract">
<path id="Combined Shape" fill-rule="evenodd" clip-rule="evenodd" d="M6 9H5.18182C3.76751 9 3 9.76751 3 11.1818V18.8182C3 20.2325 3.76751 21 5.18182 21H12.8182C14.2325 21 15 20.2325 15 18.8182V18H9C7.34315 18 6 16.6569 6 15V9Z" fill="#111014"/>
<path id="Rectangle 19 Copy 3" opacity="0.3" fill-rule="evenodd" clip-rule="evenodd" d="M10.1818 4H17.8182C19.2325 4 20 4.76751 20 6.18182V13.8182C20 15.2325 19.2325 16 17.8182 16H10.1818C8.76751 16 8 15.2325 8 13.8182V6.18182C8 4.76751 8.76751 4 10.1818 4Z" fill="#111014"/>
</g>
</svg>
