<svg width="24" height="24" viewBox="0 0 24 24" fill="none" xmlns="http://www.w3.org/2000/svg">
<g id="Property 2=Music-cloud">
<path id="Combined Shape" opacity="0.3" fill-rule="evenodd" clip-rule="evenodd" d="M8.53603 20.9823C8.35886 20.994 8.18013 21 8 21C3.58172 21 0 17.4183 0 13C0 8.58172 3.58172 5 8 5C10.9611 5 13.5465 6.60879 14.9297 9H18C21.3137 9 24 11.6863 24 15C24 18.3137 21.3137 21 18 21H9C8.84388 21 8.68915 20.994 8.53603 20.9823Z" fill="#111014"/>
<path id="Combined Shape_2" fill-rule="evenodd" clip-rule="evenodd" d="M10.5833 18.5C9.70888 18.5 9 17.892 9 17.142C9 16.392 9.70888 15.784 10.5833 15.784C10.7684 15.784 10.946 15.8112 11.1111 15.8612V12.0925C11.1111 11.814 11.2799 11.5678 11.5278 11.4847L14.5625 10.5294C14.9448 10.4013 15.3333 10.7076 15.3333 11.1373V12.0925C15.3333 12.411 15.0437 12.6143 14.8056 12.6728C14.463 12.757 13.5833 12.9381 12.1667 13.216V17.1698C12.1667 17.2186 12.1628 17.2637 12.1553 17.3053C12.0613 17.9783 11.3933 18.5 10.5833 18.5Z" fill="#111014"/>
</g>
</svg>
