<svg width="24" height="24" viewBox="0 0 24 24" fill="none" xmlns="http://www.w3.org/2000/svg">
<g id="Property 2=Shorts">
<path id="Combined Shape" fill-rule="evenodd" clip-rule="evenodd" d="M17.4901 3.06113C18.3216 3.11551 19.0635 3.69009 19.2912 4.53976L22.6558 17.0968C22.7988 17.6303 22.4822 18.1786 21.9487 18.3215L15.1872 20.1333C14.6538 20.2762 14.1054 19.9596 13.9625 19.4262L11.9974 12.0924L10.0323 19.4262C9.8894 19.9596 9.34106 20.2762 8.8076 20.1333L2.04612 18.3215C1.51265 18.1786 1.19607 17.6303 1.33901 17.0968L4.70366 4.53976C4.93133 3.69009 5.6732 3.11551 6.50477 3.06113C6.66236 3.02121 6.82741 3 6.99741 3H16.9974C17.1674 3 17.3325 3.02121 17.4901 3.06113Z" fill="#111014"/>
</g>
</svg>
