<svg width="24" height="24" viewBox="0 0 24 24" fill="none" xmlns="http://www.w3.org/2000/svg">
<g id="Property 2=Cutting board">
<path id="Combined Shape" opacity="0.3" fill-rule="evenodd" clip-rule="evenodd" d="M8.37932 15.1209C9.35563 16.0972 9.35563 17.6801 8.37932 18.6564L6.258 20.7778C5.28169 21.7541 3.69878 21.7541 2.72247 20.7778C1.74616 19.8014 1.74616 18.2185 2.72247 17.2422L4.84379 15.1209C5.8201 14.1446 7.40301 14.1446 8.37932 15.1209ZM3.81848 19.7525C4.30664 20.2406 5.09809 20.2406 5.58625 19.7525C6.07441 19.2643 6.07441 18.4728 5.58625 17.9847C5.09809 17.4965 4.30664 17.4965 3.81848 17.9847C3.33033 18.4728 3.33033 19.2643 3.81848 19.7525Z" fill="#111014"/>
<path id="Rectangle 134" fill-rule="evenodd" clip-rule="evenodd" d="M14.3898 1.33286L22.168 9.11103C22.949 9.89208 22.949 11.1584 22.168 11.9395L12.9756 21.1318C12.1945 21.9129 10.9282 21.9129 10.1472 21.1318L2.36899 13.3537C1.58794 12.5726 1.58794 11.3063 2.36899 10.5252L11.5614 1.33286C12.3424 0.551808 13.6088 0.551808 14.3898 1.33286Z" fill="#111014"/>
</g>
</svg>
