<svg width="24" height="24" viewBox="0 0 24 24" fill="none" xmlns="http://www.w3.org/2000/svg">
<g id="Property 2=Iron">
<path id="Combined Shape" opacity="0.3" fill-rule="evenodd" clip-rule="evenodd" d="M23 7H17V9H23V7ZM19 20L20.1429 18H2.14178C2.04834 18.6532 2 19.321 2 20H19Z" fill="#111014"/>
<path id="Combined Shape_2" fill-rule="evenodd" clip-rule="evenodd" d="M21.286 16H2.58008C4.30118 10.217 9.65828 5 16.0003 5H17.5003L23.0003 13L21.286 16ZM10.9903 8.85858C10.4222 8.93973 10.0003 9.4262 10.0003 10C10.0003 10.5523 10.448 11 11.0003 11H15.5003C16.3287 11 17.0003 10.3284 17.0003 9.5C17.0003 9.43844 16.996 9.37696 16.9872 9.31602C16.8856 8.60475 16.2267 8.11052 15.5154 8.21213L10.9903 8.85858ZM7.00032 14C7.55261 14 8.00032 13.5523 8.00032 13C8.00032 12.4477 7.55261 12 7.00032 12C6.44804 12 6.00032 12.4477 6.00032 13C6.00032 13.5523 6.44804 14 7.00032 14Z" fill="#111014"/>
</g>
</svg>
