<svg width="24" height="24" viewBox="0 0 24 24" fill="none" xmlns="http://www.w3.org/2000/svg">
<g id="Property 2=Import">
<rect id="Rectangle" opacity="0.3" x="13" y="13" width="2" height="12" rx="1" transform="rotate(-180 13 13)" fill="#111014"/>
<path id="Path 103" opacity="0.3" d="M17 8.00011C16.4477 8.00011 16 7.55239 16 7.00011C16 6.44782 16.4477 6.00011 17 6.00011H18C20.2091 6.00011 22 7.79097 22 10.0001V18.0001C22 20.2092 20.2091 22.0001 18 22.0001H6C3.79086 22.0001 2 20.2092 2 18.0001L2 9.99316C2 7.78402 3.79086 5.99316 6 5.99316H7C7.55229 5.99316 8 6.44088 8 6.99316C8 7.54545 7.55229 7.99316 7 7.99316H6C4.89543 7.99316 4 8.88859 4 9.99316V18.0001C4 19.1047 4.89543 20.0001 6 20.0001H18C19.1046 20.0001 20 19.1047 20 18.0001V10.0001C20 8.89554 19.1046 8.00011 18 8.00011H17Z" fill="#111014"/>
<path id="Path 104" d="M14.2929 10.2929C14.6834 9.90237 15.3166 9.90237 15.7071 10.2929C16.0976 10.6834 16.0976 11.3166 15.7071 11.7071L12.7071 14.7071C12.3166 15.0976 11.6834 15.0976 11.2929 14.7071L8.29289 11.7071C7.90237 11.3166 7.90237 10.6834 8.29289 10.2929C8.68342 9.90237 9.31658 9.90237 9.70711 10.2929L12 12.5858L14.2929 10.2929Z" fill="#111014"/>
</g>
</svg>
