<svg width="24" height="24" viewBox="0 0 24 24" fill="none" xmlns="http://www.w3.org/2000/svg">
<g id="Property 2=Sale#1">
<path id="Stroke 1" d="M18.3181 5.68806C17.6868 5.05674 16.6633 5.05634 16.0315 5.68718L5.7572 15.9457C5.12034 16.5816 5.11995 17.6135 5.75632 18.2498C6.39269 18.8862 7.42457 18.8858 8.06045 18.249L18.319 7.97465C18.9498 7.34284 18.9494 6.31939 18.3181 5.68806Z" fill="#111014"/>
<path id="Combined Shape" opacity="0.3" fill-rule="evenodd" clip-rule="evenodd" d="M6.93006 9.85714C8.54695 9.85714 9.85714 8.54731 9.85714 6.92857C9.85714 5.30984 8.54695 4 6.93006 4C5.31317 4 4 5.30984 4 6.92857C4 8.54731 5.31317 9.85714 6.93006 9.85714ZM17.0729 20C18.6898 20 20 18.6902 20 17.0714C20 15.4497 18.6898 14.1429 17.0729 14.1429C15.456 14.1429 14.1429 15.4497 14.1429 17.0714C14.1429 18.6902 15.456 20 17.0729 20Z" fill="#111014"/>
</g>
</svg>
