<svg width="24" height="24" viewBox="0 0 24 24" fill="none" xmlns="http://www.w3.org/2000/svg">
<g id="Property 2=Article">
<rect id="Rectangle 20" x="4" y="5" width="16" height="3" rx="1.5" fill="#111014"/>
<path id="Combined Shape" opacity="0.3" fill-rule="evenodd" clip-rule="evenodd" d="M5.5 10C4.67157 10 4 10.6716 4 11.5C4 12.3284 4.67157 13 5.5 13H12.5C13.3284 13 14 12.3284 14 11.5C14 10.6716 13.3284 10 12.5 10H5.5ZM5.5 15C4.67157 15 4 15.6716 4 16.5C4 17.3284 4.67157 18 5.5 18H18.5C19.3284 18 20 17.3284 20 16.5C20 15.6716 19.3284 15 18.5 15H5.5Z" fill="#111014"/>
</g>
</svg>
