<svg width="24" height="24" viewBox="0 0 24 24" fill="none" xmlns="http://www.w3.org/2000/svg">
<g id="Property 2=Shoes">
<path id="Path 112" fill-rule="evenodd" clip-rule="evenodd" d="M3.25968 3.66229C3.38549 3.31632 3.78928 3.17028 4.09614 3.37363C5.13978 4.06522 7.25841 5.64502 8.00046 7.50014C8.60597 9.01392 10.1281 11.261 11.2348 12.7983C11.9779 13.8306 13.3074 14.2312 14.5141 13.8289L16.5034 13.1658C16.8147 13.0621 17.1571 13.1176 17.4196 13.3145L22.0103 16.7575C22.3701 17.0273 22.2185 17.5979 21.7723 17.6537L13.4074 18.6993C11.9281 18.8842 10.4713 18.2307 9.60347 17.0185C8.53766 15.5298 7.14619 13.6415 6.50046 13.0001C6.172 12.6739 5.77757 12.3004 5.35618 11.9112C3.08194 9.81063 2.20167 6.5718 3.25968 3.66229Z" fill="#111014"/>
<path id="Path 113" opacity="0.3" fill-rule="evenodd" clip-rule="evenodd" d="M2.5 8.5C2.5 8.5 3.5 13.5 3.5 15C3.5 16.5 3.5 19 3.5 19H5C5 19 5 15 5 13.75C5 12.5 6.5 13 6.5 13L2.5 8.5Z" fill="#111014"/>
</g>
</svg>
