<svg width="24" height="24" viewBox="0 0 24 24" fill="none" xmlns="http://www.w3.org/2000/svg">
<g id="Property 2=Stop">
<path id="Combined Shape" opacity="0.3" fill-rule="evenodd" clip-rule="evenodd" d="M4.92855 19.0707C3.11913 17.2611 2 14.7612 2 12C2 6.47715 6.47715 2 12 2C17.5228 2 22 6.47715 22 12C22 17.5228 17.5228 22 12 22C9.23974 22 6.74068 20.8817 4.93122 19.0734C5.32193 19.4616 5.95338 19.4608 6.34315 19.0711L7.09436 18.3199C8.44904 19.3729 10.1513 20 12 20C16.4183 20 20 16.4183 20 12C20 10.1513 19.3729 8.44904 18.3199 7.09436L19.0711 6.34315C19.4616 5.95262 19.4616 5.31946 19.0711 4.92893C18.6805 4.53841 18.0474 4.53841 17.6569 4.92893L16.9056 5.68014C15.551 4.62708 13.8487 4 12 4C7.58172 4 4 7.58172 4 12C4 13.8487 4.62708 15.551 5.68014 16.9056L4.92893 17.6569C4.53853 18.0473 4.53841 18.6801 4.92855 19.0707ZM5.68014 16.9056C6.09075 17.4339 6.56613 17.9092 7.09436 18.3199L18.3199 7.09436C17.9092 6.56613 17.4339 6.09075 16.9056 5.68014L5.68014 16.9056ZM4.92855 19.0707C4.92868 19.0708 4.92881 19.0709 4.92893 19.0711C4.92969 19.0718 4.93046 19.0726 4.93122 19.0734" fill="#111014"/>
</g>
</svg>
