<svg width="24" height="24" viewBox="0 0 24 24" fill="none" xmlns="http://www.w3.org/2000/svg">
<g id="Property 2=Hummer">
<path id="Combined Shape" opacity="0.3" fill-rule="evenodd" clip-rule="evenodd" d="M18.4254 12.6469L21.2538 9.81847C21.4491 9.62321 21.7656 9.62321 21.9609 9.81847L22.668 10.5256C22.8633 10.7208 22.8633 11.0374 22.668 11.2327L19.8396 14.0611C19.6443 14.2564 19.3277 14.2564 19.1325 14.0611L18.4254 13.354C18.2301 13.1587 18.2301 12.8422 18.4254 12.6469ZM3.22258 17.9502L13.1221 8.05071C13.5126 7.66018 14.1458 7.66018 14.5363 8.05071L15.9505 9.46492C16.341 9.85544 16.341 10.4886 15.9505 10.8791L6.05101 20.7786C5.66048 21.1692 5.02732 21.1692 4.63679 20.7786L3.22258 19.3644C2.83206 18.9739 2.83206 18.3407 3.22258 17.9502Z" fill="#111014"/>
<path id="Rectangle" d="M9.58594 4.51465C11.5386 2.56203 14.7044 2.56203 16.657 4.51465L20.1605 8.01819C20.1782 8.03586 20.1782 8.06451 20.1605 8.08218L17.0106 11.2322C16.8153 11.4274 16.4987 11.4274 16.3035 11.2322L9.58594 4.51465Z" fill="#111014"/>
</g>
</svg>
