<svg width="24" height="24" viewBox="0 0 24 24" fill="none" xmlns="http://www.w3.org/2000/svg">
<g id="Property 2=Attachment#1">
<path id="Combined Shape" opacity="0.3" fill-rule="evenodd" clip-rule="evenodd" d="M4.22085 14.1214C3.43981 14.9025 3.43981 16.1688 4.22085 16.9499L7.04928 19.7783C7.83033 20.5593 9.09666 20.5593 9.87771 19.7783L12.7061 16.9499C13.4872 16.1688 13.4872 14.9025 12.7061 14.1214L11.999 13.4143L9.87771 15.5356C9.48718 15.9262 8.85402 15.9262 8.46349 15.5356C8.07297 15.1451 8.07297 14.512 8.46349 14.1214L10.5848 12.0001L9.87771 11.293C9.09666 10.512 7.83033 10.512 7.04928 11.293L4.22085 14.1214Z" fill="#111014"/>
<path id="Combined Shape Copy" fill-rule="evenodd" clip-rule="evenodd" d="M11.2931 7.05014C10.5121 7.83119 10.5121 9.09752 11.2931 9.87857L12.0002 10.5857L14.1215 8.46436C14.5121 8.07383 15.1452 8.07383 15.5358 8.46436C15.9263 8.85488 15.9263 9.48804 15.5358 9.87857L13.4144 11.9999L14.1215 12.707C14.9026 13.488 16.1689 13.488 16.95 12.707L19.7784 9.87857C20.5594 9.09752 20.5594 7.83119 19.7784 7.05014L16.95 4.22171C16.1689 3.44067 14.9026 3.44067 14.1215 4.22171L11.2931 7.05014Z" fill="#111014"/>
</g>
</svg>
