<svg width="24" height="24" viewBox="0 0 24 24" fill="none" xmlns="http://www.w3.org/2000/svg">
<g id="Property 2=Lock-circle">
<path id="Oval 5" opacity="0.3" fill-rule="evenodd" clip-rule="evenodd" d="M12 22C17.5228 22 22 17.5228 22 12C22 6.47715 17.5228 2 12 2C6.47715 2 2 6.47715 2 12C2 17.5228 6.47715 22 12 22Z" fill="#111014"/>
<path id="Combined Shape" fill-rule="evenodd" clip-rule="evenodd" d="M9.5 10.5C9.5 9.11929 10.6193 8 12 8C13.3807 8 14.5 9.11929 14.5 10.5V11C15.0523 11 15.5 11.4477 15.5 12V15C15.5 15.5523 15.0523 16 14.5 16H9.5C8.94772 16 8.5 15.5523 8.5 15V12C8.5 11.4477 8.94772 11 9.5 11V10.5ZM12 9C11.1716 9 10.5 9.67157 10.5 10.5V11H13.5V10.5C13.5 9.67157 12.8284 9 12 9Z" fill="#111014"/>
</g>
</svg>
