<svg width="24" height="24" viewBox="0 0 24 24" fill="none" xmlns="http://www.w3.org/2000/svg">
<g id="Property 2=MC">
<path id="Combined Shape" opacity="0.3" d="M10.8223 8.36941L12.732 9.82299C13.4108 8.93114 14.4589 8.4 15.5996 8.4C17.5878 8.4 19.1996 10.0118 19.1996 12C19.1996 13.9882 17.5878 15.6 15.5996 15.6C14.581 15.6 13.6359 15.1781 12.957 14.4448L11.1959 16.0753C12.2919 17.259 13.8592 18 15.5996 18C18.9133 18 21.5996 15.3137 21.5996 12C21.5996 8.68629 18.9133 6 15.5996 6C13.6504 6 11.9182 6.92949 10.8223 8.36941Z" fill="#111014"/>
<path id="Oval 14 Copy" fill-rule="evenodd" clip-rule="evenodd" d="M8.40039 18C5.08668 18 2.40039 15.3137 2.40039 12C2.40039 8.68629 5.08668 6 8.40039 6C11.7141 6 14.4004 8.68629 14.4004 12C14.4004 15.3137 11.7141 18 8.40039 18Z" fill="#111014"/>
</g>
</svg>
