<svg width="24" height="24" viewBox="0 0 24 24" fill="none" xmlns="http://www.w3.org/2000/svg">
<g id="Property 2=Rouble">
<path id="Path" opacity="0.3" fill-rule="evenodd" clip-rule="evenodd" d="M5.80902 17C5.43733 17 5.19558 16.6088 5.3618 16.2764L5.8618 15.2764C5.9465 15.107 6.11963 15 6.30902 15H16.191C16.5627 15 16.8044 15.3912 16.6382 15.7236L16.1382 16.7236C16.0535 16.893 15.8804 17 15.691 17H5.80902Z" fill="#111014"/>
<path id="Combined Shape" fill-rule="evenodd" clip-rule="evenodd" d="M8 3.71582H13.107C14.0423 3.71582 14.8857 3.80015 15.637 3.96882C16.3883 4.13749 17.0323 4.41349 17.569 4.79682C18.1057 5.18016 18.5197 5.67082 18.811 6.26882C19.1023 6.86682 19.248 7.58748 19.248 8.43082C19.248 9.33549 19.0793 10.0945 18.742 10.7078C18.4047 11.3212 17.9485 11.8157 17.3735 12.1913C16.7985 12.567 16.1277 12.8392 15.361 13.0078C14.5943 13.1765 13.7817 13.2608 12.923 13.2608H10.692V19.9998H8V3.71582ZM12.716 10.8228C13.1913 10.8228 13.6437 10.7883 14.073 10.7193C14.5023 10.6503 14.8857 10.5277 15.223 10.3513C15.5603 10.175 15.8287 9.93349 16.028 9.62682C16.2273 9.32015 16.327 8.92149 16.327 8.43082C16.327 7.95548 16.2273 7.56832 16.028 7.26932C15.8287 6.97032 15.5642 6.73649 15.2345 6.56782C14.9048 6.39915 14.5292 6.28799 14.1075 6.23432C13.6858 6.18065 13.2527 6.15382 12.808 6.15382H10.692V10.8228H12.716Z" fill="#111014"/>
</g>
</svg>
