<svg width="24" height="24" viewBox="0 0 24 24" fill="none" xmlns="http://www.w3.org/2000/svg">
<g id="Property 2=Fork-spoon">
<path id="Combined Shape" fill-rule="evenodd" clip-rule="evenodd" d="M15 3H14V7.5C14 9.433 15.567 11 17.5 11C19.433 11 21 9.433 21 7.5V3H20L19.5498 7.50248C19.5215 7.78492 19.2838 8 19 8C18.7162 8 18.4785 7.78492 18.4502 7.50248L18 3H17L16.5498 7.50248C16.5215 7.78492 16.2838 8 16 8C15.7162 8 15.4785 7.78492 15.4502 7.50248L15 3Z" fill="#111014"/>
<rect id="Rectangle" opacity="0.3" x="16.0801" y="13" width="2.838" height="9" rx="1.419" fill="#111014"/>
<rect id="Rectangle Copy" opacity="0.3" x="6.0918" y="14" width="2.8184" height="8" rx="1.4092" fill="#111014"/>
<path id="Combined Shape_2" fill-rule="evenodd" clip-rule="evenodd" d="M11 7.5C11 9.433 9.433 12 7.5 12C5.567 12 4 9.433 4 7.5C4 5.567 5.567 3 7.5 3C9.433 3 11 5.567 11 7.5ZM9.4775 7.89491C9.49729 6.76103 8.63275 4.70471 7.50954 4.60103L7.56069 9.94758C8.61892 9.85786 9.45856 8.97981 9.4775 7.89491Z" fill="#111014"/>
</g>
</svg>
