<svg width="24" height="25" viewBox="0 0 24 25" fill="none" xmlns="http://www.w3.org/2000/svg">
<g id="Property 2=Snow#3">
<path id="Combined Shape" opacity="0.3" fill-rule="evenodd" clip-rule="evenodd" d="M11.4998 2C11.4998 1.17157 12.1713 0.5 12.9998 0.5C13.8282 0.5 14.4998 1.17157 14.4998 2V3.5C14.4998 4.32843 13.8282 5 12.9998 5C12.1713 5 11.4998 4.32843 11.4998 3.5V2ZM17.0604 4.87132C16.4746 5.45711 16.4746 6.40685 17.0604 6.99264C17.6462 7.57843 18.596 7.57843 19.1818 6.99264L20.2424 5.93198C20.8282 5.34619 20.8282 4.39645 20.2424 3.81066C19.6566 3.22487 18.7069 3.22487 18.1211 3.81066L17.0604 4.87132ZM8.99977 11C8.99977 13.2091 10.7906 15 12.9998 15C15.2089 15 16.9998 13.2091 16.9998 11C16.9998 8.79086 15.2089 7 12.9998 7C10.7906 7 8.99977 8.79086 8.99977 11ZM6.6809 22.8264C6.82384 22.2929 7.37217 21.9763 7.90564 22.1193C8.43911 22.2622 8.75569 22.8105 8.61275 23.344C8.46981 23.8775 7.92147 24.1941 7.388 24.0511C6.85454 23.9082 6.53795 23.3598 6.6809 22.8264ZM11.9056 22.1193C11.3722 21.9763 10.8238 22.2929 10.6809 22.8264C10.538 23.3598 10.8545 23.9082 11.388 24.0511C11.9215 24.1941 12.4698 23.8775 12.6127 23.344C12.7557 22.8105 12.4391 22.2622 11.9056 22.1193ZM15.9056 22.1193C15.3722 21.9763 14.8238 22.2929 14.6809 22.8264C14.538 23.3598 14.8545 23.9082 15.388 24.0511C15.9215 24.1941 16.4698 23.8775 16.6127 23.344C16.7557 22.8105 16.4391 22.2622 15.9056 22.1193ZM18.9998 11C18.9998 10.1716 19.6713 9.5 20.4998 9.5H21.9998C22.8282 9.5 23.4998 10.1716 23.4998 11C23.4998 11.8284 22.8282 12.5 21.9998 12.5H20.4998C19.6713 12.5 18.9998 11.8284 18.9998 11ZM5.81043 3.81066C5.22465 4.39645 5.22465 5.34619 5.81043 5.93198L6.87109 6.99264C7.45688 7.57843 8.40663 7.57843 8.99241 6.99264C9.5782 6.40685 9.5782 5.45711 8.99241 4.87132L7.93175 3.81066C7.34597 3.22487 6.39622 3.22487 5.81043 3.81066Z" fill="#111014"/>
<path id="Combined Shape_2" fill-rule="evenodd" clip-rule="evenodd" d="M13.811 12.5C13.1449 9.91216 10.7958 8 8 8C4.68629 8 2 10.6863 2 14C2 16.1148 3.0941 17.974 4.74715 19.0426C5.41093 19.6379 6.28818 20 7.25 20H8H16.25C18.3211 20 20 18.3211 20 16.25C20 14.1789 18.3211 12.5 16.25 12.5H13.811Z" fill="#111014"/>
</g>
</svg>
