<svg width="24" height="24" viewBox="0 0 24 24" fill="none" xmlns="http://www.w3.org/2000/svg">
<g id="Property 2=Cassete">
<rect id="Rectangle 2" opacity="0.3" x="5" y="15" width="14" height="2" rx="1" fill="#111014"/>
<path id="Oval Copy" fill-rule="evenodd" clip-rule="evenodd" d="M2 12.5C2 14.9853 4.01472 17 6.5 17C8.98528 17 11 14.9853 11 12.5C11 10.0147 8.98528 8 6.5 8C4.01472 8 2 10.0147 2 12.5ZM9 12.5C9 13.8807 7.88071 15 6.5 15C5.11929 15 4 13.8807 4 12.5C4 11.1193 5.11929 10 6.5 10C7.88071 10 9 11.1193 9 12.5Z" fill="#111014"/>
<path id="Oval" fill-rule="evenodd" clip-rule="evenodd" d="M13 12.5C13 14.9853 15.0147 17 17.5 17C19.9853 17 22 14.9853 22 12.5C22 10.0147 19.9853 8 17.5 8C15.0147 8 13 10.0147 13 12.5ZM20 12.5C20 13.8807 18.8807 15 17.5 15C16.1193 15 15 13.8807 15 12.5C15 11.1193 16.1193 10 17.5 10C18.8807 10 20 11.1193 20 12.5Z" fill="#111014"/>
</g>
</svg>
