<svg width="24" height="24" viewBox="0 0 24 24" fill="none" xmlns="http://www.w3.org/2000/svg">
<g id="Property 2=Crop">
<path id="Combined Shape" opacity="0.3" fill-rule="evenodd" clip-rule="evenodd" d="M8 6H4C3.44772 6 3 6.44772 3 7C3 7.55228 3.44772 8 4 8H8V6ZM10 8H14.5C15.6046 8 16 8.39543 16 9.5V14H18V9.5C18 7.29086 16.7091 6 14.5 6H10V8ZM16 16H18V20C18 20.5523 17.5523 21 17 21C16.4477 21 16 20.5523 16 20V16Z" fill="#111014"/>
<path id="Path 12 Copy" d="M20 16C20.5523 16 21 16.4477 21 17C21 17.5523 20.5523 18 20 18L9.5 18C7.29086 18 6 16.7091 6 14.5L6 4C6 3.44771 6.44771 3 7 3C7.55229 3 8 3.44771 8 4L8 14.5C8 15.6046 8.39543 16 9.5 16L20 16Z" fill="#111014"/>
</g>
</svg>
