<svg width="24" height="24" viewBox="0 0 24 24" fill="none" xmlns="http://www.w3.org/2000/svg">
<g id="Property 2=Lamp#2">
<path id="Combined Shape" opacity="0.3" fill-rule="evenodd" clip-rule="evenodd" d="M11.0052 2.89776C11.0017 2.93137 11 2.96548 11 3V6V11C11 11.5523 11.4477 12 12 12C12.5523 12 13 11.5523 13 11V6V3C13 2.44772 12.5523 2 12 2C11.4822 2 11.0564 2.3935 11.0052 2.89776Z" fill="#111014"/>
<path id="Combined Shape_2" opacity="0.3" fill-rule="evenodd" clip-rule="evenodd" d="M8.12695 19C8.571 20.7252 10.1371 22 12.0009 22C13.8648 22 15.4309 20.7252 15.8749 19H8.12695Z" fill="#111014"/>
<path id="Rectangle 98" d="M3 17C3 12.0294 7.02944 8 12 8C16.9706 8 21 12.0294 21 17H3Z" fill="#111014"/>
</g>
</svg>
