<svg width="24" height="24" viewBox="0 0 24 24" fill="none" xmlns="http://www.w3.org/2000/svg">
<g id="Property 2=Cloud-sun">
<path id="Combined Shape" opacity="0.3" fill-rule="evenodd" clip-rule="evenodd" d="M11.4998 3C11.4998 2.17157 12.1713 1.5 12.9998 1.5C13.8282 1.5 14.4998 2.17157 14.4998 3V4.5C14.4998 5.32843 13.8282 6 12.9998 6C12.1713 6 11.4998 5.32843 11.4998 4.5V3ZM17.0604 5.87132C16.4746 6.45711 16.4746 7.40685 17.0604 7.99264C17.6462 8.57843 18.596 8.57843 19.1818 7.99264L20.2424 6.93198C20.8282 6.34619 20.8282 5.39645 20.2424 4.81066C19.6566 4.22487 18.7069 4.22487 18.1211 4.81066L17.0604 5.87132ZM12.9998 16C10.7906 16 8.99977 14.2091 8.99977 12C8.99977 9.79086 10.7906 8 12.9998 8C15.2089 8 16.9998 9.79086 16.9998 12C16.9998 14.2091 15.2089 16 12.9998 16ZM18.9998 12C18.9998 11.1716 19.6713 10.5 20.4998 10.5H21.9998C22.8282 10.5 23.4998 11.1716 23.4998 12C23.4998 12.8284 22.8282 13.5 21.9998 13.5H20.4998C19.6713 13.5 18.9998 12.8284 18.9998 12ZM5.81043 4.81066C5.22465 5.39645 5.22465 6.34619 5.81043 6.93198L6.87109 7.99264C7.45688 8.57843 8.40663 8.57843 8.99241 7.99264C9.5782 7.40685 9.5782 6.45711 8.99241 5.87132L7.93175 4.81066C7.34597 4.22487 6.39622 4.22487 5.81043 4.81066Z" fill="#111014"/>
<path id="Combined Shape_2" fill-rule="evenodd" clip-rule="evenodd" d="M13.811 13.5C13.1449 10.9122 10.7958 9 8 9C4.68629 9 2 11.6863 2 15C2 17.1148 3.0941 18.974 4.74715 20.0426C5.41093 20.6379 6.28818 21 7.25 21H8H16.25C18.3211 21 20 19.3211 20 17.25C20 15.1789 18.3211 13.5 16.25 13.5H13.811Z" fill="#111014"/>
</g>
</svg>
