<svg width="24" height="24" viewBox="0 0 24 24" fill="none" xmlns="http://www.w3.org/2000/svg">
<g id="Property 2=Cloud-upload">
<path id="Combined Shape" opacity="0.3" fill-rule="evenodd" clip-rule="evenodd" d="M14.811 6.5C14.1449 3.91216 11.7958 2 9 2C5.68629 2 3 4.68629 3 8C3 10.1148 4.0941 11.974 5.74715 13.0426C6.41093 13.6379 7.28818 14 8.25 14H9H17.25C19.3211 14 21 12.3211 21 10.25C21 8.17893 19.3211 6.5 17.25 6.5H14.811Z" fill="#111014"/>
<path id="Shape" d="M8.65029 18.6692C8.37518 18.9942 8.60614 19.4923 9.03189 19.4923H10.9884V21.5C10.9884 21.7761 11.2122 22 11.4884 22H12.5117C12.7878 22 13.0117 21.7761 13.0117 21.5V19.4923H14.9681C15.3939 19.4923 15.6248 18.9942 15.3497 18.6692L12.3816 15.1636C12.1819 14.9277 11.8181 14.9277 11.6184 15.1636L8.65029 18.6692Z" fill="#111014"/>
</g>
</svg>
