<svg width="24" height="24" viewBox="0 0 24 24" fill="none" xmlns="http://www.w3.org/2000/svg">
<g id="Property 2=Vertical">
<path id="Combined Shape" fill-rule="evenodd" clip-rule="evenodd" d="M12 3C11.4477 3 11 3.44772 11 4V5C11 5.55228 11.4477 6 12 6C12.5523 6 13 5.55228 13 5V4C13 3.44772 12.5523 3 12 3ZM12 8C11.4477 8 11 8.44772 11 9V10C11 10.5523 11.4477 11 12 11C12.5523 11 13 10.5523 13 10V9C13 8.44772 12.5523 8 12 8ZM11 14C11 13.4477 11.4477 13 12 13C12.5523 13 13 13.4477 13 14V15C13 15.5523 12.5523 16 12 16C11.4477 16 11 15.5523 11 15V14ZM12 18C11.4477 18 11 18.4477 11 19V20C11 20.5523 11.4477 21 12 21C12.5523 21 13 20.5523 13 20V19C13 18.4477 12.5523 18 12 18Z" fill="#111014"/>
<path id="Combined Shape_2" opacity="0.3" fill-rule="evenodd" clip-rule="evenodd" d="M3 14.9599C3 15.3791 3.48497 15.6122 3.81235 15.3503L7.51196 12.3906C7.76216 12.1904 7.76216 11.8099 7.51196 11.6097L3.81235 8.65005C3.48497 8.38815 3 8.62124 3 9.04049V14.9599ZM21 9.04049C21 8.62124 20.515 8.38815 20.1877 8.65006L16.488 11.6097C16.2378 11.8099 16.2378 12.1904 16.488 12.3906L20.1877 15.3503C20.515 15.6122 21 15.3791 21 14.9599V9.04049Z" fill="#111014"/>
</g>
</svg>
