<svg width="24" height="24" viewBox="0 0 24 24" fill="none" xmlns="http://www.w3.org/2000/svg">
<g id="Property 2=Cooking-pot">
<path id="Combined Shape" opacity="0.3" fill-rule="evenodd" clip-rule="evenodd" d="M11 4C10.4477 4 10 4.44772 10 5V6H4.99005C3.89098 6 3 6.89098 3 7.99005C3 7.99555 3.00446 8 3.00995 8H20.9901C20.9956 8 21 7.99555 21 7.99005C21 6.89098 20.1091 6 19.01 6H14V5C14 4.44772 13.5523 4 13 4H11ZM19 12C19 11.4477 19.4477 11 20 11H22C22.5523 11 23 11.4477 23 12C23 12.5523 22.5523 13 22 13H20C19.4477 13 19 12.5523 19 12ZM2 11C1.44772 11 1 11.4477 1 12C1 12.5523 1.44772 13 2 13H4C4.55228 13 5 12.5523 5 12C5 11.4477 4.55228 11 4 11H2Z" fill="#111014"/>
<path id="Rectangle 203" d="M4 10C4 9.44772 4.44772 9 5 9H19C19.5523 9 20 9.44772 20 10V17C20 19.2091 18.2091 21 16 21H8C5.79086 21 4 19.2091 4 17V10Z" fill="#111014"/>
</g>
</svg>
