<svg width="24" height="24" viewBox="0 0 24 24" fill="none" xmlns="http://www.w3.org/2000/svg">
<g id="Property 2=Media-library#3">
<path id="Combined Shape" opacity="0.3" fill-rule="evenodd" clip-rule="evenodd" d="M18.3 3H7.45C6.0969 3 5 4.17525 5 5.625V18.375C5 19.8247 6.0969 21 7.45 21H18.3C18.6866 21 19 20.6642 19 20.25V7H9C8.44772 7 8 6.55228 8 6C8 5.44772 8.44772 5 9 5H19V3.75C19 3.33579 18.6866 3 18.3 3Z" fill="#111014"/>
<mask id="mask0_428_10462" style="mask-type:luminance" maskUnits="userSpaceOnUse" x="5" y="3" width="14" height="18">
<path id="Combined Shape_2" fill-rule="evenodd" clip-rule="evenodd" d="M18.3 3H7.45C6.0969 3 5 4.17525 5 5.625V18.375C5 19.8247 6.0969 21 7.45 21H18.3C18.6866 21 19 20.6642 19 20.25V7H9C8.44772 7 8 6.55228 8 6C8 5.44772 8.44772 5 9 5H19V3.75C19 3.33579 18.6866 3 18.3 3Z" fill="white"/>
</mask>
<g mask="url(#mask0_428_10462)">
<path id="Combined Shape_3" fill-rule="evenodd" clip-rule="evenodd" d="M10.8333 19C9.82081 19 9 18.316 9 17.4722C9 16.6285 9.82081 15.9444 10.8333 15.9444C11.0476 15.9444 11.2533 15.9751 11.4444 16.0314V11.7916C11.4444 11.4782 11.6399 11.2012 11.9269 11.1078L15.4408 10.0331C15.8835 9.88894 16.3333 10.2336 16.3333 10.7169V11.7916C16.3333 12.1498 15.9979 12.3786 15.7222 12.4444C15.3255 12.5392 14.307 12.7429 12.6667 13.0556V17.5035C12.6667 17.5584 12.6622 17.6092 12.6535 17.656C12.5446 18.4131 11.7712 19 10.8333 19Z" fill="#111014"/>
</g>
</g>
</svg>
