<svg width="24" height="24" viewBox="0 0 24 24" fill="none" xmlns="http://www.w3.org/2000/svg">
<g id="Property 2=Dollar">
<rect id="Rectangle" opacity="0.3" x="11.5" y="2" width="2" height="4" rx="1" fill="#111014"/>
<rect id="Rectangle Copy 3" opacity="0.3" x="11.5" y="16" width="2" height="5" rx="1" fill="#111014"/>
<path id="Combined Shape" fill-rule="evenodd" clip-rule="evenodd" d="M15.4932 8.04405C15.2145 7.68939 14.8503 7.40756 14.4007 7.19855C13.951 6.98955 13.5172 6.88505 13.0992 6.88505C12.8838 6.88505 12.6653 6.90405 12.4437 6.94205C12.222 6.98005 12.0225 7.05289 11.8452 7.16055C11.6678 7.26822 11.519 7.40755 11.3987 7.57855C11.2783 7.74956 11.2182 7.96805 11.2182 8.23405C11.2182 8.46206 11.2657 8.65205 11.3607 8.80405C11.4557 8.95606 11.595 9.08905 11.7787 9.20305C11.9623 9.31706 12.1808 9.42155 12.4342 9.51655C12.6875 9.61156 12.9725 9.70972 13.2892 9.81105C13.7452 9.96306 14.2202 10.1309 14.7142 10.3146C15.2082 10.4982 15.6578 10.7421 16.0632 11.0461C16.4685 11.3501 16.8042 11.7269 17.0702 12.1766C17.3362 12.6262 17.4692 13.1867 17.4692 13.8581C17.4692 14.6307 17.3267 15.2989 17.0417 15.8626C16.7567 16.4262 16.3735 16.8917 15.8922 17.2591C15.4108 17.6264 14.8598 17.8987 14.2392 18.0761C13.6185 18.2534 12.9788 18.3421 12.3202 18.3421C11.3575 18.3421 10.4265 18.1742 9.52716 17.8386C8.62782 17.5029 7.88049 17.0247 7.28516 16.4041L9.41316 14.2381C9.74249 14.6434 10.1763 14.9822 10.7147 15.2546C11.253 15.5269 11.7882 15.6631 12.3202 15.6631C12.5608 15.6631 12.7952 15.6377 13.0232 15.5871C13.2512 15.5364 13.4507 15.4541 13.6217 15.3401C13.7927 15.2261 13.9288 15.0741 14.0302 14.8841C14.1315 14.6941 14.1822 14.4661 14.1822 14.2001C14.1822 13.9467 14.1188 13.7314 13.9922 13.5541C13.8655 13.3767 13.685 13.2152 13.4507 13.0696C13.2163 12.9239 12.925 12.7909 12.5767 12.6706C12.2283 12.5502 11.8325 12.4204 11.3892 12.2811C10.9585 12.1417 10.5373 11.9771 10.1257 11.7871C9.71399 11.5971 9.34666 11.3532 9.02366 11.0556C8.70065 10.7579 8.44099 10.3969 8.24466 9.97255C8.04832 9.54822 7.95016 9.03206 7.95016 8.42405C7.95016 7.67672 8.10215 7.03706 8.40616 6.50505C8.71016 5.97305 9.10915 5.53606 9.60316 5.19405C10.0972 4.85205 10.6545 4.60189 11.2752 4.44355C11.8958 4.28522 12.5228 4.20605 13.1562 4.20605C13.9162 4.20605 14.692 4.34539 15.4837 4.62405C16.2753 4.90272 16.9688 5.31439 17.5642 5.85905L15.4932 8.04405Z" fill="#111014"/>
</g>
</svg>
