<svg width="24" height="24" viewBox="0 0 24 24" fill="none" xmlns="http://www.w3.org/2000/svg">
<g id="Property 2=Redo">
<path id="Shape" d="M3.06543 17.791C3.06543 16.9707 2.88965 13.7334 5.44336 11.165C7.16211 9.43652 9.73438 9.13672 12.8105 9V4.69308C12.8105 4.04233 13.5825 3.70036 14.0645 4.13761L21.2045 10.6153C21.5304 10.9108 21.533 11.4221 21.2102 11.721L14.0702 18.3335C13.59 18.7781 12.8105 18.4376 12.8105 17.7832V13.5C10.8574 13.5537 9.46618 13.6779 8.20215 14.0801C5.75905 14.8573 4.30934 18.1902 3.9184 19.2054C3.85098 19.3804 3.68401 19.5 3.4964 19.5C3.25569 19.5 3.06062 19.3049 3.06138 19.0642C3.06277 18.6211 3.06543 18.1117 3.06543 17.791Z" fill="#111014"/>
</g>
</svg>
