<svg width="24" height="24" viewBox="0 0 24 24" fill="none" xmlns="http://www.w3.org/2000/svg">
<g id="Property 2=Kettle">
<path id="Combined Shape" fill-rule="evenodd" clip-rule="evenodd" d="M18.0008 2.00009C19.6576 2.00009 21.0008 4.46252 21.0008 7.50009C21.0008 9.89482 20.166 11.9321 19.0008 12.6871L19.0008 19.0001H6.00078V9.20719C6.00078 9.07459 5.9481 8.94741 5.85434 8.85364L4.37392 7.37323C4.1703 7.14548 4.18886 6.82941 4.39526 6.64591C6.92746 4.39476 8.96262 3.01281 10.5008 2.50009C11.9168 2.02807 17.8065 1.96567 17.928 2.00168C17.9522 2.00062 17.9764 2.00009 18.0008 2.00009ZM17.5008 11.0001C17.7261 11.0001 19.0008 9.07989 19.0008 7.00009C19.0008 5.13221 18.5008 4.50009 17.5008 4.00009C17.5008 4.00009 17.5008 12.0001 17.5008 11.0001ZM11.0008 15.0001H12.0008C12.5531 15.0001 13.0008 14.5524 13.0008 14.0001C13.0008 13.4478 12.5531 13.0001 12.0008 13.0001H11.0008V12.0001H12.0008C12.5531 12.0001 13.0008 11.5524 13.0008 11.0001C13.0008 10.4478 12.5531 10.0001 12.0008 10.0001H11.0008V9.00009H12.0008C12.5531 9.00009 13.0008 8.55237 13.0008 8.00009C13.0008 7.4478 12.5531 7.00009 12.0008 7.00009H11.0008C11.0008 5.89552 11.8962 5.00009 13.0008 5.00009C14.1054 5.00009 15.0008 5.89552 15.0008 7.00009V15.0001C15.0008 16.1047 14.1054 17.0001 13.0008 17.0001C11.8962 17.0001 11.0008 16.1047 11.0008 15.0001Z" fill="#111014"/>
<path id="Rectangle" opacity="0.3" d="M5 21C5 20.4477 5.44772 20 6 20H19C19.5523 20 20 20.4477 20 21V22H5V21Z" fill="#111014"/>
</g>
</svg>
