<svg width="24" height="24" viewBox="0 0 24 24" fill="none" xmlns="http://www.w3.org/2000/svg">
<g id="Property 2=Wi-fi">
<path id="Combined Shape" opacity="0.3" fill-rule="evenodd" clip-rule="evenodd" d="M21.4479 12.1675L23.5465 10.4258C20.7149 7.01399 16.52 5 11.999 5C7.48431 5 3.2946 7.00839 0.462891 10.4121L2.55946 12.1563C4.87839 9.369 8.30321 7.72727 11.999 7.72727C15.6999 7.72727 19.129 9.37359 21.4479 12.1675ZM17.2625 15.6657L19.3667 13.9306C17.5653 11.7461 14.8863 10.4545 11.999 10.4545C9.12118 10.4545 6.45002 11.7376 4.64851 13.9098L6.74779 15.6508C8.03654 14.0969 9.94157 13.1818 11.999 13.1818C14.0632 13.1818 15.9739 14.103 17.2625 15.6657Z" fill="#111014"/>
<path id="Oval 21" fill-rule="evenodd" clip-rule="evenodd" d="M15.1187 17.3546L13.039 19.1189L11.9617 20.0001L10.933 19.1487L8.80469 17.4433C9.57532 16.4815 10.7412 15.9092 11.9983 15.9092C13.2149 15.9092 14.3472 16.4452 15.1187 17.3546Z" fill="#111014"/>
</g>
</svg>
