<svg width="24" height="24" viewBox="0 0 24 24" fill="none" xmlns="http://www.w3.org/2000/svg">
<g id="Property 2=Phone">
<path id="Combined Shape" fill-rule="evenodd" clip-rule="evenodd" d="M16.1667 1H7.83333C6.42705 1 5.75 1.98122 5.75 3.5V20.5C5.75 22.0188 6.42705 23 7.83333 23H16.1667C17.5729 23 18.25 22.0188 18.25 20.5V3.5C18.25 1.98122 17.5729 1 16.1667 1ZM7.13889 19V4H16.8611V19H7.13889Z" fill="#111014"/>
<path id="Combined Shape_2" opacity="0.3" fill-rule="evenodd" clip-rule="evenodd" d="M7 4V19H17V4H7Z" fill="#111014"/>
<path id="Oval" fill-rule="evenodd" clip-rule="evenodd" d="M12 22C12.5523 22 13 21.5523 13 21C13 20.4477 12.5523 20 12 20C11.4477 20 11 20.4477 11 21C11 21.5523 11.4477 22 12 22Z" fill="#111014"/>
</g>
</svg>
