<svg width="24" height="24" viewBox="0 0 24 24" fill="none" xmlns="http://www.w3.org/2000/svg">
<g id="Property 2=Layout-right-panel-2">
<path id="Combined Shape" fill-rule="evenodd" clip-rule="evenodd" d="M10.5 5C9.67157 5 9 5.67157 9 6.5V9.5C9 10.3284 9.67157 11 10.5 11H20.5C21.3284 11 22 10.3284 22 9.5V6.5C22 5.67157 21.3284 5 20.5 5H10.5ZM10.5 13C9.67157 13 9 13.6716 9 14.5V17.5C9 18.3284 9.67157 19 10.5 19H20.5C21.3284 19 22 18.3284 22 17.5V14.5C22 13.6716 21.3284 13 20.5 13H10.5Z" fill="#111014"/>
<rect id="Rectangle 7 Copy 2" opacity="0.3" x="2" y="5" width="5" height="14" rx="1" fill="#111014"/>
</g>
</svg>
