<svg width="24" height="24" viewBox="0 0 24 24" fill="none" xmlns="http://www.w3.org/2000/svg">
<g id="Property 2=Upload-folder">
<path id="Combined Shape" opacity="0.3" fill-rule="evenodd" clip-rule="evenodd" d="M2 19.5C2 20.3284 2.67157 21 3.5 21H20.5C21.3284 21 22 20.3284 22 19.5V8.5C22 7.67157 21.3284 7 20.5 7H10L7.43934 4.43934C7.15804 4.15804 6.7765 4 6.37868 4H3.5C2.67157 4 2 4.67157 2 5.5V19.5Z" fill="#111014"/>
<path id="Shape" fill-rule="evenodd" clip-rule="evenodd" d="M8.17269 13.6564C7.88121 13.9777 8.1092 14.4923 8.54302 14.4923H10.6661V16.5C10.6661 16.7761 10.89 17 11.1661 17H12.3339C12.6101 17 12.8339 16.7761 12.8339 16.5V14.4923H14.957C15.3908 14.4923 15.6188 13.9777 15.3273 13.6564L12.1203 10.1211C11.9219 9.90237 11.5781 9.90237 11.3797 10.1211L8.17269 13.6564Z" fill="#111014"/>
</g>
</svg>
