<svg width="24" height="24" viewBox="0 0 24 24" fill="none" xmlns="http://www.w3.org/2000/svg">
<g id="Property 2=Expand-arrows">
<path id="Combined Shape" opacity="0.3" fill-rule="evenodd" clip-rule="evenodd" d="M5.46477 17.1214C5.07424 17.5119 5.07424 18.1451 5.46477 18.5356C5.85529 18.9261 6.48846 18.9261 6.87898 18.5356L12.0003 13.4143L18.1927 19.6067C18.5832 19.9972 19.2164 19.9972 19.6069 19.6067C19.9974 19.2162 19.9974 18.583 19.6069 18.1925L13.4145 12.0001L19.6069 5.80769C19.9974 5.41717 19.9974 4.784 19.6069 4.39348C19.2164 4.00296 18.5832 4.00296 18.1927 4.39348L12.0003 10.5859L6.87898 5.46455C6.48846 5.07402 5.85529 5.07402 5.46477 5.46455C5.07424 5.85507 5.07424 6.48824 5.46477 6.87876L10.5861 12.0001L5.46477 17.1214Z" fill="#111014"/>
<path id="Combined Shape_2" fill-rule="evenodd" clip-rule="evenodd" d="M18 6H15C15 6 14 5.82843 14 5C14 4.17157 15 4 15 4H20V9C20 9 20 10 19 10C18 10 18 9 18 9V6ZM9 18H6V15C6 15 6 14 5 14C4 14 4 15 4 15V20H9C9 20 10 19.8284 10 19C10 18.1716 9 18 9 18ZM18 15V18H15C15 18 14 18 14 19C14 20 15 20 15 20H20V15C20 15 19.8284 14 19 14C18.1716 14 18 15 18 15ZM6 9V6H9C9 6 10 6 10 5C10 4 9 4 9 4H4V9C4 9 4.17157 10 5 10C5.82843 10 6 9 6 9Z" fill="#111014"/>
</g>
</svg>
