<svg width="24" height="24" viewBox="0 0 24 24" fill="none" xmlns="http://www.w3.org/2000/svg">
<g id="Property 2=Pictures#2">
<path id="Combined Shape" opacity="0.3" fill-rule="evenodd" clip-rule="evenodd" d="M2 19.5C2 20.3284 2.67157 21 3.5 21H20.5C21.3284 21 22 20.3284 22 19.5V8.5C22 7.67157 21.3284 7 20.5 7H10L7.43934 4.43934C7.15804 4.15804 6.7765 4 6.37868 4H3.5C2.67157 4 2 4.67157 2 5.5V19.5Z" fill="#111014"/>
<path id="Oval 32" opacity="0.3" fill-rule="evenodd" clip-rule="evenodd" d="M13.5 19C14.8807 19 16 17.8807 16 16.5C16 15.1193 14.8807 14 13.5 14C12.1193 14 11 15.1193 11 16.5C11 17.8807 12.1193 19 13.5 19Z" fill="#111014"/>
<path id="Oval 32 Copy" opacity="0.3" fill-rule="evenodd" clip-rule="evenodd" d="M10.5 19C11.8807 19 13 17.8807 13 16.5C13 15.1193 11.8807 14 10.5 14C9.11929 14 8 15.1193 8 16.5C8 17.8807 9.11929 19 10.5 19Z" fill="#111014"/>
<path id="Oval 32 Copy 2" opacity="0.3" fill-rule="evenodd" clip-rule="evenodd" d="M9.5 16C10.8807 16 12 14.8807 12 13.5C12 12.1193 10.8807 11 9.5 11C8.11929 11 7 12.1193 7 13.5C7 14.8807 8.11929 16 9.5 16Z" fill="#111014"/>
<path id="Oval 32 Copy 3" opacity="0.3" fill-rule="evenodd" clip-rule="evenodd" d="M14.5 16C15.8807 16 17 14.8807 17 13.5C17 12.1193 15.8807 11 14.5 11C13.1193 11 12 12.1193 12 13.5C12 14.8807 13.1193 16 14.5 16Z" fill="#111014"/>
<path id="Oval 32 Copy 4" opacity="0.3" fill-rule="evenodd" clip-rule="evenodd" d="M12 14C13.3807 14 14.5 12.8807 14.5 11.5C14.5 10.1193 13.3807 9 12 9C10.6193 9 9.5 10.1193 9.5 11.5C9.5 12.8807 10.6193 14 12 14Z" fill="#111014"/>
</g>
</svg>
