<svg width="24" height="24" viewBox="0 0 24 24" fill="none" xmlns="http://www.w3.org/2000/svg">
<g id="Property 2=Roulette">
<path id="Combined Shape" fill-rule="evenodd" clip-rule="evenodd" d="M9 5C5.68629 5 3 7.68629 3 11V19C3 20.1046 3.89543 21 5 21H13C16.3137 21 19 18.3137 19 15V9H21C21.5523 9 22 8.55228 22 8V6H21V7H19C19 5.89543 18.1046 5 17 5H9ZM15 13C15 15.2091 13.2091 17 11 17C8.79086 17 7 15.2091 7 13C7 10.7909 8.79086 9 11 9C13.2091 9 15 10.7909 15 13Z" fill="#111014"/>
<path id="Rectangle 80" opacity="0.3" d="M11 4C11 3.44772 11.4477 3 12 3H15C15.5523 3 16 3.44772 16 4V5H11V4Z" fill="#111014"/>
</g>
</svg>
