<svg width="24" height="24" viewBox="0 0 24 24" fill="none" xmlns="http://www.w3.org/2000/svg">
<g id="Property 2=Snow#2">
<path id="Combined Shape" fill-rule="evenodd" clip-rule="evenodd" d="M14.811 7.5C14.1449 4.91216 11.7958 3 9 3C5.68629 3 3 5.68629 3 9C3 11.1148 4.0941 12.974 5.74715 14.0426C6.41093 14.6379 7.28818 15 8.25 15H9H17.25C19.3211 15 21 13.3211 21 11.25C21 9.17893 19.3211 7.5 17.25 7.5H14.811Z" fill="#111014"/>
<path id="Combined Shape_2" opacity="0.3" fill-rule="evenodd" clip-rule="evenodd" d="M7.90555 18.1193C7.37209 17.9763 6.82375 18.2929 6.68081 18.8264C6.53786 19.3599 6.85445 19.9082 7.38791 20.0511C7.92138 20.1941 8.46972 19.8775 8.61266 19.344C8.7556 18.8106 8.43902 18.2622 7.90555 18.1193ZM10.6808 18.8264C10.8237 18.2929 11.3721 17.9763 11.9056 18.1193C12.439 18.2622 12.7556 18.8106 12.6127 19.344C12.4697 19.8775 11.9214 20.1941 11.3879 20.0511C10.8544 19.9082 10.5379 19.3599 10.6808 18.8264ZM14.6808 18.8264C14.8237 18.2929 15.3721 17.9763 15.9056 18.1193C16.439 18.2622 16.7556 18.8106 16.6127 19.344C16.4697 19.8775 15.9214 20.1941 15.3879 20.0511C14.8544 19.9082 14.5379 19.3599 14.6808 18.8264Z" fill="#111014"/>
</g>
</svg>
