<svg width="24" height="24" viewBox="0 0 24 24" fill="none" xmlns="http://www.w3.org/2000/svg">
<g id="Property 2=Compass #1">
<path id="Combined Shape" opacity="0.3" fill-rule="evenodd" clip-rule="evenodd" d="M13.5 1.5C13.5 0.671573 12.8284 0 12 0C11.1716 0 10.5 0.671573 10.5 1.5V4H13.5V1.5ZM9.46809 14.108C8.54045 13.692 7.72445 13.0716 7.07745 12.304L4.5 18L5 23L9.46809 14.108ZM17.0614 12.6194C16.3754 13.3366 15.532 13.9019 14.5866 14.2598L19 23L19.5 18L17.0614 12.6194Z" fill="#111014"/>
<path id="Oval 43" fill-rule="evenodd" clip-rule="evenodd" d="M7 8C7 10.7614 9.23858 13 12 13C14.7614 13 17 10.7614 17 8C17 5.23858 14.7614 3 12 3C9.23858 3 7 5.23858 7 8ZM14 8C14 9.10457 13.1046 10 12 10C10.8954 10 10 9.10457 10 8C10 6.89543 10.8954 6 12 6C13.1046 6 14 6.89543 14 8Z" fill="#111014"/>
</g>
</svg>
