<svg width="24" height="24" viewBox="0 0 24 24" fill="none" xmlns="http://www.w3.org/2000/svg">
<g id="Property 2=iMac">
<path id="Combined Shape" fill-rule="evenodd" clip-rule="evenodd" d="M5 3H19C20.4202 3 21 3.71634 21 4.6V17.4C21 18.2837 20.4202 19 19 19H5C3.57984 19 3 18.2837 3 17.4V4.6C3 3.71634 3.57984 3 5 3ZM5 5V16H19V5H5ZM12.5 17.5C12.5 17.7761 12.2761 18 12 18C11.7239 18 11.5 17.7761 11.5 17.5C11.5 17.2239 11.7239 17 12 17C12.2761 17 12.5 17.2239 12.5 17.5Z" fill="#111014"/>
<path id="Combined Shape_2" opacity="0.3" fill-rule="evenodd" clip-rule="evenodd" d="M5 5V16H19V5H5Z" fill="#111014"/>
<rect id="Rectangle 4" opacity="0.3" x="10" y="20" width="4" height="1" rx="0.5" fill="#111014"/>
</g>
</svg>
