<svg width="24" height="24" viewBox="0 0 24 24" fill="none" xmlns="http://www.w3.org/2000/svg">
<g id="Property 2=Shield-user">
<path id="Path 50" opacity="0.3" fill-rule="evenodd" clip-rule="evenodd" d="M4 3.99982L11.6314 2.56892C11.875 2.52325 12.125 2.52325 12.3686 2.56892L20 3.99982V11.9031C20 15.6958 18.0462 19.221 14.83 21.2311L12.53 22.6686C12.2057 22.8712 11.7943 22.8712 11.47 22.6686L9.17001 21.2311C5.95382 19.221 4 15.6958 4 11.9031L4 3.99982Z" fill="#111014"/>
<path id="Mask" opacity="0.3" fill-rule="evenodd" clip-rule="evenodd" d="M12 11C10.8954 11 10 10.1046 10 9C10 7.89543 10.8954 7 12 7C13.1046 7 14 7.89543 14 9C14 10.1046 13.1046 11 12 11Z" fill="#111014"/>
<path id="Mask Copy" opacity="0.3" fill-rule="evenodd" clip-rule="evenodd" d="M7.00036 16.4995C7.2157 13.5166 9.36773 12 11.9907 12C14.6507 12 16.836 13.4332 16.9988 16.5C17.0053 16.6222 16.9988 17 16.5815 17C14.5228 17 11.4637 17 7.40417 17C7.26484 17 6.98863 16.662 7.00036 16.4995Z" fill="#111014"/>
</g>
</svg>
