<svg width="24" height="24" viewBox="0 0 24 24" fill="none" xmlns="http://www.w3.org/2000/svg">
<g id="Property 2=Pantone">
<path id="Combined Shape" opacity="0.3" fill-rule="evenodd" clip-rule="evenodd" d="M22 13.3529C22 13.158 21.842 13 21.6471 13H8C5.79086 13 4 14.7909 4 17C4 19.2091 5.79086 21 8 21H21.6471C21.842 21 22 20.842 22 20.6471V13.3529ZM9 17C9 18.1046 8.10457 19 7 19C5.89543 19 5 18.1046 5 17C5 15.8954 5.89543 15 7 15C8.10457 15 9 15.8954 9 17Z" fill="#111014"/>
<path id="Combined Shape_2" opacity="0.3" fill-rule="evenodd" clip-rule="evenodd" d="M14.3773 4.53501C14.2394 4.39718 14.016 4.39718 13.8781 4.53501L4.22821 14.1849C2.66612 15.747 2.66612 18.2797 4.22821 19.8418C5.79031 21.4039 8.32297 21.4039 9.88507 19.8418L19.535 10.1919C19.6728 10.054 19.6728 9.83057 19.535 9.69273L14.3773 4.53501ZM8.99979 16.9997C8.99979 18.1042 8.10436 18.9997 6.99979 18.9997C5.89522 18.9997 4.99979 18.1042 4.99979 16.9997C4.99979 15.8951 5.89522 14.9997 6.99979 14.9997C8.10436 14.9997 8.99979 15.8951 8.99979 16.9997Z" fill="#111014"/>
<path id="Combined Shape_3" fill-rule="evenodd" clip-rule="evenodd" d="M3.35294 3C3.15802 3 3 3.15802 3 3.35294V17C3 19.2091 4.79086 21 7 21C9.20914 21 11 19.2091 11 17V3.35294C11 3.15802 10.842 3 10.6471 3H3.35294ZM9 17C9 18.1046 8.10457 19 7 19C5.89543 19 5 18.1046 5 17C5 15.8954 5.89543 15 7 15C8.10457 15 9 15.8954 9 17Z" fill="#111014"/>
</g>
</svg>
