<svg width="24" height="24" viewBox="0 0 24 24" fill="none" xmlns="http://www.w3.org/2000/svg">
<g id="Property 2=Align-right">
<path id="Combined Shape" opacity="0.3" fill-rule="evenodd" clip-rule="evenodd" d="M5 5C4.44772 5 4 5.44772 4 6C4 6.55228 4.44772 7 5 7H19C19.5523 7 20 6.55228 20 6C20 5.44772 19.5523 5 19 5H5ZM5 13C4.44772 13 4 13.4477 4 14C4 14.5523 4.44772 15 5 15H19C19.5523 15 20 14.5523 20 14C20 13.4477 19.5523 13 19 13H5Z" fill="#111014"/>
<path id="Combined Shape_2" fill-rule="evenodd" clip-rule="evenodd" d="M11 9C10.4477 9 10 9.44772 10 10C10 10.5523 10.4477 11 11 11H19C19.5523 11 20 10.5523 20 10C20 9.44772 19.5523 9 19 9H11ZM11 17C10.4477 17 10 17.4477 10 18C10 18.5523 10.4477 19 11 19H19C19.5523 19 20 18.5523 20 18C20 17.4477 19.5523 17 19 17H11Z" fill="#111014"/>
</g>
</svg>
