<svg width="24" height="24" viewBox="0 0 24 24" fill="none" xmlns="http://www.w3.org/2000/svg">
<g id="Property 2=Cloud-wind">
<path id="Combined Shape" fill-rule="evenodd" clip-rule="evenodd" d="M14.811 4.5C14.1449 1.91216 11.7958 0 9 0C5.68629 0 3 2.68629 3 6C3 8.11479 4.0941 9.97404 5.74715 11.0426C6.41093 11.6379 7.28818 12 8.25 12H9H17.25C19.3211 12 21 10.3211 21 8.25C21 6.17893 19.3211 4.5 17.25 4.5H14.811Z" fill="#111014"/>
<path id="Path 34" opacity="0.3" d="M4 14V16H17.5C18.3284 16 19 16.6716 19 17.5V18C19 18.5523 18.5523 19 18 19C17.4477 19 17 18.5523 17 18V17H15V18C15 19.6569 16.3431 21 18 21C19.6569 21 21 19.6569 21 18V17.5C21 15.567 19.433 14 17.5 14H4Z" fill="#111014"/>
<path id="Path 34 Copy 2" opacity="0.3" d="M4 17V19H10.5C11.3284 19 12 19.6716 12 20.5V21C12 21.5523 11.5523 22 11 22C10.4477 22 10 21.5523 10 21V20H8V21C8 22.6569 9.34315 24 11 24C12.6569 24 14 22.6569 14 21V20.5C14 18.567 12.433 17 10.5 17H4Z" fill="#111014"/>
</g>
</svg>
