<svg width="24" height="24" viewBox="0 0 24 24" fill="none" xmlns="http://www.w3.org/2000/svg">
<g id="Property 2=Socket-eu">
<path id="Combined Shape" fill-rule="evenodd" clip-rule="evenodd" d="M11 3.05469C6.50005 3.55213 3 7.3672 3 11.9998C3 16.6323 6.50005 20.4474 11 20.9448V18.9998C11 18.4475 11.4477 17.9998 12 17.9998C12.5523 17.9998 13 18.4475 13 18.9998V20.9448C17.5 20.4474 21 16.6323 21 11.9998C21 7.3672 17.5 3.55213 13 3.05469V4.99976C13 5.55204 12.5523 5.99976 12 5.99976C11.4477 5.99976 11 5.55204 11 4.99976V3.05469ZM8.5 12.9998C9.32843 12.9998 10 12.3282 10 11.4998C10 10.6713 9.32843 9.99976 8.5 9.99976C7.67157 9.99976 7 10.6713 7 11.4998C7 12.3282 7.67157 12.9998 8.5 12.9998ZM17 11.4998C17 12.3282 16.3284 12.9998 15.5 12.9998C14.6716 12.9998 14 12.3282 14 11.4998C14 10.6713 14.6716 9.99976 15.5 9.99976C16.3284 9.99976 17 10.6713 17 11.4998Z" fill="#111014"/>
</g>
</svg>
