<svg width="24" height="24" viewBox="0 0 24 24" fill="none" xmlns="http://www.w3.org/2000/svg">
<g id="Property 2=Magic">
<path id="Rectangle 154" fill-rule="evenodd" clip-rule="evenodd" d="M5.05115 22.1925L19.1933 8.05037C19.5838 7.65984 19.5838 7.02668 19.1933 6.63615L16.3649 3.80773C15.9743 3.4172 15.3412 3.4172 14.9506 3.80773L0.808508 17.9499C0.417984 18.3404 0.417984 18.9736 0.808508 19.3641L3.63693 22.1925C4.02746 22.583 4.66062 22.583 5.05115 22.1925ZM15.6578 5.92905L17.072 7.34326L13.5364 10.8788L12.1222 9.46458L15.6578 5.92905Z" fill="#111014"/>
<path id="Combined Shape" opacity="0.3" fill-rule="evenodd" clip-rule="evenodd" d="M20 9.5C20 9.22386 20.2239 9 20.5 9H21.5C21.7761 9 22 9.22386 22 9.5V10.5C22 10.7761 21.7761 11 21.5 11H20.5C20.2239 11 20 10.7761 20 10.5V9.5ZM17 12.5C17 12.2239 17.2239 12 17.5 12H18.5C18.7761 12 19 12.2239 19 12.5V13.5C19 13.7761 18.7761 14 18.5 14H17.5C17.2239 14 17 13.7761 17 13.5V12.5ZM21.5 13C21.2239 13 21 13.2239 21 13.5V14.5C21 14.7761 21.2239 15 21.5 15H22.5C22.7761 15 23 14.7761 23 14.5V13.5C23 13.2239 22.7761 13 22.5 13H21.5Z" fill="#111014"/>
</g>
</svg>
