<svg width="24" height="24" viewBox="0 0 24 24" fill="none" xmlns="http://www.w3.org/2000/svg">
<g id="Property 2=RSS">
<path id="Oval 40" fill-rule="evenodd" clip-rule="evenodd" d="M6 21C7.65685 21 9 19.6569 9 18C9 16.3431 7.65685 15 6 15C4.34315 15 3 16.3431 3 18C3 19.6569 4.34315 21 6 21Z" fill="#111014"/>
<path id="Oval 53" opacity="0.3" d="M16.5 21H13.5C13.5 15.201 8.79899 10.5 3 10.5V7.5C10.4558 7.5 16.5 13.5442 16.5 21Z" fill="#111014"/>
<path id="Oval 53 Copy" opacity="0.3" d="M22.5 21H19.5C19.5 12.1634 11.8366 4.5 3 4.5V1.5C13.4934 1.5 22.5 10.5066 22.5 21Z" fill="#111014"/>
</g>
</svg>
