<svg width="24" height="24" viewBox="0 0 24 24" fill="none" xmlns="http://www.w3.org/2000/svg">
<g id="Property 2=Generator">
<rect id="Combined Shape" opacity="0.3" x="2" y="6" width="20" height="14" rx="2" fill="#111014"/>
<path id="Combined Shape_2" fill-rule="evenodd" clip-rule="evenodd" d="M5 4C4.44772 4 4 4.44772 4 5V6H8V5C8 4.44772 7.55228 4 7 4H5ZM17 4C16.4477 4 16 4.44772 16 5V6H20V5C20 4.44772 19.5523 4 19 4H17Z" fill="#111014"/>
<path id="Combined Shape_3" fill-rule="evenodd" clip-rule="evenodd" d="M7 15C7 15.5523 7.44772 16 8 16C8.55228 16 9 15.5523 9 15V14H10C10.5523 14 11 13.5523 11 13C11 12.4477 10.5523 12 10 12H9V11C9 10.4477 8.55228 10 8 10C7.44772 10 7 10.4477 7 11V12H6C5.44772 12 5 12.4477 5 13C5 13.5523 5.44772 14 6 14H7V15Z" fill="#111014"/>
<rect id="Rectangle 46 Copy" x="14" y="12" width="4" height="2" rx="1" fill="#111014"/>
</g>
</svg>
