<svg width="24" height="24" viewBox="0 0 24 24" fill="none" xmlns="http://www.w3.org/2000/svg">
<g id="Property 2=Thunder-circle">
<path id="Oval 5" opacity="0.3" fill-rule="evenodd" clip-rule="evenodd" d="M12 22C17.5228 22 22 17.5228 22 12C22 6.47715 17.5228 2 12 2C6.47715 2 2 6.47715 2 12C2 17.5228 6.47715 22 12 22Z" fill="#111014"/>
<path id="Path 3" fill-rule="evenodd" clip-rule="evenodd" d="M11 16.8229C11 17.6144 12.0669 17.8662 12.4208 17.1584L15.4573 11.0854C15.7066 10.5867 15.344 10 14.7865 10H12V7.17705C12 6.38563 10.9331 6.13377 10.5792 6.84164L7.54271 12.9146C7.29337 13.4133 7.65599 14 8.21353 14H11V16.8229Z" fill="#111014"/>
</g>
</svg>
