<svg width="24" height="24" viewBox="0 0 24 24" fill="none" xmlns="http://www.w3.org/2000/svg">
<g id="Property 2=Sign-out">
<path id="Path 103" opacity="0.3" d="M14.0017 7C14.0017 7.55229 14.4493 8 15.0013 8C15.5534 8 16.0009 7.55229 16.0009 7V6C16.0009 3.79086 14.2108 2 12.0026 2H6.00608C3.7979 2 2.00781 3.79086 2.00781 6L2.00781 18C2.00781 20.2091 3.7979 22 6.00608 22H12.0095C14.2177 22 16.0078 20.2091 16.0078 18V17C16.0078 16.4477 15.5603 16 15.0082 16C14.4562 16 14.0087 16.4477 14.0087 17V18C14.0087 19.1046 13.1136 20 12.0095 20H6.00608C4.90199 20 4.00694 19.1046 4.00694 18L4.00694 6C4.00694 4.89543 4.90199 4 6.00608 4H12.0026C13.1067 4 14.0017 4.89543 14.0017 6V7Z" fill="#111014"/>
<rect id="Rectangle" opacity="0.3" x="20" y="11" width="2" height="12" rx="1" transform="rotate(90 20 11)" fill="#111014"/>
<path id="Path 104" d="M17.2929 9.70711C16.9024 9.31658 16.9024 8.68342 17.2929 8.29289C17.6834 7.90237 18.3166 7.90237 18.7071 8.29289L21.7071 11.2929C22.0976 11.6834 22.0976 12.3166 21.7071 12.7071L18.7071 15.7071C18.3166 16.0976 17.6834 16.0976 17.2929 15.7071C16.9024 15.3166 16.9024 14.6834 17.2929 14.2929L19.5858 12L17.2929 9.70711Z" fill="#111014"/>
</g>
</svg>
