<svg width="24" height="24" viewBox="0 0 24 24" fill="none" xmlns="http://www.w3.org/2000/svg">
<g id="Property 2=Hat">
<path id="Combined Shape" fill-rule="evenodd" clip-rule="evenodd" d="M9 9.5C9 7.567 10.567 6 12.5 6H14.5C16.433 6 18 7.567 18 9.5V12.4296C17.2669 12.6704 16.4413 12.9956 15.5133 13.4077C13.0065 12.2759 10.8414 11.4334 9 10.8654V9.5Z" fill="#111014"/>
<path id="Combined Shape_2" opacity="0.3" fill-rule="evenodd" clip-rule="evenodd" d="M1.9378 15.3666C1.95076 15.4252 1.96313 15.4812 1.97459 15.5342C3.12923 21.3123 11.7802 16.906 14.6159 15.4617C15.1135 15.2083 15.432 15.046 15.4996 15.046C0.0662612 6.8985 1.43939 13.1115 1.9378 15.3666ZM15.4996 15.0582C22.4523 11.3877 22.094 14.1406 21.8953 15.0582C21.3832 17.6209 17.1752 15.7793 15.8752 15.2104C15.6624 15.1172 15.5275 15.0582 15.4996 15.0582Z" fill="#111014"/>
</g>
</svg>
