<svg width="24" height="24" viewBox="0 0 24 24" fill="none" xmlns="http://www.w3.org/2000/svg">
<g id="Property 2=Downloads-folder">
<path id="Combined Shape" opacity="0.3" fill-rule="evenodd" clip-rule="evenodd" d="M2 19.5C2 20.3284 2.67157 21 3.5 21H20.5C21.3284 21 22 20.3284 22 19.5V8.5C22 7.67157 21.3284 7 20.5 7H10L7.43934 4.43934C7.15804 4.15804 6.7765 4 6.37868 4H3.5C2.67157 4 2 4.67157 2 5.5V19.5Z" fill="#111014"/>
<path id="Shape" fill-rule="evenodd" clip-rule="evenodd" d="M15.2696 13.654C15.5447 13.3291 15.3138 12.8309 14.888 12.8309H12.9316V10.8232C12.9316 10.5471 12.7077 10.3232 12.4316 10.3232H11.4083C11.1321 10.3232 10.9083 10.5471 10.9083 10.8232V12.8309L8.95179 12.8309C8.52604 12.8309 8.29509 13.3291 8.57019 13.654L11.5383 17.1597C11.738 17.3955 12.1018 17.3955 12.3015 17.1597L15.2696 13.654Z" fill="#111014"/>
</g>
</svg>
