<svg width="24" height="24" viewBox="0 0 24 24" fill="none" xmlns="http://www.w3.org/2000/svg">
<g id="Property 2=Chat-locked">
<path id="Path 75" opacity="0.3" fill-rule="evenodd" clip-rule="evenodd" d="M5 15L3 21.5L9.5 19.5L5 15Z" fill="#111014"/>
<path id="Combined Shape" fill-rule="evenodd" clip-rule="evenodd" d="M23 11.5C23 16.7467 18.7467 21 13.5 21C8.25329 21 4 16.7467 4 11.5C4 6.25329 8.25329 2 13.5 2C18.7467 2 23 6.25329 23 11.5ZM11 10C10.4477 10 10 10.4477 10 11V14C10 14.5523 10.4477 15 11 15H16C16.5523 15 17 14.5523 17 14V11C17 10.4477 16.5523 10 16 10V9.5C16 8.11929 14.8807 7 13.5 7C12.1193 7 11 8.11929 11 9.5V10ZM13.5 8C12.6716 8 12 8.67157 12 9.5V10H15V9.5C15 8.67157 14.3284 8 13.5 8Z" fill="#111014"/>
</g>
</svg>
