<svg width="24" height="24" viewBox="0 0 24 24" fill="none" xmlns="http://www.w3.org/2000/svg">
<g id="Property 2=CMD">
<path id="Path 2" fill-rule="evenodd" clip-rule="evenodd" d="M13 11V9H15V11H13ZM13 13V11H11V9H13V7.5C13 5.567 14.567 4 16.5 4C18.433 4 20 5.567 20 7.5C20 9.433 18.433 11 16.5 11H15V13H13ZM13 15V13H11V11H9V9H11V7.5C11 5.567 9.433 4 7.5 4C5.567 4 4 5.567 4 7.5C4 9.433 5.567 11 7.5 11H9V13H7.5C5.567 13 4 14.567 4 16.5C4 18.433 5.567 20 7.5 20C9.433 20 11 18.433 11 16.5V15H13ZM15 15H13V16.5C13 18.433 14.567 20 16.5 20C18.433 20 20 18.433 20 16.5C20 14.567 18.433 13 16.5 13H15V15ZM15 15H16.5C17.3284 15 18 15.6716 18 16.5C18 17.3284 17.3284 18 16.5 18C15.6716 18 15 17.3284 15 16.5V15ZM9 15V13H11V15H9ZM9 15H7.5C6.67157 15 6 15.6716 6 16.5C6 17.3284 6.67157 18 7.5 18C8.32843 18 9 17.3284 9 16.5V15ZM9 9V7.5C9 6.67157 8.32843 6 7.5 6C6.67157 6 6 6.67157 6 7.5C6 8.32843 6.67157 9 7.5 9H9ZM15 9H16.5C17.3284 9 18 8.32843 18 7.5C18 6.67157 17.3284 6 16.5 6C15.6716 6 15 6.67157 15 7.5V9Z" fill="#111014"/>
</g>
</svg>
