<svg width="24" height="24" viewBox="0 0 24 24" fill="none" xmlns="http://www.w3.org/2000/svg">
<g id="Property 2=Patch">
<path id="Combined Shape" fill-rule="evenodd" clip-rule="evenodd" d="M11.2936 5.63623L18.3647 12.7073L12.0008 19.0713L4.92969 12.0002L11.2936 5.63623ZM8.46522 11.2931C8.0747 11.6836 8.0747 12.3168 8.46522 12.7073C8.85575 13.0978 9.48891 13.0978 9.87944 12.7073C10.27 12.3168 10.27 11.6836 9.87944 11.2931C9.48891 10.9026 8.85575 10.9026 8.46522 11.2931ZM11.2936 8.46466C10.9031 8.85518 10.9031 9.48835 11.2936 9.87887C11.6842 10.2694 12.3173 10.2694 12.7079 9.87887C13.0984 9.48835 13.0984 8.85518 12.7079 8.46466C12.3173 8.07413 11.6842 8.07413 11.2936 8.46466ZM11.2936 14.1215C10.9031 14.512 10.9031 15.1452 11.2936 15.5357C11.6842 15.9263 12.3173 15.9263 12.7079 15.5357C13.0984 15.1452 13.0984 14.512 12.7079 14.1215C12.3173 13.731 11.6842 13.731 11.2936 14.1215ZM14.1221 11.2931C13.7316 11.6836 13.7316 12.3168 14.1221 12.7073C14.5126 13.0978 15.1458 13.0978 15.5363 12.7073C15.9268 12.3168 15.9268 11.6836 15.5363 11.2931C15.1458 10.9026 14.5126 10.9026 14.1221 11.2931Z" fill="#111014"/>
<path id="Path" opacity="0.3" fill-rule="evenodd" clip-rule="evenodd" d="M10.5155 20.4145C8.57415 21.7007 5.93274 21.4886 4.22228 19.7781C2.51182 18.0676 2.29969 15.4262 3.5859 13.4849L10.5155 20.4145Z" fill="#111014"/>
<path id="Path_2" opacity="0.3" fill-rule="evenodd" clip-rule="evenodd" d="M12.7773 4.29244C14.7187 3.00623 17.3601 3.21836 19.0706 4.92882C20.781 6.63928 20.9932 9.28069 19.707 11.2221L12.7773 4.29244H12.7773Z" fill="#111014"/>
</g>
</svg>
