<svg width="24" height="24" viewBox="0 0 24 24" fill="none" xmlns="http://www.w3.org/2000/svg">
<g id="Property 2=Air-ballon">
<path id="Combined Shape" fill-rule="evenodd" clip-rule="evenodd" d="M13.7672 15.71C13.1926 15.8712 12.5871 15.9574 11.9618 15.9574C11.3365 15.9574 10.7311 15.8712 10.1565 15.71L9.6461 17.0882C9.56435 17.309 9.6748 17.5551 9.89279 17.6379C9.94012 17.6559 9.99026 17.6651 10.0408 17.6651H11.1208C11.1776 19.5881 12.0715 20.8958 13.8828 21.5073C14.3246 21.6564 14.802 21.4147 14.9493 20.9673C15.0965 20.5199 14.8578 20.0364 14.4161 19.8873C13.2933 19.5083 12.8608 18.8256 12.8049 17.6379L13.8828 17.6651C14.1156 17.6651 14.3044 17.4739 14.3044 17.2381C14.3044 17.187 14.2953 17.1362 14.2775 17.0882L13.7672 15.71Z" fill="#111014"/>
<path id="Combined Shape_2" opacity="0.3" fill-rule="evenodd" clip-rule="evenodd" d="M19 9C19 12.866 15.866 16 12 16C8.13401 16 5 12.866 5 9C5 5.13401 8.13401 2 12 2C15.866 2 19 5.13401 19 9ZM8.11553 8.1919C8.47708 8.16662 8.79068 8.43922 8.81596 8.80077C8.90328 10.0495 9.45599 10.9854 10.5074 11.6648C10.8118 11.8615 10.8991 12.2677 10.7024 12.5721C10.5057 12.8765 10.0994 12.9638 9.79502 12.7671C8.39667 11.8635 7.62279 10.5532 7.50665 8.89233C7.48137 8.53077 7.75397 8.21718 8.11553 8.1919Z" fill="#111014"/>
</g>
</svg>
