<svg width="24" height="24" viewBox="0 0 24 24" fill="none" xmlns="http://www.w3.org/2000/svg">
<g id="Property 2=Airplay">
<path id="Path 15" opacity="0.3" fill-rule="evenodd" clip-rule="evenodd" d="M8 21H16L12 16L8 21Z" fill="#111014"/>
<path id="Combined Shape" fill-rule="evenodd" clip-rule="evenodd" d="M21.6781 10.9044L23.29 9.72049C20.6689 6.15176 16.5129 4 11.9996 4C7.42388 4 3.21731 6.21203 0.605469 9.86351L2.23217 11.0271C4.47241 7.89509 8.07627 6 11.9996 6C15.8694 6 19.4299 7.84339 21.6781 10.9044ZM20.4677 11.9789L18.9288 13.2562C17.2283 11.2073 14.7136 10 11.9996 10C9.28932 10 6.77779 11.2039 5.07724 13.248L3.53976 11.9689C5.61635 9.47282 8.6888 8 11.9996 8C15.3149 8 18.3912 9.47693 20.4677 11.9789ZM17.4025 14.5491L15.8595 15.8215C14.9145 14.6755 13.5133 14 11.9996 14C10.4908 14 9.09377 14.671 8.14868 15.8106L6.60921 14.5339C7.93032 12.9409 9.88917 12 11.9996 12C14.1169 12 16.0816 12.9471 17.4025 14.5491Z" fill="#111014"/>
</g>
</svg>
