<svg width="24" height="24" viewBox="0 0 24 24" fill="none" xmlns="http://www.w3.org/2000/svg">
<g id="Property 2=Cloud#2">
<path id="Oval 2" opacity="0.3" fill-rule="evenodd" clip-rule="evenodd" d="M16 15C18.7614 15 21 12.7614 21 10C21 7.23858 18.7614 5 16 5C13.2386 5 11 7.23858 11 10C11 12.7614 13.2386 15 16 15Z" fill="#111014"/>
<path id="Combined Shape" fill-rule="evenodd" clip-rule="evenodd" d="M14.811 11.5C14.1449 8.91216 11.7958 7 9 7C5.68629 7 3 9.68629 3 13C3 15.1148 4.0941 16.974 5.74715 18.0426C6.41093 18.6379 7.28818 19 8.25 19H9H17.25C19.3211 19 21 17.3211 21 15.25C21 13.1789 19.3211 11.5 17.25 11.5H14.811Z" fill="#111014"/>
</g>
</svg>
