<svg width="24" height="24" viewBox="0 0 24 24" fill="none" xmlns="http://www.w3.org/2000/svg">
<g id="Property 2=Cloud-fog">
<path id="Combined Shape" fill-rule="evenodd" clip-rule="evenodd" d="M14.811 7.5C14.1449 4.91216 11.7958 3 9 3C5.68629 3 3 5.68629 3 9C3 11.1148 4.0941 12.974 5.74715 14.0426C6.41093 14.6379 7.28818 15 8.25 15H9H17.25C19.3211 15 21 13.3211 21 11.25C21 9.17893 19.3211 7.5 17.25 7.5H14.811Z" fill="#111014"/>
<path id="Combined Shape_2" opacity="0.3" fill-rule="evenodd" clip-rule="evenodd" d="M4 17.5C4 17.2239 4.22386 17 4.5 17H20.5C20.7761 17 21 17.2239 21 17.5C21 17.7761 20.7761 18 20.5 18H4.5C4.22386 18 4 17.7761 4 17.5ZM4 19.5C4 19.2239 4.22386 19 4.5 19H8.5C8.77614 19 9 19.2239 9 19.5C9 19.7761 8.77614 20 8.5 20H4.5C4.22386 20 4 19.7761 4 19.5ZM16.5 21C16.2239 21 16 21.2239 16 21.5C16 21.7761 16.2239 22 16.5 22H20.5C20.7761 22 21 21.7761 21 21.5C21 21.2239 20.7761 21 20.5 21H16.5ZM11 19.5C11 19.2239 11.2239 19 11.5 19H20.5C20.7761 19 21 19.2239 21 19.5C21 19.7761 20.7761 20 20.5 20H11.5C11.2239 20 11 19.7761 11 19.5ZM4.5 21C4.22386 21 4 21.2239 4 21.5C4 21.7761 4.22386 22 4.5 22H13.5C13.7761 22 14 21.7761 14 21.5C14 21.2239 13.7761 21 13.5 21H4.5Z" fill="#111014"/>
</g>
</svg>
