<svg width="24" height="24" viewBox="0 0 24 24" fill="none" xmlns="http://www.w3.org/2000/svg">
<g id="Property 2=Mail-heart">
<path id="Combined Shape" opacity="0.3" fill-rule="evenodd" clip-rule="evenodd" d="M6 2C5.44772 2 5 2.44772 5 3V13C5 13.5523 5.44772 14 6 14H18C18.5523 14 19 13.5523 19 13V3C19 2.44772 18.5523 2 18 2H6ZM12 5.2C12.4033 4.72985 13.1562 4 13.8 4C14.9396 4 15.6 4.96871 15.6 6.1C15.6 7.9 12 10 12 10C12 10 8.4 7.9 8.4 6.02016C8.4 4.88887 9.0604 4 10.2 4C10.8438 4 11.5967 4.72985 12 5.2Z" fill="#111014"/>
</g>
</svg>
