<svg width="24" height="24" viewBox="0 0 24 24" fill="none" xmlns="http://www.w3.org/2000/svg">
<g id="Property 2=Text-width">
<path id="T" opacity="0.3" fill-rule="evenodd" clip-rule="evenodd" d="M13.5 4V14C13.5 14.5523 13.0523 15 12.5 15H11.5C10.9477 15 10.5 14.5523 10.5 14V4H7C6.44772 4 6 3.55228 6 3V2C6 1.44772 6.44772 1 7 1L17 1C17.5523 1 18 1.44772 18 2V3C18 3.55228 17.5523 4 17 4H13.5Z" fill="#111014"/>
<path id="Combined Shape" fill-rule="evenodd" clip-rule="evenodd" d="M7.70711 22.7071C8.09763 22.3166 8.09763 21.6834 7.70711 21.2929L6.41421 20H17.5858L16.2929 21.2929C15.9024 21.6834 15.9024 22.3166 16.2929 22.7071C16.6834 23.0976 17.3166 23.0976 17.7071 22.7071L20.7071 19.7071C21.0976 19.3166 21.0976 18.6834 20.7071 18.2929L17.7071 15.2929C17.3166 14.9024 16.6834 14.9024 16.2929 15.2929C15.9024 15.6834 15.9024 16.3166 16.2929 16.7071L17.5858 18H6.41421L7.70711 16.7071C8.09763 16.3166 8.09763 15.6834 7.70711 15.2929C7.31658 14.9024 6.68342 14.9024 6.29289 15.2929L3.29289 18.2929C2.90237 18.6834 2.90237 19.3166 3.29289 19.7071L6.29289 22.7071C6.68342 23.0976 7.31658 23.0976 7.70711 22.7071Z" fill="#111014"/>
</g>
</svg>
