<svg width="24" height="24" viewBox="0 0 24 24" fill="none" xmlns="http://www.w3.org/2000/svg">
<g id="Property 2=Night-rain">
<path id="Combined Shape" opacity="0.3" fill-rule="evenodd" clip-rule="evenodd" d="M23.9186 7.66914C23.6472 9.37428 22.4989 10.8922 20.7711 11.5554C18.1931 12.545 15.3009 11.2574 14.3113 8.67937C13.3217 6.10135 14.6094 3.20923 17.1874 2.21962C17.201 2.21439 17.2147 2.20921 17.2284 2.2041C17.0948 3.04308 17.1735 3.9274 17.4998 4.77755C18.4842 7.34192 21.351 8.62955 23.9186 7.66914ZM6.5 21.9995C7.32843 21.9995 8 21.3279 8 20.4995C8 19.6711 6.5 17.9995 6.5 17.9995C6.5 17.9995 5 19.6711 5 20.4995C5 21.3279 5.67157 21.9995 6.5 21.9995ZM11.5 21.9995C12.3284 21.9995 13 21.3279 13 20.4995C13 19.6711 11.5 17.9995 11.5 17.9995C11.5 17.9995 10 19.6711 10 20.4995C10 21.3279 10.6716 21.9995 11.5 21.9995ZM18 20.4995C18 21.3279 17.3284 21.9995 16.5 21.9995C15.6716 21.9995 15 21.3279 15 20.4995C15 19.6711 16.5 17.9995 16.5 17.9995C16.5 17.9995 18 19.6711 18 20.4995Z" fill="#111014"/>
<path id="Combined Shape_2" fill-rule="evenodd" clip-rule="evenodd" d="M14.811 9.5C14.1449 6.91216 11.7958 5 9 5C5.68629 5 3 7.68629 3 11C3 13.1148 4.0941 14.974 5.74715 16.0426C6.41093 16.6379 7.28818 17 8.25 17H9H17.25C19.3211 17 21 15.3211 21 13.25C21 11.1789 19.3211 9.5 17.25 9.5H14.811Z" fill="#111014"/>
</g>
</svg>
