<svg width="24" height="24" viewBox="0 0 24 24" fill="none" xmlns="http://www.w3.org/2000/svg">
<g id="Property 2=Deleted-folder">
<path id="Combined Shape" opacity="0.3" fill-rule="evenodd" clip-rule="evenodd" d="M2 19.5C2 20.3284 2.67157 21 3.5 21H20.5C21.3284 21 22 20.3284 22 19.5V8.5C22 7.67157 21.3284 7 20.5 7H10L7.43934 4.43934C7.15804 4.15804 6.7765 4 6.37868 4H3.5C2.67157 4 2 4.67157 2 5.5V19.5Z" fill="#111014"/>
<path id="Combined Shape_2" fill-rule="evenodd" clip-rule="evenodd" d="M9.1718 15.4144C8.78128 15.805 8.78128 16.4381 9.1718 16.8287C9.56232 17.2192 10.1955 17.2192 10.586 16.8287L12.0002 15.4144L13.4144 16.8287C13.805 17.2192 14.4381 17.2192 14.8287 16.8287C15.2192 16.4381 15.2192 15.805 14.8287 15.4144L13.4144 14.0002L14.8287 12.586C15.2192 12.1955 15.2192 11.5623 14.8287 11.1718C14.4381 10.7813 13.805 10.7813 13.4144 11.1718L12.0002 12.586L10.586 11.1718C10.1955 10.7813 9.56232 10.7813 9.1718 11.1718C8.78128 11.5623 8.78128 12.1955 9.1718 12.586L10.586 14.0002L9.1718 15.4144Z" fill="#111014"/>
</g>
</svg>
