<svg width="24" height="24" viewBox="0 0 24 24" fill="none" xmlns="http://www.w3.org/2000/svg">
<g id="Property 2=Ladder">
<path id="Combined Shape" opacity="0.3" fill-rule="evenodd" clip-rule="evenodd" d="M7 5C6.44772 5 6 5.44772 6 6C6 6.55228 6.44772 7 7 7H17C17.5523 7 18 6.55228 18 6C18 5.44772 17.5523 5 17 5H7ZM7 9C6.44772 9 6 9.44772 6 10C6 10.5523 6.44772 11 7 11H17C17.5523 11 18 10.5523 18 10C18 9.44772 17.5523 9 17 9H7ZM6 14C6 13.4477 6.44772 13 7 13H17C17.5523 13 18 13.4477 18 14C18 14.5523 17.5523 15 17 15H7C6.44772 15 6 14.5523 6 14ZM7 17C6.44772 17 6 17.4477 6 18C6 18.5523 6.44772 19 7 19H17C17.5523 19 18 18.5523 18 18C18 17.4477 17.5523 17 17 17H7Z" fill="#111014"/>
<path id="Combined Shape_2" fill-rule="evenodd" clip-rule="evenodd" d="M5.5 2C4.67157 2 4 2.67157 4 3.5V20.5C4 21.3284 4.67157 22 5.5 22C6.32843 22 7 21.3284 7 20.5V3.5C7 2.67157 6.32843 2 5.5 2ZM18.5 2C17.6716 2 17 2.67157 17 3.5V20.5C17 21.3284 17.6716 22 18.5 22C19.3284 22 20 21.3284 20 20.5V3.5C20 2.67157 19.3284 2 18.5 2Z" fill="#111014"/>
</g>
</svg>
