<svg width="24" height="24" viewBox="0 0 24 24" fill="none" xmlns="http://www.w3.org/2000/svg">
<g id="Property 2=Tools">
<path id="Combined Shape" fill-rule="evenodd" clip-rule="evenodd" d="M15.9504 3.80795L13.0252 6.73309C12.2442 7.51414 12.2442 8.78047 13.0252 9.56151L14.4394 10.9757C15.2205 11.7568 16.4868 11.7568 17.2679 10.9757L20.193 8.05059C20.7347 10.0451 20.2302 12.256 18.6752 13.8111C16.8459 15.6403 14.1092 16.0159 11.8846 14.9448L6.75796 20.0714C5.97692 20.8525 4.71059 20.8525 3.92954 20.0714C3.14849 19.2904 3.14849 18.024 3.92954 17.243L9.05617 12.1163C7.98507 9.89178 8.36066 7.15501 10.1899 5.32578C11.7449 3.77075 13.9558 3.26623 15.9504 3.80795Z" fill="#111014"/>
<path id="Rectangle 2" opacity="0.3" fill-rule="evenodd" clip-rule="evenodd" d="M16.6571 5.92864L18.0713 7.34285C18.4618 7.73337 18.4618 8.36654 18.0713 8.75706L16.6916 10.1367C16.3011 10.5273 15.6679 10.5273 15.2774 10.1367L13.8632 8.72252C13.4727 8.332 13.4727 7.69883 13.8632 7.30831L15.2429 5.92864C15.6334 5.53811 16.2666 5.53811 16.6571 5.92864Z" fill="#111014"/>
</g>
</svg>
