<svg width="24" height="24" viewBox="0 0 24 24" fill="none" xmlns="http://www.w3.org/2000/svg">
<g id="Property 2=Sort#3">
<path id="Combined Shape" fill-rule="evenodd" clip-rule="evenodd" d="M17 7.5C17 6.67157 17.6716 6 18.5 6C19.3284 6 20 6.67157 20 7.5V18.5C20 19.3284 19.3284 20 18.5 20C17.6716 20 17 19.3284 17 18.5V7.5ZM11 12.5C11 11.6716 11.6716 11 12.5 11C13.3284 11 14 11.6716 14 12.5V18.5C14 19.3284 13.3284 20 12.5 20C11.6716 20 11 19.3284 11 18.5V12.5ZM6.5 15C5.67157 15 5 15.6716 5 16.5V18.5C5 19.3284 5.67157 20 6.5 20C7.32843 20 8 19.3284 8 18.5V16.5C8 15.6716 7.32843 15 6.5 15Z" fill="#111014"/>
</g>
</svg>
