<svg width="24" height="24" viewBox="0 0 24 24" fill="none" xmlns="http://www.w3.org/2000/svg">
<g id="Property 2=Folder-cloud">
<path id="Combined Shape" opacity="0.3" fill-rule="evenodd" clip-rule="evenodd" d="M2 19.5C2 20.3284 2.67157 21 3.5 21H20.5C21.3284 21 22 20.3284 22 19.5V8.5C22 7.67157 21.3284 7 20.5 7H10L7.43934 4.43934C7.15804 4.15804 6.7765 4 6.37868 4H3.5C2.67157 4 2 4.67157 2 5.5V19.5Z" fill="#111014"/>
<path id="Combined Shape_2" fill-rule="evenodd" clip-rule="evenodd" d="M13.9646 13C13.7219 11.3039 12.2632 10 10.5 10C8.567 10 7 11.567 7 13.5C7 14.7481 7.65329 15.8436 8.63657 16.4632C8.9938 16.7963 9.47311 17 10 17H10.5H15C16.1046 17 17 16.1046 17 15C17 13.8954 16.1046 13 15 13H13.9646Z" fill="#111014"/>
</g>
</svg>
