<svg width="24" height="24" viewBox="0 0 24 24" fill="none" xmlns="http://www.w3.org/2000/svg">
<g id="Property 2=Sneakers">
<rect id="Rectangle 148" opacity="0.3" x="2" y="3" width="7" height="14" rx="1" fill="#111014"/>
<path id="Combined Shape" fill-rule="evenodd" clip-rule="evenodd" d="M1.5435 12.0138C1.23671 12.0509 1 12.3071 1 12.6162V18.2762C1 18.6019 1.25404 18.8668 1.57961 18.874C3.95442 18.9259 13.0023 19.1017 16.9722 18.8607C19.31 18.7188 21.0892 18.3694 22.2726 18.0606C23.27 17.8003 23.7571 16.7437 23.2078 15.8714C22.7082 15.0778 21.9723 14.2432 21 14.0001C20.7505 13.9377 20.4508 13.9002 20.0922 13.8553C19.2761 13.753 18.1546 13.6125 16.6236 13.0539L15.799 14.4821C15.5229 14.9604 14.9113 15.1243 14.433 14.8482C13.9547 14.572 13.7908 13.9604 14.067 13.4821L14.7755 12.255C14.6577 12.1966 14.5381 12.1359 14.4167 12.0728C14.0614 11.8883 13.6155 11.5538 13.1438 11.1529L11.799 13.4821C11.5229 13.9604 10.9113 14.1243 10.433 13.8482C9.95472 13.572 9.79084 12.9604 10.067 12.4821L11.567 9.88406C11.5911 9.84238 11.6177 9.80309 11.6465 9.76626C11.2091 9.3348 10.8109 8.9232 10.5098 8.60605C10.2282 8.30945 9.71233 8.3525 9.4344 8.65252C8.5232 9.63617 6.25265 11.4446 1.5435 12.0138Z" fill="#111014"/>
</g>
</svg>
