<svg width="24" height="24" viewBox="0 0 24 24" fill="none" xmlns="http://www.w3.org/2000/svg">
<g id="Property 2=Shield-disabled">
<path id="Path 50" opacity="0.3" fill-rule="evenodd" clip-rule="evenodd" d="M4 3.99982L11.6314 2.56892C11.875 2.52325 12.125 2.52325 12.3686 2.56892L20 3.99982V11.9031C20 15.6958 18.0462 19.221 14.83 21.2311L12.53 22.6686C12.2057 22.8712 11.7943 22.8712 11.47 22.6686L9.17001 21.2311C5.95382 19.221 4 15.6958 4 11.9031L4 3.99982Z" fill="#111014"/>
<path id="Combined Shape" fill-rule="evenodd" clip-rule="evenodd" d="M10.586 12.0002L9.1718 10.586C8.78128 10.1955 8.78128 9.56232 9.1718 9.1718C9.56232 8.78128 10.1955 8.78128 10.586 9.1718L12.0002 10.586L13.4144 9.1718C13.805 8.78128 14.4381 8.78128 14.8287 9.1718C15.2192 9.56232 15.2192 10.1955 14.8287 10.586L13.4144 12.0002L14.8287 13.4144C15.2192 13.805 15.2192 14.4381 14.8287 14.8287C14.4381 15.2192 13.805 15.2192 13.4144 14.8287L12.0002 13.4144L10.586 14.8287C10.1955 15.2192 9.56232 15.2192 9.1718 14.8287C8.78128 14.4381 8.78128 13.805 9.1718 13.4144L10.586 12.0002Z" fill="#111014"/>
</g>
</svg>
