<svg width="24" height="24" viewBox="0 0 24 24" fill="none" xmlns="http://www.w3.org/2000/svg">
<g id="Property 2=Stamp">
<path id="Combined Shape" fill-rule="evenodd" clip-rule="evenodd" d="M12.9863 8.8341C14.1586 8.42615 15 7.31133 15 6C15 4.34315 13.6569 3 12 3C10.3431 3 9 4.34315 9 6C9 7.31133 9.84136 8.42615 11.0137 8.8341C11.0047 8.88806 11 8.94348 11 9V11H7C5.89543 11 5 11.8954 5 13V16H19V13C19 11.8954 18.1046 11 17 11H13V9C13 8.94348 12.9953 8.88806 12.9863 8.8341Z" fill="#111014"/>
<rect id="Rectangle 2" opacity="0.3" x="5" y="18" width="14" height="2" rx="1" fill="#111014"/>
</g>
</svg>
