<svg width="24" height="24" viewBox="0 0 24 24" fill="none" xmlns="http://www.w3.org/2000/svg">
<g id="Property 2=Bath">
<path id="Path 60" opacity="0.3" d="M6 10C6 10.5523 5.55228 11 5 11C4.44772 11 4 10.5523 4 10V6C4 4.34315 5.34315 3 7 3C8.65685 3 10 4.34315 10 6C10 6.55228 9.55228 7 9 7C8.44772 7 8 6.55228 8 6C8 5.44772 7.55228 5 7 5C6.44772 5 6 5.44772 6 6V10Z" fill="#111014"/>
<path id="Path 61" opacity="0.3" d="M6 20H4C4 17.2386 6.23858 16 9 16H15C17.7614 16 20 17.2386 20 20H18C18 18.3431 16.6569 18 15 18H9C7.34315 18 6 18.3431 6 20Z" fill="#111014"/>
<path id="Combined Shape" fill-rule="evenodd" clip-rule="evenodd" d="M23 9H2V13C2 15.7614 4.23858 18 7 18H18C20.7614 18 23 15.7614 23 13V9ZM20 10.75C19.5858 10.75 19.25 11.0858 19.25 11.5C19.25 12.9306 18.6945 14.0416 17.55 14.9C17.2186 15.1485 17.1515 15.6186 17.4 15.95C17.6485 16.2814 18.1186 16.3485 18.45 16.1C19.9722 14.9584 20.75 13.4027 20.75 11.5C20.75 11.0858 20.4142 10.75 20 10.75Z" fill="#111014"/>
</g>
</svg>
