<svg width="24" height="24" viewBox="0 0 24 24" fill="none" xmlns="http://www.w3.org/2000/svg">
<g id="Property 2=Mirror">
<path id="Combined Shape" fill-rule="evenodd" clip-rule="evenodd" d="M3.94615 8.10545C3.39801 8.17301 3.00842 8.67212 3.07597 9.22026C3.58728 13.3691 6.89887 16.5924 11.0004 17.0481V17.9999H10.0004C8.89585 17.9999 8.00042 18.8953 8.00042 19.9999H12.0004H16.0004C16.0004 18.8953 15.105 17.9999 14.0004 17.9999H13.0004V17.0483C17.1476 16.5885 20.4828 13.2999 20.9411 9.09425C21.001 8.54522 20.6044 8.05164 20.0554 7.99181C19.5063 7.93198 19.0127 8.32856 18.9529 8.8776C18.5686 12.4042 15.5781 15.1034 12.0012 15.1034C8.46091 15.1034 5.49009 12.4577 5.06095 8.97563C4.9934 8.42749 4.49428 8.0379 3.94615 8.10545Z" fill="#111014"/>
<path id="Combined Shape_2" opacity="0.3" fill-rule="evenodd" clip-rule="evenodd" d="M18 8C18 11.3137 15.3137 14 12 14C8.68629 14 6 11.3137 6 8C6 4.68629 8.68629 2 12 2C15.3137 2 18 4.68629 18 8ZM8.11553 7.1919C8.47708 7.16662 8.79068 7.43922 8.81596 7.80077C8.90328 9.0495 9.45599 9.98538 10.5074 10.6648C10.8118 10.8615 10.8991 11.2677 10.7024 11.5721C10.5057 11.8765 10.0994 11.9638 9.79502 11.7671C8.39667 10.8635 7.62279 9.55317 7.50665 7.89233C7.48137 7.53077 7.75397 7.21718 8.11553 7.1919Z" fill="#111014"/>
</g>
</svg>
