<svg width="24" height="24" viewBox="0 0 24 24" fill="none" xmlns="http://www.w3.org/2000/svg">
<g id="Property 2=Code">
<path id="Combined Shape" fill-rule="evenodd" clip-rule="evenodd" d="M8.68536 7.2718C9.08754 7.65032 9.10672 8.28319 8.7282 8.68537L5.37325 12.25L8.7282 15.8146C9.10672 16.2168 9.08754 16.8497 8.68536 17.2282C8.28319 17.6067 7.65032 17.5875 7.2718 17.1854L3.2718 12.9354C2.9094 12.5503 2.9094 11.9497 3.2718 11.5646L7.2718 7.31464C7.65032 6.91246 8.28319 6.89329 8.68536 7.2718ZM15.3146 7.27181C14.9125 7.65032 14.8933 8.2832 15.2718 8.68537L18.6268 12.25L15.2718 15.8146C14.8933 16.2168 14.9125 16.8497 15.3146 17.2282C15.7168 17.6067 16.3497 17.5875 16.7282 17.1854L20.7282 12.9354C21.0906 12.5503 21.0906 11.9497 20.7282 11.5646L16.7282 7.31464C16.3497 6.91247 15.7168 6.89329 15.3146 7.27181Z" fill="#111014"/>
</g>
</svg>
