<svg width="24" height="24" viewBox="0 0 24 24" fill="none" xmlns="http://www.w3.org/2000/svg">
<g id="Property 2=Align-left">
<rect id="Rectangle 20" opacity="0.3" x="4" y="5" width="16" height="2" rx="1" fill="#111014"/>
<rect id="Rectangle 20 Copy 3" opacity="0.3" x="4" y="13" width="16" height="2" rx="1" fill="#111014"/>
<path id="Combined Shape" fill-rule="evenodd" clip-rule="evenodd" d="M5 9C4.44772 9 4 9.44772 4 10C4 10.5523 4.44772 11 5 11H13C13.5523 11 14 10.5523 14 10C14 9.44772 13.5523 9 13 9H5ZM5 17C4.44772 17 4 17.4477 4 18C4 18.5523 4.44772 19 5 19H13C13.5523 19 14 18.5523 14 18C14 17.4477 13.5523 17 13 17H5Z" fill="#111014"/>
</g>
</svg>
