<svg width="24" height="24" viewBox="0 0 24 24" fill="none" xmlns="http://www.w3.org/2000/svg">
<g id="Property 2=Midi">
<rect id="Combined Shape" opacity="0.3" x="3" y="6" width="19" height="13" rx="1" fill="#111014"/>
<rect id="Rectangle" opacity="0.3" x="7" y="13" width="1" height="6" fill="#111014"/>
<rect id="Rectangle Copy" opacity="0.3" x="12" y="13" width="1" height="6" fill="#111014"/>
<rect id="Rectangle Copy 2" opacity="0.3" x="17" y="13" width="1" height="6" fill="#111014"/>
<path id="Rectangle 54" d="M6 6H9V12C9 12.5523 8.55228 13 8 13H7C6.44772 13 6 12.5523 6 12V6Z" fill="#111014"/>
<path id="Rectangle 54 Copy" d="M11 6H14V12C14 12.5523 13.5523 13 13 13H12C11.4477 13 11 12.5523 11 12V6Z" fill="#111014"/>
<path id="Rectangle 54 Copy 2" d="M16 6H19V12C19 12.5523 18.5523 13 18 13H17C16.4477 13 16 12.5523 16 12V6Z" fill="#111014"/>
</g>
</svg>
