<svg width="24" height="24" viewBox="0 0 24 24" fill="none" xmlns="http://www.w3.org/2000/svg">
<g id="Property 2=Temperature-empty">
<path id="Combined Shape" fill-rule="evenodd" clip-rule="evenodd" d="M12 22C15.3137 22 18 19.3137 18 16C18 13.7792 16.7934 11.8401 15 10.8027V5C15 3.34315 13.6569 2 12 2C10.3431 2 9 3.34315 9 5V10.8027C7.2066 11.8401 6 13.7792 6 16C6 19.3137 8.68629 22 12 22ZM13 11.9563L13.9985 12.5339C15.2284 13.2453 16 14.5544 16 16C16 18.2091 14.2091 20 12 20C9.79086 20 8 18.2091 8 16C8 14.5544 8.77164 13.2453 10.0015 12.5339L11 11.9563V5C11 4.71476 11.4841 3.99061 12 4C12.483 4.0088 13 4.73295 13 5V11.9563Z" fill="#111014"/>
</g>
</svg>
