<svg width="24" height="24" viewBox="0 0 24 24" fill="none" xmlns="http://www.w3.org/2000/svg">
<g id="Property 2=Gamepad#1">
<path id="Path 21" opacity="0.3" d="M12.9481 9.31623L11.0508 8.68377C11.8155 6.38965 13.0421 4.95855 14.7569 4.52986C15.6498 4.30665 16.9995 2.86951 16.9995 2H18.9995C18.9995 3.79716 17.0158 6.02668 15.242 6.47014C14.2901 6.70811 13.5168 7.61035 12.9481 9.31623Z" fill="#111014"/>
<path id="Combined Shape" fill-rule="evenodd" clip-rule="evenodd" d="M13.2572 17H10.7428C9.73405 18.2215 8.20794 19 6.5 19C3.46243 19 1 16.5376 1 13.5C1 10.4624 3.46243 8 6.5 8C6.68789 8 6.87358 8.00942 7.05662 8.02782C7.20183 8.00946 7.34981 8 7.5 8H16.5C16.6502 8 16.7982 8.00946 16.9434 8.02782C17.1264 8.00942 17.3121 8 17.5 8C20.5376 8 23 10.4624 23 13.5C23 16.5376 20.5376 19 17.5 19C15.7921 19 14.266 18.2215 13.2572 17ZM5 10.5C5 10.2239 5.22386 10 5.5 10H6.5C6.77614 10 7 10.2239 7 10.5V11.5C7 11.7761 6.77614 12 6.5 12H5.5C5.22386 12 5 11.7761 5 11.5V10.5ZM7.5 12C7.22386 12 7 12.2239 7 12.5V13.5C7 13.7761 7.22386 14 7.5 14H8.5C8.77614 14 9 13.7761 9 13.5V12.5C9 12.2239 8.77614 12 8.5 12H7.5ZM19 12C19.5523 12 20 11.5523 20 11C20 10.4477 19.5523 10 19 10C18.4477 10 18 10.4477 18 11C18 11.5523 18.4477 12 19 12ZM19 14C19 14.5523 18.5523 15 18 15C17.4477 15 17 14.5523 17 14C17 13.4477 17.4477 13 18 13C18.5523 13 19 13.4477 19 14ZM5 14.5C5 14.2239 5.22386 14 5.5 14H6.5C6.77614 14 7 14.2239 7 14.5V15.5C7 15.7761 6.77614 16 6.5 16H5.5C5.22386 16 5 15.7761 5 15.5V14.5ZM3.5 12C3.22386 12 3 12.2239 3 12.5V13.5C3 13.7761 3.22386 14 3.5 14H4.5C4.77614 14 5 13.7761 5 13.5V12.5C5 12.2239 4.77614 12 4.5 12H3.5Z" fill="#111014"/>
</g>
</svg>
