<svg width="24" height="24" viewBox="0 0 24 24" fill="none" xmlns="http://www.w3.org/2000/svg">
<g id="Property 2=Sieve">
<path id="Rectangle" opacity="0.3" d="M8 18H15.2254V20C15.2254 20.5523 14.7777 21 14.2254 21H9C8.44772 21 8 20.5523 8 20V18Z" fill="#111014"/>
<path id="Combined Shape" fill-rule="evenodd" clip-rule="evenodd" d="M21 10V9H22C22.5523 9 23 8.55228 23 8C23 7.44772 22.5523 7 22 7H2C1.44772 7 1 7.44772 1 8C1 8.55228 1.44772 9 2 9H3V10C3 14.9706 7.02944 19 12 19C16.9706 19 21 14.9706 21 10ZM7 10C7 10.5523 6.55228 11 6 11C5.44772 11 5 10.5523 5 10C5 9.44772 5.44772 9 6 9C6.55228 9 7 9.44772 7 10ZM8 14C8.55228 14 9 13.5523 9 13C9 12.4477 8.55228 12 8 12C7.44772 12 7 12.4477 7 13C7 13.5523 7.44772 14 8 14ZM11 16C11 16.5523 10.5523 17 10 17C9.44771 17 9 16.5523 9 16C9 15.4477 9.44771 15 10 15C10.5523 15 11 15.4477 11 16ZM14 17C14.5523 17 15 16.5523 15 16C15 15.4477 14.5523 15 14 15C13.4477 15 13 15.4477 13 16C13 16.5523 13.4477 17 14 17ZM13 13C13 13.5523 12.5523 14 12 14C11.4477 14 11 13.5523 11 13C11 12.4477 11.4477 12 12 12C12.5523 12 13 12.4477 13 13ZM16 14C16.5523 14 17 13.5523 17 13C17 12.4477 16.5523 12 16 12C15.4477 12 15 12.4477 15 13C15 13.5523 15.4477 14 16 14ZM11 10C11 10.5523 10.5523 11 10 11C9.44771 11 9 10.5523 9 10C9 9.44772 9.44771 9 10 9C10.5523 9 11 9.44772 11 10ZM14 11C14.5523 11 15 10.5523 15 10C15 9.44772 14.5523 9 14 9C13.4477 9 13 9.44772 13 10C13 10.5523 13.4477 11 14 11ZM19 10C19 10.5523 18.5523 11 18 11C17.4477 11 17 10.5523 17 10C17 9.44772 17.4477 9 18 9C18.5523 9 19 9.44772 19 10Z" fill="#111014"/>
</g>
</svg>
