<svg width="24" height="24" viewBox="0 0 24 24" fill="none" xmlns="http://www.w3.org/2000/svg">
<g id="Property 2=Anchor-center-up">
<path id="Oval Copy" opacity="0.3" fill-rule="evenodd" clip-rule="evenodd" d="M12 8C13.6569 8 15 6.65685 15 5C15 3.34315 13.6569 2 12 2C10.3431 2 9 3.34315 9 5C9 6.65685 10.3431 8 12 8Z" fill="#111014"/>
<g id="ic_type copy 6">
<path id="T" fill-rule="evenodd" clip-rule="evenodd" d="M13 11V18C13 18.5523 12.5523 19 12 19C11.4477 19 11 18.5523 11 18V11H9C8.44772 11 8 10.5523 8 10C8 9.44772 8.44772 9 9 9L15 9C15.5523 9 16 9.44772 16 10C16 10.5523 15.5523 11 15 11H13Z" fill="#111014"/>
</g>
</g>
</svg>
