<svg width="24" height="24" viewBox="0 0 24 24" fill="none" xmlns="http://www.w3.org/2000/svg">
<g id="Property 2=Angle-double-right">
<path id="Path 94" d="M12.2929 6.70711C11.9024 6.31658 11.9024 5.68342 12.2929 5.29289C12.6834 4.90237 13.3166 4.90237 13.7071 5.29289L19.7071 11.2929C20.0857 11.6715 20.0989 12.2811 19.7372 12.6757L14.2372 18.6757C13.864 19.0828 13.2314 19.1103 12.8243 18.7372C12.4172 18.364 12.3897 17.7314 12.7628 17.3243L17.6159 12.0301L12.2929 6.70711Z" fill="#111014"/>
<path id="Path 94_2" opacity="0.3" d="M5.29289 6.70711C4.90237 6.31658 4.90237 5.68342 5.29289 5.29289C5.68342 4.90237 6.31658 4.90237 6.70711 5.29289L12.7071 11.2929C13.0857 11.6715 13.0989 12.2811 12.7372 12.6757L7.23715 18.6757C6.86396 19.0828 6.23139 19.1103 5.82427 18.7372C5.41716 18.364 5.38965 17.7314 5.76284 17.3243L10.6159 12.0301L5.29289 6.70711Z" fill="#111014"/>
</g>
</svg>
