<svg width="24" height="24" viewBox="0 0 24 24" fill="none" xmlns="http://www.w3.org/2000/svg">
<g id="Property 2=Mask">
<path id="Combined Shape" opacity="0.3" fill-rule="evenodd" clip-rule="evenodd" d="M20.0008 12C20.0008 16.4183 16.4191 20 12.0008 20C10.4075 20 8.92293 19.5342 7.67593 18.7314C9.68115 17.3852 11.0008 15.0967 11.0008 12.5C11.0008 9.58868 9.34199 7.06479 6.91797 5.82193C8.29998 4.68361 10.0706 4 12.0008 4C16.4191 4 20.0008 7.58172 20.0008 12Z" fill="#111014"/>
<path id="Combined Shape_2" fill-rule="evenodd" clip-rule="evenodd" d="M6.39268 17.706C7.97562 16.5204 9 14.6298 9 12.5C9 10.1251 7.72637 8.04772 5.8249 6.91357C4.6848 8.29611 4 10.0681 4 12C4 14.2342 4.91588 16.2545 6.39268 17.706Z" fill="#111014"/>
</g>
</svg>
