<svg width="24" height="24" viewBox="0 0 24 24" fill="none" xmlns="http://www.w3.org/2000/svg">
<g id="Property 2=Anchor-center-down">
<path id="Oval Copy" opacity="0.3" fill-rule="evenodd" clip-rule="evenodd" d="M12 22C13.6569 22 15 20.6569 15 19C15 17.3431 13.6569 16 12 16C10.3431 16 9 17.3431 9 19C9 20.6569 10.3431 22 12 22Z" fill="#111014"/>
<g id="ic_type copy 6">
<path id="T" fill-rule="evenodd" clip-rule="evenodd" d="M13 7V14C13 14.5523 12.5523 15 12 15C11.4477 15 11 14.5523 11 14V7H9C8.44772 7 8 6.55228 8 6C8 5.44772 8.44772 5 9 5L15 5C15.5523 5 16 5.44772 16 6C16 6.55228 15.5523 7 15 7H13Z" fill="#111014"/>
</g>
</g>
</svg>
