<svg width="24" height="24" viewBox="0 0 24 24" fill="none" xmlns="http://www.w3.org/2000/svg">
<g id="Property 2=Towel">
<path id="Combined Shape" fill-rule="evenodd" clip-rule="evenodd" d="M18 16H9C8.44772 16 8 15.5523 8 15C8 14.4477 8.44772 14 9 14H17C17.5523 14 18 13.5523 18 13C18 12.4477 17.5523 12 17 12H9C7.34315 12 6 13.3431 6 15C6 16.6569 7.34315 18 9 18H19.5C21 18 21 18.5 21 19C21 19.5 21 20 19.5 20H7C4.79086 20 3 18.2091 3 16V8C3 5.79086 4.79086 4 7 4H17C19.2091 4 21 5.79086 21 8V13C21 14.6569 19.6569 16 18 16Z" fill="#111014"/>
</g>
</svg>
