<svg width="24" height="24" viewBox="0 0 24 24" fill="none" xmlns="http://www.w3.org/2000/svg">
<g id="Property 2=Route">
<path id="Path 110" opacity="0.3" d="M8 7C7.44772 7 7 6.55228 7 6C7 5.44772 7.44772 5 8 5L16 5C18.2091 5 20 6.79086 20 9C20 11.2091 18.2091 13 16 13H8C6.89543 13 6 13.8954 6 15C6 16.1046 6.89543 17 8 17H17C17.5523 17 18 17.4477 18 18C18 18.5523 17.5523 19 17 19H8C5.79086 19 4 17.2091 4 15C4 12.7909 5.79086 11 8 11H16C17.1046 11 18 10.1046 18 9C18 7.89543 17.1046 7 16 7H8Z" fill="#111014"/>
<path id="Path 104" d="M9.70711 8.29289C10.0976 8.68342 10.0976 9.31658 9.70711 9.70711C9.31658 10.0976 8.68342 10.0976 8.29289 9.70711L5.29289 6.70711C4.90237 6.31658 4.90237 5.68342 5.29289 5.29289L8.29289 2.29289C8.68342 1.90237 9.31658 1.90237 9.70711 2.29289C10.0976 2.68342 10.0976 3.31658 9.70711 3.70711L7.41421 6L9.70711 8.29289Z" fill="#111014"/>
<path id="Path 104 Copy" d="M14.2929 20.2929C13.9024 20.6834 13.9024 21.3166 14.2929 21.7071C14.6834 22.0976 15.3166 22.0976 15.7071 21.7071L18.7071 18.7071C19.0976 18.3166 19.0976 17.6834 18.7071 17.2929L15.7071 14.2929C15.3166 13.9024 14.6834 13.9024 14.2929 14.2929C13.9024 14.6834 13.9024 15.3166 14.2929 15.7071L16.5858 18L14.2929 20.2929Z" fill="#111014"/>
</g>
</svg>
