<svg width="24" height="24" viewBox="0 0 24 24" fill="none" xmlns="http://www.w3.org/2000/svg">
<g id="Property 2=Anchor-left-down">
<path id="Oval Copy" opacity="0.3" fill-rule="evenodd" clip-rule="evenodd" d="M5 22C6.65685 22 8 20.6569 8 19C8 17.3431 6.65685 16 5 16C3.34315 16 2 17.3431 2 19C2 20.6569 3.34315 22 5 22Z" fill="#111014"/>
<g id="ic_type copy 6">
<path id="T" fill-rule="evenodd" clip-rule="evenodd" d="M15 7V14C15 14.5523 14.5523 15 14 15C13.4477 15 13 14.5523 13 14V7H11C10.4477 7 10 6.55228 10 6C10 5.44772 10.4477 5 11 5L17 5C17.5523 5 18 5.44772 18 6C18 6.55228 17.5523 7 17 7H15Z" fill="#111014"/>
</g>
</g>
</svg>
