<svg width="24" height="24" viewBox="0 0 24 24" fill="none" xmlns="http://www.w3.org/2000/svg">
<g id="Property 2=Armchair">
<path id="Path" opacity="0.3" fill-rule="evenodd" clip-rule="evenodd" d="M20 8H18.1739C17.0693 8 16.1739 8.89543 16.1739 10V12C16.1739 12.5523 15.7262 13 15.1739 13H8.86957C8.31728 13 7.86957 12.5523 7.86957 12V10C7.86957 8.89543 6.97413 8 5.86957 8H4V6C4 4.34315 5.34315 3 7 3H17C18.6569 3 20 4.34315 20 6V8Z" fill="#111014"/>
<path id="Combined Shape" opacity="0.3" fill-rule="evenodd" clip-rule="evenodd" d="M17.8316 21.0302C18.1077 21.5085 17.9439 22.1201 17.4656 22.3962C16.9873 22.6724 16.3757 22.5085 16.0995 22.0302L14.0995 18.5661C13.8234 18.0878 13.9873 17.4762 14.4656 17.2001C14.9439 16.9239 15.5554 17.0878 15.8316 17.5661L17.8316 21.0302ZM6.15953 21.0605C5.88339 21.5388 6.04726 22.1504 6.52556 22.4266C7.00385 22.7027 7.61544 22.5388 7.89158 22.0605L9.89158 18.5964C10.1677 18.1181 10.0039 17.5066 9.52556 17.2304C9.04727 16.9543 8.43567 17.1181 8.15953 17.5964L6.15953 21.0605Z" fill="#111014"/>
<path id="Combined Shape_2" fill-rule="evenodd" clip-rule="evenodd" d="M20 10V15C20 16.6569 18.6569 18 17 18H7C5.34315 18 4 16.6569 4 15V10H5.86957V12C5.86957 13.6569 7.21271 15 8.86957 15H15.1739C16.8308 15 18.1739 13.6569 18.1739 12V10H20Z" fill="#111014"/>
</g>
</svg>
