<svg width="24" height="24" viewBox="0 0 24 24" fill="none" xmlns="http://www.w3.org/2000/svg">
<g id="Property 2=Group-chat">
<path id="Combined Shape" fill-rule="evenodd" clip-rule="evenodd" d="M22.1673 18.1421C22.4829 18.4577 23.0225 18.2331 23.0209 17.7868L23.0042 13.1053V5.52632C23.0042 4.13107 21.8731 3 20.4779 3H8.68843C7.29318 3 6.16211 4.13107 6.16211 5.52632V9H13.0003C14.6571 9 16.0003 10.3431 16.0003 12V15.6316H19.6568L22.1673 18.1421Z" fill="#111014"/>
<path id="Combined Shape_2" opacity="0.3" fill-rule="evenodd" clip-rule="evenodd" d="M1.98438 18V13C1.98438 11.8954 2.87981 11 3.98438 11H11.9844C13.0889 11 13.9844 11.8954 13.9844 13V18C13.9844 19.1046 13.0889 20 11.9844 20H4.10011L2.85625 21.1905C2.53825 21.4949 2.01053 21.2695 2.01053 20.8293V18.3243C1.99332 18.2187 1.98438 18.1104 1.98438 18ZM5.99932 14.5C5.99932 14.2239 6.22318 14 6.49932 14H11.4993C11.7755 14 11.9993 14.2239 11.9993 14.5C11.9993 14.7761 11.7755 15 11.4993 15H6.49932C6.22318 15 5.99932 14.7761 5.99932 14.5ZM9.49932 16C9.22318 16 8.99932 16.2239 8.99932 16.5C8.99932 16.7761 9.22318 17 9.49932 17H11.4993C11.7755 17 11.9993 16.7761 11.9993 16.5C11.9993 16.2239 11.7755 16 11.4993 16H9.49932Z" fill="#111014"/>
</g>
</svg>
