<svg width="24" height="24" viewBox="0 0 24 24" fill="none" xmlns="http://www.w3.org/2000/svg">
<g id="Property 2=Dinner">
<path id="Combined Shape" opacity="0.3" fill-rule="evenodd" clip-rule="evenodd" d="M12.5 19C16.0899 19 19 16.0899 19 12.5C19 8.91015 16.0899 6 12.5 6C8.91015 6 6 8.91015 6 12.5C6 16.0899 8.91015 19 12.5 19ZM12.5 16.4C10.3461 16.4 8.6 14.6539 8.6 12.5C8.6 10.3461 10.3461 8.6 12.5 8.6C14.6539 8.6 16.4 10.3461 16.4 12.5C16.4 14.6539 14.6539 16.4 12.5 16.4ZM15.1 12.5C15.1 13.9359 13.9359 15.1 12.5 15.1C11.0641 15.1 9.9 13.9359 9.9 12.5C9.9 11.0641 11.0641 9.9 12.5 9.9C13.9359 9.9 15.1 11.0641 15.1 12.5Z" fill="#111014"/>
<rect id="Rectangle Copy" opacity="0.3" x="21.0977" y="13.5" width="2.00949" height="5.5" rx="1.00474" fill="#111014"/>
<path id="Path 65" fill-rule="evenodd" clip-rule="evenodd" d="M21 5V12H24V8C24 6.34315 22.6569 5 21 5Z" fill="#111014"/>
<path id="Combined Shape_2" fill-rule="evenodd" clip-rule="evenodd" d="M0.714286 5H0V8.39474C0 9.77545 1.11929 10.8947 2.5 10.8947C3.88071 10.8947 5 9.77545 5 8.39473V5H4.28571L3.96303 8.32873C3.94348 8.53038 3.77401 8.68421 3.57143 8.68421C3.36884 8.68421 3.19937 8.53037 3.17983 8.32873L2.85714 5H2.14286L1.82017 8.32873C1.80063 8.53038 1.63116 8.68421 1.42857 8.68421C1.22599 8.68421 1.05652 8.53037 1.03697 8.32873L0.714286 5Z" fill="#111014"/>
<rect id="Rectangle" opacity="0.3" x="1.48633" y="12.3682" width="2.02714" height="6.63158" rx="1.01357" fill="#111014"/>
</g>
</svg>
