<svg width="24" height="24" viewBox="0 0 24 24" fill="none" xmlns="http://www.w3.org/2000/svg">
<g id="Property 2=Angle Grinder">
<path id="Combined Shape" opacity="0.3" fill-rule="evenodd" clip-rule="evenodd" d="M18.7786 4.72224C20.9265 6.87012 20.9265 10.3525 18.7786 12.5004C16.6307 14.6483 13.1483 14.6483 11.0004 12.5004C8.85253 10.3525 8.85253 6.87012 11.0004 4.72224C13.1483 2.57436 16.6307 2.57436 18.7786 4.72224ZM13.4753 10.0255C14.2563 10.8066 15.5227 10.8066 16.3037 10.0255C17.0848 9.24449 17.0848 7.97816 16.3037 7.19711C15.5227 6.41607 14.2563 6.41607 13.4753 7.19711C12.6942 7.97816 12.6942 9.24449 13.4753 10.0255ZM15.5966 9.31843C15.9871 8.92791 15.9871 8.29475 15.5966 7.90422C15.2061 7.5137 14.5729 7.5137 14.1824 7.90422C13.7919 8.29475 13.7919 8.92791 14.1824 9.31843C14.5729 9.70896 15.2061 9.70896 15.5966 9.31843Z" fill="#111014"/>
<rect id="Combined Shape_2" opacity="0.3" x="1.45312" y="18.5107" width="16" height="6" rx="3" transform="rotate(-45 1.45312 18.5107)" fill="#111014"/>
<path id="Combined Shape_3" fill-rule="evenodd" clip-rule="evenodd" d="M10.0455 3.06002C7.71269 6.37552 7.72723 10.6413 10.2929 13.207C12.8586 15.7727 17.1244 15.7872 20.4399 13.4544L10.0455 3.06002Z" fill="#111014"/>
</g>
</svg>
