<svg width="24" height="24" viewBox="0 0 24 24" fill="none" xmlns="http://www.w3.org/2000/svg">
<g id="Property 2=Tie">
<path id="Combined Shape" fill-rule="evenodd" clip-rule="evenodd" d="M14.1119 7.00625C14.0749 7.00212 14.0374 7 13.9994 7H9.99941C9.96139 7 9.92387 7.00212 9.88696 7.00625L7.34702 4.55799C6.95001 4.17531 6.9377 3.54347 7.3195 3.14561L8.41889 2H15.5799L16.6793 3.14561C17.0611 3.54347 17.0488 4.17531 16.6518 4.55799L14.1119 7.00625Z" fill="#111014"/>
<path id="Path" opacity="0.3" fill-rule="evenodd" clip-rule="evenodd" d="M13.7647 9L15.486 18.1494C15.5457 18.4669 15.4484 18.7936 15.2247 19.0267L12.7222 21.6345C12.7127 21.6444 12.7029 21.6541 12.693 21.6636C12.2946 22.046 11.6615 22.033 11.2791 21.6345L8.77655 19.0267C8.55288 18.7936 8.45558 18.4669 8.5153 18.1494L10.2366 9H13.7647Z" fill="#111014"/>
</g>
</svg>
