<svg width="24" height="24" viewBox="0 0 24 24" fill="none" xmlns="http://www.w3.org/2000/svg">
<g id="Property 2=Right 3">
<path id="Path 94" d="M13.2929 14.2929C12.9024 14.6834 12.9024 15.3166 13.2929 15.7071C13.6834 16.0976 14.3166 16.0976 14.7071 15.7071L20.7071 9.70711C21.0857 9.32853 21.0989 8.71894 20.7372 8.32428L15.2372 2.32428C14.864 1.91716 14.2314 1.88965 13.8243 2.26285C13.4172 2.63604 13.3897 3.26861 13.7628 3.67572L18.6159 8.96992L13.2929 14.2929Z" fill="#111014"/>
<path id="Path 96" opacity="0.3" d="M15.5 8C16.0523 8 16.5 8.44772 16.5 9C16.5 9.55228 16.0523 10 15.5 10H9C8.44772 10 8 10.4477 8 11V21.0416C8 21.5939 7.55228 22.0416 7 22.0416C6.44772 22.0416 6 21.5939 6 21.0416V11C6 9.34315 7.34315 8 9 8H15.5Z" fill="#111014"/>
</g>
</svg>
