<svg width="24" height="24" viewBox="0 0 24 24" fill="none" xmlns="http://www.w3.org/2000/svg">
<g id="Property 2=Right-circle">
<path id="Oval 5" opacity="0.3" fill-rule="evenodd" clip-rule="evenodd" d="M12 22C17.5228 22 22 17.5228 22 12C22 6.47715 17.5228 2 12 2C6.47715 2 2 6.47715 2 12C2 17.5228 6.47715 22 12 22Z" fill="#111014"/>
<path id="Path 94" d="M9.32164 7.46323C8.98691 7.1285 8.98691 6.58579 9.32164 6.25105C9.65638 5.91632 10.1991 5.91632 10.5338 6.25105L15.6767 11.3939C16.0012 11.7184 16.0125 12.2409 15.7024 12.5792L10.9882 17.722C10.6683 18.071 10.1261 18.0946 9.77711 17.7747C9.42815 17.4548 9.40458 16.9126 9.72446 16.5637L13.8842 12.0258L9.32164 7.46323Z" fill="#111014"/>
</g>
</svg>
