<svg width="24" height="24" viewBox="0 0 24 24" fill="none" xmlns="http://www.w3.org/2000/svg">
<g id="Property 2=Knife&#38;fork#2">
<path id="Path 65" fill-rule="evenodd" clip-rule="evenodd" d="M3.98798 3.05957L11.059 10.1306L8.23062 12.9591L3.98798 8.71642C2.42588 7.15433 2.42588 4.62167 3.98798 3.05957Z" fill="#111014"/>
<path id="Combined Shape" fill-rule="evenodd" clip-rule="evenodd" d="M17.7541 3.9073L14.8887 7.40941C14.709 7.62909 14.7249 7.94923 14.9256 8.14994C15.1263 8.35065 15.4465 8.36662 15.6662 8.18688L19.1683 5.32152L19.8754 6.02862L17.01 9.53073C16.8303 9.75041 16.8462 10.0706 17.047 10.2713C17.2477 10.472 17.5678 10.4879 17.7875 10.3082L21.2896 7.44284L21.9967 8.14994L18.8147 11.3319C17.4479 12.6988 15.2318 12.6988 13.865 11.3319C12.4981 9.96509 12.4981 7.74901 13.865 6.38218L17.047 3.2002L17.7541 3.9073Z" fill="#111014"/>
<path id="Rectangle" opacity="0.3" fill-rule="evenodd" clip-rule="evenodd" d="M11.0759 13.9243C11.4721 14.3204 11.4882 14.9576 11.1125 15.3733L6.14238 20.8721C5.61424 21.4565 4.7124 21.502 4.12807 20.9739C4.11027 20.9578 4.09288 20.9412 4.07591 20.9243C3.51897 20.3673 3.51897 19.4643 4.07591 18.9074C4.09288 18.8904 4.11027 18.8739 4.12807 18.8578L9.62693 13.8877C10.0426 13.512 10.6797 13.5281 11.0759 13.9243Z" fill="#111014"/>
<path id="Rectangle Copy" opacity="0.3" fill-rule="evenodd" clip-rule="evenodd" d="M13.0756 13.9243C13.4718 13.5281 14.109 13.512 14.5246 13.8877L20.0235 18.8578C20.0413 18.8739 20.0587 18.8904 20.0756 18.9074C20.6326 19.4643 20.6326 20.3673 20.0756 20.9243C20.0587 20.9412 20.0413 20.9578 20.0235 20.9739C19.4392 21.502 18.5373 21.4565 18.0092 20.8721L13.0391 15.3733C12.6634 14.9576 12.6795 14.3204 13.0756 13.9243Z" fill="#111014"/>
</g>
</svg>
