<svg width="24" height="24" viewBox="0 0 24 24" fill="none" xmlns="http://www.w3.org/2000/svg">
<g id="Property 2=Bitcoin">
<rect id="Rectangle" opacity="0.3" x="11" y="2" width="2" height="5" rx="1" fill="#111014"/>
<rect id="Rectangle Copy 3" opacity="0.3" x="11" y="16" width="2" height="5" rx="1" fill="#111014"/>
<path id="Combined Shape" fill-rule="evenodd" clip-rule="evenodd" d="M17.875 14.0859C17.875 14.8205 17.7293 15.438 17.438 15.9384C17.1467 16.4387 16.7603 16.8408 16.279 17.1449C15.7977 17.4489 15.2498 17.6674 14.6355 17.8004C14.0212 17.9334 13.391 17.9999 12.745 17.9999H7V4.54785H12.745C13.2643 4.54785 13.7963 4.60168 14.341 4.70935C14.8857 4.81702 15.3797 5.00068 15.823 5.26035C16.2663 5.52002 16.6273 5.87152 16.906 6.31485C17.1847 6.75819 17.324 7.32185 17.324 8.00585C17.324 8.75319 17.1213 9.37068 16.716 9.85835C16.3107 10.346 15.7787 10.6975 15.12 10.9129C15.5 11.0142 15.8578 11.1314 16.1935 11.3024C16.5292 11.4734 16.8205 11.6919 17.0675 11.9579C17.3145 12.2239 17.5108 12.5342 17.6565 12.8889C17.8022 13.2435 17.875 13.6425 17.875 14.0859ZM14.189 8.44285C14.189 7.98685 14.0148 7.65435 13.6665 7.44535C13.3182 7.23635 12.802 7.13185 12.118 7.13185H10.522V9.90585H12.27C12.878 9.90585 13.3498 9.78235 13.6855 9.53535C14.0212 9.28835 14.189 8.92419 14.189 8.44285ZM14.626 13.7819C14.626 13.2245 14.417 12.8382 13.999 12.6229C13.581 12.4075 13.0237 12.2999 12.327 12.2999H10.522V15.3779H12.346C12.5993 15.3779 12.8622 15.3557 13.1345 15.3114C13.4068 15.267 13.6538 15.1879 13.8755 15.0739C14.0972 14.9599 14.2777 14.7984 14.417 14.5894C14.5563 14.3804 14.626 14.1112 14.626 13.7819Z" fill="#111014"/>
</g>
</svg>
