<svg width="24" height="24" viewBox="0 0 24 24" fill="none" xmlns="http://www.w3.org/2000/svg">
<g id="Property 2=Spam">
<path id="Combined Shape" fill-rule="evenodd" clip-rule="evenodd" d="M3 4.5C3 3.67157 3.67157 3 4.5 3H19.5C20.3284 3 21 3.67157 21 4.5V19.5C21 20.3284 20.3284 21 19.5 21H4.5C3.67157 21 3 20.3284 3 19.5V4.5ZM7 6C7 5.44772 7.44772 5 8 5H16C16.5523 5 17 5.44772 17 6C17 6.55228 16.5523 7 16 7H8C7.44772 7 7 6.55228 7 6ZM9.17157 12.5858L10.5858 14L9.17157 15.4142C8.78105 15.8047 8.78105 16.4379 9.17157 16.8284C9.5621 17.219 10.1953 17.219 10.5858 16.8284L12 15.4142L13.4142 16.8284C13.8047 17.219 14.4379 17.219 14.8284 16.8284C15.219 16.4379 15.219 15.8047 14.8284 15.4142L13.4142 14L14.8284 12.5858C15.219 12.1953 15.219 11.5621 14.8284 11.1716C14.4379 10.781 13.8047 10.781 13.4142 11.1716L12 12.5858L10.5858 11.1716C10.1953 10.781 9.5621 10.781 9.17157 11.1716C8.78105 11.5621 8.78105 12.1953 9.17157 12.5858Z" fill="#111014"/>
</g>
</svg>
