<svg width="24" height="24" viewBox="0 0 24 24" fill="none" xmlns="http://www.w3.org/2000/svg">
<g id="Property 2=Bucket">
<rect id="Rectangle" opacity="0.3" x="7" y="1" width="10" height="3" rx="1" fill="#111014"/>
<path id="Combined Shape" fill-rule="evenodd" clip-rule="evenodd" d="M9.36328 6C6.60186 6 4.36328 8.23858 4.36328 11V20C4.36328 21.1046 5.25871 22 6.36328 22H17.6368C18.7414 22 19.6368 21.1046 19.6368 20V11C19.6368 8.23858 17.3983 6 14.6368 6H9.36328ZM9.00015 9C7.89558 9 7.00015 9.89543 7.00015 11V12C7.00015 13.1046 7.89558 14 9.00015 14H15.0002C16.1047 14 17.0002 13.1046 17.0002 12V11C17.0002 9.89543 16.1047 9 15.0002 9H9.00015Z" fill="#111014"/>
</g>
</svg>
