<svg width="24" height="24" viewBox="0 0 24 24" fill="none" xmlns="http://www.w3.org/2000/svg">
<g id="Property 2=Mail-box">
<path id="Combined Shape" fill-rule="evenodd" clip-rule="evenodd" d="M22 15V19C22 20.1046 21.1046 21 20 21H4C2.89543 21 2 20.1046 2 19L2 15H6.27924L6.82339 16.6325C7.09562 17.4491 7.8599 18 8.72076 18H15.382C16.1395 18 16.832 17.572 17.1708 16.8944L18.118 15L22 15Z" fill="#111014"/>
<path id="Path" opacity="0.3" fill-rule="evenodd" clip-rule="evenodd" d="M2.5625 13L5.92654 7.01948C6.28078 6.38972 6.94715 6 7.66969 6L16.3303 6C17.0529 6 17.7192 6.38972 18.0735 7.01948L21.4375 13H18.118C17.3605 13 16.668 13.428 16.3292 14.1056L15.382 16H8.72076L8.17661 14.3675C7.90438 13.5509 7.1401 13 6.27924 13H2.5625Z" fill="#111014"/>
</g>
</svg>
