<svg width="24" height="24" viewBox="0 0 24 24" fill="none" xmlns="http://www.w3.org/2000/svg">
<g id="Property 2=Left-circle">
<path id="Oval 5" opacity="0.3" fill-rule="evenodd" clip-rule="evenodd" d="M12 22C17.5228 22 22 17.5228 22 12C22 6.47715 17.5228 2 12 2C6.47715 2 2 6.47715 2 12C2 17.5228 6.47715 22 12 22Z" fill="#111014"/>
<path id="Path 94" d="M14.6784 7.46323C15.0131 7.1285 15.0131 6.58579 14.6784 6.25105C14.3436 5.91632 13.8009 5.91632 13.4662 6.25105L8.32332 11.3939C7.99882 11.7184 7.98747 12.2409 8.29756 12.5792L13.0118 17.722C13.3317 18.071 13.8739 18.0946 14.2229 17.7747C14.5718 17.4548 14.5954 16.9126 14.2755 16.5637L10.1158 12.0258L14.6784 7.46323Z" fill="#111014"/>
</g>
</svg>
