<svg width="24" height="24" viewBox="0 0 24 24" fill="none" xmlns="http://www.w3.org/2000/svg">
<g id="Property 2=Rain#1">
<path id="Combined Shape" fill-rule="evenodd" clip-rule="evenodd" d="M14.811 7.5C14.1449 4.91216 11.7958 3 9 3C5.68629 3 3 5.68629 3 9C3 11.1148 4.0941 12.974 5.74715 14.0426C6.41093 14.6379 7.28818 15 8.25 15H9H17.25C19.3211 15 21 13.3211 21 11.25C21 9.17893 19.3211 7.5 17.25 7.5H14.811Z" fill="#111014"/>
<path id="Combined Shape_2" opacity="0.3" fill-rule="evenodd" clip-rule="evenodd" d="M7.68093 16.8264C7.82387 16.2929 8.37221 15.9763 8.90567 16.1193C9.43914 16.2622 9.75572 16.8106 9.61278 17.344L8.5775 21.2077C8.43456 21.7412 7.88622 22.0578 7.35276 21.9148C6.81929 21.7719 6.50271 21.2236 6.64565 20.6901L7.68093 16.8264ZM15.6809 16.8264C15.8239 16.2929 16.3722 15.9763 16.9057 16.1193C17.4391 16.2622 17.7557 16.8106 17.6128 17.344L16.5775 21.2077C16.4346 21.7412 15.8862 22.0578 15.3528 21.9148C14.8193 21.7719 14.5027 21.2236 14.6457 20.6901L15.6809 16.8264ZM12.9057 16.1193C12.3722 15.9763 11.8239 16.2929 11.6809 16.8264L10.6457 20.6901C10.5027 21.2236 10.8193 21.7719 11.3528 21.9148C11.8862 22.0578 12.4346 21.7412 12.5775 21.2077L13.6128 17.344C13.7557 16.8106 13.4391 16.2622 12.9057 16.1193Z" fill="#111014"/>
</g>
</svg>
