<svg width="24" height="24" viewBox="0 0 24 24" fill="none" xmlns="http://www.w3.org/2000/svg">
<g id="Property 2=Compiling">
<path id="Combined Shape" opacity="0.3" fill-rule="evenodd" clip-rule="evenodd" d="M2.56043 10.6818C1.97465 11.2675 1.97465 12.2173 2.56043 12.8031L4.68175 14.9244C5.26754 15.5102 6.21729 15.5102 6.80307 14.9244L8.92439 12.8031C9.51018 12.2173 9.51018 11.2675 8.92439 10.6818L6.80307 8.56043C6.21729 7.97465 5.26754 7.97465 4.68175 8.56043L2.56043 10.6818ZM14.5604 10.6818C13.9746 11.2675 13.9746 12.2173 14.5604 12.8031L16.6818 14.9244C17.2675 15.5102 18.2173 15.5102 18.8031 14.9244L20.9244 12.8031C21.5102 12.2173 21.5102 11.2675 20.9244 10.6818L18.8031 8.56043C18.2173 7.97465 17.2675 7.97465 16.6818 8.56043L14.5604 10.6818Z" fill="#111014"/>
<path id="Combined Shape_2" fill-rule="evenodd" clip-rule="evenodd" d="M8.56043 4.68175C7.97465 5.26754 7.97465 6.21729 8.56043 6.80307L10.6818 8.92439C11.2675 9.51018 12.2173 9.51018 12.8031 8.92439L14.9244 6.80307C15.5102 6.21729 15.5102 5.26754 14.9244 4.68175L12.8031 2.56043C12.2173 1.97465 11.2675 1.97465 10.6818 2.56043L8.56043 4.68175ZM8.56043 16.6818C7.97465 17.2675 7.97465 18.2173 8.56043 18.8031L10.6818 20.9244C11.2675 21.5102 12.2173 21.5102 12.8031 20.9244L14.9244 18.8031C15.5102 18.2173 15.5102 17.2675 14.9244 16.6818L12.8031 14.5604C12.2173 13.9746 11.2675 13.9746 10.6818 14.5604L8.56043 16.6818Z" fill="#111014"/>
</g>
</svg>
