<svg width="24" height="24" viewBox="0 0 24 24" fill="none" xmlns="http://www.w3.org/2000/svg">
<g id="Property 2=Shovel">
<path id="Combined Shape" opacity="0.3" fill-rule="evenodd" clip-rule="evenodd" d="M5.48949 1.53981C5.80447 1.22483 6.34304 1.44791 6.34304 1.89336V4.9289L13.4141 12L11.9999 13.4142L4.92883 6.34311L1.89329 6.34311C1.44784 6.34311 1.22476 5.80454 1.53974 5.48956L3.51461 3.51468L5.48949 1.53981Z" fill="#111014"/>
<path id="Combined Shape_2" fill-rule="evenodd" clip-rule="evenodd" d="M16.95 9.87891L19.7751 13.1387C20.8923 14.4278 21.3504 16.1612 21.0158 17.8339L20.6163 19.8318C20.5371 20.2276 20.2276 20.5371 19.8318 20.6163L17.8339 21.0158C16.1612 21.3504 14.4278 20.8923 13.1387 19.7751L9.87891 16.95L16.95 9.87891ZM13.5453 16.0239C12.782 15.3779 11.813 16.523 12.5764 17.169L14.8745 19.1135C15.6379 19.7594 16.6068 18.6144 15.8434 17.9684L13.5453 16.0239Z" fill="#111014"/>
</g>
</svg>
