<svg width="24" height="24" viewBox="0 0 24 24" fill="none" xmlns="http://www.w3.org/2000/svg">
<g id="Property 2=Readed-mail">
<path id="check" opacity="0.3" d="M4.875 20.75C4.63542 20.75 4.39583 20.6542 4.20417 20.4625L2.2875 18.5458C1.90417 18.1625 1.90417 17.5875 2.2875 17.2042C2.67083 16.8208 3.29375 16.8208 3.62917 17.2042L4.875 18.45L8.0375 15.2875C8.42083 14.9042 8.99583 14.9042 9.37917 15.2875C9.7625 15.6708 9.7625 16.2458 9.37917 16.6292L5.54583 20.4625C5.35417 20.6542 5.11458 20.75 4.875 20.75Z" fill="#111014"/>
<path id="Combined Shape" fill-rule="evenodd" clip-rule="evenodd" d="M4 7C4 5.89543 4.89543 5 6 5H20C21.1046 5 22 5.89543 22 7V16C22 17.1046 21.1046 18 20 18H12.9836C12.7263 14.091 9.47412 11 5.5 11C4.9863 11 4.48466 11.0516 4 11.15V7ZM19.1444 6.83965C19.5091 6.64327 19.964 6.77972 20.1604 7.14443C20.3567 7.50913 20.2203 7.96397 19.8556 8.16035L13.3556 11.6604C13.1336 11.7799 12.8664 11.7799 12.6444 11.6604L6.14443 8.16035C5.77972 7.96397 5.64327 7.50913 5.83965 7.14443C6.03603 6.77972 6.49087 6.64327 6.85557 6.83965L13 10.1482L19.1444 6.83965Z" fill="#111014"/>
</g>
</svg>
