<svg width="24" height="24" viewBox="0 0 24 24" fill="none" xmlns="http://www.w3.org/2000/svg">
<g id="Property 2=CPU#2">
<rect id="Rectangle" opacity="0.3" x="3" y="3" width="18" height="18" rx="1" fill="#111014"/>
<path id="Rectangle 2" opacity="0.3" fill-rule="evenodd" clip-rule="evenodd" d="M14 9H10C9.44772 9 9 9.44772 9 10V14C9 14.5523 9.44772 15 10 15H14C14.5523 15 15 14.5523 15 14V10C15 9.44772 14.5523 9 14 9ZM11 13V11H13V13H11Z" fill="#111014"/>
<rect id="Rectangle 3" opacity="0.3" x="5" y="5" width="2" height="2" rx="0.5" fill="#111014"/>
<rect id="Rectangle 3 Copy 8" opacity="0.3" x="5" y="9" width="2" height="2" rx="0.5" fill="#111014"/>
<rect id="Rectangle 3 Copy 9" opacity="0.3" x="5" y="13" width="2" height="2" rx="0.5" fill="#111014"/>
<rect id="Rectangle 3 Copy" opacity="0.3" x="9" y="5" width="2" height="2" rx="0.5" fill="#111014"/>
<rect id="Rectangle 3 Copy 2" opacity="0.3" x="13" y="5" width="2" height="2" rx="0.5" fill="#111014"/>
<rect id="Rectangle 3 Copy 3" opacity="0.3" x="17" y="5" width="2" height="2" rx="0.5" fill="#111014"/>
<rect id="Rectangle 3 Copy 10" opacity="0.3" x="17" y="9" width="2" height="2" rx="0.5" fill="#111014"/>
<rect id="Rectangle 3 Copy 11" opacity="0.3" x="17" y="13" width="2" height="2" rx="0.5" fill="#111014"/>
<rect id="Rectangle 3 Copy 7" opacity="0.3" x="5" y="17" width="2" height="2" rx="0.5" fill="#111014"/>
<rect id="Rectangle 3 Copy 6" opacity="0.3" x="9" y="17" width="2" height="2" rx="0.5" fill="#111014"/>
<rect id="Rectangle 3 Copy 5" opacity="0.3" x="13" y="17" width="2" height="2" rx="0.5" fill="#111014"/>
<rect id="Rectangle 3 Copy 4" opacity="0.3" x="17" y="17" width="2" height="2" rx="0.5" fill="#111014"/>
</g>
</svg>
