<svg width="24" height="24" viewBox="0 0 24 24" fill="none" xmlns="http://www.w3.org/2000/svg">
<g id="Property 2=Line">
<path id="Oval" opacity="0.3" d="M13 9V6C9.04564 7.48815 6.78867 8.9935 5 13H8C8.74285 12.2 9.98856 10 13 9Z" fill="#111014"/>
<path id="Oval 7" fill-rule="evenodd" clip-rule="evenodd" d="M18 10.5C19.6569 10.5 21 9.15685 21 7.5C21 5.84315 19.6569 4.5 18 4.5C16.3431 4.5 15 5.84315 15 7.5C15 9.15685 16.3431 10.5 18 10.5Z" fill="#111014"/>
<path id="Oval 7 Copy" fill-rule="evenodd" clip-rule="evenodd" d="M6 21C7.65685 21 9 19.6569 9 18C9 16.3431 7.65685 15 6 15C4.34315 15 3 16.3431 3 18C3 19.6569 4.34315 21 6 21Z" fill="#111014"/>
</g>
</svg>
