<svg width="24" height="24" viewBox="0 0 24 24" fill="none" xmlns="http://www.w3.org/2000/svg">
<g id="Property 2=Shirt">
<path id="Combined Shape" opacity="0.3" fill-rule="evenodd" clip-rule="evenodd" d="M6.18158 4.09501C6.7318 3.42638 7.56573 3 8.49924 3H15.4992C16.4323 3 17.2659 3.426 17.8162 4.09412C17.8378 4.10461 17.8591 4.11594 17.8802 4.12813L22.5892 6.84688C23.0675 7.12302 23.2314 7.73461 22.9553 8.2129L21.299 11.0816C21.0229 11.5599 20.4113 11.7238 19.933 11.4476L18.4992 10.6199V19C18.4992 19.5523 18.0515 20 17.4992 20H6.49924C5.94695 20 5.49924 19.5523 5.49924 19V10.6205L4.06657 11.4476C3.58828 11.7238 2.97669 11.5599 2.70055 11.0816L1.0443 8.2129C0.768155 7.73461 0.932031 7.12302 1.41032 6.84688L6.11934 4.12813C6.13985 4.11628 6.16061 4.10524 6.18158 4.09501Z" fill="#111014"/>
<path id="Path 86" fill-rule="evenodd" clip-rule="evenodd" d="M10.267 3C10.0998 3 9.94367 3.08355 9.85094 3.22265L9.26174 4.10645C9.11454 4.32724 9.16548 4.62458 9.37777 4.7838L10.9994 6L10.0347 12.7525C10.0125 12.9083 10.0649 13.0655 10.1762 13.1768L11.6458 14.6464C11.8411 14.8417 12.1577 14.8417 12.3529 14.6464L13.8226 13.1768C13.9339 13.0655 13.9863 12.9083 13.964 12.7525L12.9994 6L14.621 4.7838C14.8333 4.62458 14.8842 4.32724 14.737 4.10645L14.1478 3.22265C14.0551 3.08355 13.899 3 13.7318 3H10.267Z" fill="#111014"/>
</g>
</svg>
