<svg width="24" height="24" viewBox="0 0 24 24" fill="none" xmlns="http://www.w3.org/2000/svg">
<g id="Property 2=iPhone-X">
<path id="Combined Shape" opacity="0.3" fill-rule="evenodd" clip-rule="evenodd" d="M8 2.5C7.30964 2.5 6.75 3.05964 6.75 3.75V20.25C6.75 20.9404 7.30964 21.5 8 21.5H16C16.6904 21.5 17.25 20.9404 17.25 20.25V3.75C17.25 3.05964 16.6904 2.5 16 2.5H8Z" fill="#111014"/>
<path id="Combined Shape_2" fill-rule="evenodd" clip-rule="evenodd" d="M8 1H16C17.5188 1 18.75 2.23122 18.75 3.75V20.25C18.75 21.7688 17.5188 23 16 23H8C6.48122 23 5.25 21.7688 5.25 20.25V3.75C5.25 2.23122 6.48122 1 8 1ZM8 2.5C7.30964 2.5 6.75 3.05964 6.75 3.75V20.25C6.75 20.9404 7.30964 21.5 8 21.5H16C16.6904 21.5 17.25 20.9404 17.25 20.25V3.75C17.25 3.05964 16.6904 2.5 16 2.5H15V2.25C15 1.97386 14.7761 1.75 14.5 1.75H9.5C9.22386 1.75 9 1.97386 9 2.25V2.5H8ZM9 2.5V3.25C9 3.52614 9.22386 3.75 9.5 3.75H14.5C14.7761 3.75 15 3.52614 15 3.25V2.5H9Z" fill="#111014"/>
</g>
</svg>
