<svg width="24" height="24" viewBox="0 0 24 24" fill="none" xmlns="http://www.w3.org/2000/svg">
<g id="Property 2=Delete-user">
<path id="Combined Shape" opacity="0.3" fill-rule="evenodd" clip-rule="evenodd" d="M5 7C5 9.20914 6.79086 11 9 11C11.2091 11 13 9.20914 13 7C13 4.79086 11.2091 3 9 3C6.79086 3 5 4.79086 5 7ZM21 8C21.5523 8 22 7.55228 22 7C22 6.44772 21.5523 6 21 6H17C16.4477 6 16 6.44772 16 7C16 7.55228 16.4477 8 17 8H21Z" fill="#111014"/>
<path id="Mask Copy" d="M0.000651684 20.1992C0.388259 15.4265 4.26191 13 8.98334 13C13.7712 13 17.7049 15.2932 17.9979 20.2C18.0096 20.3955 17.9979 21 17.2467 21C13.5411 21 8.03472 21 0.727502 21C0.476712 21 -0.0204618 20.4592 0.000651684 20.1992Z" fill="#111014"/>
</g>
</svg>
