<svg width="24" height="24" viewBox="0 0 24 24" fill="none" xmlns="http://www.w3.org/2000/svg">
<g id="Property 2=Orange">
<path id="Oval 68" fill-rule="evenodd" clip-rule="evenodd" d="M3 12C3 16.9706 7.02944 21 12 21C16.9706 21 21 16.9706 21 12C21 7.02944 16.9706 3 12 3C7.02944 3 3 7.02944 3 12ZM19 12C19 15.866 15.866 19 12 19C8.13401 19 5 15.866 5 12C5 8.13401 8.13401 5 12 5C15.866 5 19 8.13401 19 12Z" fill="#111014"/>
<path id="Combined Shape" opacity="0.3" fill-rule="evenodd" clip-rule="evenodd" d="M12.0007 9.66667C11.334 8.64515 11.0007 7.88126 11.0007 7.375C11.0007 6.61561 11.4484 6 12.0007 6C12.5529 6 13.0007 6.61561 13.0007 7.375C13.0007 7.88126 12.6673 8.64515 12.0007 9.66667ZM12.0007 14C12.6673 15.0215 13.0007 15.7854 13.0007 16.2917C13.0007 17.0511 12.5529 17.6667 12.0007 17.6667C11.4484 17.6667 11.0007 17.0511 11.0007 16.2917C11.0007 15.7854 11.334 15.0215 12.0007 14ZM14.334 12C15.3555 11.3333 16.1194 11 16.6257 11C17.385 11 18.0007 11.4477 18.0007 12C18.0007 12.5523 17.385 13 16.6257 13C16.1194 13 15.3555 12.6667 14.334 12ZM10.0007 12C8.97913 12.6667 8.21525 13 7.70898 13C6.94959 13 6.33398 12.5523 6.33398 12C6.33398 11.4477 6.94959 11 7.70898 11C8.21525 11 8.97913 11.3333 10.0007 12ZM13.6506 10.3501C13.9015 9.15636 14.2059 8.38051 14.5639 8.02252C15.1009 7.48555 15.8528 7.36683 16.2433 7.75736C16.6338 8.14788 16.5151 8.89977 15.9781 9.43674C15.6201 9.79472 14.8443 10.0992 13.6506 10.3501ZM10.5864 13.4142C10.3355 14.6079 10.0311 15.3838 9.67309 15.7418C9.13612 16.2787 8.38424 16.3975 7.99371 16.0069C7.60319 15.6164 7.72191 14.8645 8.25888 14.3276C8.61686 13.9696 9.39271 13.6651 10.5864 13.4142ZM13.6506 13.6499C14.8443 13.9008 15.6201 14.2053 15.9781 14.5633C16.5151 15.1002 16.6338 15.8521 16.2433 16.2426C15.8528 16.6332 15.1009 16.5144 14.5639 15.9775C14.2059 15.6195 13.9015 14.8436 13.6506 13.6499ZM10.5864 10.5858C9.39271 10.3349 8.61686 10.0304 8.25888 9.67244C7.72191 9.13547 7.60319 8.38359 7.99371 7.99306C8.38424 7.60254 9.13612 7.72126 9.67309 8.25823C10.0311 8.61621 10.3355 9.39206 10.5864 10.5858Z" fill="#111014"/>
</g>
</svg>
