<svg width="24" height="24" viewBox="0 0 24 24" fill="none" xmlns="http://www.w3.org/2000/svg">
<g id="Property 2=Safe-chat">
<path id="Mask" opacity="0.3" fill-rule="evenodd" clip-rule="evenodd" d="M3 16.5C3 15.1193 4.11929 14 5.5 14C6.88071 14 8 15.1193 8 16.5V17C8.55228 17 9 17.4477 9 18V21C9 21.5523 8.55228 22 8 22H3C2.44772 22 2 21.5523 2 21V18C2 17.4477 2.44772 17 3 17V16.5ZM5.5 15C4.67157 15 4 15.6716 4 16.5V17H7V16.5C7 15.6716 6.32843 15 5.5 15Z" fill="#111014"/>
<path id="Combined Shape" fill-rule="evenodd" clip-rule="evenodd" d="M5 3C3.34315 3 2 4.34315 2 6V11.865C3.04486 11.3127 4.23591 11 5.5 11C9.47412 11 12.7263 14.091 12.9836 18H18.0249L20.3178 20.2929C20.9478 20.9229 22.0249 20.4767 22.0249 19.5858V15L22 15.0098L22 15V6C22 4.34315 20.6569 3 19 3H5ZM6 7C5.44772 7 5 7.44772 5 8C5 8.55228 5.44772 9 6 9H15C15.5523 9 16 8.55228 16 8C16 7.44772 15.5523 7 15 7H6Z" fill="#111014"/>
</g>
</svg>
