<svg width="24" height="24" viewBox="0 0 24 24" fill="none" xmlns="http://www.w3.org/2000/svg">
<g id="Property 2=LTE#2">
<path id="Combined Shape" opacity="0.3" fill-rule="evenodd" clip-rule="evenodd" d="M6.25619 18.929L4.97889 20.468C2.47693 18.3915 1 15.3152 1 11.9999C1 8.68908 2.47282 5.61663 4.96885 3.54004L6.24797 5.07752C4.20393 6.77807 3 9.2896 3 11.9999C3 14.7139 4.2073 17.2285 6.25619 18.929ZM17.7438 18.929L19.0211 20.468C21.5231 18.3915 23 15.3152 23 11.9999C23 8.68908 21.5272 5.61663 19.0311 3.54004L17.752 5.07752C19.7961 6.77807 21 9.2896 21 11.9999C21 14.7139 19.7927 17.2285 17.7438 18.929ZM15.1785 15.8598L16.4509 17.4028C18.0529 16.0818 19 14.1172 19 11.9999C19 9.88945 18.0591 7.9306 16.4661 6.60949L15.1894 8.14896C16.329 9.09404 17 10.4911 17 11.9999C17 13.5136 16.3245 14.9148 15.1785 15.8598ZM7.5491 17.4028L8.8215 15.8598C7.6755 14.9148 7 13.5136 7 11.9999C7 10.4911 7.67104 9.09404 8.81062 8.14896L7.53389 6.60949C5.94091 7.9306 5 9.88945 5 11.9999C5 14.1172 5.94714 16.0818 7.5491 17.4028Z" fill="#111014"/>
<path id="Combined Shape_2" fill-rule="evenodd" clip-rule="evenodd" d="M13 14.292C13.883 13.9062 14.5 13.0252 14.5 12C14.5 10.6193 13.3807 9.5 12 9.5C10.6193 9.5 9.5 10.6193 9.5 12C9.5 13.0252 10.117 13.9062 11 14.292V20C11 20.5523 11.4477 21 12 21C12.5523 21 13 20.5523 13 20V14.292Z" fill="#111014"/>
</g>
</svg>
