<svg width="24" height="24" viewBox="0 0 24 24" fill="none" xmlns="http://www.w3.org/2000/svg">
<g id="Property 2=Spoon">
<path id="Rectangle 136" opacity="0.3" fill-rule="evenodd" clip-rule="evenodd" d="M9.37951 12.914L10.0866 13.6211C10.4771 14.0116 10.4771 14.6448 10.0866 15.0353L5.13687 19.9851C4.74635 20.3756 4.11318 20.3756 3.72266 19.9851L3.01555 19.2779C2.62503 18.8874 2.62503 18.2543 3.01555 17.8637L7.9653 12.914C8.35582 12.5235 8.98899 12.5235 9.37951 12.914Z" fill="#111014"/>
<path id="Subtract" fill-rule="evenodd" clip-rule="evenodd" d="M17.5101 11.8536C15.7527 13.611 12.9035 13.611 11.1461 11.8536C9.38879 10.0962 9.38879 7.24699 11.1461 5.48963C12.9035 3.73227 17.5205 1.96451 19.2779 3.72187C21.0352 5.47923 19.2675 10.0962 17.5101 11.8536ZM17.6245 5.50668L12.8381 10.559C13.91 11.4319 15.4902 11.3689 16.4888 10.3702C17.5326 9.32646 18.5825 6.61937 17.6245 5.50668Z" fill="#111014"/>
</g>
</svg>
