<svg width="24" height="24" viewBox="0 0 24 24" fill="none" xmlns="http://www.w3.org/2000/svg">
<g id="Property 2=Alarm-clock">
<path id="Combined Shape" fill-rule="evenodd" clip-rule="evenodd" d="M15.1362 20.3618L16.0995 22.0302C16.3757 22.5085 16.9873 22.6724 17.4656 22.3963C17.9439 22.1201 18.1077 21.5085 17.8316 21.0302L16.863 19.3525C16.8562 19.3578 16.8493 19.363 16.8425 19.3682C16.3649 19.732 15.8451 20.0432 15.2918 20.2934C15.2403 20.3167 15.1884 20.3395 15.1362 20.3618ZM7.14273 19.3576C7.67075 19.7616 8.25058 20.1013 8.87051 20.365L7.89158 22.0606C7.61544 22.5389 7.00385 22.7027 6.52556 22.4266C6.04726 22.1505 5.88339 21.5389 6.15953 21.0606L7.14273 19.3576Z" fill="#111014"/>
<path id="Combined Shape_2" opacity="0.3" fill-rule="evenodd" clip-rule="evenodd" d="M5.29894 2.88221C5.88473 2.29642 6.83448 2.29642 7.42026 2.88221C8.00605 3.468 8.00605 4.41774 7.42026 5.00353L5.29894 7.12485C4.71315 7.71064 3.76341 7.71064 3.17762 7.12485C2.59183 6.53906 2.59183 5.58932 3.17762 5.00353L5.29894 2.88221ZM16.9478 3.25421C17.5336 2.66842 18.4833 2.66842 19.0691 3.25421L20.8184 5.00353C21.4042 5.58932 21.4042 6.53907 20.8184 7.12485C20.2327 7.71064 19.2829 7.71064 18.6971 7.12485L16.9478 5.37553C16.362 4.78974 16.362 3.84 16.9478 3.25421ZM12.0003 21.0001C7.58203 21.0001 4.00031 17.4184 4.00031 13.0001C4.00031 8.58185 7.58203 5.00013 12.0003 5.00013C16.4186 5.00013 20.0003 8.58185 20.0003 13.0001C20.0003 17.4184 16.4186 21.0001 12.0003 21.0001Z" fill="#111014"/>
<path id="Path 107" fill-rule="evenodd" clip-rule="evenodd" d="M11.4636 7.96165C11.4836 7.70115 11.7008 7.5 11.9621 7.5H12.0466C12.3035 7.5 12.5186 7.69465 12.5441 7.95025L12.9991 12.5L16.2472 14.356C16.4029 14.4451 16.4991 14.6107 16.4991 14.7902V14.8454C16.4991 15.1751 16.1856 15.4145 15.8675 15.3278L11.3978 14.1087C11.1664 14.0456 11.0124 13.8271 11.0308 13.588L11.4636 7.96165Z" fill="#111014"/>
</g>
</svg>
