<svg width="24" height="24" viewBox="0 0 24 24" fill="none" xmlns="http://www.w3.org/2000/svg">
<g id="Property 2=Pound">
<path id="&#194;&#163;" fill-rule="evenodd" clip-rule="evenodd" d="M7.82578 10.2248C7.20078 9.4748 6.85078 8.3998 6.85078 7.3748C6.85078 4.5498 9.15078 2.0498 12.3508 2.0498C15.271 2.0498 17.5256 4.17944 17.8401 6.91325C17.8722 7.19248 17.6441 7.4248 17.363 7.4248H15.5758C15.2996 7.4248 15.0802 7.1994 15.0379 6.9265C14.8318 5.59412 13.8001 4.5998 12.3508 4.5998C10.7508 4.5998 9.60078 5.7748 9.60078 7.3748C9.60078 8.26607 10.0171 9.06127 10.6684 9.58373C10.7365 9.63834 10.7008 17.4248 10.7008 17.4248H17.5452C17.8968 17.4248 18.1386 17.7781 18.0113 18.1058L17.3997 19.6808C17.325 19.8731 17.1399 19.9998 16.9336 19.9998H6.30078C6.02464 19.9998 5.80078 19.7759 5.80078 19.4998V17.9248C5.80078 17.6487 6.02464 17.4248 6.30078 17.4248H7.92578V12.4748L7.82578 10.2248Z" fill="#111014"/>
<path id="Path" opacity="0.3" fill-rule="evenodd" clip-rule="evenodd" d="M4.80902 12C4.43733 12 4.19558 11.6088 4.3618 11.2764L4.8618 10.2764C4.9465 10.107 5.11963 10 5.30902 10H15.191C15.5627 10 15.8044 10.3912 15.6382 10.7236L15.1382 11.7236C15.0535 11.893 14.8804 12 14.691 12H4.80902Z" fill="#111014"/>
</g>
</svg>
