<svg width="24" height="24" viewBox="0 0 24 24" fill="none" xmlns="http://www.w3.org/2000/svg">
<g id="Property 2=Socket-us">
<path id="Combined Shape" fill-rule="evenodd" clip-rule="evenodd" d="M5 4C4.44772 4 4 4.44772 4 5V19C4 19.5523 4.44772 20 5 20H19C19.5523 20 20 19.5523 20 19V5C20 4.44772 19.5523 4 19 4H5ZM9 7C8.44772 7 8 7.44772 8 8V11C8 11.5523 8.44772 12 9 12C9.55228 12 10 11.5523 10 11V8C10 7.44772 9.55228 7 9 7ZM10.5 16.5C10.5 15.6716 11.1716 15 12 15C12.8284 15 13.5 15.6716 13.5 16.5V18H10.5V16.5ZM15 7C14.4477 7 14 7.44772 14 8V11C14 11.5523 14.4477 12 15 12C15.5523 12 16 11.5523 16 11V8C16 7.44772 15.5523 7 15 7Z" fill="#111014"/>
</g>
</svg>
