<svg width="24" height="24" viewBox="0 0 24 24" fill="none" xmlns="http://www.w3.org/2000/svg">
<g id="Property 2=Property 2647">
<path id="Combined Shape" fill-rule="evenodd" clip-rule="evenodd" d="M8.5 8.5C8.5 7.11929 9.61929 6 11 6H13.5C14.8807 6 16 7.11929 16 8.5V10.5H16.5C17.0523 10.5 17.5 10.9477 17.5 11.5V17C17.5 17.5523 17.0523 18 16.5 18H8C7.44772 18 7 17.5523 7 17V11.5C7 10.9477 7.44772 10.5 8 10.5H8.5V8.5ZM11.5 7.5C10.6716 7.5 10 8.17157 10 9V10.5H14.5V9C14.5 8.17157 13.8284 7.5 13 7.5H11.5Z" fill="#1D1C20"/>
</g>
</svg>
