<svg width="24" height="24" viewBox="0 0 24 24" fill="none" xmlns="http://www.w3.org/2000/svg">
<g id="Property 2=Picker">
<path id="Rectangle 42" fill-rule="evenodd" clip-rule="evenodd" d="M10.2328 10.2324L13.7683 13.768L8.46503 19.0713C7.48872 20.0476 5.90581 20.0476 4.9295 19.0713C3.95319 18.0949 3.95319 16.512 4.9295 15.5357L10.2328 10.2324Z" fill="#111014"/>
<path id="Combined Shape" opacity="0.3" fill-rule="evenodd" clip-rule="evenodd" d="M13.7678 6.69678L15.5356 4.92901C16.5119 3.9527 18.0948 3.9527 19.0711 4.92901C20.0474 5.90532 20.0474 7.48823 19.0711 8.46454L17.3033 10.2323L18.364 11.293C18.9498 11.8788 18.9498 12.8285 18.364 13.4143C17.7782 14.0001 16.8285 14.0001 16.2427 13.4143L10.5858 7.75744C10 7.17165 10 6.2219 10.5858 5.63612C11.1716 5.05033 12.1214 5.05033 12.7071 5.63612L13.7678 6.69678Z" fill="#111014"/>
</g>
</svg>
