<svg width="24" height="24" viewBox="0 0 24 24" fill="none" xmlns="http://www.w3.org/2000/svg">
<g id="Property 2=Contact#1">
<path id="Combined Shape" opacity="0.3" fill-rule="evenodd" clip-rule="evenodd" d="M12 22C17.5228 22 22 17.5228 22 12C22 6.47715 17.5228 2 12 2C6.47715 2 2 6.47715 2 12C2 17.5228 6.47715 22 12 22Z" fill="#111014"/>
<path id="Combined Shape_2" opacity="0.3" fill-rule="evenodd" clip-rule="evenodd" d="M12 11C10.8954 11 10 10.1046 10 9C10 7.89543 10.8954 7 12 7C13.1046 7 14 7.89543 14 9C14 10.1046 13.1046 11 12 11ZM7.00036 16.4995C7.2157 13.5166 9.36773 12 11.9907 12C14.6507 12 16.836 13.4332 16.9988 16.5C17.0053 16.6222 16.9988 17 16.5815 17H7.40417C7.26484 17 6.98863 16.662 7.00036 16.4995Z" fill="#111014"/>
</g>
</svg>
