<svg width="24" height="24" viewBox="0 0 24 24" fill="none" xmlns="http://www.w3.org/2000/svg">
<g id="Property 2=Anchor-right-down">
<path id="Oval Copy" opacity="0.3" fill-rule="evenodd" clip-rule="evenodd" d="M19 22C20.6569 22 22 20.6569 22 19C22 17.3431 20.6569 16 19 16C17.3431 16 16 17.3431 16 19C16 20.6569 17.3431 22 19 22Z" fill="#111014"/>
<g id="ic_type copy 6">
<path id="T" fill-rule="evenodd" clip-rule="evenodd" d="M11 7V14C11 14.5523 10.5523 15 10 15C9.44772 15 9 14.5523 9 14V7H7C6.44772 7 6 6.55228 6 6C6 5.44772 6.44772 5 7 5L13 5C13.5523 5 14 5.44772 14 6C14 6.55228 13.5523 7 13 7H11Z" fill="#111014"/>
</g>
</g>
</svg>
