<svg width="24" height="24" viewBox="0 0 24 24" fill="none" xmlns="http://www.w3.org/2000/svg">
<g id="Property 2=Celcium">
<path id="&#194;&#176;C" fill-rule="evenodd" clip-rule="evenodd" d="M19.8022 9.24364C19.4662 8.78764 19.0282 8.45464 18.4882 8.24464C17.9482 8.03464 17.4202 7.92964 16.9042 7.92964C16.2442 7.92964 15.6442 8.04964 15.1042 8.28964C14.5642 8.52964 14.0992 8.85964 13.7092 9.27964C13.3192 9.69964 13.0192 10.1916 12.8092 10.7556C12.5992 11.3196 12.4942 11.9316 12.4942 12.5916C12.4942 13.2876 12.5962 13.9236 12.8002 14.4996C13.0042 15.0756 13.2952 15.5706 13.6732 15.9846C14.0512 16.3986 14.5042 16.7196 15.0322 16.9476C15.5602 17.1756 16.1542 17.2896 16.8142 17.2896C17.4982 17.2896 18.1042 17.1546 18.6322 16.8846C19.1602 16.6146 19.5862 16.2576 19.9102 15.8136L21.7282 17.0916C21.1642 17.7996 20.4742 18.3486 19.6582 18.7386C18.8422 19.1286 17.8882 19.3236 16.7962 19.3236C15.8002 19.3236 14.8852 19.1586 14.0512 18.8286C13.2172 18.4986 12.5002 18.0366 11.9002 17.4426C11.3002 16.8486 10.8322 16.1406 10.4962 15.3186C10.1602 14.4966 9.99219 13.5876 9.99219 12.5916C9.99219 11.5716 10.1692 10.6506 10.5232 9.82864C10.8772 9.00664 11.3632 8.30764 11.9812 7.73164C12.5992 7.15564 13.3282 6.71164 14.1682 6.39964C15.0082 6.08764 15.9202 5.93164 16.9042 5.93164C17.3122 5.93164 17.7382 5.97064 18.1822 6.04864C18.6262 6.12664 19.0522 6.24664 19.4602 6.40864C19.8682 6.57064 20.2522 6.77164 20.6122 7.01164C20.9722 7.25164 21.2782 7.53964 21.5302 7.87564L19.8022 9.24364Z" fill="#111014"/>
<path id="Combined Shape" opacity="0.3" fill-rule="evenodd" clip-rule="evenodd" d="M2.9457 7.80404C2.7957 8.15204 2.7207 8.52404 2.7207 8.92004C2.7207 9.31604 2.7957 9.68804 2.9457 10.036C3.0957 10.384 3.3027 10.69 3.5667 10.954C3.8307 11.218 4.1367 11.425 4.4847 11.575C4.83271 11.725 5.2047 11.8 5.6007 11.8C5.99671 11.8 6.3687 11.725 6.7167 11.575C7.0647 11.425 7.3707 11.218 7.6347 10.954C7.8987 10.69 8.1057 10.384 8.2557 10.036C8.4057 9.68804 8.4807 9.31604 8.4807 8.92004C8.4807 8.52404 8.4057 8.15204 8.2557 7.80404C8.1057 7.45604 7.8987 7.15004 7.6347 6.88604C7.3707 6.62204 7.0647 6.41504 6.7167 6.26504C6.3687 6.11504 5.99671 6.04004 5.6007 6.04004C5.2047 6.04004 4.83271 6.11504 4.4847 6.26504C4.1367 6.41504 3.8307 6.62204 3.5667 6.88604C3.3027 7.15004 3.0957 7.45604 2.9457 7.80404ZM4.5567 9.96404C4.2687 9.67604 4.1247 9.32804 4.1247 8.92004C4.1247 8.51204 4.2687 8.16404 4.5567 7.87604C4.8447 7.58804 5.1927 7.44404 5.6007 7.44404C6.00871 7.44404 6.3567 7.58804 6.6447 7.87604C6.9327 8.16404 7.0767 8.51204 7.0767 8.92004C7.0767 9.32804 6.9327 9.67604 6.6447 9.96404C6.3567 10.252 6.00871 10.396 5.6007 10.396C5.1927 10.396 4.8447 10.252 4.5567 9.96404Z" fill="#111014"/>
</g>
</svg>
