<svg width="24" height="24" viewBox="0 0 24 24" fill="none" xmlns="http://www.w3.org/2000/svg">
<g id="Property 2=Align-auto">
<path id="Combined Shape" opacity="0.3" fill-rule="evenodd" clip-rule="evenodd" d="M9.61765 5H3C2.44772 5 2 5.44772 2 6C2 6.55228 2.44772 7 3 7H8.73529L9.61765 5ZM7.85294 9H3C2.44772 9 2 9.44772 2 10C2 10.5523 2.44772 11 3 11H6.97059L7.85294 9ZM17.0294 11L16.1471 9H21C21.5523 9 22 9.44772 22 10C22 10.5523 21.5523 11 21 11H17.0294ZM6.08824 13H3C2.44772 13 2 13.4477 2 14C2 14.5523 2.44772 15 3 15H5.20588L6.08824 13ZM18.7941 15L17.9118 13H21C21.5523 13 22 13.4477 22 14C22 14.5523 21.5523 15 21 15H18.7941ZM4.32353 17H3C2.44772 17 2 17.4477 2 18C2 18.5523 2.44772 19 3 19H3.44118L4.32353 17ZM20.5588 19L19.6765 17H21C21.5523 17 22 17.4477 22 18C22 18.5523 21.5523 19 21 19H20.5588ZM15.2647 7L14.3824 5H21C21.5523 5 22 5.44772 22 6C22 6.55228 21.5523 7 21 7H15.2647Z" fill="#111014"/>
<path id="A" fill-rule="evenodd" clip-rule="evenodd" d="M11.044 5.25586H13.006L18.5 18.9999H16L14.716 15.0839H9.19L7.5 18.9999H5L11.044 5.25586ZM13.924 13.1399L11.962 7.95586L9.964 13.1399H13.924Z" fill="#111014"/>
</g>
</svg>
