<svg width="24" height="24" viewBox="0 0 24 24" fill="none" xmlns="http://www.w3.org/2000/svg">
<g id="Property 2=Git#4">
<path id="Oval 7" fill-rule="evenodd" clip-rule="evenodd" d="M2 5C2 7.20914 3.79086 9 6 9C8.20914 9 10 7.20914 10 5C10 2.79086 8.20914 1 6 1C3.79086 1 2 2.79086 2 5ZM8 5C8 6.10457 7.10457 7 6 7C4.89543 7 4 6.10457 4 5C4 3.89543 4.89543 3 6 3C7.10457 3 8 3.89543 8 5Z" fill="#111014"/>
<path id="Combined Shape" opacity="0.3" fill-rule="evenodd" clip-rule="evenodd" d="M15 10V12H9C8.27143 12 7.58835 11.8052 7 11.4649V17C7 18.1046 7.89543 19 9 19H15V21H9C6.79086 21 5 19.2091 5 17V8V7.5V7H7V7.5V8C7 9.10457 7.89543 10 9 10H15Z" fill="#111014"/>
<path id="Oval 7 Copy" fill-rule="evenodd" clip-rule="evenodd" d="M14 20C14 22.2091 15.7909 24 18 24C20.2091 24 22 22.2091 22 20C22 17.7909 20.2091 16 18 16C15.7909 16 14 17.7909 14 20ZM20 20C20 21.1046 19.1046 22 18 22C16.8954 22 16 21.1046 16 20C16 18.8954 16.8954 18 18 18C19.1046 18 20 18.8954 20 20Z" fill="#111014"/>
<path id="Oval 7 Copy 3" fill-rule="evenodd" clip-rule="evenodd" d="M14 11C14 13.2091 15.7909 15 18 15C20.2091 15 22 13.2091 22 11C22 8.79086 20.2091 7 18 7C15.7909 7 14 8.79086 14 11ZM20 11C20 12.1046 19.1046 13 18 13C16.8954 13 16 12.1046 16 11C16 9.89543 16.8954 9 18 9C19.1046 9 20 9.89543 20 11Z" fill="#111014"/>
</g>
</svg>
