<svg width="25" height="24" viewBox="0 0 25 24" fill="none" xmlns="http://www.w3.org/2000/svg">
<g id="Property 2=Gamepad#2">
<path id="Path 21" opacity="0.3" d="M12.9481 8.31623L11.0508 7.68377C11.8155 5.38965 13.0421 3.95855 14.7569 3.52986C15.6498 3.30665 16.9995 1.86951 16.9995 1H18.9995C18.9995 2.79716 17.0158 5.02668 15.242 5.47014C14.2901 5.70811 13.5168 6.61035 12.9481 8.31623Z" fill="#111014"/>
<path id="Combined Shape" fill-rule="evenodd" clip-rule="evenodd" d="M9.04803 6.77059C7.61315 5.94216 5.77838 6.43379 4.94995 7.86866L0.41219 15.7283C-0.416237 17.1632 0.0753888 18.9979 1.51027 19.8264L4.23121 21.3973C5.66609 22.2257 7.50086 21.7341 8.32929 20.2992L10.2342 16.9998H13.924L15.8307 20.3024C16.6591 21.7372 18.4939 22.2289 19.9288 21.4004L22.5343 19.8961C23.9692 19.0677 24.4608 17.2329 23.6324 15.798L19.0798 7.91263C18.2513 6.47775 16.4165 5.98612 14.9817 6.81455L14.6608 6.99982H9.44506L9.04803 6.77059ZM10.0007 11.9998C10.0007 13.1044 9.10526 13.9998 8.00069 13.9998C6.89612 13.9998 6.00069 13.1044 6.00069 11.9998C6.00069 10.8952 6.89612 9.99982 8.00069 9.99982C9.10526 9.99982 10.0007 10.8952 10.0007 11.9998ZM17.0007 11.9998C17.553 11.9998 18.0007 11.5521 18.0007 10.9998C18.0007 10.4475 17.553 9.99982 17.0007 9.99982C16.4484 9.99982 16.0007 10.4475 16.0007 10.9998C16.0007 11.5521 16.4484 11.9998 17.0007 11.9998ZM16.0007 12.9998C16.0007 13.5521 15.553 13.9998 15.0007 13.9998C14.4484 13.9998 14.0007 13.5521 14.0007 12.9998C14.0007 12.4475 14.4484 11.9998 15.0007 11.9998C15.553 11.9998 16.0007 12.4475 16.0007 12.9998Z" fill="#111014"/>
</g>
</svg>
