<svg width="24" height="24" viewBox="0 0 24 24" fill="none" xmlns="http://www.w3.org/2000/svg">
<g id="Property 2=Mute">
<path id="Combined Shape" opacity="0.3" fill-rule="evenodd" clip-rule="evenodd" d="M20.4148 14.8284C20.8053 15.219 21.4385 15.219 21.829 14.8284C22.2196 14.4379 22.2196 13.8047 21.829 13.4142L20.4148 12L21.829 10.5858C22.2196 10.1953 22.2196 9.5621 21.829 9.17157C21.4385 8.78105 20.8053 8.78105 20.4148 9.17157L19.0006 10.5858L17.5864 9.17157C17.1959 8.78105 16.5627 8.78105 16.1722 9.17157C15.7817 9.5621 15.7817 10.1953 16.1722 10.5858L17.5864 12L16.1722 13.4142C15.7817 13.8047 15.7817 14.4379 16.1722 14.8284C16.5627 15.219 17.1959 15.219 17.5864 14.8284L19.0006 13.4142L20.4148 14.8284Z" fill="#111014"/>
<path id="Combined Shape_2" fill-rule="evenodd" clip-rule="evenodd" d="M12 5.41412C12 4.52321 10.9229 4.07704 10.2929 4.70701L7 7.9999H4C2.89543 7.9999 2 8.89533 2 9.9999V13.9999C2 15.1045 2.89543 15.9999 4 15.9999H7L10.2929 19.2928C10.9229 19.9228 12 19.4766 12 18.5857V5.41412Z" fill="#111014"/>
</g>
</svg>
