<svg width="24" height="24" viewBox="0 0 24 24" fill="none" xmlns="http://www.w3.org/2000/svg">
<g id="Property 2=Router#1">
<path id="Combined Shape" fill-rule="evenodd" clip-rule="evenodd" d="M16 9C15.4477 9 15 9.44772 15 10V15H4C2.89543 15 2 15.8954 2 17V19C2 20.1046 2.89543 21 4 21H20C21.1046 21 22 20.1046 22 19V17C22 15.8954 21.1046 15 20 15H17V10C17 9.44772 16.5523 9 16 9ZM4 18C4 17.4477 4.44772 17 5 17H10C10.5523 17 11 17.4477 11 18C11 18.5523 10.5523 19 10 19H5C4.44772 19 4 18.5523 4 18Z" fill="#111014"/>
<path id="Combined Shape_2" opacity="0.3" fill-rule="evenodd" clip-rule="evenodd" d="M22.1363 6.57143L23.5 5.46053C21.66 3.28452 18.9341 2 15.9963 2C13.0626 2 10.3401 3.28094 8.5 5.4518L9.86238 6.56428C11.3692 4.78653 13.5947 3.73945 15.9963 3.73945C18.4012 3.73945 20.6295 4.78946 22.1363 6.57143ZM19.2133 8.85714L20.5 7.71557C19.3985 6.27833 17.7603 5.42857 15.9948 5.42857C14.235 5.42857 12.6016 6.27273 11.5 7.70192L12.7837 8.84738C13.5717 7.82497 14.7366 7.22293 15.9948 7.22293C17.257 7.22293 18.4253 7.82897 19.2133 8.85714Z" fill="#111014"/>
</g>
</svg>
