<svg width="24" height="24" viewBox="0 0 24 24" fill="none" xmlns="http://www.w3.org/2000/svg">
<g id="Property 2=Hard-drive">
<path id="Combined Shape" fill-rule="evenodd" clip-rule="evenodd" d="M2 13H22V18C22 19.1046 21.1046 20 20 20H4C2.89543 20 2 19.1046 2 18V13ZM18.5 18C19.3284 18 20 17.3284 20 16.5C20 15.6716 19.3284 15 18.5 15C17.6716 15 17 15.6716 17 16.5C17 17.3284 17.6716 18 18.5 18ZM15 16.5C15 17.3284 14.3284 18 13.5 18C12.6716 18 12 17.3284 12 16.5C12 15.6716 12.6716 15 13.5 15C14.3284 15 15 15.6716 15 16.5Z" fill="#111014"/>
<path id="Rectangle" opacity="0.3" d="M2 9C2 8.44772 2.44772 8 3 8H21C21.5523 8 22 8.44772 22 9V13H2V9Z" fill="#111014"/>
</g>
</svg>
