<svg width="24" height="24" viewBox="0 0 24 24" fill="none" xmlns="http://www.w3.org/2000/svg">
<g id="Property 2=Box#2">
<path id="Combined Shape" fill-rule="evenodd" clip-rule="evenodd" d="M4 9.67494L10.8803 13.6473C10.9543 13.69 11.032 13.7209 11.1111 13.7405V21.4447L4.4907 17.5267C4.18655 17.3467 4 17.0195 4 16.6661V9.67494ZM20 9.56934V16.6661C20 17.0195 19.8134 17.3467 19.5093 17.5267L12.8889 21.4447V13.673C12.905 13.665 12.921 13.6564 12.9368 13.6473L20 9.56934Z" fill="#111014"/>
<path id="Path" opacity="0.3" fill-rule="evenodd" clip-rule="evenodd" d="M4.2168 7.74707C4.30084 7.64095 4.40691 7.55126 4.53058 7.48539L11.5306 3.75703C11.8244 3.60052 12.1769 3.60052 12.4708 3.75703L19.4708 7.48539C19.5661 7.53616 19.651 7.6011 19.7234 7.6768L12.0486 12.1078C11.9982 12.137 11.9516 12.1703 11.9092 12.2071C11.8668 12.1703 11.8203 12.137 11.7698 12.1078L4.2168 7.74707Z" fill="#111014"/>
</g>
</svg>
