<svg width="24" height="24" viewBox="0 0 24 24" fill="none" xmlns="http://www.w3.org/2000/svg">
<g id="Property 2=Media-folder">
<path id="Combined Shape" opacity="0.3" fill-rule="evenodd" clip-rule="evenodd" d="M2 19.5C2 20.3284 2.67157 21 3.5 21H20.5C21.3284 21 22 20.3284 22 19.5V8.5C22 7.67157 21.3284 7 20.5 7H10L7.43934 4.43934C7.15804 4.15804 6.7765 4 6.37868 4H3.5C2.67157 4 2 4.67157 2 5.5V19.5Z" fill="#111014"/>
<path id="Path 10" fill-rule="evenodd" clip-rule="evenodd" d="M10 17.0975C10 17.4994 10.4503 17.7371 10.7822 17.5102L15.1856 14.5002C15.4755 14.3021 15.4762 13.8746 15.1868 13.6755L10.7834 10.6465C10.4516 10.4183 10 10.6558 10 11.0585V17.0975Z" fill="#111014"/>
</g>
</svg>
