<svg width="24" height="24" viewBox="0 0 24 24" fill="none" xmlns="http://www.w3.org/2000/svg">
<g id="Property 2=Rain#5">
<path id="Combined Shape" opacity="0.3" fill-rule="evenodd" clip-rule="evenodd" d="M6.61538 10.75C6.61538 11.9926 5.5822 13 4.30769 13C3.03319 13 2 11.9926 2 10.75C2 9.50736 4.30769 7 4.30769 7C4.30769 7 6.61538 9.50736 6.61538 10.75ZM22 10.75C22 11.9926 20.9668 13 19.6923 13C18.4178 13 17.3846 11.9926 17.3846 10.75C17.3846 9.50736 19.6923 7 19.6923 7C19.6923 7 22 9.50736 22 10.75ZM8.30769 20C9.5822 20 10.6154 18.9926 10.6154 17.75C10.6154 16.5074 8.30769 14 8.30769 14C8.30769 14 6 16.5074 6 17.75C6 18.9926 7.03319 20 8.30769 20ZM18.3077 17.75C18.3077 18.9926 17.2745 20 16 20C14.7255 20 13.6923 18.9926 13.6923 17.75C13.6923 16.5074 16 14 16 14C16 14 18.3077 16.5074 18.3077 17.75Z" fill="#111014"/>
<path id="Oval 2 Copy" fill-rule="evenodd" clip-rule="evenodd" d="M11.9991 13C13.2736 13 14.3068 11.9926 14.3068 10.75C14.3068 9.50736 11.9991 7 11.9991 7C11.9991 7 9.69141 9.50736 9.69141 10.75C9.69141 11.9926 10.7246 13 11.9991 13Z" fill="#111014"/>
</g>
</svg>
