<svg width="24" height="24" viewBox="0 0 24 24" fill="none" xmlns="http://www.w3.org/2000/svg">
<g id="Property 2=Folder-heart">
<path id="Combined Shape" opacity="0.3" fill-rule="evenodd" clip-rule="evenodd" d="M2 19.5C2 20.3284 2.67157 21 3.5 21H20.5C21.3284 21 22 20.3284 22 19.5V8.5C22 7.67157 21.3284 7 20.5 7H10L7.43934 4.43934C7.15804 4.15804 6.7765 4 6.37868 4H3.5C2.67157 4 2 4.67157 2 5.5V19.5Z" fill="#111014"/>
<path id="Shape" opacity="0.3" d="M14.3496 10.5C13.5449 10.5 12.6037 11.4123 12.0996 12C11.5955 11.4123 10.6544 10.5 9.84961 10.5C8.42511 10.5 7.59961 11.6111 7.59961 13.0252C7.59961 15.375 12.0996 18 12.0996 18C12.0996 18 16.5996 15.375 16.5996 13.125C16.5996 11.7109 15.7741 10.5 14.3496 10.5Z" fill="#111014"/>
</g>
</svg>
