<svg width="24" height="24" viewBox="0 0 24 24" fill="none" xmlns="http://www.w3.org/2000/svg">
<g id="Property 2=Double-check">
<path id="Path 94 Copy" opacity="0.3" d="M20.738 5.35234C21.0957 4.93153 21.7268 4.88036 22.1476 5.23804C22.5684 5.59573 22.6196 6.22682 22.2619 6.64763L13.7619 16.6476C13.3986 17.075 12.7549 17.1201 12.3356 16.7474L7.83562 12.7474C7.42283 12.3805 7.38565 11.7484 7.75257 11.3356C8.11949 10.9228 8.75156 10.8857 9.16434 11.2526L12.9002 14.5733L20.738 5.35234Z" fill="#111014"/>
<path id="Path 94" d="M15.738 6.35234C16.0957 5.93153 16.7268 5.88036 17.1476 6.23804C17.5684 6.59573 17.6196 7.22682 17.2619 7.64763L8.76192 17.6476C8.39862 18.075 7.75488 18.1201 7.33562 17.7474L2.83562 13.7474C2.42283 13.3805 2.38565 12.7484 2.75257 12.3356C3.11949 11.9228 3.75156 11.8857 4.16434 12.2526L7.90019 15.5733L15.738 6.35234Z" fill="#111014"/>
</g>
</svg>
