<svg width="24" height="24" viewBox="0 0 24 24" fill="none" xmlns="http://www.w3.org/2000/svg">
<g id="Property 2=Hanger">
<path id="Path 38" d="M18.2642 18L9.90953 10.9507C8.2449 9.54617 8.03405 7.05812 9.43858 5.3935C10.1269 4.57772 11.1165 4.07579 12.1813 4.00235C14.1702 3.86519 15.8936 5.36628 16.0308 7.35512C16.105 8.43043 15.6947 9.48263 14.9122 10.2239L13.5367 8.77202C13.8857 8.44145 14.0686 7.97224 14.0355 7.49272C13.9744 6.60583 13.2058 5.93645 12.3189 5.99761C11.7941 6.03381 11.3064 6.28118 10.9672 6.68324C10.2749 7.50365 10.3789 8.72989 11.1993 9.42211L20.5995 17.3535C20.9373 17.6386 21.1322 18.058 21.1322 18.5C21.1322 19.3284 20.4606 20 19.6322 20H4.02744C3.54963 20 3.1004 19.7723 2.81784 19.387C2.32794 18.719 2.47235 17.7803 3.1404 17.2904L9.40876 12.6936L10.5915 14.3064L5.55477 18H18.2642Z" fill="#111014"/>
</g>
</svg>
