<svg width="24" height="24" viewBox="0 0 24 24" fill="none" xmlns="http://www.w3.org/2000/svg">
<g id="Property 2=Flower#1">
<path id="Path 36 Copy 2" opacity="0.3" fill-rule="evenodd" clip-rule="evenodd" d="M5.13435 2.03613C5.13435 2.03613 15.5517 7.85032 12.6343 15.0265C5.17742 13.8399 5.13435 2.03613 5.13435 2.03613Z" fill="#111014"/>
<path id="Path 36 Copy 3" opacity="0.3" fill-rule="evenodd" clip-rule="evenodd" d="M18.7407 2.03613C18.7407 2.03613 8.32332 7.85032 11.2407 15.0265C18.6976 13.8399 18.7407 2.03613 18.7407 2.03613Z" fill="#111014"/>
<path id="Path 36" opacity="0.3" fill-rule="evenodd" clip-rule="evenodd" d="M12 1C12 1 5.88542 11.2439 12 16C17.8646 11.2439 12 1 12 1Z" fill="#111014"/>
<path id="Rectangle 71" d="M5.61719 14C5.61719 13.4477 6.0649 13 6.61719 13H17.3807C17.933 13 18.3807 13.4477 18.3807 14V21C18.3807 22.1046 17.4853 23 16.3807 23H7.61719C6.51262 23 5.61719 22.1046 5.61719 21V14Z" fill="#111014"/>
</g>
</svg>
