<svg width="24" height="24" viewBox="0 0 24 24" fill="none" xmlns="http://www.w3.org/2000/svg">
<g id="Property 2=Wine">
<path id="Combined Shape" opacity="0.3" fill-rule="evenodd" clip-rule="evenodd" d="M13 15.5H11V21H10C8.89543 21 8 21.8954 8 23H16C16 21.8954 15.1046 21 14 21H13V15.5Z" fill="#111014"/>
<path id="Rectangle 111" fill-rule="evenodd" clip-rule="evenodd" d="M15.7141 2H8.28607C7.05306 2 6.02793 2.9284 5.93336 4.1307L5.45857 10.1671C5.44583 10.3291 5.43945 10.4914 5.43945 10.6538C5.43945 14.1587 8.34471 17 11.9285 17H12.0717C12.2378 17 12.4038 16.9938 12.5694 16.9813C16.1426 16.7125 18.8165 13.6617 18.5416 10.1671L18.0668 4.1307C17.9723 2.9284 16.9471 2 15.7141 2ZM7.50013 8L8.00013 4H16.0001C16.0001 4 16.4065 6.80922 16.5001 8H7.50013Z" fill="#111014"/>
</g>
</svg>
