<svg width="24" height="24" viewBox="0 0 24 24" fill="none" xmlns="http://www.w3.org/2000/svg">
<g id="Property 2=Movie-lane#1">
<path id="Combined Shape" opacity="0.3" fill-rule="evenodd" clip-rule="evenodd" d="M21 12C21 16.9706 16.9706 21 12 21C7.02944 21 3 16.9706 3 12C3 7.02944 7.02944 3 12 3C16.9706 3 21 7.02944 21 12ZM12.7753 12.2929C12.7753 12.8452 12.3275 13.2929 11.7753 13.2929C11.223 13.2929 10.7753 12.8452 10.7753 12.2929C10.7753 11.7406 11.223 11.2929 11.7753 11.2929C12.3275 11.2929 12.7753 11.7406 12.7753 12.2929ZM11.2235 9.10222C12.2905 8.81634 12.9236 7.71967 12.6378 6.65273C12.3519 5.5858 11.2552 4.95264 10.1883 5.23852C9.12133 5.5244 8.48817 6.62108 8.77405 7.68801C9.05994 8.75494 10.1566 9.38811 11.2235 9.10222ZM15.2259 16.312C15.5118 17.3789 14.8787 18.4756 13.8117 18.7615C12.7448 19.0474 11.6481 18.4142 11.3622 17.3473C11.0764 16.2803 11.7095 15.1837 12.7765 14.8978C13.8434 14.6119 14.9401 15.2451 15.2259 16.312ZM7.68801 15.2259C8.75494 14.9401 9.38811 13.8434 9.10222 12.7765C8.81634 11.7095 7.71967 11.0764 6.65273 11.3622C5.5858 11.6481 4.95264 12.7448 5.23852 13.8117C5.5244 14.8787 6.62108 15.5118 7.68801 15.2259ZM18.7615 10.1883C19.0474 11.2552 18.4142 12.3519 17.3473 12.6378C16.2803 12.9236 15.1837 12.2905 14.8978 11.2235C14.6119 10.1566 15.2451 9.05994 16.312 8.77405C17.3789 8.48817 18.4756 9.12133 18.7615 10.1883Z" fill="#111014"/>
<path id="Combined Shape_2" fill-rule="evenodd" clip-rule="evenodd" d="M17.6573 19C16.1116 20.2508 14.1433 21 12 21H21C21.5523 21 22 20.5523 22 20C22 19.4477 21.5523 19 21 19H17.6573Z" fill="#111014"/>
</g>
</svg>
