<svg width="24" height="24" viewBox="0 0 24 24" fill="none" xmlns="http://www.w3.org/2000/svg">
<g id="Property 2=Layout-top-panel-5">
<path id="Combined Shape" fill-rule="evenodd" clip-rule="evenodd" d="M2 5C2 4.44772 2.44772 4 3 4H20C20.5523 4 21 4.44772 21 5V7C21 7.55228 20.5523 8 20 8H3C2.44771 8 2 7.55228 2 7V5ZM9 11C9 10.4477 9.44772 10 10 10H20C20.5523 10 21 10.4477 21 11V13C21 13.5523 20.5523 14 20 14H10C9.44771 14 9 13.5523 9 13V11ZM10 16C9.44772 16 9 16.4477 9 17V19C9 19.5523 9.44771 20 10 20H20C20.5523 20 21 19.5523 21 19V17C21 16.4477 20.5523 16 20 16H10Z" fill="#111014"/>
<rect id="Rectangle 7 Copy 2" opacity="0.3" x="2" y="10" width="5" height="10" rx="1" fill="#111014"/>
</g>
</svg>
