<svg width="24" height="24" viewBox="0 0 24 24" fill="none" xmlns="http://www.w3.org/2000/svg">
<g id="Property 2=Layout-3d">
<path id="Combined Shape" fill-rule="evenodd" clip-rule="evenodd" d="M1.5 5C0.671573 5 0 5.67157 0 6.5V17.5C0 18.3284 0.671573 19 1.5 19H4.5C5.32843 19 6 18.3284 6 17.5V6.5C6 5.67157 5.32843 5 4.5 5H1.5ZM18.5 5C17.6716 5 17 5.67157 17 6.5V17.5C17 18.3284 17.6716 19 18.5 19H22.5C23.3284 19 24 18.3284 24 17.5V6.5C24 5.67157 23.3284 5 22.5 5H18.5Z" fill="#111014"/>
<rect id="Rectangle 7 Copy 2" opacity="0.3" x="8" y="5" width="7" height="14" rx="1.5" fill="#111014"/>
</g>
</svg>
