<svg width="24" height="24" viewBox="0 0 24 24" fill="none" xmlns="http://www.w3.org/2000/svg">
<g id="Property 2=Knife&#38;fork#1">
<path id="Combined Shape" fill-rule="evenodd" clip-rule="evenodd" d="M6 3H5V7.5C5 9.433 6.567 11 8.5 11C10.433 11 12 9.433 12 7.5V3H11L10.5498 7.50248C10.5215 7.78492 10.2838 8 10 8C9.71616 8 9.47849 7.78492 9.45025 7.50248L9 3H8L7.54975 7.50248C7.52151 7.78492 7.28384 8 7 8C6.71616 8 6.47849 7.78492 6.45025 7.50248L6 3Z" fill="#111014"/>
<rect id="Rectangle" opacity="0.3" x="7.08008" y="13" width="2.838" height="9" rx="1.419" fill="#111014"/>
<rect id="Rectangle Copy" opacity="0.3" x="16.0918" y="15" width="2.8184" height="7" rx="1.4092" fill="#111014"/>
<path id="Path 65" fill-rule="evenodd" clip-rule="evenodd" d="M19 3V13H15V7C15 4.79086 16.7909 3 19 3Z" fill="#111014"/>
</g>
</svg>
