<svg width="24" height="24" viewBox="0 0 24 24" fill="none" xmlns="http://www.w3.org/2000/svg">
<g id="Property 2=Cloudy-night">
<path id="Combined Shape" opacity="0.3" fill-rule="evenodd" clip-rule="evenodd" d="M16.2284 3.20436C16.0948 4.04334 16.1735 4.92765 16.4999 5.77781C17.4842 8.34218 20.351 9.62981 22.9186 8.6694C22.6472 10.3745 21.499 11.8924 19.7711 12.5557C17.1931 13.5453 14.301 12.2576 13.3114 9.67962C12.3218 7.10161 13.6094 4.20948 16.1874 3.21988C16.2011 3.21464 16.2147 3.20947 16.2284 3.20436Z" fill="#111014"/>
<path id="Combined Shape_2" fill-rule="evenodd" clip-rule="evenodd" d="M14.811 11.5C14.1449 8.91216 11.7958 7 9 7C5.68629 7 3 9.68629 3 13C3 15.1148 4.0941 16.974 5.74715 18.0426C6.41093 18.6379 7.28818 19 8.25 19H9H17.25C19.3211 19 21 17.3211 21 15.25C21 13.1789 19.3211 11.5 17.25 11.5H14.811Z" fill="#111014"/>
</g>
</svg>
