<svg width="24" height="24" viewBox="0 0 24 24" fill="none" xmlns="http://www.w3.org/2000/svg">
<g id="Property 2=Cheese">
<path id="Combined Shape" fill-rule="evenodd" clip-rule="evenodd" d="M22 7H2V19C2 20.1046 2.89543 21 4 21H5H10C10 19.8954 10.8954 19 12 19C13.1046 19 14 19.8954 14 21H20C21.1046 21 22 20.1046 22 19V13.9146C21.8436 13.9699 21.6753 14 21.5 14C20.6716 14 20 13.3284 20 12.5C20 11.6716 20.6716 11 21.5 11C21.6753 11 21.8436 11.0301 22 11.0854V7ZM5 21C4.44772 21 4 20.5523 4 20C4 19.4477 4.44772 19 5 19C5.55228 19 6 19.4477 6 20C6 20.5523 5.55228 21 5 21ZM13 13C13 15.2091 11.2091 17 9 17C6.79086 17 5 15.2091 5 13C5 10.7909 6.79086 9 9 9C11.2091 9 13 10.7909 13 13ZM18 18C18.5523 18 19 17.5523 19 17C19 16.4477 18.5523 16 18 16C17.4477 16 17 16.4477 17 17C17 17.5523 17.4477 18 18 18Z" fill="#111014"/>
<path id="Path 98" opacity="0.3" fill-rule="evenodd" clip-rule="evenodd" d="M22 6.99969C21.0997 6.83089 20.5052 5.94148 19.5955 5.83445L4.60884 4.07132C4.23525 4.02737 3.86861 4.19679 3.65995 4.50977L2 6.99969H22Z" fill="#111014"/>
</g>
</svg>
