<svg width="24" height="24" viewBox="0 0 24 24" fill="none" xmlns="http://www.w3.org/2000/svg">
<g id="Property 2=Cookie">
<path id="Star 3" opacity="0.3" fill-rule="evenodd" clip-rule="evenodd" d="M12 20.66L9.46441 20.6354L7.31806 19.2852L5.19825 17.8937L4.1226 15.5975L3.09161 13.2808L3.42816 10.7676L3.81331 8.26126L5.45522 6.32891L7.13423 4.42872L9.5602 3.6908L12 3L14.4398 3.6908L16.8658 4.42872L18.5448 6.32891L20.1867 8.26126L20.5718 10.7676L20.9084 13.2808L19.8774 15.5975L18.8017 17.8937L16.6819 19.2852L14.5356 20.6354L12 20.66Z" fill="#111014"/>
<path id="Oval" opacity="0.3" fill-rule="evenodd" clip-rule="evenodd" d="M8.5 15C9.32843 15 10 14.3284 10 13.5C10 12.6716 9.32843 12 8.5 12C7.67157 12 7 12.6716 7 13.5C7 14.3284 7.67157 15 8.5 15Z" fill="#111014"/>
<path id="Oval Copy" opacity="0.3" fill-rule="evenodd" clip-rule="evenodd" d="M13.5 9C14.3284 9 15 8.32843 15 7.5C15 6.67157 14.3284 6 13.5 6C12.6716 6 12 6.67157 12 7.5C12 8.32843 12.6716 9 13.5 9Z" fill="#111014"/>
<path id="Oval Copy 2" opacity="0.3" fill-rule="evenodd" clip-rule="evenodd" d="M14.5 17C15.3284 17 16 16.3284 16 15.5C16 14.6716 15.3284 14 14.5 14C13.6716 14 13 14.6716 13 15.5C13 16.3284 13.6716 17 14.5 17Z" fill="#111014"/>
</g>
</svg>
