<svg width="24" height="24" viewBox="0 0 24 24" fill="none" xmlns="http://www.w3.org/2000/svg">
<g id="Property 2=Compiled-file">
<path id="Combined Shape" opacity="0.3" d="M5.85714 2H13.7364C14.0911 2 14.4343 2.12568 14.7051 2.35474L19.4687 6.38394C19.8057 6.66895 20 7.08788 20 7.5292V20.0833C20 21.8739 19.9796 22 18.1429 22H5.85714C4.02045 22 4 21.8739 4 20.0833V3.91667C4 2.12612 4.02045 2 5.85714 2Z" fill="#111014"/>
<rect id="Rectangle 41" opacity="0.3" x="6.76172" y="12.127" width="3.14286" height="3.14286" rx="0.75" transform="rotate(-45 6.76172 12.127)" fill="#111014"/>
<rect id="Rectangle 41 Copy" opacity="0.3" x="13.0469" y="12.127" width="3.14286" height="3.14286" rx="0.75" transform="rotate(-45 13.0469 12.127)" fill="#111014"/>
<rect id="Rectangle 41 Copy 3" x="9.9043" y="15.27" width="3.14286" height="3.14286" rx="0.75" transform="rotate(-45 9.9043 15.27)" fill="#111014"/>
<rect id="Rectangle 41 Copy 4" x="9.9043" y="8.98438" width="3.14286" height="3.14286" rx="0.75" transform="rotate(-45 9.9043 8.98438)" fill="#111014"/>
</g>
</svg>
