<svg width="24" height="24" viewBox="0 0 24 24" fill="none" xmlns="http://www.w3.org/2000/svg">
<g id="Property 2=Music-note">
<path id="Combined Shape" fill-rule="evenodd" clip-rule="evenodd" d="M11.9785 18.8007C11.9927 18.7241 12 18.641 12 18.5512V18.5V8C12 8 16.0263 7.23253 17 7C17.4512 6.89226 18 6.51789 18 5.93171V4.17317C18 3.38226 17.2639 2.81827 16.5394 3.05418L10.7894 4.81272C10.3198 4.96567 10 5.41894 10 5.93171V16.1423C9.68722 16.0501 9.35064 16 9 16C7.34315 16 6 17.1193 6 18.5C6 19.8807 7.34315 21 9 21C10.5347 21 11.8003 20.0396 11.9785 18.8007Z" fill="#111014"/>
</g>
</svg>
