<svg width="24" height="24" viewBox="0 0 24 24" fill="none" xmlns="http://www.w3.org/2000/svg">
<g id="Property 2=Hidden">
<path id="Combined Shape" fill-rule="evenodd" clip-rule="evenodd" d="M11.0957 17.9605C11.3881 17.9863 11.6895 17.9998 12.0002 17.9998C16.9093 17.9998 21.0002 11.9998 21.0002 11.9998C21.0002 11.9998 20.3306 11.0177 19.2081 9.84814L11.0957 17.9605Z" fill="#111014"/>
<path id="Combined Shape_2" fill-rule="evenodd" clip-rule="evenodd" d="M14.5051 6.49485C13.7076 6.18695 12.8665 6 12 6C5.45455 6 3 12 3 12C3 12 3.75006 13.8335 5.52661 15.4734L9 12C9 10.3431 10.3431 9 12 9L14.5051 6.49485Z" fill="#111014"/>
<rect id="Rectangle" opacity="0.3" x="5.09961" y="18.4351" width="19" height="2" transform="rotate(-45 5.09961 18.4351)" fill="#111014"/>
</g>
</svg>
