<svg width="24" height="24" viewBox="0 0 24 24" fill="none" xmlns="http://www.w3.org/2000/svg">
<g id="Property 2=Upload">
<path id="Path 57" opacity="0.3" d="M2 13C2 12.5 2.5 12 3 12C3.5 12 4 12.5 4 13C4 13.5 4 18 4 18C4 19.1046 4.89543 20 6 20H18C19.1046 20 20 19.1046 20 18V13C20 12.4477 20.4477 12 21 12C21.5523 12 22 12.4477 22 13V18C22 20.2091 20.2091 22 18 22H6C3.79086 22 2 20.2091 2 18C2 18 2 13.5 2 13Z" fill="#111014"/>
<rect id="Rectangle" opacity="0.3" x="11" y="2" width="2" height="14" rx="1" fill="#111014"/>
<path id="Path 102" d="M12.0362 3.37798L7.70711 7.70711C7.31658 8.09763 6.68342 8.09763 6.29289 7.70711C5.90237 7.31658 5.90237 6.68342 6.29289 6.2929L11.2929 1.2929C11.669 0.916813 12.2736 0.900912 12.669 1.25671L17.669 5.75671C18.0795 6.12617 18.1128 6.75846 17.7433 7.16897C17.3738 7.57948 16.7415 7.61276 16.331 7.2433L12.0362 3.37798Z" fill="#111014"/>
</g>
</svg>
