<svg width="24" height="24" viewBox="0 0 24 24" fill="none" xmlns="http://www.w3.org/2000/svg">
<g id="Property 2=Chicken">
<g id="Group">
<path id="Rectangle 144" d="M11.3642 4.36823C13.7853 1.9471 17.7108 1.9471 20.1319 4.36823C22.553 6.78937 22.553 10.7148 20.1319 13.136L13.7408 19.5271C13.4433 19.8246 12.9609 19.8246 12.6633 19.5271L4.97309 11.8368C4.67554 11.5393 4.67554 11.0569 4.97309 10.7593L11.3642 4.36823Z" fill="#111014"/>
<path id="Combined Shape" opacity="0.3" fill-rule="evenodd" clip-rule="evenodd" d="M6.34383 16.0362L8.46515 18.1575L6.99058 19.6321C7.25693 20.1897 7.1592 20.8777 6.69738 21.3395C6.11159 21.9253 5.16185 21.9253 4.57606 21.3395C4.3044 21.0679 4.15873 20.7179 4.13903 20.3623C3.78343 20.3426 3.4335 20.1969 3.16185 19.9253C2.57606 19.3395 2.57606 18.3898 3.16185 17.804C3.62366 17.3422 4.31169 17.2444 4.86926 17.5108L6.34383 16.0362Z" fill="#111014"/>
</g>
</g>
</svg>
