<svg width="24" height="24" viewBox="0 0 24 24" fill="none" xmlns="http://www.w3.org/2000/svg">
<g id="Property 2=Folder-Music">
<path id="Combined Shape" opacity="0.3" d="M5.85714 2H13.7364C14.0911 2 14.4343 2.12568 14.7051 2.35474L19.4687 6.38394C19.8057 6.66895 20 7.08788 20 7.5292V20.0833C20 21.8739 19.9796 22 18.1429 22H5.85714C4.02045 22 4 21.8739 4 20.0833V3.91667C4 2.12612 4.02045 2 5.85714 2Z" fill="#111014"/>
<path id="Combined Shape_2" fill-rule="evenodd" clip-rule="evenodd" d="M9.83333 17C8.82081 17 8 16.316 8 15.4722C8 14.6285 8.82081 13.9444 9.83333 13.9444C10.0476 13.9444 10.2533 13.9751 10.4444 14.0314V9.7916C10.4444 9.47824 10.6399 9.20124 10.9269 9.10777L14.4408 8.03311C14.8835 7.88894 15.3333 8.2336 15.3333 8.71694V9.7916C15.3333 10.1498 14.9979 10.3786 14.7222 10.4444C14.3255 10.5392 13.307 10.7429 11.6667 11.0556V15.5035C11.6667 15.5584 11.6622 15.6092 11.6535 15.656C11.5446 16.4131 10.7712 17 9.83333 17Z" fill="#111014"/>
</g>
</svg>
