<svg width="24" height="24" viewBox="0 0 24 24" fill="none" xmlns="http://www.w3.org/2000/svg">
<g id="Property 2=Bold">
<path id="B" fill-rule="evenodd" clip-rule="evenodd" d="M7.33984 18.9998V4.7998H12.6798C14.9998 4.7998 16.8998 6.6998 16.8998 9.0198C16.8998 10.0198 16.5198 10.8398 15.8998 11.4598C17.0998 12.0998 17.8998 13.2598 17.8998 14.7798C17.8998 17.1198 15.9998 18.9998 13.5998 18.9998H7.33984ZM10.5398 16.0598H13.2998C14.1598 16.0598 14.7798 15.4398 14.7798 14.6598C14.7798 13.8798 14.1598 13.2398 13.2998 13.2398H10.5398V16.0598ZM10.5398 10.5398H12.3198C13.1798 10.5398 13.7998 9.9198 13.7998 9.1398C13.7998 8.3598 13.1798 7.7198 12.3198 7.7198H10.5398V10.5398Z" fill="#111014"/>
</g>
</svg>
