<svg width="24" height="24" viewBox="0 0 24 24" fill="none" xmlns="http://www.w3.org/2000/svg">
<g id="Property 2=Briefcase">
<path id="Combined Shape" fill-rule="evenodd" clip-rule="evenodd" d="M5.17383 8C4.06926 8 3.17383 8.89543 3.17383 10V18C3.17383 19.1046 4.06926 20 5.17383 20H18.8267C19.9313 20 20.8267 19.1046 20.8267 18V10C20.8267 8.89543 19.9313 8 18.8267 8H5.17383ZM10.5002 10C10.2241 10 10.0002 10.2239 10.0002 10.5V11.5C10.0002 11.7761 10.2241 12 10.5002 12H13.5002C13.7764 12 14.0002 11.7761 14.0002 11.5V10.5C14.0002 10.2239 13.7764 10 13.5002 10H10.5002Z" fill="#111014"/>
<path id="Path 53" opacity="0.3" d="M10 8H8V7C8 5.34315 9.34315 4 11 4H13C14.6569 4 16 5.34315 16 7V8H14V7C14 6.44772 13.5523 6 13 6H11C10.4477 6 10 6.44772 10 7V8Z" fill="#111014"/>
</g>
</svg>
