<svg width="24" height="24" viewBox="0 0 24 24" fill="none" xmlns="http://www.w3.org/2000/svg">
<g id="Property 2=Horizontal">
<path id="Combined Shape" fill-rule="evenodd" clip-rule="evenodd" d="M6 12C6 11.4477 5.55228 11 5 11H4C3.44772 11 3 11.4477 3 12C3 12.5523 3.44772 13 4 13H5C5.55228 13 6 12.5523 6 12ZM10 11C10.5523 11 11 11.4477 11 12C11 12.5523 10.5523 13 10 13H9C8.44772 13 8 12.5523 8 12C8 11.4477 8.44772 11 9 11H10ZM16 12C16 11.4477 15.5523 11 15 11H14C13.4477 11 13 11.4477 13 12C13 12.5523 13.4477 13 14 13H15C15.5523 13 16 12.5523 16 12ZM21 12C21 11.4477 20.5523 11 20 11H19C18.4477 11 18 11.4477 18 12C18 12.5523 18.4477 13 19 13H20C20.5523 13 21 12.5523 21 12Z" fill="#111014"/>
<path id="Combined Shape_2" opacity="0.3" fill-rule="evenodd" clip-rule="evenodd" d="M9.04 3C8.62075 3 8.38766 3.48497 8.64957 3.81235L11.6093 7.51196C11.8094 7.76216 12.19 7.76216 12.3901 7.51196L15.3498 3.81235C15.6117 3.48497 15.3786 3 14.9594 3H9.04ZM14.9594 21C15.3786 21 15.6117 20.515 15.3498 20.1877L12.3901 16.488C12.19 16.2378 11.8094 16.2378 11.6093 16.488L8.64957 20.1877C8.38766 20.515 8.62075 21 9.04 21H14.9594Z" fill="#111014"/>
</g>
</svg>
