<svg width="24" height="24" viewBox="0 0 24 24" fill="none" xmlns="http://www.w3.org/2000/svg">
<g id="Property 2=Volume-up">
<path id="Combined Shape" opacity="0.3" fill-rule="evenodd" clip-rule="evenodd" d="M18 15C18 15.5523 18.4477 16 19 16C19.5523 16 20 15.5523 20 15V13H22C22.5523 13 23 12.5523 23 12C23 11.4477 22.5523 11 22 11H20V9C20 8.44772 19.5523 8 19 8C18.4477 8 18 8.44772 18 9V11H16C15.4477 11 15 11.4477 15 12C15 12.5523 15.4477 13 16 13H18V15Z" fill="#111014"/>
<path id="Combined Shape_2" fill-rule="evenodd" clip-rule="evenodd" d="M12 5.41412C12 4.52321 10.9229 4.07704 10.2929 4.70701L7 7.9999H4C2.89543 7.9999 2 8.89533 2 9.9999V13.9999C2 15.1045 2.89543 15.9999 4 15.9999H7L10.2929 19.2928C10.9229 19.9228 12 19.4766 12 18.5857V5.41412Z" fill="#111014"/>
</g>
</svg>
