<svg width="24" height="24" viewBox="0 0 24 24" fill="none" xmlns="http://www.w3.org/2000/svg">
<g id="Property 2=Media-library#1">
<rect id="Combined Shape" opacity="0.3" x="2" y="9" width="20" height="13" rx="2" fill="#111014"/>
<rect id="Rectangle 116 Copy" opacity="0.3" x="5" y="5" width="14" height="2" rx="0.5" fill="#111014"/>
<rect id="Rectangle 116 Copy 2" opacity="0.3" x="7" y="1" width="10" height="2" rx="0.5" fill="#111014"/>
<path id="Combined Shape_2" fill-rule="evenodd" clip-rule="evenodd" d="M10.8333 20C9.82081 20 9 19.316 9 18.4722C9 17.6285 9.82081 16.9444 10.8333 16.9444C11.0476 16.9444 11.2533 16.9751 11.4444 17.0314V12.7916C11.4444 12.4782 11.6399 12.2012 11.9269 12.1078L15.4408 11.0331C15.8835 10.8889 16.3333 11.2336 16.3333 11.7169V12.7916C16.3333 13.1498 15.9979 13.3786 15.7222 13.4444C15.3255 13.5392 14.307 13.7429 12.6667 14.0556V18.5035C12.6667 18.5584 12.6622 18.6092 12.6535 18.656C12.5446 19.4131 11.7712 20 10.8333 20Z" fill="#111014"/>
</g>
</svg>
