<svg width="24" height="24" viewBox="0 0 24 24" fill="none" xmlns="http://www.w3.org/2000/svg">
<g id="Property 2=Blender">
<path id="Combined Shape" fill-rule="evenodd" clip-rule="evenodd" d="M5.95304 3.01642C5.97701 3.01642 6.0009 3.01695 6.02473 3.018C6.10057 2.99517 10.3205 2.99406 18.6846 3.01467C18.775 3.01489 18.865 3.02737 18.952 3.05177C19.4838 3.20081 19.7941 3.75273 19.645 4.28452L19.4445 5H15C14.4477 5 14 5.44772 14 6C14 6.55228 14.4477 7 15 7H18.884L18.3235 9H15C14.4477 9 14 9.44772 14 10C14 10.5523 14.4477 11 15 11H17.763L17.2024 13H15C14.4477 13 14 13.4477 14 14C14 14.5523 14.4477 15 15 15H16.6419L16.0012 17.2863C15.8802 17.718 15.4866 18.0164 15.0383 18.0164L7.9687 18.0164C7 18.0164 5.9687 13.7035 5.9687 13.7035C4.82174 12.9484 3 10.9112 3 8.51642C3 5.47885 4.32212 3.01642 5.95304 3.01642ZM6.44522 5.01642C5.46087 5.51642 4.9687 6.14853 4.9687 8.01642C4.9687 10.0962 6.2234 11.0164 6.44522 11.0164V5.01642Z" fill="#111014"/>
<path id="Combined Shape_2" opacity="0.3" fill-rule="evenodd" clip-rule="evenodd" d="M6 19C4.89543 19 4 19.8954 4 21V22.5C4 22.7761 4.22386 23 4.5 23H17.5C17.7761 23 18 22.7761 18 22.5V21C18 19.8954 17.1046 19 16 19H6ZM12 21C12 21.5523 11.5523 22 11 22C10.4477 22 10 21.5523 10 21C10 20.4477 10.4477 20 11 20C11.5523 20 12 20.4477 12 21Z" fill="#111014"/>
</g>
</svg>
