<svg width="24" height="24" viewBox="0 0 24 24" fill="none" xmlns="http://www.w3.org/2000/svg">
<g id="Property 2=Storm">
<rect id="Rectangle 74" x="8" y="2" width="14" height="2" rx="1" fill="#111014"/>
<path id="Combined Shape" opacity="0.3" fill-rule="evenodd" clip-rule="evenodd" d="M5 7C5 6.44772 5.44772 6 6 6H18C18.5523 6 19 6.44772 19 7C19 7.55228 18.5523 8 18 8H6C5.44772 8 5 7.55228 5 7ZM7 11C7 10.4477 7.44772 10 8 10H15C15.5523 10 16 10.4477 16 11C16 11.5523 15.5523 12 15 12H8C7.44772 12 7 11.5523 7 11ZM11 14C10.4477 14 10 14.4477 10 15C10 15.5523 10.4477 16 11 16H17C17.5523 16 18 15.5523 18 15C18 14.4477 17.5523 14 17 14H11ZM11 19C11 18.4477 11.4477 18 12 18H15C15.5523 18 16 18.4477 16 19C16 19.5523 15.5523 20 15 20H12C11.4477 20 11 19.5523 11 19ZM11 21C10.4477 21 10 21.4477 10 22C10 22.5523 10.4477 23 11 23H12C12.5523 23 13 22.5523 13 22C13 21.4477 12.5523 21 12 21H11Z" fill="#111014"/>
</g>
</svg>
