<svg width="24" height="24" viewBox="0 0 24 24" fill="none" xmlns="http://www.w3.org/2000/svg">
<g id="Property 2=Clock">
<path id="Mask" opacity="0.3" fill-rule="evenodd" clip-rule="evenodd" d="M12 22C7.02944 22 3 17.9706 3 13C3 8.02944 7.02944 4 12 4C16.9706 4 21 8.02944 21 13C21 17.9706 16.9706 22 12 22Z" fill="#111014"/>
<path id="Path 107" fill-rule="evenodd" clip-rule="evenodd" d="M11.4636 7.96165C11.4836 7.70115 11.7008 7.5 11.9621 7.5H12.0466C12.3035 7.5 12.5186 7.69465 12.5441 7.95025L12.9991 12.5L16.2472 14.356C16.4029 14.4451 16.4991 14.6107 16.4991 14.7902V14.8454C16.4991 15.1751 16.1856 15.4145 15.8675 15.3278L11.3978 14.1087C11.1664 14.0456 11.0124 13.8271 11.0308 13.588L11.4636 7.96165Z" fill="#111014"/>
</g>
</svg>
