<svg width="24" height="24" viewBox="0 0 24 24" fill="none" xmlns="http://www.w3.org/2000/svg">
<g id="Property 2=Toilet">
<rect id="Rectangle 139" opacity="0.3" x="6" y="1" width="12" height="4" rx="1" fill="#111014"/>
<path id="Combined Shape" fill-rule="evenodd" clip-rule="evenodd" d="M6.06639 8C6.06639 6.89543 6.96182 6 8.06639 6H17.4337C17.7098 6 17.9337 6.22386 17.9337 6.5V13.3809C17.9774 13.746 18 14.1197 18 14.5C18 18.6421 15.3137 22 12 22C8.68629 22 6 18.6421 6 14.5C6 13.8678 6.06258 13.2538 6.18042 12.6673C6.10658 12.4586 6.06639 12.234 6.06639 12V8ZM16 15C16 17.7614 14.2091 20 12 20C9.79086 20 8 17.7614 8 15C8 12.2386 9.79086 10 12 10C14.2091 10 16 12.2386 16 15Z" fill="#111014"/>
<path id="Rectangle 141" opacity="0.3" d="M10.5 14.5C10.5 14.2239 10.7239 14 11 14H13C13.2761 14 13.5 14.2239 13.5 14.5V15.5C13.5 16.3284 12.8284 17 12 17C11.1716 17 10.5 16.3284 10.5 15.5V14.5Z" fill="#111014"/>
</g>
</svg>
