<svg width="24" height="24" viewBox="0 0 24 24" fill="none" xmlns="http://www.w3.org/2000/svg">
<g id="Property 2=Deleted-file">
<path id="Combined Shape" opacity="0.3" d="M5.85714 2H13.7364C14.0911 2 14.4343 2.12568 14.7051 2.35474L19.4687 6.38394C19.8057 6.66895 20 7.08788 20 7.5292V20.0833C20 21.8739 19.9796 22 18.1429 22H5.85714C4.02045 22 4 21.8739 4 20.0833V3.91667C4 2.12612 4.02045 2 5.85714 2Z" fill="#111014"/>
<path id="Combined Shape_2" fill-rule="evenodd" clip-rule="evenodd" d="M10.586 13.0002L9.1718 11.586C8.78128 11.1955 8.78128 10.5623 9.1718 10.1718C9.56232 9.78128 10.1955 9.78128 10.586 10.1718L12.0002 11.586L13.4144 10.1718C13.805 9.78128 14.4381 9.78128 14.8287 10.1718C15.2192 10.5623 15.2192 11.1955 14.8287 11.586L13.4144 13.0002L14.8287 14.4144C15.2192 14.805 15.2192 15.4381 14.8287 15.8287C14.4381 16.2192 13.805 16.2192 13.4144 15.8287L12.0002 14.4144L10.586 15.8287C10.1955 16.2192 9.56232 16.2192 9.1718 15.8287C8.78128 15.4381 8.78128 14.805 9.1718 14.4144L10.586 13.0002Z" fill="#111014"/>
</g>
</svg>
