<svg width="24" height="24" viewBox="0 0 24 24" fill="none" xmlns="http://www.w3.org/2000/svg">
<g id="Property 2=Fork-spoon-knife">
<path id="Combined Shape" fill-rule="evenodd" clip-rule="evenodd" d="M11 3H10V7.5C10 9.433 11.567 11 13.5 11C15.433 11 17 9.433 17 7.5V3H16L15.5498 7.50248C15.5215 7.78492 15.2838 8 15 8C14.7162 8 14.4785 7.78492 14.4502 7.50248L14 3H13L12.5498 7.50248C12.5215 7.78492 12.2838 8 12 8C11.7162 8 11.4785 7.78492 11.4502 7.50248L11 3Z" fill="#111014"/>
<rect id="Rectangle" opacity="0.3" x="12.0801" y="13" width="2.838" height="9" rx="1.419" fill="#111014"/>
<rect id="Rectangle Copy" opacity="0.3" x="20.0918" y="15" width="2.8184" height="7" rx="1.4092" fill="#111014"/>
<path id="Path 65" fill-rule="evenodd" clip-rule="evenodd" d="M20 3V13H24V7C24 4.79086 22.2091 3 20 3Z" fill="#111014"/>
<rect id="Rectangle Copy_2" opacity="0.3" x="3.0918" y="14" width="2.8184" height="8" rx="1.4092" fill="#111014"/>
<path id="Combined Shape_2" fill-rule="evenodd" clip-rule="evenodd" d="M8 7.5C8 9.433 6.433 12 4.5 12C2.567 12 1 9.433 1 7.5C1 5.567 2.567 3 4.5 3C6.433 3 8 5.567 8 7.5ZM6.4775 7.89491C6.49729 6.76103 5.63275 4.70471 4.50954 4.60103L4.56069 9.94758C5.61892 9.85786 6.45856 8.97981 6.4775 7.89491Z" fill="#111014"/>
</g>
</svg>
