<svg width="24" height="24" viewBox="0 0 24 24" fill="none" xmlns="http://www.w3.org/2000/svg">
<g id="Property 2=Scale">
<path id="Combined Shape" fill-rule="evenodd" clip-rule="evenodd" d="M20 9H15V4C15 4 15 3 14 3C13 3 13 4 13 4V11H20C20 11 21 10.8284 21 10C21 9.17157 20 9 20 9ZM5 14H10V19C10 19 10 20 11 20C12 20 12 19 12 19V12H5C5 12 4 12.1716 4 13C4 13.8284 5 14 5 14Z" fill="#111014"/>
<path id="Combined Shape_2" opacity="0.3" fill-rule="evenodd" clip-rule="evenodd" d="M16.8788 5.70726C16.4883 6.09778 16.4883 6.73095 16.8788 7.12147C17.2694 7.512 17.9025 7.512 18.293 7.12147L21.1215 4.29304C21.512 3.90252 21.512 3.26935 21.1215 2.87883C20.7309 2.48831 20.0978 2.48831 19.7073 2.87883L16.8788 5.70726ZM3.87883 18.7073C3.48831 19.0978 3.48831 19.7309 3.87883 20.1215C4.26935 20.512 4.90252 20.512 5.29304 20.1215L8.12147 17.293C8.512 16.9025 8.512 16.2694 8.12147 15.8788C7.73095 15.4883 7.09778 15.4883 6.70726 15.8788L3.87883 18.7073Z" fill="#111014"/>
</g>
</svg>
