<svg width="24" height="24" viewBox="0 0 24 24" fill="none" xmlns="http://www.w3.org/2000/svg">
<g id="Property 2=Snow">
<path id="Combined Shape" opacity="0.3" fill-rule="evenodd" clip-rule="evenodd" d="M11.0004 4C11.0004 3.44772 11.4481 3 12.0004 3C12.5527 3 13.0004 3.44772 13.0004 4V10.3175L18.3857 7.20827C18.864 6.93213 19.4756 7.096 19.7517 7.57429C20.0279 8.05259 19.864 8.66418 19.3857 8.94032L13.9146 12.0991L19.2999 15.2083C19.7782 15.4844 19.9421 16.096 19.666 16.5743C19.3898 17.0526 18.7782 17.2165 18.2999 16.9403L13.0004 13.8806V20C13.0004 20.5523 12.5527 21 12.0004 21C11.4481 21 11.0004 20.5523 11.0004 20V13.7816L5.52931 16.9403C5.05102 17.2165 4.43943 17.0526 4.16329 16.5743C3.88714 16.096 4.05102 15.4844 4.52931 15.2083L9.91462 12.0991L4.44353 8.94032C3.96523 8.66418 3.80136 8.05259 4.0775 7.57429C4.35364 7.096 4.96523 6.93213 5.44353 7.20827L11.0004 10.4165V4Z" fill="#111014"/>
<path id="Combined Shape_2" opacity="0.3" fill-rule="evenodd" clip-rule="evenodd" d="M13.4143 4.70696C13.8048 4.31643 14.438 4.31643 14.8285 4.70696C15.219 5.09748 15.219 5.73064 14.8285 6.12117L13.4143 7.53538C13.0238 7.92591 12.3906 7.92591 12.0001 7.53538C11.969 7.50432 11.9404 7.47171 11.9143 7.43782C11.8882 7.47171 11.8596 7.50432 11.8285 7.53538C11.438 7.92591 10.8048 7.92591 10.4143 7.53538L9.00007 6.12117C8.60954 5.73064 8.60954 5.09748 9.00007 4.70696C9.39059 4.31643 10.0238 4.31643 10.4143 4.70696L11.8285 6.12117C11.8596 6.15224 11.8882 6.18484 11.9143 6.21873C11.9404 6.18484 11.969 6.15224 12.0001 6.12117L13.4143 4.70696ZM9.00007 19.5354C9.39059 19.9259 10.0238 19.9259 10.4143 19.5354L11.8285 18.1212C11.8596 18.0901 11.8882 18.0575 11.9143 18.0236C11.9404 18.0575 11.969 18.0901 12.0001 18.1212L13.4143 19.5354C13.8048 19.9259 14.438 19.9259 14.8285 19.5354C15.219 19.1449 15.219 18.5117 14.8285 18.1212L13.4143 16.707C13.0238 16.3164 12.3906 16.3164 12.0001 16.707C11.969 16.738 11.9404 16.7706 11.9143 16.8045C11.8882 16.7706 11.8596 16.738 11.8285 16.707C11.438 16.3164 10.8048 16.3164 10.4143 16.707L9.00007 18.1212C8.60954 18.5117 8.60954 19.1449 9.00007 19.5354ZM6.24338 17.1273C6.10044 17.6608 6.41702 18.2091 6.95049 18.3521C7.48396 18.495 8.03229 18.1784 8.17523 17.645L8.69287 15.7131C8.83581 15.1796 8.51923 14.6313 7.98577 14.4884C7.94333 14.477 7.90079 14.4685 7.85838 14.4628C7.87467 14.4233 7.88861 14.3822 7.89998 14.3398C8.04292 13.8063 7.72634 13.258 7.19287 13.115L5.26102 12.5974C4.72755 12.4544 4.17922 12.771 4.03628 13.3045C3.89333 13.838 4.20992 14.3863 4.74338 14.5292L6.67523 15.0469C6.71767 15.0582 6.7602 15.0667 6.80262 15.0724C6.78633 15.112 6.77239 15.153 6.76102 15.1955L6.24338 17.1273ZM19.0852 9.7131C19.6186 9.85604 19.9352 10.4044 19.7923 10.9378C19.6493 11.4713 19.101 11.7879 18.5675 11.645L16.6357 11.1273C16.1022 10.9844 15.7856 10.436 15.9286 9.90257C15.94 9.86013 15.9539 9.81906 15.9702 9.77949C15.9278 9.77381 15.8852 9.76535 15.8428 9.75398C15.3093 9.61104 14.9927 9.0627 15.1357 8.52924L15.6533 6.59739C15.7963 6.06392 16.3446 5.74734 16.8781 5.89028C17.4115 6.03322 17.7281 6.58156 17.5852 7.11502L17.0675 9.04688C17.0562 9.08932 17.0422 9.13038 17.0259 9.16995C17.0684 9.17563 17.1109 9.18409 17.1533 9.19546L19.0852 9.7131ZM19.0852 14.5292C19.6186 14.3863 19.9352 13.838 19.7923 13.3045C19.6493 12.771 19.101 12.4544 18.5675 12.5974L16.6357 13.115C16.1022 13.258 15.7856 13.8063 15.9286 14.3398C15.94 14.3822 15.9539 14.4233 15.9702 14.4628C15.9278 14.4685 15.8852 14.477 15.8428 14.4884C15.3093 14.6313 14.9927 15.1796 15.1357 15.7131L15.6533 17.645C15.7963 18.1784 16.3446 18.495 16.8781 18.3521C17.4115 18.2091 17.7281 17.6608 17.5852 17.1273L17.0675 15.1955C17.0562 15.153 17.0422 15.112 17.0259 15.0724C17.0684 15.0667 17.1109 15.0582 17.1533 15.0469L19.0852 14.5292ZM6.24338 7.11502C6.10044 6.58156 6.41702 6.03322 6.95049 5.89028C7.48396 5.74734 8.03229 6.06392 8.17523 6.59739L8.69287 8.52924C8.83581 9.0627 8.51923 9.61104 7.98577 9.75398C7.94333 9.76535 7.90079 9.77382 7.85838 9.77949C7.87467 9.81907 7.88861 9.86013 7.89998 9.90257C8.04292 10.436 7.72634 10.9844 7.19287 11.1273L5.26102 11.645C4.72755 11.7879 4.17922 11.4713 4.03628 10.9378C3.89333 10.4044 4.20992 9.85604 4.74338 9.7131L6.67523 9.19546C6.71767 9.18409 6.7602 9.17563 6.80262 9.16995C6.78633 9.13038 6.77239 9.08931 6.76102 9.04688L6.24338 7.11502Z" fill="#111014"/>
</g>
</svg>
