<svg width="24" height="24" viewBox="0 0 24 24" fill="none" xmlns="http://www.w3.org/2000/svg">
<g id="Property 2=Playlist#1">
<path id="Combined Shape" fill-rule="evenodd" clip-rule="evenodd" d="M8.97852 18.8007C8.99272 18.7241 9 18.641 9 18.5512V18.5V8C9 8 13.0263 7.23253 14 7C14.4512 6.89226 15 6.51789 15 5.93171V4.17317C15 3.38226 14.2639 2.81827 13.5394 3.05418L7.78944 4.81272C7.31978 4.96567 7 5.41894 7 5.93171V16.1423C6.68722 16.0501 6.35064 16 6 16C4.34315 16 3 17.1193 3 18.5C3 19.8807 4.34315 21 6 21C7.53473 21 8.80029 20.0396 8.97852 18.8007Z" fill="#111014"/>
<path id="Combined Shape_2" opacity="0.3" fill-rule="evenodd" clip-rule="evenodd" d="M15 10C15 9.44772 15.4477 9 16 9H20C20.5523 9 21 9.44772 21 10C21 10.5523 20.5523 11 20 11H16C15.4477 11 15 10.5523 15 10ZM13 14C13 13.4477 13.4477 13 14 13H20C20.5523 13 21 13.4477 21 14C21 14.5523 20.5523 15 20 15H14C13.4477 15 13 14.5523 13 14ZM14 17C13.4477 17 13 17.4477 13 18C13 18.5523 13.4477 19 14 19H20C20.5523 19 21 18.5523 21 18C21 17.4477 20.5523 17 20 17H14Z" fill="#111014"/>
</g>
</svg>
