<svg width="24" height="24" viewBox="0 0 24 24" fill="none" xmlns="http://www.w3.org/2000/svg">
<g id="Property 2=Money">
<path id="Combined Shape Copy" opacity="0.3" fill-rule="evenodd" clip-rule="evenodd" d="M3.87608 3.74612C3.34262 3.60318 2.79428 3.91976 2.65134 4.45323L0.0631468 14.1125C-0.0797949 14.646 0.236787 15.1943 0.770253 15.3372L19.1228 20.2548C19.6563 20.3977 20.2046 20.0812 20.3476 19.5477L22.9358 9.88843C23.0787 9.35496 22.7621 8.80663 22.2287 8.66369L3.87608 3.74612ZM15.3632 13.0357C14.7914 15.1696 12.5981 16.4359 10.4642 15.8642C8.33032 15.2924 7.06399 13.099 7.63576 10.9652C8.20753 8.83132 10.4009 7.56499 12.5347 8.13676C14.6686 8.70852 15.9349 10.9019 15.3632 13.0357Z" fill="#111014"/>
<path id="Combined Shape" fill-rule="evenodd" clip-rule="evenodd" d="M2 6C1.44772 6 1 6.44772 1 7V17C1 17.5523 1.44772 18 2 18H21C21.5523 18 22 17.5523 22 17V7C22 6.44772 21.5523 6 21 6H2ZM15.5 12C15.5 14.2091 13.7091 16 11.5 16C9.29086 16 7.5 14.2091 7.5 12C7.5 9.79086 9.29086 8 11.5 8C13.7091 8 15.5 9.79086 15.5 12ZM11.5 14C12.6046 14 13.5 13.1046 13.5 12C13.5 10.8954 12.6046 10 11.5 10C10.3954 10 9.5 10.8954 9.5 12C9.5 13.1046 10.3954 14 11.5 14Z" fill="#111014"/>
</g>
</svg>
