<svg width="24" height="24" viewBox="0 0 24 24" fill="none" xmlns="http://www.w3.org/2000/svg">
<g id="Property 2=Size">
<path id="Combined Shape" fill-rule="evenodd" clip-rule="evenodd" d="M11 6H18V13C18 13 18 14 19 14C20 14 20 13 20 13V4H11C11 4 10 4.17157 10 5C10 5.82843 11 6 11 6ZM13 18H6V11C6 11 6 10 5 10C4 10 4 11 4 11V20H13C13 20 14 19.8284 14 19C14 18.1716 13 18 13 18Z" fill="#111014"/>
<rect id="Rectangle 15" opacity="0.3" x="7.75781" y="14.8286" width="10" height="2" rx="1" transform="rotate(-45 7.75781 14.8286)" fill="#111014"/>
</g>
</svg>
