<svg width="24" height="24" viewBox="0 0 24 24" fill="none" xmlns="http://www.w3.org/2000/svg">
<g id="Property 2=Cart#3">
<path id="Path 30" opacity="0.3" d="M12 4.56205L7.76825 9.64018C7.41468 10.0645 6.78412 10.1218 6.35984 9.76822C5.93556 9.41466 5.87824 8.78409 6.2318 8.35982L11.2318 2.35982C11.6316 1.88006 12.3685 1.88006 12.7682 2.35982L17.7682 8.35982C18.1218 8.78409 18.0645 9.41466 17.6402 9.76822C17.2159 10.1218 16.5854 10.0645 16.2318 9.64018L12 4.56205Z" fill="#111014"/>
<path id="Combined Shape" fill-rule="evenodd" clip-rule="evenodd" d="M4.5 9C3.94772 9 3.5 9.44772 3.5 10V18C3.5 19.6569 4.84314 21 6.5 21H17.5008C19.1576 21 20.5008 19.6569 20.5008 18V10C20.5008 9.44772 20.0531 9 19.5008 9H4.5ZM14.0008 15C14.0008 16.1046 13.1054 17 12.0008 17C10.8962 17 10.0008 16.1046 10.0008 15C10.0008 13.8954 10.8962 13 12.0008 13C13.1054 13 14.0008 13.8954 14.0008 15Z" fill="#111014"/>
</g>
</svg>
