<svg width="24" height="24" viewBox="0 0 24 24" fill="none" xmlns="http://www.w3.org/2000/svg">
<g id="Property 2=Snow#1">
<path id="Combined Shape" fill-rule="evenodd" clip-rule="evenodd" d="M14.811 7.5C14.1449 4.91216 11.7958 3 9 3C5.68629 3 3 5.68629 3 9C3 11.1148 4.0941 12.974 5.74715 14.0426C6.41093 14.6379 7.28818 15 8.25 15H9H17.25C19.3211 15 21 13.3211 21 11.25C21 9.17893 19.3211 7.5 17.25 7.5H14.811Z" fill="#111014"/>
<path id="Combined Shape_2" opacity="0.3" fill-rule="evenodd" clip-rule="evenodd" d="M7.68081 16.8264C7.82375 16.2929 8.37209 15.9763 8.90555 16.1193C9.43902 16.2622 9.7556 16.8106 9.61266 17.344C9.46972 17.8775 8.92138 18.1941 8.38791 18.0511C7.85445 17.9082 7.53786 17.3599 7.68081 16.8264ZM15.6808 16.8264C15.8237 16.2929 16.3721 15.9763 16.9056 16.1193C17.439 16.2622 17.7556 16.8106 17.6127 17.344C17.4697 17.8775 16.9214 18.1941 16.3879 18.0511C15.8544 17.9082 15.5379 17.3599 15.6808 16.8264ZM12.9056 16.1193C12.3721 15.9763 11.8237 16.2929 11.6808 16.8264C11.5379 17.3599 11.8544 17.9082 12.3879 18.0511C12.9214 18.1941 13.4697 17.8775 13.6127 17.344C13.7556 16.8106 13.439 16.2622 12.9056 16.1193ZM13.6808 19.8264C13.8237 19.2929 14.3721 18.9763 14.9056 19.1193C15.439 19.2622 15.7556 19.8106 15.6127 20.344C15.4697 20.8775 14.9214 21.1941 14.3879 21.0511C13.8544 20.9082 13.5379 20.3599 13.6808 19.8264ZM10.9056 19.1193C10.3721 18.9763 9.82375 19.2929 9.68081 19.8264C9.53786 20.3599 9.85445 20.9082 10.3879 21.0511C10.9214 21.1941 11.4697 20.8775 11.6127 20.344C11.7556 19.8106 11.439 19.2622 10.9056 19.1193Z" fill="#111014"/>
</g>
</svg>
