<svg width="24" height="24" viewBox="0 0 24 24" fill="none" xmlns="http://www.w3.org/2000/svg">
<g id="Property 2=Bucket #1">
<path id="Rectangle 110" fill-rule="evenodd" clip-rule="evenodd" d="M19.1923 8.87884L12.1212 1.80777C11.3402 1.02672 10.0739 1.02672 9.29282 1.80777L2.22175 8.87884C0.659653 10.4409 0.659653 12.9736 2.22175 14.5357L6.46439 18.7783C8.02649 20.3404 10.5591 20.3404 12.1212 18.7783L19.1923 11.7073C19.9734 10.9262 19.9734 9.65988 19.1923 8.87884ZM3.63596 10.293L10.707 3.22198L17.7781 10.293L16.0424 12.0288C16.0424 12.0288 3.0673 12.0288 3.0673 12.0124C3.06175 11.9517 3.05742 11.8895 3.05366 11.8256C3.02123 11.2751 3.21533 10.7137 3.63596 10.293Z" fill="#111014"/>
<path id="Oval" opacity="0.3" fill-rule="evenodd" clip-rule="evenodd" d="M20 22C21.6569 22 23 20.6569 23 19C23 17.3431 20 14 20 14C20 14 17 17.3431 17 19C17 20.6569 18.3431 22 20 22Z" fill="#111014"/>
</g>
</svg>
