<svg width="24" height="24" viewBox="0 0 24 24" fill="none" xmlns="http://www.w3.org/2000/svg">
<g id="Property 2=Chat-error">
<path id="Combined Shape" fill-rule="evenodd" clip-rule="evenodd" d="M5 3C3.34315 3 2 4.34315 2 6V11.865C3.04486 11.3127 4.23591 11 5.5 11C9.47412 11 12.7263 14.091 12.9836 18H18.0249L20.3178 20.2929C20.9478 20.9229 22.0249 20.4767 22.0249 19.5858V15L22 15.0098L22 15V6C22 4.34315 20.6569 3 19 3H5ZM6 7C5.44772 7 5 7.44772 5 8C5 8.55228 5.44772 9 6 9H15C15.5523 9 16 8.55228 16 8C16 7.44772 15.5523 7 15 7H6Z" fill="#111014"/>
<path id="Combined Shape_2" opacity="0.3" fill-rule="evenodd" clip-rule="evenodd" d="M6 14C5.44772 14 5 14.4477 5 15V17C5 17.5523 5.44772 18 6 18C6.55228 18 7 17.5523 7 17V15C7 14.4477 6.55228 14 6 14ZM7 20C7 20.5523 6.55228 21 6 21C5.44772 21 5 20.5523 5 20C5 19.4477 5.44772 19 6 19C6.55228 19 7 19.4477 7 20Z" fill="#111014"/>
</g>
</svg>
