<svg width="24" height="24" viewBox="0 0 24 24" fill="none" xmlns="http://www.w3.org/2000/svg">
<g id="Property 2=Key">
<path id="Path 59" opacity="0.3" fill-rule="evenodd" clip-rule="evenodd" d="M11.3658 10.8228L4.9998 17.0002L4.9998 20.0002L7.9998 20.0002L7.9998 18.0002L9.94158 18.0002V16.0002L11.9998 16.0002L14.1842 13.6412L11.3658 10.8228Z" fill="#111014"/>
<path id="Combined Shape" fill-rule="evenodd" clip-rule="evenodd" d="M20.227 13.2279C17.8839 15.5711 14.0849 15.5711 11.7417 13.2279C9.39859 10.8848 9.39859 7.08579 11.7417 4.74264C14.0849 2.39949 17.8839 2.39949 20.227 4.74264C22.5702 7.08579 22.5702 10.8848 20.227 13.2279ZM18.1811 9.18198C17.5953 9.76777 16.6455 9.76777 16.0598 9.18198C15.474 8.59619 15.474 7.64645 16.0598 7.06066C16.6455 6.47487 17.5953 6.47487 18.1811 7.06066C18.7669 7.64645 18.7669 8.59619 18.1811 9.18198Z" fill="#111014"/>
</g>
</svg>
