<svg width="24" height="24" viewBox="0 0 24 24" fill="none" xmlns="http://www.w3.org/2000/svg">
<g id="Property 2=Cart#2">
<path id="Path 30" opacity="0.3" d="M12 4.56205L7.76825 9.64018C7.41468 10.0645 6.78412 10.1218 6.35984 9.76822C5.93556 9.41466 5.87824 8.78409 6.2318 8.35982L11.2318 2.35982C11.6316 1.88006 12.3685 1.88006 12.7682 2.35982L17.7682 8.35982C18.1218 8.78409 18.0645 9.41466 17.6402 9.76822C17.2159 10.1218 16.5854 10.0645 16.2318 9.64018L12 4.56205Z" fill="#111014"/>
<path id="Combined Shape" fill-rule="evenodd" clip-rule="evenodd" d="M3.28125 9C2.72897 9 2.28125 9.44772 2.28125 10V18C2.28125 19.6569 3.6244 21 5.28125 21H18.7199C20.3768 21 21.7199 19.6569 21.7199 18V10C21.7199 9.44772 21.2722 9 20.7199 9H3.28125ZM12.0007 12C11.4484 12 11.0007 12.4477 11.0007 13V17C11.0007 17.5523 11.4484 18 12.0007 18C12.553 18 13.0007 17.5523 13.0007 17V13C13.0007 12.4477 12.553 12 12.0007 12ZM6.25833 13.361C6.11539 12.8276 6.43197 12.2792 6.96543 12.1363C7.4989 11.9934 8.04724 12.3099 8.19018 12.8434L9.22545 16.7071C9.3684 17.2406 9.05181 17.7889 8.51835 17.9319C7.98488 18.0748 7.43655 17.7582 7.2936 17.2247L6.25833 13.361ZM17.036 12.1363C16.5025 11.9934 15.9542 12.3099 15.8112 12.8434L14.776 16.7071C14.633 17.2406 14.9496 17.7889 15.4831 17.9319C16.0165 18.0748 16.5649 17.7582 16.7078 17.2247L17.7431 13.361C17.886 12.8276 17.5695 12.2792 17.036 12.1363Z" fill="#111014"/>
</g>
</svg>
