<svg width="24" height="24" viewBox="0 0 24 24" fill="none" xmlns="http://www.w3.org/2000/svg">
<g id="Property 2=Missed-call">
<path id="Combined Shape" opacity="0.3" fill-rule="evenodd" clip-rule="evenodd" d="M6.58601 8.00023L5.1718 6.58601C4.78128 6.19549 4.78128 5.56232 5.1718 5.1718C5.56232 4.78128 6.19549 4.78128 6.58601 5.1718L8.00023 6.58601L9.41444 5.1718C9.80496 4.78128 10.4381 4.78128 10.8287 5.1718C11.2192 5.56232 11.2192 6.19549 10.8287 6.58601L9.41444 8.00023L10.8287 9.41444C11.2192 9.80496 11.2192 10.4381 10.8287 10.8287C10.4381 11.2192 9.80496 11.2192 9.41444 10.8287L8.00023 9.41444L6.58601 10.8287C6.19549 11.2192 5.56232 11.2192 5.1718 10.8287C4.78128 10.4381 4.78128 9.80496 5.1718 9.41444L6.58601 8.00023Z" fill="#111014"/>
<path id="Path 76" fill-rule="evenodd" clip-rule="evenodd" d="M13.0809 14.7838L15.2849 12.5798C15.8937 11.9711 16.0446 11.0411 15.6596 10.2711L15.5347 10.0214C15.1497 9.25141 15.3006 8.32147 15.9093 7.71275L18.6421 4.97994C18.8374 4.78468 19.154 4.78468 19.3492 4.97994C19.3873 5.01794 19.4189 5.06182 19.4429 5.10989L20.5469 7.31784C21.3914 9.00695 21.0604 11.047 19.725 12.3823L13.7262 18.3812C12.2727 19.8347 10.1226 20.3423 8.17252 19.6922L5.75804 18.8874C5.49607 18.8001 5.35449 18.5169 5.44181 18.2549C5.46636 18.1813 5.50771 18.1144 5.5626 18.0595L8.21387 15.4082C8.82259 14.7995 9.75253 14.6486 10.5225 15.0336L10.7723 15.1585C11.5422 15.5434 12.4722 15.3925 13.0809 14.7838Z" fill="#111014"/>
</g>
</svg>
