<svg width="24" height="24" viewBox="0 0 24 24" fill="none" xmlns="http://www.w3.org/2000/svg">
<g id="Property 2=Coffee#1">
<path id="Combined Shape" fill-rule="evenodd" clip-rule="evenodd" d="M21 8H6V10H5C3.34315 10 2 11.8431 2 13.5C2 15.1569 3.34315 17 5 17H8.40093C9.73907 18.2412 11.5309 19 13.5 19C17.6421 19 21 15.6421 21 11.5V8ZM6.86505 15C6.38614 14.094 6.08736 13.0781 6.0164 12H5C4.44772 12 4 12.9477 4 13.5C4 14.0523 4.44772 15 5 15H6.86505Z" fill="#111014"/>
<rect id="Rectangle" opacity="0.3" x="6" y="21" width="15" height="2" rx="1" fill="#111014"/>
<path id="Path 44 Copy 2" opacity="0.3" d="M8.11576 0L9.27323 1.15267C8.41777 2.01168 8.42065 3.40153 9.27966 4.25698C9.35322 4.33024 9.43189 4.39818 9.51506 4.46031L10 4.8225L9.0225 6.13127L8.53756 5.76907C8.39249 5.66072 8.25529 5.54222 8.12699 5.41445C6.62873 3.92239 6.62371 1.49826 8.11576 0Z" fill="#111014"/>
<path id="Path 44 Copy 3" opacity="0.3" d="M13.1158 1L14.2732 2.15267C13.4178 3.01168 13.4207 4.40153 14.2797 5.25698C14.3532 5.33024 14.4319 5.39818 14.5151 5.46031L15 5.8225L14.0225 7.13127L13.5376 6.76907C13.3925 6.66072 13.2553 6.54222 13.127 6.41445C11.6287 4.92239 11.6237 2.49826 13.1158 1Z" fill="#111014"/>
<path id="Path 44 Copy 4" opacity="0.3" d="M18.1158 0L19.2732 1.15267C18.4178 2.01168 18.4207 3.40153 19.2797 4.25698C19.3532 4.33024 19.4319 4.39818 19.5151 4.46031L20 4.8225L19.0225 6.13127L18.5376 5.76907C18.3925 5.66072 18.2553 5.54222 18.127 5.41445C16.6287 3.92239 16.6237 1.49826 18.1158 0Z" fill="#111014"/>
</g>
</svg>
