<svg width="24" height="24" viewBox="0 0 24 24" fill="none" xmlns="http://www.w3.org/2000/svg">
<g id="Property 2=Bullet-list">
<path id="Combined Shape" fill-rule="evenodd" clip-rule="evenodd" d="M9 6.5C9 5.67157 9.67157 5 10.5 5H19.5C20.3284 5 21 5.67157 21 6.5C21 7.32843 20.3284 8 19.5 8H10.5C9.67157 8 9 7.32843 9 6.5ZM9 11.5C9 10.6716 9.67157 10 10.5 10H19.5C20.3284 10 21 10.6716 21 11.5C21 12.3284 20.3284 13 19.5 13H10.5C9.67157 13 9 12.3284 9 11.5ZM10.5 15C9.67157 15 9 15.6716 9 16.5C9 17.3284 9.67157 18 10.5 18H19.5C20.3284 18 21 17.3284 21 16.5C21 15.6716 20.3284 15 19.5 15H10.5Z" fill="#111014"/>
<path id="Combined Shape_2" opacity="0.3" fill-rule="evenodd" clip-rule="evenodd" d="M5.5 8C6.32843 8 7 7.32843 7 6.5C7 5.67157 6.32843 5 5.5 5C4.67157 5 4 5.67157 4 6.5C4 7.32843 4.67157 8 5.5 8ZM5.5 13C6.32843 13 7 12.3284 7 11.5C7 10.6716 6.32843 10 5.5 10C4.67157 10 4 10.6716 4 11.5C4 12.3284 4.67157 13 5.5 13ZM7 16.5C7 17.3284 6.32843 18 5.5 18C4.67157 18 4 17.3284 4 16.5C4 15.6716 4.67157 15 5.5 15C6.32843 15 7 15.6716 7 16.5Z" fill="#111014"/>
</g>
</svg>
