<svg width="24" height="24" viewBox="0 0 24 24" fill="none" xmlns="http://www.w3.org/2000/svg">
<g id="Property 2=Book-open">
<path id="Combined Shape" fill-rule="evenodd" clip-rule="evenodd" d="M13 18.2251C13 18.5885 13.3773 18.8398 13.7182 18.7139C14.959 18.2558 17.7406 17.375 21.5373 17.038C21.7979 17.0148 22 16.804 22 16.5424C22 14.6515 22 7.46307 22 5.49868C22 5.22254 21.7785 5.00217 21.5027 5.01569C20.2481 5.07717 16.8035 5.37988 13.2985 6.87026C13.1166 6.94758 13 7.12592 13 7.32352C13 8.90969 13 15.8779 13 18.2251Z" fill="#111014"/>
<path id="Path 41 Copy" opacity="0.3" fill-rule="evenodd" clip-rule="evenodd" d="M11 18.2251C11 18.5885 10.6227 18.8398 10.2818 18.7139C9.04097 18.2558 6.25942 17.375 2.46271 17.038C2.20214 17.0148 1.99999 16.804 1.99999 16.5424C1.99999 14.6515 1.99999 7.46307 1.99999 5.49868C1.99999 5.22254 2.22147 5.00217 2.49728 5.01569C3.75193 5.07717 7.19651 5.37988 10.7015 6.87026C10.8834 6.94758 11 7.12592 11 7.32352C11 8.90969 11 15.8779 11 18.2251Z" fill="#111014"/>
</g>
</svg>
