<svg width="24" height="24" viewBox="0 0 24 24" fill="none" xmlns="http://www.w3.org/2000/svg">
<g id="Property 2=Watch#2">
<path id="Rectangle" opacity="0.3" d="M9 17H15V20.5C15 21.3284 14.3284 22 13.5 22H10.5C9.67157 22 9 21.3284 9 20.5V17Z" fill="#111014"/>
<path id="Path" opacity="0.3" fill-rule="evenodd" clip-rule="evenodd" d="M12 17C14.7614 17 17 14.7614 17 12C17 9.23858 14.7614 7 12 7C9.23858 7 7 9.23858 7 12C7 14.7614 9.23858 17 12 17Z" fill="#111014"/>
<path id="Rectangle Copy" opacity="0.3" d="M9 3.5C9 2.67157 9.67157 2 10.5 2H13.5C14.3284 2 15 2.67157 15 3.5V7H9V3.5Z" fill="#111014"/>
<path id="Oval" fill-rule="evenodd" clip-rule="evenodd" d="M5 12C5 15.866 8.13401 19 12 19C15.866 19 19 15.866 19 12C19 8.13401 15.866 5 12 5C8.13401 5 5 8.13401 5 12ZM17 12C17 14.7614 14.7614 17 12 17C9.23858 17 7 14.7614 7 12C7 9.23858 9.23858 7 12 7C14.7614 7 17 9.23858 17 12Z" fill="#111014"/>
</g>
</svg>
