<svg width="24" height="24" viewBox="0 0 24 24" fill="none" xmlns="http://www.w3.org/2000/svg">
<g id="Property 2=Lock-overturning">
<path id="Combined Shape" opacity="0.3" fill-rule="evenodd" clip-rule="evenodd" d="M6.20102 1.41818C5.93691 1.10343 5.42697 1.2239 5.33164 1.62357L4.20314 6.3547C4.12546 6.68035 4.38353 6.98885 4.71778 6.96991L9.58475 6.6941C9.99566 6.67082 10.204 6.18879 9.93948 5.87351L8.74872 4.45442C9.62236 4.15588 10.5488 3.99995 11.5 3.99995C16.1944 3.99995 20 7.80553 20 12.5C20 17.1944 16.1944 21 11.5 21C6.80558 21 3 17.1944 3 12.5C3 11.7119 3.10672 10.94 3.31481 10.1982L1.38913 9.65801C1.13559 10.5619 1 11.5151 1 12.5C1 18.2989 5.70101 23 11.5 23C17.299 23 22 18.2989 22 12.5C22 6.70096 17.299 1.99995 11.5 1.99995C10.0413 1.99995 8.65217 2.29739 7.3898 2.83491L6.20102 1.41818Z" fill="#111014"/>
<path id="Combined Shape_2" fill-rule="evenodd" clip-rule="evenodd" d="M9.5 10.5C9.5 9.11929 10.6193 8 12 8C13.3807 8 14.5 9.11929 14.5 10.5V11C15.0523 11 15.5 11.4477 15.5 12V15C15.5 15.5523 15.0523 16 14.5 16H9.5C8.94772 16 8.5 15.5523 8.5 15V12C8.5 11.4477 8.94772 11 9.5 11V10.5ZM12 9C11.1716 9 10.5 9.67157 10.5 10.5V11H13.5V10.5C13.5 9.67157 12.8284 9 12 9Z" fill="#111014"/>
</g>
</svg>
