<svg width="24" height="24" viewBox="0 0 24 24" fill="none" xmlns="http://www.w3.org/2000/svg">
<g id="Property 2=User-folder">
<path id="Combined Shape" opacity="0.3" fill-rule="evenodd" clip-rule="evenodd" d="M2 19.5C2 20.3284 2.67157 21 3.5 21H20.5C21.3284 21 22 20.3284 22 19.5V8.5C22 7.67157 21.3284 7 20.5 7H10L7.43934 4.43934C7.15804 4.15804 6.7765 4 6.37868 4H3.5C2.67157 4 2 4.67157 2 5.5V19.5Z" fill="#111014"/>
<path id="Mask" fill-rule="evenodd" clip-rule="evenodd" d="M12 13C10.8954 13 10 12.1046 10 11C10 9.89543 10.8954 9 12 9C13.1046 9 14 9.89543 14 11C14 12.1046 13.1046 13 12 13Z" fill="#111014"/>
<path id="Mask Copy" fill-rule="evenodd" clip-rule="evenodd" d="M7.00036 18.4995C7.2157 15.5166 9.36773 14 11.9907 14C14.6507 14 16.836 15.4332 16.9988 18.5C17.0053 18.6222 16.9988 19 16.5815 19C14.5228 19 11.4637 19 7.40417 19C7.26484 19 6.98863 18.662 7.00036 18.4995Z" fill="#111014"/>
</g>
</svg>
