<svg width="24" height="24" viewBox="0 0 24 24" fill="none" xmlns="http://www.w3.org/2000/svg">
<g id="Property 2=Sign-in">
<rect id="Rectangle" opacity="0.3" x="15" y="11" width="2" height="12" rx="1" transform="rotate(90 15 11)" fill="#111014"/>
<path id="Path 103" opacity="0.3" d="M10.0061 7C10.0061 7.55229 9.55855 8 9.00651 8C8.45446 8 8.00694 7.55229 8.00694 7V6C8.00694 3.79086 9.79702 2 12.0052 2H18.0017C20.2099 2 22 3.79086 22 6V18C22 20.2091 20.2099 22 18.0017 22H11.9983C9.79008 22 8 20.2091 8 18V17C8 16.4477 8.44752 16 8.99957 16C9.55161 16 9.99913 16.4477 9.99913 17V18C9.99913 19.1046 10.8942 20 11.9983 20H18.0017C19.1058 20 20.0009 19.1046 20.0009 18V6C20.0009 4.89543 19.1058 4 18.0017 4H12.0052C10.9011 4 10.0061 4.89543 10.0061 6V7Z" fill="#111014"/>
<path id="Path 104" d="M12.2929 9.70711C11.9024 9.31658 11.9024 8.68342 12.2929 8.29289C12.6834 7.90237 13.3166 7.90237 13.7071 8.29289L16.7071 11.2929C17.0976 11.6834 17.0976 12.3166 16.7071 12.7071L13.7071 15.7071C13.3166 16.0976 12.6834 16.0976 12.2929 15.7071C11.9024 15.3166 11.9024 14.6834 12.2929 14.2929L14.5858 12L12.2929 9.70711Z" fill="#111014"/>
</g>
</svg>
