<svg width="24" height="24" viewBox="0 0 24 24" fill="none" xmlns="http://www.w3.org/2000/svg">
<g id="Property 2=Folder-thunder">
<path id="Combined Shape" opacity="0.3" fill-rule="evenodd" clip-rule="evenodd" d="M2 19.5C2 20.3284 2.67157 21 3.5 21H20.5C21.3284 21 22 20.3284 22 19.5V8.5C22 7.67157 21.3284 7 20.5 7H10L7.43934 4.43934C7.15804 4.15804 6.7765 4 6.37868 4H3.5C2.67157 4 2 4.67157 2 5.5V19.5Z" fill="#111014"/>
<path id="Path 3" opacity="0.3" fill-rule="evenodd" clip-rule="evenodd" d="M11.2969 18.3724C11.2969 19.1144 12.2593 19.4058 12.6709 18.7884L15.97 13.8397C16.3023 13.3413 15.945 12.6737 15.346 12.6737H12.6595V9.70023C12.6595 8.95817 11.6971 8.66677 11.2855 9.2842L7.98634 14.2329C7.65406 14.7313 8.01135 15.3989 8.61037 15.3989H11.2969V18.3724Z" fill="#111014"/>
</g>
</svg>
