<svg width="24" height="24" viewBox="0 0 24 24" fill="none" xmlns="http://www.w3.org/2000/svg">
<g id="Property 2=Fireplace">
<path id="Combined Shape" opacity="0.3" fill-rule="evenodd" clip-rule="evenodd" d="M5 4C3.89543 4 3 4.89543 3 6V18C3 19.1046 3.89543 20 5 20H7V12C7 9.23858 9.23858 7 12 7C14.7614 7 17 9.23858 17 12V20H19C20.1046 20 21 19.1046 21 18V6C21 4.89543 20.1046 4 19 4H5Z" fill="#111014"/>
<path id="Path 17" fill-rule="evenodd" clip-rule="evenodd" d="M12.971 11.7006C12.971 11.7006 12.7281 14.1299 11.5134 14.3002C11.5134 14.3002 12.2422 11.4576 11.2704 10C11.2704 10 11.1674 11.5618 10.1262 13.436C9.63812 14.3145 9.08398 14.9067 9.08398 16.0735C9.08398 17.7394 10.7901 18.6003 12.002 18.6003C13.2139 18.6003 14.9145 18.0173 14.9145 15.9765C14.9145 14.7178 12.971 11.7006 12.971 11.7006Z" fill="#111014"/>
</g>
</svg>
