<svg width="24" height="24" viewBox="0 0 24 24" fill="none" xmlns="http://www.w3.org/2000/svg">
<g id="Property 2=Difference">
<path id="Combined Shape" fill-rule="evenodd" clip-rule="evenodd" d="M17 10V16H17.8182C19.2325 16 20 15.2325 20 13.8182V6.18182C20 4.76751 19.2325 4 17.8182 4H10.1818C8.76751 4 8 4.76751 8 6.18182V7H14C15.6569 7 17 8.34315 17 10ZM6 15V9H5.18182C3.76751 9 3 9.76751 3 11.1818V18.8182C3 20.2325 3.76751 21 5.18182 21H12.8182C14.2325 21 15 20.2325 15 18.8182V18H9C7.34315 18 6 16.6569 6 15Z" fill="#111014"/>
<path id="Rectangle 19 Copy 3" opacity="0.3" fill-rule="evenodd" clip-rule="evenodd" d="M9.27273 9H13.7273C14.5523 9 15 9.44772 15 10.2727V14.7273C15 15.5523 14.5523 16 13.7273 16H9.27273C8.44772 16 8 15.5523 8 14.7273V10.2727C8 9.44772 8.44772 9 9.27273 9Z" fill="#111014"/>
</g>
</svg>
