<svg width="24" height="24" viewBox="0 0 24 24" fill="none" xmlns="http://www.w3.org/2000/svg">
<g id="Property 2=Day-rain">
<path id="Combined Shape" opacity="0.3" fill-rule="evenodd" clip-rule="evenodd" d="M11.867 2.3125C11.867 1.58763 12.4546 1 13.1795 1C13.9043 1 14.492 1.58763 14.492 2.3125V3.625C14.492 4.34987 13.9043 4.9375 13.1795 4.9375C12.4546 4.9375 11.867 4.34987 11.867 3.625V2.3125ZM17.6606 3.89683L16.7325 4.82491C16.22 5.33747 16.22 6.1685 16.7325 6.68106C17.2451 7.19362 18.0761 7.19362 18.5887 6.68106L19.5168 5.75298C20.0293 5.24042 20.0293 4.40939 19.5168 3.89683C19.0042 3.38426 18.1732 3.38426 17.6606 3.89683ZM10 9.5C10 11.433 11.567 13 13.5 13C15.433 13 17 11.433 17 9.5C17 7.567 15.433 6 13.5 6C11.567 6 10 7.567 10 9.5ZM8 22.5C8 23.3284 7.32843 24 6.5 24C5.67157 24 5 23.3284 5 22.5C5 21.6716 6.5 20 6.5 20C6.5 20 8 21.6716 8 22.5ZM13 22.5C13 23.3284 12.3284 24 11.5 24C10.6716 24 10 23.3284 10 22.5C10 21.6716 11.5 20 11.5 20C11.5 20 13 21.6716 13 22.5ZM16.5 24C17.3284 24 18 23.3284 18 22.5C18 21.6716 16.5 20 16.5 20C16.5 20 15 21.6716 15 22.5C15 23.3284 15.6716 24 16.5 24ZM18.4295 10.1875C18.4295 9.46263 19.0171 8.875 19.742 8.875H21.0545C21.7793 8.875 22.367 9.46263 22.367 10.1875C22.367 10.9124 21.7793 11.5 21.0545 11.5H19.742C19.0171 11.5 18.4295 10.9124 18.4295 10.1875ZM6.88879 3.89683C6.37622 4.40939 6.37622 5.24042 6.88879 5.75298L7.81686 6.68106C8.32943 7.19362 9.16045 7.19362 9.67302 6.68106C10.1856 6.1685 10.1856 5.33747 9.67302 4.82491L8.74494 3.89683C8.23238 3.38426 7.40135 3.38426 6.88879 3.89683Z" fill="#111014"/>
<path id="Combined Shape_2" fill-rule="evenodd" clip-rule="evenodd" d="M13.811 11.5C13.1449 8.91216 10.7958 7 8 7C4.68629 7 2 9.68629 2 13C2 15.1148 3.0941 16.974 4.74715 18.0426C5.41093 18.6379 6.28818 19 7.25 19H8H16.25C18.3211 19 20 17.3211 20 15.25C20 13.1789 18.3211 11.5 16.25 11.5H13.811Z" fill="#111014"/>
</g>
</svg>
