<svg width="24" height="24" viewBox="0 0 24 24" fill="none" xmlns="http://www.w3.org/2000/svg">
<g id="Property 2=Homepod">
<path id="Combined Shape" opacity="0.3" fill-rule="evenodd" clip-rule="evenodd" d="M6.07156 4.46484C6.51827 5.90101 9.00243 7.0001 12 7.0001C14.9976 7.0001 17.4817 5.90101 17.9284 4.46485C19.1974 5.56498 20 7.18881 20 9.0001V16.0001C20 19.3138 17.3137 22.0001 14 22.0001H10C6.68629 22.0001 4 19.3138 4 16.0001V9.00009C4 7.18881 4.8026 5.56498 6.07156 4.46484Z" fill="#111014"/>
<path id="Oval 45" fill-rule="evenodd" clip-rule="evenodd" d="M15.348 3.66753C14.5234 3.25523 13.3165 3 11.9998 3C10.6831 3 9.47619 3.25523 8.65158 3.66753C8.42596 3.78034 8.24898 3.89543 8.125 4C8.24898 4.10457 8.42596 4.21966 8.65158 4.33247C9.47619 4.74477 10.6831 5 11.9998 5C13.3165 5 14.5234 4.74477 15.348 4.33247C15.5736 4.21966 15.7506 4.10457 15.8746 4C15.7506 3.89543 15.5736 3.78034 15.348 3.66753Z" fill="#111014"/>
</g>
</svg>
