<svg width="24" height="24" viewBox="0 0 24 24" fill="none" xmlns="http://www.w3.org/2000/svg">
<g id="Property 2=Spatula">
<path id="Rectangle 126" opacity="0.3" d="M13.8281 1.18656C14.0233 0.991299 14.3399 0.991299 14.5352 1.18656L22.3134 8.96474C22.5086 9.16 22.5086 9.47658 22.3134 9.67184L17.7172 14.268C15.7646 16.2207 12.5987 16.2207 10.6461 14.268L9.23189 12.8538C7.27927 10.9012 7.27927 7.73538 9.23189 5.78276L13.8281 1.18656Z" fill="#111014"/>
<path id="Combined Shape" fill-rule="evenodd" clip-rule="evenodd" d="M11.3821 16.4172L7.08398 12.1191L3.57617 15.627C2.38929 16.8138 2.38929 18.7382 3.57617 19.925C4.76306 21.1119 6.68738 21.1119 7.87426 19.925L11.3821 16.4172ZM6.61573 18.924C6.05784 19.4819 5.14911 19.4777 4.58603 18.9146C4.02296 18.3515 4.01875 17.4428 4.57664 16.8849C5.13453 16.327 6.04326 16.3312 6.60634 16.8943C7.16942 17.4574 7.17362 18.3661 6.61573 18.924Z" fill="#111014"/>
</g>
</svg>
