<svg width="24" height="24" viewBox="0 0 24 24" fill="none" xmlns="http://www.w3.org/2000/svg">
<g id="Property 2=Code #1">
<path id="Combined Shape" fill-rule="evenodd" clip-rule="evenodd" d="M6.68536 7.2718C7.08754 7.65032 7.10672 8.28319 6.7282 8.68537L3.37325 12.25L6.7282 15.8146C7.10672 16.2168 7.08754 16.8497 6.68536 17.2282C6.28319 17.6067 5.65032 17.5875 5.2718 17.1854L1.2718 12.9354C0.9094 12.5503 0.9094 11.9497 1.2718 11.5646L5.2718 7.31464C5.65032 6.91246 6.28319 6.89329 6.68536 7.2718ZM17.3146 7.27181C16.9125 7.65032 16.8933 8.2832 17.2718 8.68537L20.6268 12.25L17.2718 15.8146C16.8933 16.2168 16.9125 16.8497 17.3146 17.2282C17.7168 17.6067 18.3497 17.5875 18.7282 17.1854L22.7282 12.9354C23.0906 12.5503 23.0906 11.9497 22.7282 11.5646L18.7282 7.31464C18.3497 6.91247 17.7168 6.89329 17.3146 7.27181Z" fill="#111014"/>
<rect id="Rectangle 28" opacity="0.3" x="13.1055" y="4.01367" width="2" height="16" rx="1" transform="rotate(15 13.1055 4.01367)" fill="#111014"/>
</g>
</svg>
