<svg width="24" height="24" viewBox="0 0 24 24" fill="none" xmlns="http://www.w3.org/2000/svg">
<g id="Property 2=Flatten">
<path id="Combined Shape" fill-rule="evenodd" clip-rule="evenodd" d="M9 21C12.3137 21 15 18.3137 15 15C15 11.6863 12.3137 9 9 9C5.68629 9 3 11.6863 3 15C3 18.3137 5.68629 21 9 21Z" fill="#111014"/>
<path id="Combined Shape_2" opacity="0.3" fill-rule="evenodd" clip-rule="evenodd" d="M8.80078 7.00242C8.86682 7.00081 8.93306 7 8.99949 7C13.4178 7 16.9995 10.5817 16.9995 15C16.9995 15.0664 16.9987 15.1327 16.9971 15.1987C18.7918 14.1616 19.9995 12.2218 19.9995 10C19.9995 6.68629 17.3132 4 13.9995 4C11.7776 4 9.83786 5.20768 8.80078 7.00242Z" fill="#111014"/>
</g>
</svg>
