<svg width="24" height="24" viewBox="0 0 24 24" fill="none" xmlns="http://www.w3.org/2000/svg">
<g id="Property 2=Box#3">
<path id="Combined Shape" opacity="0.3" fill-rule="evenodd" clip-rule="evenodd" d="M20.4061 6.73647C20.7673 6.89697 21 7.25509 21 7.65028V16.412C21 16.7752 20.8031 17.1098 20.4856 17.2862L12.4856 21.7306C12.1836 21.8984 11.8164 21.8984 11.5144 21.7306L3.51436 17.2862C3.19689 17.1098 3 16.7752 3 16.412L3 7.65028C3 7.25509 3.23273 6.89697 3.59386 6.73647L11.5939 3.18092C11.8524 3.066 12.1476 3.066 12.4061 3.18092L20.4061 6.73647Z" fill="#111014"/>
<path id="Combined Shape Copy" fill-rule="evenodd" clip-rule="evenodd" d="M14.9668 4.22461L7.59961 8.31747V12.9059L9.59961 13.9059V9.49428L17.2547 5.24146L14.9668 4.22461Z" fill="#111014"/>
</g>
</svg>
