<svg width="24" height="24" viewBox="0 0 24 24" fill="none" xmlns="http://www.w3.org/2000/svg">
<g id="Property 2=&#208;&#161;upboard">
<path id="Combined Shape" opacity="0.3" fill-rule="evenodd" clip-rule="evenodd" d="M3.5 3C2.67157 3 2 3.67157 2 4.5V18.5C2 19.3284 2.67157 20 3.5 20H9.5C10.3284 20 11 19.3284 11 18.5V4.5C11 3.67157 10.3284 3 9.5 3H3.5ZM9 9C8.44772 9 8 9.44772 8 10V12C8 12.5523 8.44772 13 9 13C9.55228 13 10 12.5523 10 12V10C10 9.44772 9.55228 9 9 9Z" fill="#111014"/>
<path id="Combined Shape Copy" fill-rule="evenodd" clip-rule="evenodd" d="M20.5 3C21.3284 3 22 3.67157 22 4.5V18.5C22 19.3284 21.3284 20 20.5 20H14.5C13.6716 20 13 19.3284 13 18.5V4.5C13 3.67157 13.6716 3 14.5 3H20.5ZM15 9C15.5523 9 16 9.44772 16 10V12C16 12.5523 15.5523 13 15 13C14.4477 13 14 12.5523 14 12V10C14 9.44772 14.4477 9 15 9Z" fill="#111014"/>
</g>
</svg>
