<svg width="24" height="24" viewBox="0 0 24 24" fill="none" xmlns="http://www.w3.org/2000/svg">
<g id="Property 2=Deer">
<path id="Combined Shape" opacity="0.3" fill-rule="evenodd" clip-rule="evenodd" d="M21.0196 2.80408C21.1279 2.26252 21.6547 1.9113 22.1963 2.01961C22.7379 2.12792 23.0891 2.65475 22.9808 3.19631L21.9822 8.18932C21.931 8.45598 21.7722 8.70319 21.5147 8.85769L19.0153 10.3573C19.6913 9.95115 19.653 8.95856 18.9474 8.60577L18.4564 8.36027L19.3874 7.80165L16.2931 4.7073C15.9026 4.31678 15.9026 3.68361 16.2931 3.29309C16.6836 2.90256 17.3168 2.90256 17.7073 3.29309L20.3861 5.97184L21.0196 2.80408ZM16.4236 9.57994L18.4564 8.36027L15.9474 7.10577C15.4534 6.85878 14.8528 7.059 14.6058 7.55298C14.3588 8.04696 14.559 8.64763 15.053 8.89462L16.4236 9.57994ZM7.44384 9.50019L8.51469 8.85769C8.98827 8.57354 9.14183 7.95928 8.85769 7.4857C8.57354 7.01212 7.95928 6.85855 7.4857 7.1427L5.50019 8.334L4.61295 7.80165L7.7073 4.7073C8.09782 4.31678 8.09782 3.68361 7.7073 3.29309C7.31678 2.90256 6.68361 2.90256 6.29309 3.29309L3.61433 5.97184L2.98077 2.80408C2.87246 2.26252 2.34564 1.9113 1.80408 2.01961C1.26252 2.12792 0.9113 2.65475 1.01961 3.19631L2.01821 8.18928C2.06935 8.45595 2.22819 8.70318 2.4857 8.85769L4.98505 10.3573C4.33836 9.96866 4.33857 9.03097 4.9857 8.6427L5.50019 8.334L7.44384 9.50019Z" fill="#111014"/>
<rect id="Rectangle 192" x="7.85547" y="10" width="8.28974" height="11" rx="2" fill="#111014"/>
</g>
</svg>
