<svg width="24" height="24" viewBox="0 0 24 24" fill="none" xmlns="http://www.w3.org/2000/svg">
<g id="Property 2=Incoming-mail">
<path id="Combined Shape" fill-rule="evenodd" clip-rule="evenodd" d="M5 9C3.89543 9 3 9.89543 3 11V20C3 21.1046 3.89543 22 5 22H19C20.1046 22 21 21.1046 21 20V11C21 9.89543 20.1046 9 19 9H5ZM19.1604 11.1444C18.964 10.7797 18.5091 10.6433 18.1444 10.8396L12 14.1482L5.85557 10.8396C5.49087 10.6433 5.03603 10.7797 4.83965 11.1444C4.64327 11.5091 4.77972 11.964 5.14443 12.1604L11.6444 15.6604C11.8664 15.7799 12.1336 15.7799 12.3556 15.6604L18.8556 12.1604C19.2203 11.964 19.3567 11.5091 19.1604 11.1444Z" fill="#111014"/>
<path id="Shape" opacity="0.3" d="M15.2696 3.654C15.5447 3.32907 15.3138 2.83091 14.888 2.83091L12.9316 2.83091V0.823242C12.9316 0.547099 12.7077 0.323242 12.4316 0.323242L11.4083 0.323242C11.1321 0.323242 10.9083 0.5471 10.9083 0.823242V2.83091L8.95179 2.83091C8.52604 2.83091 8.29509 3.32907 8.57019 3.654L11.5383 7.15966C11.738 7.39555 12.1018 7.39555 12.3015 7.15966L15.2696 3.654Z" fill="#111014"/>
</g>
</svg>
