<svg width="24" height="24" viewBox="0 0 24 24" fill="none" xmlns="http://www.w3.org/2000/svg">
<g id="Property 2=Commit">
<path id="Combined Shape" opacity="0.3" fill-rule="evenodd" clip-rule="evenodd" d="M1.5 11C0.671573 11 0 11.6716 0 12.5C0 13.3284 0.671573 14 1.5 14H3.5C4.32843 14 5 13.3284 5 12.5C5 11.6716 4.32843 11 3.5 11H1.5ZM20.5 11C19.6716 11 19 11.6716 19 12.5C19 13.3284 19.6716 14 20.5 14H22.5C23.3284 14 24 13.3284 24 12.5C24 11.6716 23.3284 11 22.5 11H20.5Z" fill="#111014"/>
<path id="Oval 15" fill-rule="evenodd" clip-rule="evenodd" d="M7 13C7 15.7614 9.23858 18 12 18C14.7614 18 17 15.7614 17 13C17 10.2386 14.7614 8 12 8C9.23858 8 7 10.2386 7 13ZM15 13C15 14.6569 13.6569 16 12 16C10.3431 16 9 14.6569 9 13C9 11.3431 10.3431 10 12 10C13.6569 10 15 11.3431 15 13Z" fill="#111014"/>
</g>
</svg>
