<svg width="24" height="24" viewBox="0 0 24 24" fill="none" xmlns="http://www.w3.org/2000/svg">
<g id="Property 2=Bed">
<path id="Path 61" opacity="0.3" d="M4 22H2C2 19.2386 4.23858 18 7 18H17C19.7614 18 22 19.2386 22 22H20C20 20.3431 18.6569 20 17 20H7C5.34315 20 4 20.3431 4 22Z" fill="#111014"/>
<rect id="Rectangle 137" x="1" y="14" width="22" height="6" rx="1" fill="#111014"/>
<path id="Combined Shape" opacity="0.3" fill-rule="evenodd" clip-rule="evenodd" d="M3 8C3 6.89543 3.89543 6 5 6H19C20.1046 6 21 6.89543 21 8V12C21 12.5523 20.5523 13 20 13H19V12C19 11.4477 18.5523 11 18 11H14C13.4477 11 13 11.4477 13 12V13H11V12C11 11.4477 10.5523 11 10 11H6C5.44772 11 5 11.4477 5 12V13H4C3.44772 13 3 12.5523 3 12V8Z" fill="#111014"/>
</g>
</svg>
