<svg width="24" height="24" viewBox="0 0 24 24" fill="none" xmlns="http://www.w3.org/2000/svg">
<g id="Property 2=Layout-top-panel-4">
<path id="Combined Shape" fill-rule="evenodd" clip-rule="evenodd" d="M2 5C2 4.44772 2.44772 4 3 4H20C20.5523 4 21 4.44772 21 5V7C21 7.55228 20.5523 8 20 8H3C2.44771 8 2 7.55228 2 7V5ZM2 11C2 10.4477 2.44772 10 3 10H13C13.5523 10 14 10.4477 14 11V13C14 13.5523 13.5523 14 13 14H3C2.44772 14 2 13.5523 2 13V11ZM3 16C2.44772 16 2 16.4477 2 17V19C2 19.5523 2.44772 20 3 20H13C13.5523 20 14 19.5523 14 19V17C14 16.4477 13.5523 16 13 16H3Z" fill="#111014"/>
<rect id="Rectangle 7 Copy 2" opacity="0.3" x="16" y="10" width="5" height="10" rx="1" fill="#111014"/>
</g>
</svg>
