<svg width="24" height="24" viewBox="0 0 24 24" fill="none" xmlns="http://www.w3.org/2000/svg">
<g id="Property 2=Grater">
<path id="Path 115" opacity="0.3" d="M7.92922 8.37139L6.07227 7.62861L6.95809 5.41404C7.78288 3.35208 9.77994 2 12.0007 2C14.2215 2 16.2186 3.35208 17.0434 5.41404L17.9292 7.62861L16.0723 8.37139L15.1864 6.15682C14.6654 4.85418 13.4037 4 12.0007 4C10.5978 4 9.33611 4.85418 8.81505 6.15682L7.92922 8.37139Z" fill="#111014"/>
<path id="Combined Shape" fill-rule="evenodd" clip-rule="evenodd" d="M5.36133 7C4.25676 7 3.36133 7.89543 3.36133 9V19C3.36133 20.1046 4.25676 21 5.36133 21H18.6398C19.7444 21 20.6398 20.1046 20.6398 19V9C20.6398 7.89543 19.7444 7 18.6398 7H5.36133ZM7.00041 18C7.00041 18.5523 6.55269 19 6.00041 19C5.44812 19 5.00041 18.5523 5.00041 18C5.00041 17.4477 5.44812 17 6.00041 17C6.55269 17 7.00041 17.4477 7.00041 18ZM8.00041 15C8.55269 15 9.00041 14.5523 9.00041 14C9.00041 13.4477 8.55269 13 8.00041 13C7.44812 13 7.00041 13.4477 7.00041 14C7.00041 14.5523 7.44812 15 8.00041 15ZM11.0004 10C11.0004 10.5523 10.5527 11 10.0004 11C9.44812 11 9.00041 10.5523 9.00041 10C9.00041 9.44772 9.44812 9 10.0004 9C10.5527 9 11.0004 9.44772 11.0004 10ZM14.0004 11C14.5527 11 15.0004 10.5523 15.0004 10C15.0004 9.44772 14.5527 9 14.0004 9C13.4481 9 13.0004 9.44772 13.0004 10C13.0004 10.5523 13.4481 11 14.0004 11ZM13.0004 14C13.0004 14.5523 12.5527 15 12.0004 15C11.4481 15 11.0004 14.5523 11.0004 14C11.0004 13.4477 11.4481 13 12.0004 13C12.5527 13 13.0004 13.4477 13.0004 14ZM16.0004 15C16.5527 15 17.0004 14.5523 17.0004 14C17.0004 13.4477 16.5527 13 16.0004 13C15.4481 13 15.0004 13.4477 15.0004 14C15.0004 14.5523 15.4481 15 16.0004 15ZM11.0004 18C11.0004 18.5523 10.5527 19 10.0004 19C9.44812 19 9.00041 18.5523 9.00041 18C9.00041 17.4477 9.44812 17 10.0004 17C10.5527 17 11.0004 17.4477 11.0004 18ZM14.0004 19C14.5527 19 15.0004 18.5523 15.0004 18C15.0004 17.4477 14.5527 17 14.0004 17C13.4481 17 13.0004 17.4477 13.0004 18C13.0004 18.5523 13.4481 19 14.0004 19ZM19.0004 18C19.0004 18.5523 18.5527 19 18.0004 19C17.4481 19 17.0004 18.5523 17.0004 18C17.0004 17.4477 17.4481 17 18.0004 17C18.5527 17 19.0004 17.4477 19.0004 18Z" fill="#111014"/>
</g>
</svg>
