<svg width="24" height="24" viewBox="0 0 24 24" fill="none" xmlns="http://www.w3.org/2000/svg">
<g id="Property 2=Temperature-half">
<path id="Combined Shape" fill-rule="evenodd" clip-rule="evenodd" d="M12 22C15.3137 22 18 19.3137 18 16C18 13.7792 16.7934 11.8401 15 10.8027V5C15 3.34315 13.6569 2 12 2C10.3431 2 9 3.34315 9 5V10.8027C7.2066 11.8401 6 13.7792 6 16C6 19.3137 8.68629 22 12 22ZM12 4C11.4477 4 11 4.44772 11 5V10C11 10.5523 11.4477 11 12 11C12.5523 11 13 10.5523 13 10V5C13 4.44772 12.5523 4 12 4Z" fill="#111014"/>
</g>
</svg>
