<svg width="24" height="24" viewBox="0 0 24 24" fill="none" xmlns="http://www.w3.org/2000/svg">
<g id="Property 2=Glass-martini">
<path id="Combined Shape" opacity="0.3" d="M11 13.5H21V21C21 21.5523 20.5523 22 20 22H12C11.4477 22 11 21.5523 11 21V13.5Z" fill="#111014"/>
<path id="Path 58" fill-rule="evenodd" clip-rule="evenodd" d="M10.439 13.6486C11.129 14.5111 12.3876 14.651 13.2501 13.961C13.3654 13.8687 13.4702 13.7639 13.5624 13.6486L20.1317 5.43704C20.6492 4.79015 20.5443 3.84621 19.8974 3.3287C19.6315 3.11592 19.301 3 18.9604 3H5.04102C4.21259 3 3.54102 3.67157 3.54102 4.5C3.54102 4.84061 3.65694 5.17107 3.86971 5.43704L10.439 13.6486ZM8.5007 8.01229L6.08133 5H17.9201L15.5007 8.01229H8.5007Z" fill="#111014"/>
</g>
</svg>
