<svg width="24" height="24" viewBox="0 0 24 24" fill="none" xmlns="http://www.w3.org/2000/svg">
<g id="Property 2=Trash #1">
<path id="Combined Shape" fill-rule="evenodd" clip-rule="evenodd" d="M6.89346 19.615L6 8H18L17.1065 19.615C17.0464 20.3965 16.3948 21 15.611 21H8.38905C7.60524 21 6.95358 20.3965 6.89346 19.615ZM8.45438 14.0894L8 10H16L15.5518 14.0339L8.45438 14.0894Z" fill="#111014"/>
<path id="Shape" opacity="0.3" fill-rule="evenodd" clip-rule="evenodd" d="M14 4.5V3.5C14 3.22386 13.7761 3 13.5 3H10.5C10.2239 3 10 3.22386 10 3.5V4.5H5.5C5.22386 4.5 5 4.72386 5 5V5.5C5 5.77614 5.22386 6 5.5 6H18.5C18.7761 6 19 5.77614 19 5.5V5C19 4.72386 18.7761 4.5 18.5 4.5H14Z" fill="#111014"/>
</g>
</svg>
