<svg width="24" height="24" viewBox="0 0 24 24" fill="none" xmlns="http://www.w3.org/2000/svg">
<g id="Property 2=Chat#5">
<path id="Combined Shape" opacity="0.3" fill-rule="evenodd" clip-rule="evenodd" d="M6 3C4.34315 3 3 4.34315 3 6V15C3 16.6569 4.34315 18 6 18H18.0249L20.3178 20.2929C20.9478 20.9229 22.0249 20.4767 22.0249 19.5858V15L22 15.0098C22 15.0065 22 15.0033 22 15V6C22 4.34315 20.6569 3 19 3H6Z" fill="#111014"/>
<path id="Combined Shape_2" opacity="0.3" fill-rule="evenodd" clip-rule="evenodd" d="M7.5 12C6.67157 12 6 11.3284 6 10.5C6 9.67157 6.67157 9 7.5 9C8.32843 9 9 9.67157 9 10.5C9 11.3284 8.32843 12 7.5 12ZM12.5 12C11.6716 12 11 11.3284 11 10.5C11 9.67157 11.6716 9 12.5 9C13.3284 9 14 9.67157 14 10.5C14 11.3284 13.3284 12 12.5 12ZM17.5 12C16.6716 12 16 11.3284 16 10.5C16 9.67157 16.6716 9 17.5 9C18.3284 9 19 9.67157 19 10.5C19 11.3284 18.3284 12 17.5 12Z" fill="#111014"/>
</g>
</svg>
