<svg width="24" height="24" viewBox="0 0 24 24" fill="none" xmlns="http://www.w3.org/2000/svg">
<g id="Property 2=Cap">
<rect id="Rectangle 147" opacity="0.3" x="14" y="4.7002" width="3" height="3" rx="1" fill="#111014"/>
<path id="Combined Shape" fill-rule="evenodd" clip-rule="evenodd" d="M23.9904 15C23.9968 14.8644 24 14.728 24 14.5909C24 14.3923 23.9933 14.1953 23.98 14H21C21 12.3468 22.4235 11.5477 23.3093 11.2104C21.9966 8.14647 18.9535 6 15.4091 6C10.6645 6 6.81818 9.84628 6.81818 14.5909C6.81818 14.728 6.8214 14.8644 6.82775 15H1C0.447715 15 0 15.4477 0 16C0 16.5523 0.447716 17 1 17H23.5C23.7761 17 24 16.7761 24 16.5V15H23.9904Z" fill="#111014"/>
</g>
</svg>
