<svg width="24" height="24" viewBox="0 0 24 24" fill="none" xmlns="http://www.w3.org/2000/svg">
<g id="Property 2=Media">
<path id="Combined Shape" opacity="0.3" d="M5.85714 2H13.7364C14.0911 2 14.4343 2.12568 14.7051 2.35474L19.4687 6.38394C19.8057 6.66895 20 7.08788 20 7.5292V20.0833C20 21.8739 19.9796 22 18.1429 22H5.85714C4.02045 22 4 21.8739 4 20.0833V3.91667C4 2.12612 4.02045 2 5.85714 2Z" fill="#111014"/>
<path id="Path 10" fill-rule="evenodd" clip-rule="evenodd" d="M10 15.3924C10 15.7944 10.4503 16.032 10.7822 15.8052L15.1856 12.7952C15.4755 12.597 15.4762 12.1695 15.1868 11.9704L10.7834 8.94144C10.4516 8.71325 10 8.95075 10 9.3534V15.3924Z" fill="#111014"/>
</g>
</svg>
