<svg width="24" height="24" viewBox="0 0 24 24" fill="none" xmlns="http://www.w3.org/2000/svg">
<g id="Property 2=Coffee#2">
<path id="Combined Shape" opacity="0.3" d="M7 5C7 4.44772 7.44772 4 8 4H21C21.5523 4 22 4.44772 22 5V16C22 18.2091 20.2091 20 18 20H11C8.79086 20 7 18.2091 7 16V5Z" fill="#111014"/>
<path id="Path 52" d="M7 7V9H5C4.44772 9 4 9.44772 4 10V12C4 12.5523 4.44772 13 5 13H7V15H5C3.34315 15 2 13.6569 2 12V10C2 8.34315 3.34315 7 5 7H7Z" fill="#111014"/>
<rect id="Rectangle 119" opacity="0.3" x="18" y="7" width="2" height="8" rx="1" fill="#111014"/>
</g>
</svg>
