<svg width="24" height="24" viewBox="0 0 24 24" fill="none" xmlns="http://www.w3.org/2000/svg">
<g id="Property 2=Color-profile">
<path id="Combined Shape" opacity="0.3" fill-rule="evenodd" clip-rule="evenodd" d="M4 15C4 17.7614 6.23858 20 9 20C10.1256 20 11.1643 19.6281 12 19.0004C12.8357 19.6281 13.8744 20 15 20C17.7614 20 20 17.7614 20 15C20 12.2386 17.7614 10 15 10C13.8744 10 12.8357 10.3719 12 10.9996C11.1643 10.3719 10.1256 10 9 10C6.23858 10 4 12.2386 4 15ZM13.3336 12.5044C13.7575 13.2388 14 14.0911 14 15C14 15.9089 13.7575 16.7611 13.3336 17.4956C13.8189 17.8207 14.3938 18 15 18C16.6569 18 18 16.6569 18 15C18 13.3431 16.6569 12 15 12C14.3931 12 13.8176 12.1804 13.3336 12.5044Z" fill="#111014"/>
<path id="Oval 14" fill-rule="evenodd" clip-rule="evenodd" d="M12 14C14.7614 14 17 11.7614 17 9C17 6.23858 14.7614 4 12 4C9.23858 4 7 6.23858 7 9C7 11.7614 9.23858 14 12 14Z" fill="#111014"/>
</g>
</svg>
