<svg width="24" height="24" viewBox="0 0 24 24" fill="none" xmlns="http://www.w3.org/2000/svg">
<g id="Property 2=Rolling-pin">
<path id="Rectangle 85" fill-rule="evenodd" clip-rule="evenodd" d="M5.28309 14.4745L14.4755 5.28211C15.0613 4.69633 16.011 4.69633 16.5968 5.28211L18.7181 7.40343C19.3039 7.98922 19.3039 8.93897 18.7181 9.52475L9.52573 18.7171C8.93994 19.3029 7.9902 19.3029 7.40441 18.7171L5.28309 16.5958C4.6973 16.01 4.6973 15.0603 5.28309 14.4745Z" fill="#111014"/>
<path id="Combined Shape" opacity="0.3" fill-rule="evenodd" clip-rule="evenodd" d="M3.51551 18.3638L4.22262 17.6567C4.41788 17.4614 4.73446 17.4614 4.92973 17.6567L6.34394 19.0709C6.5392 19.2661 6.5392 19.5827 6.34394 19.778L5.63683 20.4851C5.05105 21.0709 4.1013 21.0709 3.51551 20.4851C2.92973 19.8993 2.92973 18.9496 3.51551 18.3638ZM18.3648 3.51454C18.9505 2.92875 19.9003 2.92875 20.4861 3.51454C21.0719 4.10032 21.0719 5.05007 20.4861 5.63586L19.779 6.34296C19.5837 6.53822 19.2671 6.53822 19.0719 6.34296L17.6576 4.92875C17.4624 4.73349 17.4624 4.4169 17.6576 4.22164L18.3648 3.51454Z" fill="#111014"/>
</g>
</svg>
