<svg width="24" height="24" viewBox="0 0 24 24" fill="none" xmlns="http://www.w3.org/2000/svg">
<g id="Property 2=Folder-star">
<path id="Combined Shape" opacity="0.3" fill-rule="evenodd" clip-rule="evenodd" d="M2 19.5C2 20.3284 2.67157 21 3.5 21H20.5C21.3284 21 22 20.3284 22 19.5V8.5C22 7.67157 21.3284 7 20.5 7H10L7.43934 4.43934C7.15804 4.15804 6.7765 4 6.37868 4H3.5C2.67157 4 2 4.67157 2 5.5V19.5Z" fill="#111014"/>
<path id="Star" opacity="0.3" fill-rule="evenodd" clip-rule="evenodd" d="M12 17.2277L9.80187 18.4353C9.53879 18.5798 9.2134 18.4741 9.07509 18.1992C9.02001 18.0897 9.00101 17.9643 9.02102 17.8424L9.44081 15.2846L7.66252 13.4732C7.44968 13.2564 7.44533 12.9004 7.65279 12.6779C7.73541 12.5894 7.84366 12.5317 7.96078 12.5139L10.4183 12.1408L11.5174 9.81362C11.6489 9.5351 11.9716 9.42074 12.2381 9.5582C12.3443 9.61294 12.4302 9.70271 12.4826 9.81362L13.5816 12.1408L16.0391 12.5139C16.3333 12.5586 16.5371 12.844 16.4943 13.1514C16.4773 13.2738 16.4222 13.3869 16.3374 13.4732L14.5591 15.2846L14.9789 17.8424C15.0292 18.1486 14.8324 18.4393 14.5395 18.4918C14.4228 18.5127 14.3028 18.4928 14.1981 18.4353L12 17.2277Z" fill="#111014"/>
</g>
</svg>
