<svg width="24" height="24" viewBox="0 0 24 24" fill="none" xmlns="http://www.w3.org/2000/svg">
<g id="Property 2=Cart#1">
<path id="Combined Shape" opacity="0.3" fill-rule="evenodd" clip-rule="evenodd" d="M16.9921 6.41085L17.6053 3.7829C17.7299 3.24888 18.206 2.87109 18.7543 2.87109H20.8192C21.4708 2.87109 21.9991 3.39936 21.9991 4.05101C21.9991 4.70266 21.4708 5.23093 20.8192 5.23093H19.6906L18.1437 11.8443L17.4463 16.0291C17.3545 16.5795 16.83 16.9484 16.281 16.8486L4.91215 14.7815C4.53754 14.7134 4.23411 14.4385 4.12951 14.0724L2.30471 7.68557C2.12219 7.04675 2.60185 6.41085 3.26623 6.41085H16.9921Z" fill="#111014"/>
<path id="Combined Shape_2" fill-rule="evenodd" clip-rule="evenodd" d="M8 19.5C8 20.3284 7.32843 21 6.5 21C5.67157 21 5 20.3284 5 19.5C5 18.6716 5.67157 18 6.5 18C7.32843 18 8 18.6716 8 19.5ZM17 19.5C17 20.3284 16.3284 21 15.5 21C14.6716 21 14 20.3284 14 19.5C14 18.6716 14.6716 18 15.5 18C16.3284 18 17 18.6716 17 19.5Z" fill="#111014"/>
</g>
</svg>
