<svg width="24" height="24" viewBox="0 0 24 24" fill="none" xmlns="http://www.w3.org/2000/svg">
<g id="Property 2=Time-schedule">
<path id="Path 107" fill-rule="evenodd" clip-rule="evenodd" d="M10.4636 7.96165C10.4836 7.70115 10.7008 7.5 10.9621 7.5H11.0466C11.3035 7.5 11.5186 7.69465 11.5441 7.95025L11.9991 12.5L15.2472 14.356C15.4029 14.4451 15.4991 14.6107 15.4991 14.7902V14.8454C15.4991 15.1751 15.1856 15.4145 14.8675 15.3278L10.3978 14.1087C10.1664 14.0456 10.0124 13.8271 10.0308 13.588L10.4636 7.96165Z" fill="#111014"/>
<path id="Combined Shape" opacity="0.3" fill-rule="evenodd" clip-rule="evenodd" d="M6.20102 1.41818C5.93691 1.10343 5.42697 1.2239 5.33164 1.62357L4.20314 6.3547C4.12546 6.68035 4.38353 6.98885 4.71778 6.96991L9.58475 6.6941C9.99566 6.67082 10.204 6.18879 9.93948 5.87351L8.74872 4.45442C9.62236 4.15588 10.5488 3.99995 11.5 3.99995C16.1944 3.99995 20 7.80553 20 12.5C20 17.1944 16.1944 21 11.5 21C6.80558 21 3 17.1944 3 12.5C3 11.7119 3.10672 10.94 3.31481 10.1982L1.38913 9.65801C1.13559 10.5619 1 11.5151 1 12.5C1 18.2989 5.70101 23 11.5 23C17.299 23 22 18.2989 22 12.5C22 6.70096 17.299 1.99995 11.5 1.99995C10.0413 1.99995 8.65217 2.29739 7.3898 2.83491L6.20102 1.41818Z" fill="#111014"/>
</g>
</svg>
