<svg width="24" height="24" viewBox="0 0 24 24" fill="none" xmlns="http://www.w3.org/2000/svg">
<g id="Property 2=Position #1">
<path id="Combined Shape" fill-rule="evenodd" clip-rule="evenodd" d="M18 6H15C15 6 14 5.82843 14 5C14 4.17157 15 4 15 4H20V9C20 9 20 10 19 10C18 10 18 9 18 9V6ZM9 18H6V15C6 15 6 14 5 14C4 14 4 15 4 15V20H9C9 20 10 19.8284 10 19C10 18.1716 9 18 9 18ZM18 15V18H15C15 18 14 18 14 19C14 20 15 20 15 20H20V15C20 15 19.8284 14 19 14C18.1716 14 18 15 18 15ZM6 9V6H9C9 6 10 6 10 5C10 4 9 4 9 4H4V9C4 9 4.17157 10 5 10C5.82843 10 6 9 6 9Z" fill="#111014"/>
</g>
</svg>
