<svg width="24" height="24" viewBox="0 0 24 24" fill="none" xmlns="http://www.w3.org/2000/svg">
<g id="Property 2=Volume-half">
<path id="Oval 20" opacity="0.3" d="M16.3154 16.148C15.9539 16.3502 15.4969 16.221 15.2948 15.8595C15.0926 15.498 15.2218 15.041 15.5833 14.8388C16.6044 14.2678 17.2499 13.1908 17.2499 11.9998C17.2499 10.8177 16.614 9.7474 15.6047 9.17293C15.2448 8.96802 15.1191 8.51009 15.324 8.15011C15.5289 7.79013 15.9868 7.66442 16.3468 7.86932C17.82 8.70789 18.7499 10.273 18.7499 11.9998C18.7499 13.7395 17.806 15.3145 16.3154 16.148Z" fill="#111014"/>
<path id="Combined Shape" fill-rule="evenodd" clip-rule="evenodd" d="M12 5.41412C12 4.52321 10.9229 4.07704 10.2929 4.70701L7 7.9999H4C2.89543 7.9999 2 8.89533 2 9.9999V13.9999C2 15.1045 2.89543 15.9999 4 15.9999H7L10.2929 19.2928C10.9229 19.9228 12 19.4766 12 18.5857V5.41412Z" fill="#111014"/>
</g>
</svg>
