<svg width="24" height="24" viewBox="0 0 24 24" fill="none" xmlns="http://www.w3.org/2000/svg">
<g id="Property 2=Pen&#38;ruller">
<path id="Combined Shape" opacity="0.3" fill-rule="evenodd" clip-rule="evenodd" d="M4 3C3.44772 3 3 3.44772 3 4V6H5C5.55228 6 6 6.44772 6 7C6 7.55228 5.55228 8 5 8H3V10H5C5.55228 10 6 10.4477 6 11C6 11.5523 5.55228 12 5 12H3V14H5C5.55228 14 6 14.4477 6 15C6 15.5523 5.55228 16 5 16H3V19C3 19.5523 3.44772 20 4 20H10C10.5523 20 11 19.5523 11 19V4C11 3.44772 10.5523 3 10 3H4Z" fill="#111014"/>
</g>
</svg>
