<svg width="24" height="24" viewBox="0 0 24 24" fill="none" xmlns="http://www.w3.org/2000/svg">
<g id="Property 2=Ticket">
<path id="Combined Shape Copy" opacity="0.3" fill-rule="evenodd" clip-rule="evenodd" d="M6.13522 11.0855L2.59968 14.621C2.20916 15.0115 2.20916 15.6447 2.59968 16.0352L4.04926 17.4848C5.01994 16.8417 6.34065 16.9478 7.19588 17.803C8.05111 18.6582 8.15717 19.9789 7.51407 20.9496L8.96365 22.3992C9.35417 22.7897 9.98733 22.7897 10.3779 22.3992L13.9134 18.8637L12.4992 17.4494C12.1087 17.0589 12.1087 16.4258 12.4992 16.0352C12.8897 15.6447 13.5229 15.6447 13.9134 16.0352L15.3276 17.4494L22.3987 10.3784C22.7892 9.98785 22.7892 9.35469 22.3987 8.96416L20.9491 7.51459C19.9784 8.15769 18.6577 8.05163 17.8025 7.1964C16.9472 6.34117 16.8412 5.02046 17.4843 4.04978L16.0347 2.6002C15.6442 2.20968 15.011 2.20968 14.6205 2.6002L7.54943 9.67127L8.96365 11.0855C9.35417 11.476 9.35417 12.1092 8.96365 12.4997C8.57312 12.8902 7.93996 12.8902 7.54943 12.4997L6.13522 11.0855ZM9.67075 14.621C9.28023 14.2305 9.28023 13.5973 9.67075 13.2068C10.0613 12.8163 10.6944 12.8163 11.085 13.2068L11.7921 13.9139C12.1826 14.3044 12.1826 14.9376 11.7921 15.3281C11.4015 15.7186 10.7684 15.7186 10.3779 15.3281L9.67075 14.621Z" fill="#111014"/>
</g>
</svg>
