<svg width="24" height="24" viewBox="0 0 24 24" fill="none" xmlns="http://www.w3.org/2000/svg">
<g id="Property 2=Reply-all">
<path id="Shape Copy" opacity="0.3" d="M9.55023 4.69287C9.55023 4.04213 8.77825 3.70016 8.29629 4.1374L1.15622 10.6151C0.830411 10.9106 0.827788 11.4219 1.15055 11.7208L8.29062 18.3333C8.77075 18.7779 9.55023 18.4374 9.55023 17.783V4.69287Z" fill="#111014"/>
<path id="Shape" d="M23.2959 17.791C23.2959 16.9707 23.4717 13.7334 20.918 11.165C19.1992 9.43652 16.627 9.13672 13.5508 9V4.69308C13.5508 4.04233 12.7788 3.70036 12.2968 4.13761L5.15678 10.6153C4.83096 10.9108 4.82834 11.4221 5.15111 11.721L12.2912 18.3335C12.7713 18.7781 13.5508 18.4376 13.5508 17.7832V13.5C15.5039 13.5537 16.8952 13.6779 18.1592 14.0801C20.6023 14.8573 22.052 18.1902 22.4429 19.2054C22.5103 19.3804 22.6773 19.5 22.8649 19.5C23.1056 19.5 23.3007 19.3049 23.3 19.0642C23.2986 18.6211 23.2959 18.1117 23.2959 17.791Z" fill="#111014"/>
</g>
</svg>
