<svg width="24" height="24" viewBox="0 0 24 24" fill="none" xmlns="http://www.w3.org/2000/svg">
<g id="Property 2=Repeat">
<path id="Combined Shape" fill-rule="evenodd" clip-rule="evenodd" d="M12.798 9.384C12.4681 9.62888 12 9.39338 12 8.98251V7.99996H8C5.79086 7.99996 4 9.79082 4 12V13C4 14.6568 5.34315 16 7 16V18C4.23858 18 2 15.7614 2 13V12C2 8.68625 4.68629 5.99996 8 5.99996H12V4.72796C12 4.31639 12.4695 4.08107 12.7992 4.32736L15.6562 6.46133C15.9245 6.66167 15.9239 7.06388 15.655 7.26341L12.798 9.384Z" fill="#111014"/>
<path id="Combined Shape_2" opacity="0.3" fill-rule="evenodd" clip-rule="evenodd" d="M16.9999 6V8C18.6568 8 19.9999 9.34315 19.9999 11V12C19.9999 14.2091 18.2091 16 15.9999 16H12.0582V14.728C12.0582 14.3164 11.5888 14.0811 11.259 14.3274L8.40199 16.4614C8.13377 16.6617 8.13438 17.0639 8.4032 17.2635L11.2602 19.384C11.5902 19.6289 12.0582 19.3934 12.0582 18.9825V18H15.9999C19.3136 18 21.9999 15.3137 21.9999 12V11C21.9999 8.23858 19.7613 6 16.9999 6Z" fill="#111014"/>
</g>
</svg>
