<svg width="24" height="24" viewBox="0 0 24 24" fill="none" xmlns="http://www.w3.org/2000/svg">
<g id="Property 2=Pen-tool-vector">
<path id="Combined Shape" fill-rule="evenodd" clip-rule="evenodd" d="M6.20714 12.5852C6.07559 12.8483 6.06655 13.1559 6.18242 13.4263L8.86984 19.697C8.94863 19.8808 9.1294 20 9.32942 20H14.67C14.87 20 15.0508 19.8808 15.1296 19.697L17.817 13.4263C17.9329 13.1559 17.9239 12.8483 17.7923 12.5852L12.9997 3V11C12.9997 11.0862 12.9888 11.1699 12.9683 11.2498C13.5834 11.5909 13.9997 12.2468 13.9997 13C13.9997 14.1046 13.1043 15 11.9997 15C10.8951 15 9.99972 14.1046 9.99972 13C9.99972 12.2468 10.4161 11.5909 11.0312 11.2498C11.0106 11.1699 10.9997 11.0862 10.9997 11V3L6.20714 12.5852Z" fill="#111014"/>
<path id="Rectangle 2" opacity="0.3" d="M9 22C9 21.4477 9.44772 21 10 21H14C14.5523 21 15 21.4477 15 22V23H9V22Z" fill="#111014"/>
</g>
</svg>
