<svg width="24" height="24" viewBox="0 0 24 24" fill="none" xmlns="http://www.w3.org/2000/svg">
<g id="Property 2=Axe">
<path id="Combined Shape" opacity="0.3" fill-rule="evenodd" clip-rule="evenodd" d="M15.9507 3.80754C15.5601 3.41702 14.927 3.41702 14.5364 3.80754L13.8293 4.51465C13.4388 4.90517 13.4388 5.53834 13.8293 5.92886L15.2435 7.34308C15.6341 7.7336 16.2672 7.7336 16.6578 7.34308L17.3649 6.63597C17.7554 6.24544 17.7554 5.61228 17.3649 5.22176L15.9507 3.80754ZM1.80852 17.9497C1.41799 17.5592 1.41799 16.926 1.80852 16.5355L11.708 6.63597C12.0985 6.24544 12.7317 6.24545 13.1222 6.63597L14.5364 8.05018C14.927 8.44071 14.927 9.07387 14.5364 9.4644L4.63695 19.3639C4.24642 19.7544 3.61326 19.7544 3.22273 19.3639L1.80852 17.9497ZM15.2435 15.8284L21.6075 9.4644L23.0217 10.8786L16.6578 17.2426L15.2435 15.8284Z" fill="#111014"/>
<path id="Path 44" fill-rule="evenodd" clip-rule="evenodd" d="M20.8993 8.75767C20.8993 8.75767 17.0102 7.69701 15.9495 6.63635C14.8889 5.57569 11.7069 2.39371 11.7069 2.39371L8.17135 5.92924C8.17135 5.92924 10.9998 8.75767 12.414 10.1719C13.8282 11.5861 14.5353 15.1216 14.5353 15.1216L20.8993 8.75767Z" fill="#111014"/>
</g>
</svg>
