<svg width="24" height="24" viewBox="0 0 24 24" fill="none" xmlns="http://www.w3.org/2000/svg">
<g id="Property 2=Attachment#2">
<path id="Combined Shape" opacity="0.3" fill-rule="evenodd" clip-rule="evenodd" d="M9.87778 12.7071L7.75646 14.8285C7.36594 15.219 7.36594 15.8522 7.75646 16.2427C8.14699 16.6332 8.78015 16.6332 9.17068 16.2427L11.292 14.1214L11.9991 14.8285C12.7802 15.6095 12.7802 16.8758 11.9991 17.6569L9.17068 20.4853C8.38963 21.2664 7.1233 21.2664 6.34225 20.4853L3.51382 17.6569C2.73277 16.8758 2.73277 15.6095 3.51382 14.8285L6.34225 12C7.1233 11.219 8.38963 11.219 9.17068 12L9.87778 12.7071Z" fill="#111014"/>
<path id="Combined Shape Copy" fill-rule="evenodd" clip-rule="evenodd" d="M14.1215 11.2929L16.2428 9.17154C16.6333 8.78101 16.6333 8.14785 16.2428 7.75732C15.8523 7.3668 15.2191 7.3668 14.8286 7.75732L12.7073 9.87864L12.0002 9.17154C11.2191 8.39049 11.2191 7.12416 12.0002 6.34311L14.8286 3.51468C15.6096 2.73364 16.876 2.73363 17.657 3.51468L20.4854 6.34311C21.2665 7.12416 21.2665 8.39049 20.4854 9.17154L17.657 12C16.876 12.781 15.6096 12.781 14.8286 12L14.1215 11.2929Z" fill="#111014"/>
<path id="Combined Shape_2" opacity="0.3" fill-rule="evenodd" clip-rule="evenodd" d="M4.22123 5.63585C3.83071 5.24533 3.83071 4.61216 4.22123 4.22164C4.61176 3.83112 5.24492 3.83112 5.63545 4.22164L7.04966 5.63585C7.44018 6.02638 7.44018 6.65954 7.04966 7.05007C6.65913 7.44059 6.02597 7.44059 5.63545 7.05007L4.22123 5.63585ZM8.34255 2.51453C8.34255 1.96225 8.79027 1.51453 9.34255 1.51453C9.89484 1.51453 10.3426 1.96225 10.3426 2.51453L10.3426 4.51453C10.3426 5.06682 9.89484 5.51453 9.34255 5.51453C8.79027 5.51453 8.34255 5.06682 8.34255 4.51453L8.34255 2.51453ZM1.6857 9.17139C1.6857 8.6191 2.13341 8.17139 2.6857 8.17139H4.6857C5.23798 8.17139 5.6857 8.6191 5.6857 9.17139C5.6857 9.72367 5.23798 10.1714 4.6857 10.1714L2.6857 10.1714C2.13341 10.1714 1.6857 9.72367 1.6857 9.17139Z" fill="#111014"/>
<path id="Combined Shape Copy 2" opacity="0.3" fill-rule="evenodd" clip-rule="evenodd" d="M18.2426 19.6567C18.6331 20.0472 19.2663 20.0472 19.6568 19.6567C20.0473 19.2662 20.0473 18.633 19.6568 18.2425L18.2426 16.8283C17.852 16.4377 17.2189 16.4377 16.8284 16.8283C16.4378 17.2188 16.4378 17.852 16.8284 18.2425L18.2426 19.6567ZM21.3639 15.5354C21.9162 15.5354 22.3639 15.0877 22.3639 14.5354C22.3639 13.9831 21.9162 13.5354 21.3639 13.5354L19.3639 13.5354C18.8116 13.5354 18.3639 13.9831 18.3639 14.5354C18.3639 15.0877 18.8116 15.5354 19.3639 15.5354L21.3639 15.5354ZM14.707 22.1922C15.2593 22.1922 15.707 21.7445 15.707 21.1922V19.1922C15.707 18.6399 15.2593 18.1922 14.707 18.1922C14.1547 18.1922 13.707 18.6399 13.707 19.1922L13.707 21.1922C13.707 21.7445 14.1547 22.1922 14.707 22.1922Z" fill="#111014"/>
</g>
</svg>
