<svg width="24" height="24" viewBox="0 0 24 24" fill="none" xmlns="http://www.w3.org/2000/svg">
<g id="Property 2=Wood-horse">
<path id="Path 106" fill-rule="evenodd" clip-rule="evenodd" d="M6.48126 21.0191C6.49159 21.2875 6.71222 21.4999 6.98089 21.4999H7.61785C7.84333 21.4999 8.04091 21.3489 8.10023 21.1314L9.3766 16.4514C9.44589 16.1973 9.69943 16.0401 9.95822 16.0888C10.7211 16.2325 12.2419 16.4999 12.9998 16.4999C13.809 16.4999 16.0973 16.1951 17.0621 16.0615C17.3122 16.0268 17.5496 16.1828 17.6161 16.4263L18.8993 21.1314C18.9586 21.3489 19.1562 21.4999 19.3816 21.4999H20.0382C20.2988 21.4999 20.5158 21.2996 20.5366 21.0397L21.1542 13.3188C21.3404 10.9914 19.5019 8.99985 17.167 8.99985H12.9998C12.9998 8.99985 11.5382 5.95173 10.4998 4.99985C10.0949 4.62874 6.4233 3.22377 5.03141 2.69909C4.80563 2.61398 4.57923 2.81775 4.63775 3.05184L4.92906 4.21709C4.97275 4.39184 4.91952 4.57612 4.7897 4.70099C4.4395 5.03783 3.7501 5.70778 3.49975 5.99985C3.22734 6.31767 2.75321 7.71925 2.57252 8.27333C2.52567 8.417 2.54847 8.57294 2.6323 8.69868L3.23529 9.60317C3.38334 9.82524 3.67971 9.89188 3.90857 9.75456L4.55093 9.36914C5.20281 8.97801 6.03547 9.42855 6.06469 10.1882L6.48126 21.0191Z" fill="#111014"/>
</g>
</svg>
