<svg width="24" height="24" viewBox="0 0 24 24" fill="none" xmlns="http://www.w3.org/2000/svg">
<g id="Property 2=Binocular">
<path id="Combined Shape" fill-rule="evenodd" clip-rule="evenodd" d="M12.8433 16.0002H11.1563L10.985 16.6395C10.3351 19.0652 7.84182 20.5047 5.41617 19.8547C2.99052 19.2048 1.55103 16.7115 2.20098 14.2858L3.92068 7.86783C4.57064 5.44218 7.0639 4.00269 9.48955 4.65264C10.542 4.93465 11.4088 5.56365 11.9998 6.38359C12.5909 5.56365 13.4576 4.93465 14.5101 4.65264C16.9357 4.00269 19.429 5.44218 20.079 7.86783L21.7987 14.2858C22.4486 16.7115 21.0091 19.2048 18.5835 19.8547C16.1578 20.5047 13.6646 19.0652 13.0146 16.6395L12.8433 16.0002ZM17.4562 18.1054C18.9629 18.1054 20.1843 16.838 20.1843 15.2746C20.1843 13.7112 18.9629 12.4438 17.4562 12.4438C15.9494 12.4438 14.728 13.7112 14.728 15.2746C14.728 16.838 15.9494 18.1054 17.4562 18.1054ZM6.54347 18.1054C8.0502 18.1054 9.27164 16.838 9.27164 15.2746C9.27164 13.7112 8.0502 12.4438 6.54347 12.4438C5.03674 12.4438 3.81529 13.7112 3.81529 15.2746C3.81529 16.838 5.03674 18.1054 6.54347 18.1054Z" fill="#111014"/>
</g>
</svg>
