<svg width="24" height="24" viewBox="0 0 24 24" fill="none" xmlns="http://www.w3.org/2000/svg">
<g id="Property 2=Brush">
<path id="Combined Shape" opacity="0.3" fill-rule="evenodd" clip-rule="evenodd" d="M16.0576 5.11554L18.1789 7.23686L15.7041 11.8331L20.3003 9.35818L22.068 11.1259C22.2633 11.3212 22.2633 11.6378 22.068 11.8331L16.7647 17.1364L6.86523 7.23686L12.1685 1.93356C12.3638 1.73829 12.6804 1.73829 12.8756 1.93356L14.6434 3.70132L13.9363 5.82264L16.0576 5.11554Z" fill="#111014"/>
<path id="Combined Shape_2" fill-rule="evenodd" clip-rule="evenodd" d="M10.1595 16.1887L6.86792 20.8909C6.23448 21.7958 4.98742 22.0159 4.08253 21.3824C3.98707 21.3156 3.89763 21.2406 3.81524 21.1582L2.85727 20.2002C2.07622 19.4192 2.07622 18.1528 2.85727 17.3718C2.94349 17.2856 3.03742 17.2074 3.13787 17.1383L7.86015 13.8894L4.74352 10.7728C4.353 10.3822 4.353 9.74907 4.74352 9.35855L6.15773 7.94434L16.0572 17.8438L14.643 19.258C14.2525 19.6486 13.6193 19.6486 13.2288 19.258L10.1595 16.1887ZM4.74352 19.258C5.13404 19.6486 5.76721 19.6486 6.15773 19.258C6.54826 18.8675 6.54826 18.2344 6.15773 17.8438C5.76721 17.4533 5.13404 17.4533 4.74352 17.8438C4.353 18.2344 4.353 18.8675 4.74352 19.258Z" fill="#111014"/>
</g>
</svg>
