<svg width="24" height="24" viewBox="0 0 24 24" fill="none" xmlns="http://www.w3.org/2000/svg">
<g id="Property 2=Wallet">
<path id="Oval 47" opacity="0.3" fill-rule="evenodd" clip-rule="evenodd" d="M20.5 14C21.3284 14 22 13.3284 22 12.5C22 11.6716 21.3284 11 20.5 11C19.6716 11 19 11.6716 19 12.5C19 13.3284 19.6716 14 20.5 14Z" fill="#111014"/>
<rect id="Rectangle 162" opacity="0.3" x="2.40039" y="5.44824" width="18" height="7" rx="1" transform="rotate(-15 2.40039 5.44824)" fill="#111014"/>
<path id="Combined Shape" fill-rule="evenodd" clip-rule="evenodd" d="M4 4C2.89543 4 2 4.89543 2 6V18C2 19.1046 2.89543 20 4 20H20C21.1046 20 22 19.1046 22 18V15.6632C21.5454 15.8792 21.0368 16 20.5 16C18.567 16 17 14.433 17 12.5C17 10.567 18.567 9 20.5 9C21.0368 9 21.5454 9.12085 22 9.33682V6C22 4.89543 21.1046 4 20 4H4Z" fill="#111014"/>
</g>
</svg>
