<svg width="24" height="24" viewBox="0 0 24 24" fill="none" xmlns="http://www.w3.org/2000/svg">
<g id="Property 2=Layers">
<path id="Shape" d="M11.0659 16.0731C11.6127 16.5078 12.3871 16.5075 12.9336 16.0724L19.36 10.9565L19.5182 10.8312C20.2755 10.2315 20.2768 9.08264 19.5207 8.48129L12.9337 3.24257C12.3871 2.80788 11.6129 2.80788 11.0663 3.24257L4.47483 8.48489C3.72015 9.08509 3.71966 10.2312 4.47383 10.8321L4.63 10.9565L11.0659 16.0731Z" fill="#111014"/>
<path id="Path" opacity="0.3" fill-rule="evenodd" clip-rule="evenodd" d="M12.923 18.6707C12.3765 19.1053 11.6024 19.1054 11.0559 18.6709L5.33786 14.125C4.94262 13.8108 4.36679 13.8803 4.05763 14.2795C3.74994 14.6768 3.82439 15.2486 4.22355 15.5539L11.0868 20.8033C11.6246 21.2146 12.3713 21.2147 12.9091 20.8035L19.7691 15.5586C20.1717 15.2508 20.2465 14.6741 19.9359 14.2737C19.6242 13.872 19.0443 13.8023 18.6463 14.1188L12.923 18.6707Z" fill="#111014"/>
</g>
</svg>
