<svg width="24" height="24" viewBox="0 0 24 24" fill="none" xmlns="http://www.w3.org/2000/svg">
<g id="Property 2=Chat#4">
<path id="Combined Shape" fill-rule="evenodd" clip-rule="evenodd" d="M2 6C2 4.34315 3.34315 3 5 3H19C20.6569 3 22 4.34315 22 6V15L22 15.0098L22.0249 15V19.5858C22.0249 20.4767 20.9478 20.9229 20.3178 20.2929L18.0249 18H5C3.34315 18 2 16.6569 2 15V6ZM6.4453 9.16795C5.98577 9.4743 5.8616 10.0952 6.16795 10.5547C7.67758 12.8191 9.64567 14 12 14C14.3543 14 16.3224 12.8191 17.8321 10.5547C18.1384 10.0952 18.0142 9.4743 17.5547 9.16795C17.0952 8.8616 16.4743 8.98577 16.1679 9.4453C15.0109 11.1809 13.6457 12 12 12C10.3543 12 8.98909 11.1809 7.83205 9.4453C7.5257 8.98577 6.90483 8.8616 6.4453 9.16795Z" fill="#111014"/>
</g>
</svg>
