<svg width="24" height="24" viewBox="0 0 24 24" fill="none" xmlns="http://www.w3.org/2000/svg">
<g id="Property 2=Font">
<path id="Aa" fill-rule="evenodd" clip-rule="evenodd" d="M0.179688 19.0001L7.09969 4.64014L14.0197 19.0001H12.0597L10.2997 15.2801H3.89969L2.13969 19.0001H0.179688ZM7.09969 8.52014L4.69969 13.6001H9.49969L7.09969 8.52014Z" fill="#111014"/>
<path id="Combined Shape" opacity="0.3" fill-rule="evenodd" clip-rule="evenodd" d="M21.3405 17.9998V18.9998H23.0605V8.99984H21.3405V9.99984C20.5005 9.23984 19.3805 8.83984 18.1605 8.83984C15.2205 8.83984 13.0605 11.0998 13.0605 13.9998C13.0605 16.8998 15.2205 19.1598 18.1605 19.1598C19.3805 19.1598 20.5005 18.7598 21.3405 17.9998ZM21.3405 15.9198C20.7605 16.8598 19.6405 17.5398 18.2005 17.5398C16.2405 17.5398 14.8405 15.9798 14.8405 13.9998C14.8405 12.0198 16.2405 10.4598 18.2005 10.4598C19.6405 10.4598 20.7605 11.1398 21.3405 12.0798V15.9198Z" fill="#111014"/>
</g>
</svg>
