<svg width="24" height="24" viewBox="0 0 24 24" fill="none" xmlns="http://www.w3.org/2000/svg">
<g id="Property 2=Sun-glasses">
<path id="Combined Shape" opacity="0.3" fill-rule="evenodd" clip-rule="evenodd" d="M20.6819 8.82639C20.8249 8.29292 21.3732 7.97634 21.9067 8.11928C22.4401 8.26223 22.7567 8.81056 22.6138 9.34403L20.9666 15.4915C20.8236 16.0249 20.2753 16.3415 19.7418 16.1986C19.2084 16.0556 18.8918 15.5073 19.0347 14.9738L20.6819 8.82639ZM9.89524 16.9423L8.10638 16.0479C9.1818 13.897 11.7972 13.0252 13.948 14.1007C14.7907 14.522 15.4739 15.2052 15.8952 16.0479L14.1064 16.9423C13.8786 16.4867 13.5092 16.1173 13.0536 15.8895C11.8907 15.3081 10.4767 15.7794 9.89524 16.9423ZM2.09494 8.11928C1.56148 8.26223 1.2449 8.81056 1.38784 9.34403L2.94075 15.1396C3.08369 15.673 3.63203 15.9896 4.1655 15.8467C4.69896 15.7037 5.01555 15.1554 4.8726 14.6219L3.31969 8.82639C3.17675 8.29292 2.62841 7.97634 2.09494 8.11928Z" fill="#111014"/>
<path id="Combined Shape_2" fill-rule="evenodd" clip-rule="evenodd" d="M11 15.5C11 17.9853 8.98528 20 6.5 20C4.01472 20 2 17.9853 2 15.5C2 13.0147 4.01472 11 6.5 11C8.98528 11 11 13.0147 11 15.5ZM22 15.5C22 17.9853 19.9853 20 17.5 20C15.0147 20 13 17.9853 13 15.5C13 13.0147 15.0147 11 17.5 11C19.9853 11 22 13.0147 22 15.5Z" fill="#111014"/>
</g>
</svg>
