<svg width="24" height="24" viewBox="0 0 24 24" fill="none" xmlns="http://www.w3.org/2000/svg">
<g id="Property 2=Price #2">
<g id="Group">
<path id="Combined Shape" opacity="0.3" fill-rule="evenodd" clip-rule="evenodd" d="M12.4084 3.63086C14.8991 2.07112 18.2231 2.37448 20.3896 4.54094C22.5566 6.70801 22.5566 10.2215 20.3896 12.3886L9.82634 22.9518C9.62632 23.1519 9.30201 23.1519 9.10199 22.9518L1.2915 15.1413C1.11885 14.9687 1.11885 14.6888 1.2915 14.5161L10.8784 4.92924L12.9997 7.05056C13.0397 7.09052 13.0822 7.1264 13.1267 7.15818C12.5862 8.27561 12.7796 9.65884 13.7068 10.5861C14.8784 11.7577 16.7779 11.7577 17.9494 10.5861C19.121 9.41452 19.121 7.51503 17.9494 6.34345C17.0222 5.4162 15.639 5.22283 14.5215 5.76334C14.4898 5.71882 14.4539 5.67631 14.4139 5.63635L12.4084 3.63086Z" fill="#111014"/>
<rect id="Rectangle" x="8.05078" y="10.5859" width="8" height="2" rx="1" transform="rotate(45 8.05078 10.5859)" fill="#111014"/>
<rect id="Rectangle Copy" x="5.92773" y="14.1221" width="6" height="2" rx="1" transform="rotate(45 5.92773 14.1221)" fill="#111014"/>
</g>
</g>
</svg>
