<svg width="24" height="24" viewBox="0 0 24 24" fill="none" xmlns="http://www.w3.org/2000/svg">
<g id="Property 2=Flashlight">
<path id="Combined Shape" fill-rule="evenodd" clip-rule="evenodd" d="M18 6H6V10C6 10 9 11.5 9 14V18V20C9 21.1046 9.89543 22 11 22H13C14.1046 22 15 21.1046 15 20V18V14C15 12.2797 18 10 18 10V6ZM10 13C10 11.8954 10.8954 11 12 11C13.1046 11 14 11.8954 14 13V15C14 16.1046 13.1046 17 12 17C10.8954 17 10 16.1046 10 15V13ZM13 13C13 13.5523 12.5523 14 12 14C11.4477 14 11 13.5523 11 13C11 12.4477 11.4477 12 12 12C12.5523 12 13 12.4477 13 13Z" fill="#111014"/>
<path id="Rectangle" opacity="0.3" d="M6 3C6 2.44772 6.44772 2 7 2H17C17.5523 2 18 2.44772 18 3V4H6V3Z" fill="#111014"/>
</g>
</svg>
