<svg width="24" height="24" viewBox="0 0 24 24" fill="none" xmlns="http://www.w3.org/2000/svg">
<g id="Property 2=Protected-file">
<path id="Combined Shape" opacity="0.3" d="M5.85714 2H13.7364C14.0911 2 14.4343 2.12568 14.7051 2.35474L19.4687 6.38394C19.8057 6.66895 20 7.08788 20 7.5292V20.0833C20 21.8739 19.9796 22 18.1429 22H5.85714C4.02045 22 4 21.8739 4 20.0833V3.91667C4 2.12612 4.02045 2 5.85714 2Z" fill="#111014"/>
<path id="Combined Shape_2" fill-rule="evenodd" clip-rule="evenodd" d="M9.5 11.5C9.5 10.1193 10.6193 9 12 9C13.3807 9 14.5 10.1193 14.5 11.5V12C15.0523 12 15.5 12.4477 15.5 13V16C15.5 16.5523 15.0523 17 14.5 17H9.5C8.94772 17 8.5 16.5523 8.5 16V13C8.5 12.4477 8.94772 12 9.5 12V11.5ZM12 10C11.1716 10 10.5 10.6716 10.5 11.5V12H13.5V11.5C13.5 10.6716 12.8284 10 12 10Z" fill="#111014"/>
</g>
</svg>
