<svg width="24" height="24" viewBox="0 0 24 24" fill="none" xmlns="http://www.w3.org/2000/svg">
<g id="Property 2=Sale#2">
<path id="Combined Shape" opacity="0.3" fill-rule="evenodd" clip-rule="evenodd" d="M12.0004 20.0218L8.47383 21.7285L6.86942 18.1542L3.07085 17.1949L4.13931 13.4255L1.8461 10.249L5.08747 8.04826L5.37264 4.14081L9.27025 4.53849L12.0004 1.72852L14.7305 4.53849L18.6281 4.14081L18.9133 8.04826L22.1546 10.249L19.8614 13.4255L20.9299 17.1949L17.1313 18.1542L15.5269 21.7285L12.0004 20.0218Z" fill="#111014"/>
<path id="Stroke 1" fill-rule="evenodd" clip-rule="evenodd" d="M14.0896 8.60254L8.36133 14.7014L9.70922 16.0493L15.4375 9.95043L14.0896 8.60254Z" fill="#111014"/>
<path id="Fill 2" opacity="0.3" fill-rule="evenodd" clip-rule="evenodd" d="M10.8549 9.17552C10.8549 10.1254 10.0861 10.894 9.13645 10.894C8.18854 10.894 7.41797 10.1254 7.41797 9.17552C7.41797 8.22564 8.18854 7.45703 9.13645 7.45703C10.0861 7.45703 10.8549 8.22564 10.8549 9.17552Z" fill="#111014"/>
<path id="Fill 4" opacity="0.3" fill-rule="evenodd" clip-rule="evenodd" d="M14.865 16.6225C13.9171 16.6225 13.1465 15.8539 13.1465 14.904C13.1465 13.9524 13.9171 13.1855 14.865 13.1855C15.8146 13.1855 16.5835 13.9524 16.5835 14.904C16.5835 15.8539 15.8146 16.6225 14.865 16.6225Z" fill="#111014"/>
</g>
</svg>
