<svg width="24" height="24" viewBox="0 0 24 24" fill="none" xmlns="http://www.w3.org/2000/svg">
<g id="Property 2=&#208;&#161;ommode#1">
<path id="Combined Shape" opacity="0.3" fill-rule="evenodd" clip-rule="evenodd" d="M5.5 4C4.67157 4 4 4.67157 4 5.5V9.5C4 10.3284 4.67157 11 5.5 11H18.5C19.3284 11 20 10.3284 20 9.5V5.5C20 4.67157 19.3284 4 18.5 4H5.5ZM11 6C10.4477 6 10 6.44772 10 7C10 7.55228 10.4477 8 11 8H13C13.5523 8 14 7.55228 14 7C14 6.44772 13.5523 6 13 6H11Z" fill="#111014"/>
<path id="Combined Shape Copy" fill-rule="evenodd" clip-rule="evenodd" d="M5.5 13C4.67157 13 4 13.6716 4 14.5V18.5C4 19.3284 4.67157 20 5.5 20H18.5C19.3284 20 20 19.3284 20 18.5V14.5C20 13.6716 19.3284 13 18.5 13H5.5ZM11 15C10.4477 15 10 15.4477 10 16C10 16.5523 10.4477 17 11 17H13C13.5523 17 14 16.5523 14 16C14 15.4477 13.5523 15 13 15H11Z" fill="#111014"/>
</g>
</svg>
