<svg width="24" height="24" viewBox="0 0 24 24" fill="none" xmlns="http://www.w3.org/2000/svg">
<g id="Property 2=Thumbtack">
<path id="Combined Shape" fill-rule="evenodd" clip-rule="evenodd" d="M11.6739 8.33087L14.9997 6.09989L14.1217 5.22191C13.7312 4.83138 13.7312 4.19822 14.1217 3.80769L15.5359 2.39348C15.9265 2.00295 16.5596 2.00295 16.9502 2.39348L22.607 8.05033C22.9975 8.44086 22.9975 9.07402 22.607 9.46455L21.1928 10.8788C20.8023 11.2693 20.1691 11.2693 19.7786 10.8788L18.9006 10.0008L16.6696 13.3267C16.9268 14.2524 16.9989 15.2321 16.8668 16.2093L16.4349 19.4059C16.3609 19.9532 15.8573 20.3369 15.31 20.263C15.093 20.2336 14.8916 20.1339 14.7368 19.9791L5.02141 10.2637C4.63088 9.87319 4.63088 9.24003 5.02141 8.8495C5.17624 8.69467 5.37761 8.59494 5.5946 8.56562L8.79116 8.13365C9.7684 8.00159 10.7481 8.07367 11.6739 8.33087Z" fill="#111014"/>
<path id="Path 111" opacity="0.3" fill-rule="evenodd" clip-rule="evenodd" d="M8.81836 14.0605L4.77775 18.1012L4.22217 20.7781L6.89907 20.2225L10.9397 16.1819L8.81836 14.0605Z" fill="#111014"/>
</g>
</svg>
