<svg width="24" height="24" viewBox="0 0 24 24" fill="none" xmlns="http://www.w3.org/2000/svg">
<g id="Property 2=Chat#1">
<path id="Path 75" opacity="0.3" fill-rule="evenodd" clip-rule="evenodd" d="M5 15L3 21.5L9.5 19.5L5 15Z" fill="#111014"/>
<path id="Combined Shape" fill-rule="evenodd" clip-rule="evenodd" d="M23 11.5C23 16.7467 18.7467 21 13.5 21C8.25329 21 4 16.7467 4 11.5C4 6.25329 8.25329 2 13.5 2C18.7467 2 23 6.25329 23 11.5ZM10 11.5C10 12.3284 9.32843 13 8.5 13C7.67157 13 7 12.3284 7 11.5C7 10.6716 7.67157 10 8.5 10C9.32843 10 10 10.6716 10 11.5ZM13.5 13C14.3284 13 15 12.3284 15 11.5C15 10.6716 14.3284 10 13.5 10C12.6716 10 12 10.6716 12 11.5C12 12.3284 12.6716 13 13.5 13ZM20 11.5C20 12.3284 19.3284 13 18.5 13C17.6716 13 17 12.3284 17 11.5C17 10.6716 17.6716 10 18.5 10C19.3284 10 20 10.6716 20 11.5Z" fill="#111014"/>
</g>
</svg>
