<svg width="24" height="24" viewBox="0 0 24 24" fill="none" xmlns="http://www.w3.org/2000/svg">
<g id="Property 2=Component">
<path id="Combined Shape" fill-rule="evenodd" clip-rule="evenodd" d="M12.7434 3.27869C12.2823 3.01518 11.7162 3.01518 11.255 3.27869L4.75189 6.99476C4.28452 7.26183 3.99609 7.75884 3.99609 8.29713V15.7026C3.99609 16.2409 4.28452 16.7379 4.75189 17.005L11.255 20.721C11.7162 20.9845 12.2823 20.9845 12.7434 20.721L19.2466 17.005C19.7139 16.7379 20.0024 16.2409 20.0024 15.7026V8.29713C20.0024 7.75884 19.7139 7.26183 19.2466 6.99476L12.7434 3.27869ZM14.4992 11.9999C14.4992 13.3806 13.3799 14.4999 11.9992 14.4999C10.6185 14.4999 9.49922 13.3806 9.49922 11.9999C9.49922 10.6191 10.6185 9.49986 11.9992 9.49986C13.3799 9.49986 14.4992 10.6191 14.4992 11.9999Z" fill="#111014"/>
</g>
</svg>
