<svg width="24" height="24" viewBox="0 0 24 24" fill="none" xmlns="http://www.w3.org/2000/svg">
<g id="Property 2=Repeat-one">
<path id="Combined Shape" opacity="0.3" fill-rule="evenodd" clip-rule="evenodd" d="M19.6514 13.6355C20.5363 13.3252 21.3338 12.8288 21.9969 12.1934C21.8948 15.4176 19.2489 18 15.9999 18H12.0582V18.9825C12.0582 19.3934 11.5902 19.6289 11.2602 19.384L8.4032 17.2635C8.13438 17.0639 8.13377 16.6617 8.40199 16.4614L11.259 14.3274C11.5888 14.0811 12.0582 14.3164 12.0582 14.728V16H15.9999C17.6264 16 19.0261 15.0292 19.6514 13.6355Z" fill="#111014"/>
<path id="Combined Shape_2" fill-rule="evenodd" clip-rule="evenodd" d="M17 12C19.7614 12 22 9.76142 22 7C22 4.23858 19.7614 2 17 2C14.581 2 12.5633 3.71776 12.1 6H8C4.68629 6 2 8.68629 2 12V13C2 15.7614 4.23858 18 7 18V16C5.34315 16 4 14.6569 4 13V12C4 9.79086 5.79086 8 8 8H12.1C12.5633 10.2822 14.581 12 17 12ZM15.61 6.588L16.73 5.668V9.5H17.69V4.5H16.818L15.05 5.924L15.61 6.588Z" fill="#111014"/>
</g>
</svg>
