<svg width="24" height="24" viewBox="0 0 24 24" fill="none" xmlns="http://www.w3.org/2000/svg">
<g id="Property 2=Music">
<path id="Combined Shape" fill-rule="evenodd" clip-rule="evenodd" d="M8 17.0402V8.00021C8 7.56282 8.28425 7.17619 8.70173 7.04573L17.7017 4.54573C18.3457 4.3445 19 4.82557 19 5.50021V17.0002C19 18.1048 17.8807 19.0002 16.5 19.0002C15.1193 19.0002 14 18.1048 14 17.0002C14 15.8956 15.1193 15.0002 16.5 15.0002C16.6712 15.0002 16.8384 15.014 17 15.0402V8.00021L10 9.87521V19.0002C10 20.1048 8.88071 21.0002 7.5 21.0002C6.11929 21.0002 5 20.1048 5 19.0002C5 17.8956 6.11929 17.0002 7.5 17.0002C7.67123 17.0002 7.83844 17.014 8 17.0402Z" fill="#111014"/>
</g>
</svg>
