<svg width="24" height="24" viewBox="0 0 24 24" fill="none" xmlns="http://www.w3.org/2000/svg">
<g id="Property 2=Notification#2">
<path id="Combined Shape" fill-rule="evenodd" clip-rule="evenodd" d="M20 10.793C19.5232 10.9278 19.02 11 18.5 11C15.4624 11 13 8.53757 13 5.5C13 4.97999 13.0722 4.47683 13.207 4H7C5.34315 4 4 5.34315 4 7V17C4 18.6569 5.34315 20 7 20H17C18.6569 20 20 18.6569 20 17V10.793Z" fill="#111014"/>
<path id="Oval" opacity="0.3" fill-rule="evenodd" clip-rule="evenodd" d="M18.5 8C19.8807 8 21 6.88071 21 5.5C21 4.11929 19.8807 3 18.5 3C17.1193 3 16 4.11929 16 5.5C16 6.88071 17.1193 8 18.5 8Z" fill="#111014"/>
</g>
</svg>
