<svg width="24" height="24" viewBox="0 0 24 24" fill="none" xmlns="http://www.w3.org/2000/svg">
<g id="Property 2=Anchor-left-up">
<path id="Oval Copy" opacity="0.3" fill-rule="evenodd" clip-rule="evenodd" d="M5 8C6.65685 8 8 6.65685 8 5C8 3.34315 6.65685 2 5 2C3.34315 2 2 3.34315 2 5C2 6.65685 3.34315 8 5 8Z" fill="#111014"/>
<g id="ic_type copy 6">
<path id="T" fill-rule="evenodd" clip-rule="evenodd" d="M15 11V18C15 18.5523 14.5523 19 14 19C13.4477 19 13 18.5523 13 18V11H11C10.4477 11 10 10.5523 10 10C10 9.44772 10.4477 9 11 9L17 9C17.5523 9 18 9.44772 18 10C18 10.5523 17.5523 11 17 11H15Z" fill="#111014"/>
</g>
</g>
</svg>
