<svg width="32" height="32" viewBox="0 0 32 32" fill="none" xmlns="http://www.w3.org/2000/svg">
<path opacity="0.3" d="M16 6.08281L10.3577 12.8537C9.88624 13.4194 9.04549 13.4958 8.47979 13.0244C7.91409 12.553 7.83765 11.7122 8.30907 11.1465L14.9757 3.1465C15.5088 2.50683 16.4913 2.50683 17.0243 3.1465L23.691 11.1465C24.1624 11.7122 24.086 12.553 23.5203 13.0244C22.9546 13.4958 22.1138 13.4194 21.6424 12.8537L16 6.08281Z" fill="#0E0A2D"/>
<path fill-rule="evenodd" clip-rule="evenodd" d="M5.66553 12C5.11324 12 4.66553 12.4477 4.66553 13V25C4.66553 26.6569 6.00867 28 7.66552 28H24.3332C25.9901 28 27.3332 26.6569 27.3332 25V13C27.3332 12.4477 26.8855 12 26.3332 12H5.66553ZM18.6666 20C18.6666 21.4728 17.4727 22.6667 15.9999 22.6667C14.5271 22.6667 13.3332 21.4728 13.3332 20C13.3332 18.5272 14.5271 17.3333 15.9999 17.3333C17.4727 17.3333 18.6666 18.5272 18.6666 20Z" fill="#0E0A2D"/>
</svg>
