<svg width="140" height="32" viewBox="0 0 140 32" fill="none" xmlns="http://www.w3.org/2000/svg">
<g clip-path="url(#clip0_1672_53168)">
<path d="M130.153 26.6802C127.583 26.6802 125.406 25.7403 123.881 24.1321C123.868 24.1173 123.853 24.1025 123.84 24.0877C123.825 24.0729 123.812 24.0581 123.797 24.0433C123.784 24.0285 123.769 24.0136 123.756 24.0005C123.741 23.9857 123.728 23.9708 123.715 23.956C123.7 23.9412 123.687 23.9264 123.672 23.9116C123.659 23.8968 123.644 23.882 123.631 23.8672L123.609 23.8458V26.3839H99.6992C97.8579 26.3839 96.3806 25.7881 95.3826 24.7182C95.3678 24.7033 95.3546 24.6885 95.3414 24.6737C95.3266 24.6589 95.3117 24.6441 95.2986 24.6293C95.2854 24.6144 95.2706 24.5997 95.2575 24.5848L95.2146 24.542C95.2014 24.5272 95.1866 24.5124 95.1734 24.4976C95.1586 24.4828 95.1454 24.468 95.1323 24.4531C95.1175 24.4383 95.1043 24.4235 95.0895 24.4087C95.0763 24.3939 95.0615 24.3791 95.0483 24.3643C95.0334 24.3511 95.0203 24.3363 95.0054 24.3215C94.9922 24.3067 94.9774 24.2918 94.9643 24.277C94.9495 24.2622 94.9363 24.2474 94.9231 24.2326C94.9083 24.2178 94.8951 24.2029 94.8803 24.1882C94.8671 24.1733 94.8522 24.1602 94.8391 24.1454C94.8243 24.1305 94.8111 24.1157 94.7963 24.1009C94.7831 24.0861 94.7683 24.0713 94.7551 24.0565C94.7403 24.0417 94.7271 24.0269 94.7139 24.012C94.6991 23.9972 94.6859 23.9824 94.6711 23.9676C94.658 23.9544 94.6432 23.9396 94.63 23.9248C94.6152 23.91 94.602 23.8952 94.5871 23.8804C94.574 23.8655 94.5591 23.8507 94.5459 23.8359C94.5311 23.8211 94.518 23.8063 94.5048 23.7915L94.462 23.7487C94.4488 23.7339 94.434 23.7191 94.4208 23.7043C94.4059 23.6894 94.3928 23.6746 94.3779 23.6598C94.3648 23.645 94.35 23.6302 94.3368 23.6154C94.322 23.6006 94.3088 23.5857 94.2956 23.571C94.2808 23.5578 94.2676 23.5429 94.2528 23.5282C94.2396 23.5133 94.2248 23.4985 94.2116 23.4837C94.1968 23.4689 94.1837 23.4541 94.1688 23.4393C94.1557 23.4244 94.1408 23.4096 94.1276 23.3948C94.1128 23.38 94.0996 23.3668 94.0848 23.352C94.0716 23.3372 94.0584 23.3224 94.0437 23.3076C94.0305 23.2928 94.0157 23.278 94.0025 23.2631C93.9876 23.2483 93.9745 23.2335 93.9596 23.2187C93.9464 23.2039 93.9316 23.1891 93.9184 23.1743C93.9036 23.1611 93.8905 23.1463 93.8757 23.1315C93.8625 23.1167 93.8493 23.1018 93.8345 23.087C93.8213 23.0722 93.8065 23.0574 93.7933 23.0426C93.7785 23.0278 93.7653 23.013 93.7505 22.9982C93.7373 22.9833 93.7225 22.9702 93.7094 22.9554C93.6945 22.9405 93.6813 22.9257 93.6665 22.9109C93.6533 22.8961 93.6385 22.8813 93.6253 22.8665C93.6121 22.8517 93.5973 22.8369 93.5842 22.8221C93.5825 22.8204 93.5793 22.8188 93.5776 22.8171C92.0673 25.2351 89.475 26.6803 86.3525 26.6803C83.7997 26.6803 81.6307 25.77 80.0958 24.208C80.0826 24.1932 80.0694 24.1784 80.0546 24.1635C80.0398 24.1504 80.0266 24.1339 80.0135 24.1208C79.9987 24.106 79.9855 24.0911 79.9706 24.0763C79.9558 24.0615 79.9426 24.0467 79.9294 24.0319C79.9146 24.0171 79.9014 24.0022 79.8866 23.9874C79.8735 23.9743 79.8603 23.9578 79.8455 23.943C79.8306 23.9298 79.8175 23.9134 79.8043 23.9002C79.7894 23.8854 79.7763 23.8706 79.7614 23.8558C79.7466 23.8409 79.7334 23.8261 79.7203 23.8113C79.7055 23.7965 79.6923 23.7817 79.6775 23.7669C79.6643 23.7537 79.6511 23.7373 79.6363 23.7241C79.6215 23.7093 79.6083 23.6945 79.5951 23.6797C79.5803 23.6648 79.5671 23.65 79.5523 23.6352C79.5375 23.6204 79.5243 23.6056 79.5111 23.5908C79.4963 23.5776 79.4831 23.5612 79.4683 23.5463C79.4551 23.5332 79.4419 23.5167 79.4271 23.5035C79.4123 23.4887 79.3992 23.4739 79.386 23.4591C79.3711 23.4443 79.358 23.4295 79.3431 23.4147C79.3283 23.3998 79.3151 23.385 79.3019 23.3702C79.2871 23.3571 79.2739 23.3406 79.2591 23.3274C79.246 23.3126 79.2328 23.2978 79.218 23.283C79.2032 23.2682 79.19 23.2534 79.1768 23.2386C79.162 23.2237 79.1488 23.2089 79.134 23.1941C79.1194 23.1801 79.1057 23.1653 79.0928 23.1497C79.078 23.1365 79.0648 23.12 79.05 23.1069C79.0368 23.092 79.0236 23.0773 79.0088 23.0624C78.994 23.0476 78.9808 23.0328 78.9676 23.018C78.9528 23.0032 78.9397 22.9884 78.9248 22.9736C78.91 22.9604 78.8968 22.9439 78.8836 22.9308C78.8688 22.9159 78.8556 22.9011 78.8408 22.8863C78.8326 22.8764 78.8243 22.8682 78.8144 22.8583V26.3841H72.2745L72.2679 26.3413H72.2317L72.2267 26.2968H72.1905L72.1855 26.2639C71.4675 26.5258 70.7084 26.6574 69.9441 26.6524C67.7438 26.6524 65.8877 25.9084 64.5784 24.4994C64.5751 24.4961 64.5718 24.4912 64.5685 24.4879C64.5587 24.4764 64.5471 24.4665 64.5372 24.4566C64.5338 24.4518 64.53 24.4474 64.5257 24.4434L64.4944 24.4122C64.4907 24.4081 64.4874 24.4037 64.4845 24.399C64.4746 24.3891 64.4631 24.3792 64.4532 24.3677C64.4499 24.3644 64.4466 24.3595 64.4433 24.3562C64.4318 24.3447 64.422 24.3348 64.4121 24.3233C64.4078 24.3199 64.4039 24.316 64.4005 24.3118C64.3906 24.3002 64.3791 24.2903 64.3692 24.2805C64.3659 24.2755 64.3626 24.2722 64.3593 24.2673L64.328 24.236C64.3247 24.2312 64.3208 24.2268 64.3165 24.2229L64.2852 24.1916C64.282 24.1883 64.2787 24.1834 64.2754 24.1801C64.2655 24.1685 64.254 24.1587 64.2441 24.1471C64.2408 24.1439 64.2375 24.1389 64.2342 24.1356C64.2227 24.1241 64.2128 24.1142 64.2029 24.1027C64.1986 24.0993 64.1947 24.0954 64.1913 24.0912C64.1815 24.0796 64.1699 24.0698 64.16 24.0599C64.1567 24.055 64.1534 24.0517 64.1502 24.0467C64.1403 24.0368 64.1288 24.027 64.1189 24.0154C64.1154 24.0112 64.1116 24.0073 64.1074 24.0039C64.0975 23.9924 64.0876 23.9825 64.0761 23.971C64.0728 23.9677 64.0695 23.9628 64.0662 23.9595C64.0563 23.9479 64.0448 23.9381 64.0349 23.9265C64.0316 23.9233 64.0283 23.9183 64.025 23.915L63.9937 23.8837C63.9894 23.8798 63.9855 23.8754 63.9822 23.8706L63.9509 23.8393C63.9476 23.8344 63.9443 23.8311 63.9411 23.8261C63.9311 23.8163 63.9196 23.8064 63.9097 23.7948C63.9063 23.7906 63.9024 23.7867 63.8982 23.7833C63.8883 23.7718 63.8784 23.7619 63.8669 23.7504C63.8636 23.7471 63.8603 23.7422 63.857 23.7389C63.8471 23.7274 63.8356 23.7175 63.8257 23.7076C63.8228 23.7029 63.8195 23.6985 63.8158 23.6945L63.7846 23.6632C63.7803 23.6592 63.7764 23.6548 63.773 23.65C63.7632 23.6401 63.7516 23.6302 63.7417 23.6187C63.738 23.6146 63.7347 23.6102 63.7318 23.6056C63.722 23.5957 63.7104 23.5858 63.7005 23.5743C63.6971 23.57 63.6933 23.5662 63.689 23.5627C63.6791 23.5512 63.6692 23.5413 63.6577 23.5298C63.6545 23.5265 63.6512 23.5216 63.6479 23.5183C63.638 23.5068 63.6265 23.4969 63.6166 23.487C63.6133 23.4821 63.61 23.4788 63.6067 23.4739C63.5952 23.464 63.5853 23.4525 63.5754 23.4426C63.5711 23.4386 63.5672 23.4342 63.5639 23.4294C63.554 23.4195 63.5424 23.4097 63.5325 23.3981C63.5293 23.3948 63.526 23.3899 63.5227 23.3866L63.5079 23.3718V26.384H56.9185L56.9135 26.3412H56.8773L56.8707 26.2968H56.8345L56.8296 26.2523H56.7933L56.7884 26.2079H56.7521L56.7455 26.1651H56.7094L56.7044 26.1207H56.6682L56.6616 26.0762H56.65C55.6856 26.4625 54.6554 26.6582 53.6164 26.6523C51.1296 26.6523 49.056 25.7454 47.6084 24.1635C47.5936 24.1487 47.5804 24.1356 47.5656 24.1207C47.5524 24.1059 47.5376 24.0911 47.5244 24.0763C47.5112 24.0615 47.4964 24.0467 47.4832 24.0319C47.4684 24.017 47.4553 24.0022 47.4404 23.9874C47.4272 23.9726 47.4124 23.9594 47.3992 23.943C47.3844 23.9298 47.3712 23.915 47.3564 23.9002C47.3432 23.8854 47.3284 23.8706 47.3153 23.8558C47.3021 23.8409 47.2873 23.8261 47.2741 23.8113C47.2593 23.7965 47.2461 23.7833 47.2312 23.7669C47.2181 23.752 47.2032 23.7389 47.19 23.7241C47.1752 23.7092 47.1621 23.6945 47.1473 23.6796C47.1341 23.6648 47.1193 23.65 47.1061 23.6352C47.0929 23.6204 47.0781 23.6056 47.0649 23.5908C47.05 23.5759 47.0369 23.5628 47.022 23.548C47.0089 23.5331 46.9941 23.5183 46.9809 23.5035C46.9661 23.4887 46.9529 23.4739 46.9381 23.4591C46.9249 23.4443 46.9101 23.4295 46.8969 23.4146C46.8837 23.3998 46.8689 23.3867 46.8557 23.3702C46.841 23.3554 46.8261 23.3422 46.813 23.3274C46.7998 23.3126 46.7849 23.2978 46.7718 23.283C46.7569 23.2682 46.7437 23.2533 46.7289 23.2385C46.7157 23.2237 46.7009 23.2089 46.6878 23.1941C46.6746 23.1793 46.6598 23.1661 46.6466 23.1513C46.6318 23.1365 46.6169 23.1217 46.6037 23.1069C46.5906 23.092 46.5757 23.0772 46.5625 23.0624C46.5478 23.0476 46.5346 23.0328 46.5198 23.018C46.5066 23.0032 46.4918 22.99 46.4786 22.9752C46.4652 22.9596 46.4509 22.9447 46.4358 22.9307C46.4226 22.9159 46.4077 22.9011 46.3946 22.8863C46.3815 22.8715 46.3666 22.8567 46.3535 22.8419C46.3386 22.8271 46.3254 22.8122 46.3106 22.7974C46.2974 22.7826 46.2826 22.7694 46.2694 22.7546C46.2562 22.7398 46.2414 22.725 46.2283 22.7102C46.2135 22.6954 46.1986 22.6806 46.1854 22.6658C46.1723 22.6509 46.1574 22.6361 46.1442 22.6213C46.1294 22.6065 46.1162 22.5933 46.1014 22.5769C46.0883 22.562 46.0735 22.5489 46.0603 22.5341C46.0471 22.5193 46.0323 22.5045 46.0191 22.4896C46.0043 22.4748 45.9911 22.4617 45.9779 22.4468C45.6119 23.0857 45.1603 23.6716 44.6357 24.1883C43.0167 25.7784 40.7407 26.6524 38.2291 26.6524C35.7176 26.6524 33.4414 25.7784 31.8225 24.1883C31.7172 24.0863 31.6151 23.9809 31.5162 23.8723C31.503 23.8575 31.4882 23.8427 31.475 23.8278C31.4602 23.813 31.447 23.7982 31.4322 23.7834C31.4191 23.7686 31.4042 23.7554 31.3911 23.7406C31.3779 23.7241 31.363 23.711 31.3499 23.6962C31.335 23.6814 31.3218 23.6665 31.307 23.6517C31.2938 23.6369 31.279 23.6221 31.2659 23.6073C31.2527 23.5925 31.2379 23.5777 31.2231 23.5629C31.2099 23.548 31.1951 23.5349 31.1819 23.5201C31.1687 23.5052 31.1539 23.4904 31.1407 23.4756C31.1259 23.4608 31.1127 23.446 31.0979 23.4312C31.0848 23.4164 31.0699 23.4016 31.0567 23.3867C31.0436 23.3719 31.0287 23.3588 31.0139 23.3423C31.0007 23.3275 30.9859 23.3143 30.9727 23.2995C30.9596 23.2847 30.9448 23.2699 30.9316 23.2551C30.9167 23.2403 30.9036 23.2254 30.8887 23.2106C30.8755 23.1958 30.8607 23.181 30.8475 23.1662C30.8343 23.1514 30.8195 23.1382 30.8048 23.1234C30.7916 23.1086 30.7768 23.0938 30.7636 23.0789C30.7504 23.0641 30.7356 23.0493 30.7224 23.0345C30.7076 23.0197 30.6944 23.0049 30.6795 22.9901C30.6664 22.9752 30.6516 22.9621 30.6384 22.9473C30.625 22.9317 30.6107 22.9168 30.5956 22.9028C30.5824 22.888 30.5676 22.8732 30.5544 22.8584C30.5412 22.8436 30.5264 22.8288 30.5132 22.814C30.4984 22.7991 30.4853 22.7843 30.4704 22.7695C30.4572 22.7547 30.4424 22.7415 30.4292 22.7267C30.416 22.7119 30.4012 22.6971 30.3864 22.6823C30.3732 22.6675 30.3584 22.6527 30.3453 22.6378C30.3321 22.623 30.3173 22.6082 30.3041 22.5934L30.2613 22.5506C30.2481 22.5341 30.2332 22.521 30.2201 22.5062C30.2069 22.4914 30.1921 22.4765 30.1773 22.4617C30.1641 22.4469 30.1493 22.4321 30.1361 22.4173C30.1229 22.4025 30.1081 22.3893 30.0949 22.3729C30.0801 22.358 30.0669 22.3449 30.0521 22.3301C30.0389 22.3152 30.0241 22.3004 30.0109 22.2856C29.9961 22.2708 29.9829 22.256 29.9681 22.2412C29.9549 22.2263 29.9401 22.2116 29.9269 22.1967C29.9137 22.1819 29.8989 22.1688 29.8857 22.1539C29.871 22.1391 29.8578 22.1243 29.843 22.1095C29.8298 22.0947 29.8149 22.0799 29.8018 22.0651C29.7869 22.0502 29.7737 22.0354 29.7589 22.0206C29.7457 22.0058 29.7309 21.991 29.7178 21.9762C29.7046 21.9614 29.6898 21.9482 29.6766 21.9334C29.6618 21.9186 29.6486 21.9038 29.6337 21.889C29.6206 21.8741 29.6057 21.8593 29.5926 21.8445C29.5778 21.8297 29.5646 21.8149 29.5498 21.8001C29.5366 21.7852 29.5218 21.7721 29.5086 21.7573C29.4954 21.7408 29.4806 21.7276 29.4674 21.7128C29.4526 21.698 29.4394 21.6832 29.4246 21.6684C29.4115 21.6536 29.3967 21.6388 29.3835 21.624C29.3703 21.6091 29.3555 21.596 29.3406 21.5795C29.3274 21.5647 29.3126 21.5515 29.2994 21.5367C29.2862 21.5219 29.2714 21.5071 29.2583 21.4923C29.2435 21.4775 29.2303 21.4627 29.2155 21.4478C29.2023 21.433 29.1874 21.4182 29.1743 21.4034C29.1611 21.3886 29.1462 21.3754 29.1314 21.359C29.1183 21.3442 29.1035 21.331 29.0903 21.3162C29.0771 21.3014 29.0623 21.2865 29.0491 21.2717C29.0343 21.2569 29.0211 21.2421 29.0063 21.2273C27.9395 20.0572 27.2178 18.6146 26.9213 17.0596C26.9114 17.211 26.9048 17.3822 26.9048 17.5732V26.3842H19.8247L18.2353 24.6658H18.2255C16.814 25.953 14.9168 26.6805 12.6901 26.6805C11.7236 26.6861 10.7635 26.524 9.85244 26.2015V31.7535H2.7987L0.247559 29.0639V6.44748H6.88466L7.1383 6.74211C8.09364 6.36549 9.11208 6.17442 10.139 6.17917C12.5749 6.17917 14.6154 7.0532 16.0581 8.57741C16.0713 8.59223 16.0861 8.60703 16.0993 8.62185C16.1141 8.63667 16.1273 8.65147 16.1421 8.6663C16.1552 8.68111 16.17 8.69591 16.1832 8.71073C16.1981 8.72555 16.2112 8.74035 16.2244 8.75518C16.2393 8.76835 16.2524 8.78315 16.2673 8.79798C16.2805 8.81276 16.2952 8.82759 16.3084 8.8424C16.3232 8.85721 16.3364 8.87203 16.3512 8.88685C16.3644 8.90166 16.3776 8.91648 16.3924 8.93128C16.4056 8.9461 16.4205 8.96092 16.4336 8.97408C16.4485 8.98889 16.4616 9.00372 16.4764 9.0185C16.4896 9.03333 16.5044 9.04815 16.5176 9.06295C16.5324 9.07778 16.5456 9.09258 16.5604 9.1074C16.5736 9.12222 16.5868 9.13702 16.6016 9.15183C16.6147 9.16501 16.6295 9.17981 16.6427 9.19463C16.6576 9.20946 16.6707 9.22425 16.6856 9.23907C16.6988 9.25389 16.7136 9.26868 16.7268 9.28351C16.7416 9.29832 16.7548 9.31313 16.7695 9.32795C16.7827 9.34277 16.7976 9.35757 16.8107 9.37075C16.8256 9.38557 16.8388 9.40037 16.8519 9.4152C16.8668 9.42999 16.88 9.44481 16.8948 9.45962C16.9079 9.47444 16.9227 9.48924 16.9359 9.50406C16.9507 9.51887 16.9639 9.5337 16.9787 9.5485C16.9919 9.56167 17.0067 9.57649 17.0199 9.5913C17.0331 9.60611 17.0479 9.62094 17.0611 9.63573C17.0759 9.65055 17.089 9.66537 17.1039 9.68017C17.117 9.695 17.1319 9.70979 17.1451 9.72461C17.1599 9.73944 17.1731 9.75424 17.1879 9.7674C17.2011 9.78223 17.2159 9.79704 17.229 9.81185C17.2422 9.82668 17.257 9.84146 17.2702 9.85629C17.2719 9.85629 17.2719 9.85793 17.2735 9.85793V6.44741H23.7245L23.9848 6.75355C24.5847 6.54809 25.2149 6.44461 25.8491 6.44741H29.4016L30.5313 7.63747V7.64077C32.0616 6.64626 33.8528 6.12837 35.678 6.15277C38.3938 6.15277 40.7193 7.18153 42.3185 8.9049C42.3316 8.91973 42.3465 8.93452 42.3596 8.94934C42.3744 8.96416 42.3876 8.97895 42.4024 8.99378C42.4156 9.00859 42.4304 9.02175 42.4436 9.03823C42.4568 9.05138 42.4716 9.0662 42.4848 9.08102C42.4996 9.09584 42.5128 9.11063 42.5276 9.12546C42.5407 9.14025 42.5556 9.15508 42.5687 9.16989C42.5836 9.18471 42.5968 9.19952 42.6099 9.21433C42.625 9.22775 42.6393 9.24204 42.6528 9.25713C42.666 9.27194 42.6807 9.28677 42.6939 9.30157C42.7087 9.31639 42.7219 9.33121 42.7368 9.346C42.7499 9.36083 42.7648 9.37563 42.778 9.39043C42.7928 9.40526 42.806 9.41842 42.8208 9.43323C42.8339 9.44806 42.8487 9.46286 42.8619 9.47768C42.8751 9.4925 42.8899 9.50731 42.9031 9.52212C42.9179 9.53695 42.9311 9.55173 42.9459 9.56656C42.9591 9.58137 42.9739 9.59618 42.9871 9.611C43.0019 9.62582 43.015 9.63897 43.0282 9.6538C43.0431 9.66861 43.0579 9.68342 43.0711 9.69825C43.0843 9.71306 43.0991 9.72785 43.1123 9.74268C43.1271 9.75747 43.1402 9.7723 43.155 9.78711C43.1682 9.80192 43.1831 9.81509 43.1962 9.8299C43.2111 9.84472 43.2243 9.85953 43.2391 9.87435C43.2523 9.88916 43.2671 9.90398 43.2803 9.91878C43.2934 9.93359 43.3082 9.94842 43.3214 9.96321C43.3362 9.97804 43.3494 9.99285 43.3642 10.0077C43.3774 10.0225 43.3922 10.0356 43.4054 10.0505C43.4203 10.0653 43.4334 10.0801 43.4482 10.0949C43.4614 10.1097 43.4762 10.1245 43.4894 10.1393C43.5026 10.1542 43.5174 10.169 43.5306 10.1838C43.5454 10.1986 43.5586 10.2117 43.5734 10.2266C43.5866 10.2414 43.6014 10.2562 43.6145 10.271C43.6294 10.2858 43.6426 10.3006 43.6574 10.3155C43.6706 10.3303 43.6854 10.3451 43.6986 10.3599C43.7118 10.3747 43.7266 10.3879 43.7398 10.4043L43.7825 10.4471C43.7941 10.4603 43.8056 10.4718 43.8171 10.485C45.1545 7.802 47.7418 6.17902 51.0653 6.17902C52.0307 6.17135 52.9904 6.32833 53.903 6.64321V0.246826H60.9568L63.5079 2.9364V6.44734H66.9714L69.3989 9.0036V6.44734H76.2634L77.9647 8.25465C79.4699 6.9362 81.4874 6.17902 83.8278 6.17902C85.9605 6.17902 87.81 6.79628 89.2445 7.91227V6.44734H91.3921V2.63684H98.4459L100.228 4.53137V0.676572H107.334L109.887 3.36617V6.44748H121.057L122.345 7.81366C123.754 6.77009 125.541 6.19498 127.574 6.17917C137.145 6.10471 138.897 14.5316 138.897 17.0615C138.897 17.0615 138.916 26.6802 130.153 26.6802Z" fill="#6D5DD3"/>
<path d="M10.0989 32H2.69203L0 29.1618V6.20049H6.99753L7.21128 6.44884C8.14798 6.10212 9.13958 5.9271 10.1384 5.93221C12.5955 5.93221 14.7043 6.78816 16.2371 8.40765L16.3672 8.54636C16.3739 8.55263 16.3867 8.56645 16.4003 8.58188C16.4103 8.59136 16.4199 8.60102 16.4296 8.61115L16.5264 8.71321C16.5452 8.73378 16.5554 8.7452 16.5666 8.75662C16.5861 8.77783 16.597 8.78877 16.6067 8.79825L16.7345 8.93279C16.7543 8.95433 16.7644 8.96574 16.7757 8.97716C16.7923 8.99371 16.8109 9.01251 16.8275 9.03132L16.9436 9.15332C16.9616 9.17277 16.9708 9.18193 16.9792 9.19029C16.998 9.2091 17.0125 9.22487 17.026 9.23997V6.20049H23.8384L24.0648 6.467C24.6424 6.28794 25.2439 6.19807 25.8486 6.20049H29.5073L30.5709 7.32086C32.1051 6.37655 33.8757 5.88593 35.6775 5.90584C38.3824 5.90584 40.805 6.91128 42.4991 8.737L42.5949 8.83828C42.6052 8.84905 42.6157 8.85997 42.6258 8.8717C42.6399 8.88585 42.6549 8.90128 42.6687 8.91671L42.7527 9.0056C42.7596 9.01218 42.772 9.02569 42.7852 9.04032C42.8033 9.0572 42.8212 9.07552 42.8374 9.09385L43.171 9.44668C43.1792 9.45407 43.1955 9.47079 43.2122 9.48943C43.2207 9.49747 43.2389 9.5158 43.2551 9.53396L43.3499 9.63394C43.3601 9.64423 43.3704 9.65468 43.3803 9.66561L43.5589 9.85448C43.5692 9.86477 43.5795 9.87522 43.5893 9.88615L43.7585 10.0638C45.2068 7.43305 47.85 5.9322 51.0647 5.9322C51.9418 5.9265 52.8149 6.0511 53.6554 6.30191V0H61.0624L63.7545 2.83806V6.20049H67.077L69.1514 8.38497V6.20049H76.3696L77.9829 7.91433C79.5541 6.61665 81.5692 5.9322 83.8273 5.9322C85.7836 5.9322 87.5599 6.44738 88.9969 7.42694V6.20048H91.1445V2.38992H98.5522L99.9802 3.9083V0.429665H107.44L110.134 3.26758V6.20049H121.163L122.375 7.48691C123.813 6.4842 125.604 5.94748 127.571 5.93221C127.614 5.93188 127.657 5.93173 127.699 5.93173C131.019 5.93173 133.721 6.94199 135.731 8.93551C138.43 11.6124 139.144 15.4213 139.144 17.0614C139.144 17.2506 139.12 21.7384 136.242 24.6193C134.713 26.1506 132.664 26.927 130.152 26.927C127.679 26.927 125.452 26.0529 123.856 24.4605V26.6307H99.6988C97.8211 26.6307 96.266 26.0276 95.2014 24.8863C95.1887 24.8741 95.1721 24.8556 95.1556 24.8368C95.148 24.8299 95.1298 24.8116 95.1136 24.7934L94.9885 24.6618C94.9811 24.6549 94.9656 24.6377 94.9503 24.6205L94.8738 24.5396C94.8628 24.5293 94.8521 24.5184 94.8413 24.5073L94.7794 24.4412C94.7704 24.4326 94.7543 24.4146 94.7382 24.3967L94.7052 24.3626L94.8598 24.1672L94.6853 24.3421C94.6743 24.3311 94.6634 24.32 94.6533 24.3085L94.5693 24.2196C94.5616 24.2127 94.5453 24.1945 94.5289 24.1762L94.496 24.1421C94.4794 24.1256 94.4608 24.1068 94.4442 24.0879L94.3609 24C94.3523 23.9921 94.3361 23.974 94.3197 23.9557L94.1518 23.7795C94.1447 23.7729 94.132 23.7589 94.1185 23.744C94.1085 23.7345 94.0987 23.7245 94.0889 23.7142L93.9097 23.5265C93.8896 23.5044 93.8793 23.4929 93.8676 23.481L93.7438 23.3495C93.733 23.3394 93.7224 23.3286 93.7118 23.3175L93.6907 23.2956C93.6786 23.282 93.6695 23.2717 93.6593 23.2614L93.6141 23.213C92.0142 25.5777 89.3855 26.927 86.3519 26.927C83.817 26.927 81.5323 26.0226 79.919 24.3807C79.9008 24.3607 79.8907 24.3493 79.8794 24.3379C79.8745 24.334 79.86 24.3188 79.8462 24.3037L79.7953 24.2506C79.777 24.2325 79.7607 24.2143 79.7443 24.196L79.7114 24.1617C79.7019 24.1523 79.6922 24.1418 79.6824 24.1309L79.6702 24.1174C79.6652 24.1135 79.6507 24.0982 79.6369 24.0831L79.5863 24.0301C79.5679 24.0119 79.5517 23.9938 79.5353 23.9754L79.4611 23.8984C79.4428 23.8803 79.4265 23.8621 79.4101 23.8438L79.3772 23.8096C79.3616 23.794 79.3473 23.7784 79.3333 23.7628C79.3228 23.7527 79.3127 23.7419 79.3025 23.7308L79.253 23.6789C79.234 23.6601 79.2173 23.6414 79.2006 23.6226L79.1689 23.59C79.1525 23.5736 79.1382 23.5578 79.1242 23.5423C79.1161 23.5345 79.1083 23.5263 79.1005 23.5181L79.0742 23.4915C79.0698 23.4865 79.0655 23.4817 79.061 23.4767V26.6308H72.0621L72.0556 26.588L72.01 26.5854C71.3418 26.7968 70.6446 26.9026 69.9437 26.899C67.6717 26.899 65.7536 26.1273 64.397 24.6671L64.3188 24.5859C64.3108 24.5782 64.3033 24.5699 64.2965 24.561C64.2878 24.5525 64.2802 24.5448 64.2732 24.537L64.2609 24.5232C64.258 24.5203 64.2553 24.5176 64.2526 24.5147L64.2486 24.5123L64.0909 24.3448C64.0787 24.3323 64.0707 24.3239 64.0641 24.3167L64.051 24.3019C64.048 24.2988 64.0451 24.2958 64.0422 24.293L64.039 24.2909L63.961 24.2075C63.9568 24.2035 63.9529 24.1996 63.9492 24.1959L63.9422 24.1913L63.9184 24.1633C63.9137 24.1578 63.9089 24.1533 63.9036 24.148L63.8783 24.1201C63.8661 24.108 63.8569 24.0987 63.8482 24.0887L63.8185 24.058C63.8101 24.0495 63.8032 24.0421 63.7973 24.0352L63.7545 23.991V26.6307H56.699L56.6939 26.588H56.6645L56.6577 26.5434H56.6132L56.6082 26.4991H56.5718L56.5668 26.4545H56.5398L56.5332 26.4118L56.4871 26.4036C55.5661 26.7343 54.5945 26.9019 53.6159 26.899C51.1043 26.899 48.9638 26.0106 47.4256 24.33L47.2467 24.1424C47.2377 24.1331 47.2287 24.1236 47.2199 24.1136C47.2107 24.1048 47.2017 24.0956 47.1925 24.0862L47.0891 23.9754C47.0767 23.9633 47.0624 23.9489 47.0465 23.931C47.0252 23.9095 47.015 23.899 47.0051 23.8881L46.7119 23.5787C46.6962 23.5623 46.6844 23.5501 46.6743 23.5383C46.6521 23.517 46.6391 23.5039 46.627 23.4903L46.5027 23.3582C46.4813 23.3363 46.4707 23.3257 46.4607 23.3143C46.4532 23.3074 46.435 23.289 46.4187 23.2709L46.324 23.1709C46.3137 23.1606 46.3034 23.1501 46.2936 23.1392L46.1149 22.9503C46.1046 22.9401 46.0943 22.9296 46.0845 22.9187L46.0434 22.8742C46.0374 22.8685 46.0297 22.8608 46.0215 22.8523C45.6776 23.402 45.2705 23.9094 44.8083 24.3642C43.1442 25.9988 40.8074 26.899 38.2286 26.899C35.6498 26.899 33.3131 25.9988 31.6488 24.3642C31.5405 24.2593 31.4339 24.1492 31.3329 24.0381L31.2365 23.9362C31.2258 23.9256 31.2152 23.9146 31.2052 23.9034L31.1899 23.8865C31.1823 23.8788 31.1749 23.8712 31.1679 23.8634L31.0809 23.7713C31.0717 23.761 31.0614 23.7507 31.0509 23.7402L31.0381 23.7267C31.017 23.7054 31.0067 23.6949 30.9969 23.684L30.8716 23.5507C30.8502 23.529 30.8398 23.5183 30.829 23.5064C30.8078 23.4848 30.7975 23.4744 30.7877 23.4634L30.6625 23.3302C30.6572 23.3241 30.6521 23.3196 30.6471 23.3148L30.4838 23.1429C30.4736 23.1326 30.4633 23.1222 30.4535 23.1113L30.2749 22.9227C30.2641 22.9119 30.2535 22.901 30.2434 22.8896C30.2341 22.8791 30.2226 22.8679 30.2112 22.8565L30.0674 22.7041C30.0509 22.6871 30.0424 22.6781 30.0342 22.6689C30.0261 22.6599 30.0158 22.6499 30.0057 22.6398L29.951 22.5813C29.9341 22.5638 29.9224 22.5514 29.9122 22.5398L29.7411 22.3596C29.7209 22.3392 29.7106 22.3288 29.7008 22.3178L29.5328 22.1401C29.5118 22.1187 29.5015 22.1082 29.4917 22.0973L29.3532 21.9521C29.3432 21.942 29.3331 21.9317 29.3236 21.9211L29.1985 21.7879C29.1774 21.7665 29.1671 21.756 29.1567 21.7445L29.1448 21.7323C29.1345 21.722 29.1242 21.7115 29.1144 21.7006L28.9892 21.5673C28.968 21.5458 28.9574 21.535 28.9466 21.523C28.9254 21.5014 28.9151 21.491 28.9053 21.48L28.8311 21.4014C28.1092 20.6173 27.5395 19.7057 27.1514 18.7132V26.6307H19.7161L18.2129 25.0055C16.7442 26.2636 14.8401 26.927 12.6896 26.927C11.8116 26.9315 10.9381 26.8026 10.0989 26.5447L10.0989 32ZM2.90433 31.5062H9.6048V25.8492L9.93596 25.9689C10.8199 26.2825 11.7517 26.4395 12.6896 26.4332C14.8029 26.4332 16.6594 25.7589 18.0585 24.4829L18.1291 24.4184H18.3331L18.4162 24.4977L19.9322 26.1369H26.6573V17.5727C26.6573 17.3919 26.6629 17.2136 26.6742 17.0429L26.7964 15.1868L27.163 17.0106C27.4521 18.5205 28.1525 19.9214 29.187 21.0591L29.2742 21.1515C29.2953 21.1729 29.3056 21.1833 29.3154 21.1942L29.3283 21.2076C29.3387 21.218 29.3487 21.2282 29.3582 21.2388L29.4833 21.372C29.5044 21.3934 29.5147 21.4039 29.5245 21.4148L29.5369 21.4273C29.5475 21.4381 29.5576 21.4484 29.5674 21.4593L29.6601 21.5572C29.6737 21.5713 29.6876 21.586 29.7006 21.6022C29.7125 21.613 29.7239 21.6244 29.7345 21.6364L29.8714 21.7798C29.8817 21.7901 29.892 21.8006 29.9018 21.8115L30.0805 22.0004C30.0908 22.0106 30.1011 22.0211 30.1109 22.032L30.2868 22.2178C30.3042 22.2357 30.3127 22.2445 30.3208 22.2537L30.3611 22.2971C30.3719 22.3074 30.3888 22.3244 30.4041 22.3415C30.4208 22.3587 30.4327 22.3712 30.443 22.3832L30.5704 22.5176C30.5787 22.5255 30.5969 22.5438 30.6132 22.562L30.6247 22.5739C30.6349 22.584 30.6449 22.5943 30.6543 22.6049L30.7796 22.7382C30.7981 22.7552 30.8154 22.7736 30.8313 22.7932C30.8426 22.8033 30.8534 22.8141 30.8636 22.8255L30.9887 22.9587C31.004 22.9725 31.0186 22.9872 31.0323 23.0026L31.1566 23.1349C31.1777 23.1563 31.188 23.1667 31.1978 23.1776L31.21 23.1903C31.2211 23.2013 31.2316 23.212 31.2415 23.2233L31.3659 23.3554C31.3869 23.3768 31.3972 23.3873 31.407 23.3982C31.4186 23.4094 31.435 23.4262 31.4498 23.4427L31.5349 23.5327C31.5566 23.5551 31.5703 23.5695 31.5832 23.5856C31.5951 23.5963 31.6065 23.6078 31.6171 23.6199L31.7002 23.7078C31.7926 23.8095 31.892 23.9121 31.9939 24.0108C33.5666 25.5552 35.7803 26.4052 38.2286 26.4052C40.677 26.4052 42.8909 25.5552 44.462 24.0119C44.9705 23.5107 45.4083 22.9426 45.7633 22.3233L45.9341 22.0271L46.1619 22.2823C46.1719 22.2936 46.182 22.3035 46.1932 22.3148L46.2442 22.3694C46.2656 22.3913 46.2762 22.4019 46.2862 22.4133C46.2962 22.4242 46.3066 22.4347 46.3184 22.4464L46.3703 22.5024C46.3784 22.5114 46.3887 22.5213 46.3988 22.5315L46.4543 22.5911C46.4745 22.6115 46.4848 22.622 46.4947 22.6329L46.6198 22.7661C46.6383 22.7832 46.6556 22.8016 46.6714 22.8211C46.6828 22.8313 46.6936 22.8421 46.7037 22.8534L46.7877 22.9423C46.7978 22.9537 46.8092 22.965 46.8207 22.9764L46.8412 22.9978C46.8519 23.0085 46.8625 23.0191 46.8724 23.0306L47.3849 23.5707C47.3952 23.5809 47.4054 23.5914 47.4153 23.6023C47.4246 23.6129 47.4334 23.6216 47.4429 23.6311L47.7825 23.9887C49.2322 25.5724 51.2468 26.4052 53.6159 26.4052C54.6227 26.4097 55.6209 26.2203 56.5561 25.8474L56.6009 25.8291H56.8626L56.8718 25.8736H56.9247L56.9297 25.918H56.9569L56.9634 25.9607H57.0088L57.0138 26.0053H57.0498L57.0548 26.0496H57.0826L57.0894 26.0942H57.132L57.1371 26.1369H63.2604V22.7756L63.803 23.3241C63.812 23.3328 63.8196 23.3405 63.8268 23.3482L63.8391 23.3622C63.8431 23.3662 63.8469 23.37 63.8506 23.3741L63.9904 23.5202C63.9985 23.528 64.006 23.5364 64.0129 23.5453C64.0216 23.5538 64.0292 23.5615 64.0362 23.5692L64.0483 23.5829C64.0517 23.5862 64.0549 23.5895 64.058 23.5927L64.061 23.5946L64.2181 23.7613C64.2304 23.7737 64.2384 23.782 64.245 23.7893L64.2582 23.8042C64.2612 23.8073 64.2641 23.8102 64.2669 23.8131L64.2714 23.8159L64.3468 23.8971C64.3515 23.9016 64.3557 23.906 64.3598 23.9101L64.3671 23.9148L64.3909 23.9428C64.3955 23.9482 64.4004 23.9527 64.4057 23.958L64.4309 23.986C64.4432 23.9981 64.4523 24.0074 64.461 24.0174L64.4908 24.0481C64.4993 24.0567 64.5059 24.064 64.5117 24.0707L64.5574 24.1191C64.5609 24.1225 64.5643 24.1259 64.5675 24.1292L64.5752 24.1339L64.6001 24.1633C64.6056 24.1697 64.6111 24.1749 64.6175 24.1813L64.7003 24.2691C64.7074 24.2763 64.7135 24.2827 64.7187 24.2887C64.7315 24.3007 64.7438 24.3134 64.7553 24.3266C66.0198 25.688 67.8126 26.4052 69.9437 26.4052C70.6786 26.4103 71.4086 26.2839 72.099 26.0321L72.3838 25.9263L72.4025 26.0496H72.4472L72.4522 26.0942H72.4792L72.4858 26.1369H78.5669V22.2688L78.9871 22.6821C79.001 22.6957 79.0127 22.7076 79.0241 22.7208L79.1417 22.8431C79.1618 22.8652 79.1721 22.8767 79.1838 22.8886C79.1985 22.9033 79.2125 22.9185 79.2263 22.934C79.2343 22.9417 79.2421 22.9495 79.2496 22.9577L79.3638 23.0773C79.3728 23.0876 79.382 23.0979 79.3921 23.1082C79.4077 23.1236 79.4219 23.1392 79.4357 23.1547C79.4437 23.1625 79.4516 23.1706 79.4595 23.1789L79.4859 23.2056C79.498 23.2193 79.5071 23.2296 79.5173 23.2398L79.5708 23.2955C79.5806 23.3066 79.5898 23.3172 79.6004 23.3278C79.6064 23.3326 79.6208 23.3479 79.6347 23.363C79.6511 23.38 79.6594 23.389 79.6675 23.3979L79.6959 23.4271C79.7057 23.4382 79.7156 23.4493 79.7265 23.4604L79.7702 23.5059C79.7891 23.5264 79.7992 23.5379 79.8104 23.5493C79.8154 23.5531 79.8299 23.5684 79.8437 23.5835L79.8954 23.6375C79.9142 23.6581 79.9243 23.6695 79.9356 23.6809L80.0195 23.7682C80.0305 23.7791 80.0408 23.7905 80.0507 23.8016L80.1035 23.8571C80.1233 23.8786 80.1334 23.89 80.1447 23.9015L80.2288 23.9887C80.2471 24.0069 80.2634 24.0251 80.2798 24.0434C81.8133 25.6037 83.9157 26.4331 86.3519 26.4331C89.3231 26.4331 91.8802 25.0675 93.3676 22.6862L93.5321 22.4228L93.8943 22.792C93.9146 22.8124 93.9247 22.8229 93.9345 22.8336L94.0185 22.9225C94.0259 22.9294 94.0413 22.9466 94.0566 22.9638L94.2277 23.1431C94.2367 23.1517 94.2528 23.1698 94.2689 23.1876L94.4796 23.4065C94.4895 23.4178 94.4997 23.4292 94.5109 23.4406L94.6788 23.6168C94.6986 23.6383 94.7088 23.6497 94.72 23.6611L94.8041 23.75C94.8246 23.7724 94.8355 23.7831 94.8453 23.7929L94.8881 23.8373C94.9079 23.8588 94.918 23.8702 94.9293 23.8817L95.0134 23.9707L94.8598 24.1672L95.0341 23.9923C95.0444 24.0025 95.0547 24.013 95.0644 24.0238L95.0973 24.0578C95.1174 24.0799 95.1277 24.0914 95.1395 24.1033L95.3193 24.292C95.3283 24.3023 95.3375 24.3128 95.3476 24.3229L95.4825 24.4648C95.4927 24.4762 95.5041 24.4875 95.5155 24.4989C95.5359 24.5212 95.5457 24.5323 95.5567 24.5434C96.5315 25.5879 97.9616 26.1369 99.6988 26.1369H123.362V23.2496L123.889 23.7814C123.909 23.8029 123.919 23.8143 123.93 23.8257C123.949 23.8447 123.967 23.8624 123.982 23.8799L124.066 23.9688C125.571 25.5556 127.735 26.4331 130.152 26.4331C132.527 26.4331 134.458 25.7062 135.89 24.2727C138.623 21.5393 138.65 17.1062 138.65 17.0617C138.65 15.4925 137.967 11.8483 135.383 9.28605C133.444 7.36309 130.821 6.4004 127.575 6.42595C125.63 6.44106 123.872 6.98935 122.491 8.01184L122.315 8.14237L120.95 6.69424H109.64V3.4646L107.228 0.923467H100.474V5.15469L98.3386 2.88371H91.6386V6.69428H89.491V8.41728L89.0923 8.10705C87.6784 7.00725 85.858 6.426 83.8273 6.426C81.6028 6.426 79.6316 7.1225 78.1269 8.44027L77.9475 8.59731L76.156 6.69428H69.6455V9.62252L66.8647 6.69428H63.2604V3.03482L60.8501 0.493802H54.1495V6.99311L53.8198 6.87593C52.9339 6.5699 52.002 6.41773 51.0647 6.42601C47.9196 6.42601 45.3584 7.94567 44.0378 10.5952L43.8737 10.9242L43.2096 10.2036C43.1993 10.1933 43.189 10.1829 43.1792 10.172L43.0005 9.98308C42.9902 9.9728 42.9799 9.96234 42.9701 9.95141L42.8862 9.86253C42.8761 9.85111 42.8646 9.83986 42.8531 9.82829C42.8336 9.80707 42.8238 9.79743 42.8128 9.7865L42.4677 9.42145C42.4606 9.41337 42.4531 9.40575 42.445 9.39862L42.4249 9.37853C42.4149 9.36728 42.4048 9.35587 42.3936 9.34446L42.3096 9.25557C42.2898 9.23403 42.2784 9.22294 42.2684 9.21282L42.1327 9.06815C40.5372 7.34901 38.2432 6.39966 35.6775 6.39966C33.9013 6.37751 32.1582 6.88085 30.6675 7.84634L30.2838 8.10128V7.73591L29.295 6.6943H25.8486C25.242 6.69122 24.6392 6.79012 24.0655 6.98685L23.9056 7.04247L23.6097 6.6943H17.52V10.1048L17.159 10.1032L17.0131 9.94259C17.0023 9.93246 16.9919 9.92185 16.9813 9.91076L16.8341 9.75452C16.8249 9.74423 16.8135 9.73314 16.8035 9.72301L16.6659 9.57835C16.6565 9.56774 16.6472 9.5568 16.6364 9.5462C16.6141 9.52369 16.5985 9.50794 16.5845 9.49219L16.4675 9.36922C16.4471 9.34687 16.4362 9.33611 16.4264 9.3263C16.408 9.30814 16.3918 9.28998 16.3754 9.27166L16.2575 9.14756C16.2429 9.1331 16.2242 9.11413 16.2075 9.09548C16.1989 9.08761 16.1827 9.06944 16.1663 9.05112L16.0386 8.91851C16.0288 8.90742 16.0196 8.89681 16.009 8.8862L15.8731 8.74169C14.441 7.22862 12.4562 6.42603 10.1384 6.42603C9.14284 6.4201 8.15537 6.60519 7.2296 6.97127L7.06571 7.03685L6.77074 6.69431H0.49406V28.965L2.90433 31.5062ZM64.6643 24.2331L64.6723 24.241C64.6698 24.2384 64.6672 24.2358 64.6643 24.2331ZM63.8765 24.1177C63.8778 24.1194 63.8794 24.1212 63.8809 24.123L63.8765 24.1177ZM64.4284 23.9831L64.4327 23.9884C64.4314 23.9866 64.4299 23.9848 64.4284 23.9831Z" fill="white"/>
<path d="M16.7434 15.0987C16.7434 19.5272 14.1655 22.3453 10.1374 22.3453C8.09641 22.3453 6.37774 21.5133 5.65271 20.2787V27.4179H1.89307V8.09372H5.41097L5.62585 9.99931C6.32402 8.79149 7.98897 7.82544 10.1374 7.82544C13.9506 7.82543 16.7434 10.4288 16.7434 15.0987ZM12.8764 15.0987C12.8764 12.6832 11.3726 11.2071 9.30491 11.1803C7.26393 11.1803 5.73328 12.6832 5.73328 15.1256C5.73328 17.541 7.26393 18.9905 9.30491 18.9905C11.3726 18.9905 12.8764 17.541 12.8764 15.0987Z" fill="white"/>
<path d="M27.7542 8.09375V11.4486H25.6327C23.4039 11.4486 22.7057 12.7638 22.7057 14.884V22.0501H18.9192V8.09375H22.4371L22.84 9.70407C23.2964 8.84522 24.2901 8.09375 25.8476 8.09375H27.7542Z" fill="white"/>
<path d="M35.6766 7.79883C39.9464 7.79883 42.981 10.751 42.981 15.0721C42.981 19.42 39.9464 22.3187 35.6766 22.3187C31.4068 22.3187 28.3723 19.42 28.3723 15.0721C28.3723 10.751 31.4068 7.79883 35.6766 7.79883ZM35.6766 19.1247C37.7713 19.1247 39.1407 17.5144 39.1407 15.0453C39.1407 12.5492 37.7713 10.9926 35.6766 10.9926C33.582 10.9926 32.2124 12.5492 32.2124 15.0453C32.2124 17.5144 33.582 19.1247 35.6766 19.1247Z" fill="white"/>
<path d="M59.3085 1.8938V22.05H55.8176L55.5759 20.1444C54.8777 21.3522 53.2127 22.3184 51.0643 22.3184C47.0631 22.3184 44.4583 19.5271 44.4583 15.0718C44.4583 10.4288 47.251 7.82536 51.0643 7.82536C53.159 7.82536 54.824 8.65737 55.549 9.86503V1.8938H59.3085ZM55.4684 15.0718C55.4684 12.6563 53.9378 11.1802 51.9236 11.1802C49.829 11.1802 48.3252 12.6832 48.3252 15.0718C48.3252 17.5141 49.829 18.9635 51.9236 18.9635C53.9378 18.9635 55.4684 17.5141 55.4684 15.0718Z" fill="white"/>
<path d="M74.6158 8.09375V22.0501H71.1785L70.9906 20.5203C70.2654 21.567 69.0571 22.3185 67.3921 22.3185C63.8205 22.3185 61.7527 19.9565 61.7527 16.3871V8.09375H65.3243V15.9039C65.3243 18.0779 66.4522 19.1246 68.2246 19.0709C70.0776 19.0442 71.0443 17.8095 71.0443 15.7429V8.09375H74.6158Z" fill="white"/>
<path d="M83.8008 11.0461C81.8406 11.0461 80.5783 12.6027 80.5783 15.0719C80.5783 17.7826 81.9211 19.0708 83.6935 19.0708C85.1973 19.0708 86.1909 18.212 86.6474 16.5748H90.6488C89.9773 20.1981 87.3187 22.3453 83.8008 22.3453C79.5847 22.3453 76.7383 19.4467 76.7383 15.0719C76.7383 10.724 79.5847 7.82544 83.8277 7.82544C87.3724 7.82544 90.031 9.8651 90.6488 13.5152H86.6474C86.2984 11.9049 85.1973 11.0461 83.8008 11.0461Z" fill="white"/>
<path d="M93.0389 17.9167V11.4215H90.8906V8.09353H91.938C92.7973 8.09353 93.0389 7.66418 93.0389 6.7248V4.28247H96.7985V8.09353H99.9941V11.4215H96.7985V17.0847C96.7985 18.2923 97.1207 18.7487 98.356 18.7487H99.9941V22.0499H97.1475C94.3817 22.0499 93.0389 20.4395 93.0389 17.9167Z" fill="white"/>
<path d="M101.874 2.323H105.687V5.9463H101.874V2.323ZM101.927 8.09335H105.687V22.0497H101.927V8.09335Z" fill="white"/>
<path d="M119.409 18.7489V22.0501H107.809V18.8026L114.656 11.4218H107.809V8.09375H119.409V11.3681L112.562 18.7489H119.409Z" fill="white"/>
<path d="M134.502 16.0918H124.405C124.458 18.1585 125.909 19.3124 127.708 19.3124C129.077 19.3124 130.179 18.6952 130.608 17.4874H134.395C133.777 20.386 131.118 22.3453 127.601 22.3453C123.411 22.3453 120.618 19.4467 120.618 15.0719C120.618 10.724 123.411 7.82544 127.574 7.82544C131.736 7.82544 134.502 10.5897 134.502 14.8571V16.0918ZM124.432 13.6226H130.742C130.581 11.6902 129.212 10.7508 127.574 10.7508C125.962 10.7508 124.593 11.6902 124.432 13.6226Z" fill="white"/>
</g>
<defs>
<clipPath id="clip0_1672_53168">
<rect width="140" height="32" fill="white"/>
</clipPath>
</defs>
</svg>
