<svg width="1440" height="780" viewBox="0 0 1440 780" fill="none" xmlns="http://www.w3.org/2000/svg">
<path d="M5.65059 777.874C26.6951 684.498 118.194 491.116 315.835 464.596C562.885 431.446 741.486 612.603 1017.93 555.776C1239.09 510.315 1424.76 167.923 1489.94 2.40889M-57.448 452.135C-20.5783 522.986 103.497 654.662 304.842 614.557C556.523 564.425 891.853 97.3608 1213.92 135.056C1471.57 165.212 1690.58 206.899 1767.88 223.973M-52.8108 635.839C-39.2397 523.511 47.9111 288.491 287.945 247.04C587.987 195.227 812.504 399.771 1136.59 336.576C1395.86 286.021 1566.74 133.341 1619.77 63.3206" stroke="white" stroke-opacity="0.8" stroke-width="3" stroke-linecap="round"/>
</svg>
