<svg width="689" height="293" viewBox="0 0 689 293" fill="none" xmlns="http://www.w3.org/2000/svg">
<g clip-path="url(#clip0_4122_104442)">
<path d="M220.967 233.748H189.569V288.852H113.445V233.748H0V177.459L118.481 4.14764H189.569V176.274H220.967V233.748ZM113.445 176.274V143.093C113.445 136.872 113.742 128.576 114.038 117.911C114.63 107.246 114.926 101.913 115.223 101.321H113.149C108.706 111.393 103.671 120.577 98.0429 129.465L66.6455 176.274H113.445Z" fill="#6D5DD3"/>
<path d="M446.674 146.944C446.674 197.308 438.084 234.341 421.496 257.745C404.613 281.15 378.843 293 343.891 293C309.828 293 284.355 280.853 266.879 256.264C249.699 231.674 241.109 195.235 241.109 146.944C241.109 96.2841 249.403 59.2518 266.583 35.5511C283.466 11.8504 309.236 0 344.188 0C377.955 0 403.724 12.4429 420.904 37.0324C438.084 61.6218 446.674 98.0617 446.674 146.944ZM317.529 146.944C317.529 179.237 319.603 201.456 323.454 213.306C327.6 225.453 334.117 231.378 343.595 231.378C353.074 231.378 359.886 225.157 364.033 212.714C367.884 200.271 369.957 178.348 369.957 146.944C369.957 115.245 367.884 93.3215 364.033 80.5824C359.886 67.8433 353.37 61.6218 343.891 61.6218C334.413 61.6218 327.6 67.8433 323.75 79.9899C319.603 92.1365 317.529 114.356 317.529 146.944Z" fill="#6D5DD3"/>
<path d="M688.375 233.748H656.977V288.852H580.854V233.748H467.408V177.459L585.889 4.14764H656.977V176.274H688.375V233.748ZM581.15 176.274V143.093C581.15 136.872 581.446 128.576 581.742 117.911C582.335 107.246 582.631 101.913 582.927 101.321H580.854C576.411 111.393 571.375 120.577 565.747 129.465L534.054 176.57H581.15V176.274Z" fill="#6D5DD3"/>
</g>
<g clip-path="url(#clip1_4122_104442)">
<path d="M474.403 32.2858C468.838 44.4643 453.535 35.6224 422.317 46.6331C396.274 55.8087 385.423 71.88 377.966 67.8761C370.51 63.8165 385.312 45.1316 422.985 30.395C451.031 19.3843 480.914 18.1052 474.403 32.2858Z" fill="#231F20"/>
<path d="M232.949 34.677C238.736 46.7443 253.872 37.6243 285.313 48.0233C311.522 56.6985 322.708 72.6029 330.053 68.3765C337.398 64.2058 322.262 45.7989 284.311 31.7853C256.098 21.3862 226.16 20.6633 232.949 34.677Z" fill="#231F20"/>
<path d="M436.395 155.517C459.814 155.517 478.799 136.545 478.799 113.142C478.799 89.7396 459.814 70.7678 436.395 70.7678C412.977 70.7678 393.992 89.7396 393.992 113.142C393.992 136.545 412.977 155.517 436.395 155.517Z" fill="white"/>
<path d="M461.38 78.9424C465.721 85.6156 468.225 93.5122 468.225 102.076C468.225 125.488 449.249 144.451 425.822 144.451C416.473 144.451 407.847 141.392 400.836 136.276C408.404 147.899 421.481 155.517 436.395 155.517C459.822 155.517 478.798 136.554 478.798 113.143C478.742 99.0732 471.897 86.6166 461.38 78.9424Z" fill="#EFEFEF"/>
<path d="M436.396 157.464C411.967 157.464 392.045 137.555 392.045 113.143C392.045 88.7298 411.967 68.8215 436.396 68.8215C460.825 68.8215 480.747 88.7298 480.747 113.143C480.747 137.555 460.881 157.464 436.396 157.464ZM436.396 72.7142C414.081 72.7142 395.94 90.843 395.94 113.143C395.94 135.442 414.081 153.571 436.396 153.571C458.71 153.571 476.851 135.442 476.851 113.143C476.907 90.843 458.71 72.7142 436.396 72.7142Z" fill="#231F20"/>
<path d="M457.54 127.601C466.576 127.601 473.9 120.281 473.9 111.252C473.9 102.222 466.576 94.9025 457.54 94.9025C448.504 94.9025 441.18 102.222 441.18 111.252C441.18 120.281 448.504 127.601 457.54 127.601Z" fill="#231F20"/>
<path d="M453.478 114.978C457.166 114.978 460.156 111.99 460.156 108.304C460.156 104.619 457.166 101.631 453.478 101.631C449.79 101.631 446.801 104.619 446.801 108.304C446.801 111.99 449.79 114.978 453.478 114.978Z" fill="white"/>
<path d="M265.335 154.127C288.753 154.127 307.738 135.155 307.738 111.752C307.738 88.3493 288.753 69.3775 265.335 69.3775C241.916 69.3775 222.932 88.3493 222.932 111.752C222.932 135.155 241.916 154.127 265.335 154.127Z" fill="white"/>
<path d="M290.267 77.5522C294.607 84.2254 297.111 92.122 297.111 100.686C297.111 124.098 278.136 143.061 254.708 143.061C245.36 143.061 236.734 140.002 229.723 134.886C237.291 146.508 250.368 154.127 265.281 154.127C288.709 154.127 307.684 135.164 307.684 111.752C307.684 97.683 300.84 85.2263 290.267 77.5522Z" fill="#EFEFEF"/>
<path d="M265.335 156.073C240.906 156.073 220.984 136.221 220.984 111.752C220.984 87.2839 240.906 67.4312 265.335 67.4312C289.764 67.4312 309.686 87.3395 309.686 111.752C309.686 136.165 289.82 156.073 265.335 156.073ZM265.335 71.3239C243.021 71.3239 224.88 89.4527 224.88 111.752C224.88 134.052 243.021 152.181 265.335 152.181C287.65 152.181 305.791 134.052 305.791 111.752C305.791 89.4527 287.65 71.3239 265.335 71.3239Z" fill="#231F20"/>
<path d="M286.427 126.266C295.462 126.266 302.787 118.947 302.787 109.917C302.787 100.888 295.462 93.5678 286.427 93.5678C277.391 93.5678 270.066 100.888 270.066 109.917C270.066 118.947 277.391 126.266 286.427 126.266Z" fill="#231F20"/>
<path d="M282.42 113.587C286.108 113.587 289.098 110.6 289.098 106.914C289.098 103.229 286.108 100.241 282.42 100.241C278.732 100.241 275.742 103.229 275.742 106.914C275.742 110.6 278.732 113.587 282.42 113.587Z" fill="white"/>
<path d="M256.154 260.842C255.82 260.842 255.486 260.787 255.152 260.731C252.926 260.175 251.535 257.951 252.091 255.671C252.592 253.613 263.555 235.651 281.251 217.189C297.611 200.116 323.821 178.651 355.484 173.368C406.624 164.748 428.048 188.994 428.938 190.051C430.441 191.775 430.218 194.444 428.493 195.946C426.768 197.447 424.097 197.225 422.595 195.501C422.539 195.445 417.753 190.051 407.347 185.658C397.665 181.598 381.082 177.594 356.875 181.654C327.994 186.492 303.732 206.233 288.429 221.915C271.234 239.544 261.162 256.115 260.049 258.229C259.381 259.786 257.823 260.842 256.154 260.842Z" fill="#231F20"/>
<path d="M430.11 179.096C434.45 186.158 436.064 194.833 434.617 203.008C434.172 205.344 433.504 207.624 432.614 209.848C432.336 210.515 432.892 211.294 433.504 211.461C434.228 211.683 434.84 211.183 435.118 210.571C438.457 202.396 438.568 192.943 435.619 184.657C434.784 182.266 433.671 179.986 432.391 177.817C431.501 176.315 429.275 177.65 430.11 179.096Z" fill="#231F20"/>
<path d="M244.247 242.88C240.463 251.444 240.519 261.287 244.358 269.795C244.636 270.463 245.582 270.574 246.139 270.24C246.807 269.851 246.918 269.128 246.584 268.461C243.134 260.898 243.134 251.778 246.473 244.215C246.751 243.548 246.64 242.825 246.028 242.435C245.471 242.102 244.525 242.213 244.247 242.88Z" fill="#231F20"/>
<path d="M327.216 34.3989C329.887 34.7326 331.612 37.5687 332.781 39.6262C334.506 42.6292 336.175 45.6877 337.455 48.8575C339.904 54.6965 341.128 61.1473 339.18 67.32C338.234 70.3785 336.453 73.0478 333.949 74.9941C333.393 75.439 333.504 76.3844 333.949 76.8292C334.506 77.3853 335.229 77.2741 335.786 76.8292C340.905 72.8253 343.075 65.9853 342.797 59.7014C342.463 52.0829 338.846 44.9648 335.174 38.4584C333.393 35.3443 331.056 32.1745 327.272 31.7296C326.548 31.674 325.992 32.397 325.992 33.0087C325.936 33.8428 326.548 34.2877 327.216 34.3989Z" fill="#231F20"/>
<path d="M375.296 78.9424C370.399 77.4966 366.726 73.3814 364.89 68.7658C362.664 63.1492 362.998 56.9765 364.611 51.2487C365.613 47.6341 367.06 44.1862 368.729 40.794C369.007 40.1823 368.896 39.4038 368.284 39.0145C367.728 38.6809 366.837 38.8477 366.503 39.4594C363.387 45.8545 360.772 52.7502 360.716 59.9238C360.66 65.8741 362.608 71.88 366.615 76.3288C368.785 78.72 371.512 80.4995 374.572 81.3892C376.186 81.8897 376.854 79.3873 375.296 78.9424Z" fill="#231F20"/>
</g>
<defs>
<clipPath id="clip0_4122_104442">
<rect width="688.373" height="293" fill="white"/>
</clipPath>
<clipPath id="clip1_4122_104442">
<rect width="259.817" height="248.52" fill="white" transform="translate(220.986 21.8867)"/>
</clipPath>
</defs>
</svg>
